999
dxflib 2.2.0.0
  0
SECTION
  2
HEADER
  9
$ACADVER
  1
AC1015
  9
$HANDSEED
  5
FFFF
  9
$SPLINESEGS
 70
8
  9
$DIMEXE
 40
0.05
  9
$DIMLUNIT
 70
2
  9
$GRIDMODE
 70
1
  9
$INSUNITS
 70
4
  9
$DIMADEC
 70
2
  9
$DIMASZ
 40
0.1
  9
$DIMGAP
 40
0.025
  9
$DIMTXT
 40
0.1
  9
$GRIDUNIT
 10
0.0
 20
0.0
  9
$DIMEXO
 40
0.025
  9
$LUPREC
 70
4
  9
$DIMAUNIT
 70
0
  9
$AUPREC
 70
2
  9
$PLIMMIN
 10
0.0
 20
0.0
  9
$LUNITS
 70
2
  9
$PLIMMAX
 10
210.0
 20
297.0
  9
$DIMSTYLE
  2
Standard
  9
$AUNITS
 70
0
  0
ENDSEC
  0
SECTION
  2
TABLES
  0
TABLE
  2
VPORT
  5
8
100
AcDbSymbolTable
 70
1
  0
VPORT
  5
30
100
AcDbSymbolTableRecord
100
AcDbViewportTableRecord
  2
*Active
 70
0
 10
0.0
 20
0.0
 11
1.0
 21
1.0
 12
286.30555555555549
 22
148.5
 13
0.0
 23
0.0
 14
10.0
 24
10.0
 15
10.0
 25
10.0
 16
0.0
 26
0.0
 36
1.0
 17
0.0
 27
0.0
 37
0.0
 40
297.0
 41
1.92798353909465
 42
50.0
 43
0.0
 44
0.0
 50
0.0
 51
0.0
 71
0
 72
100
 73
1
 74
3
 75
1
 76
1
 77
0
 78
0
281
0
 65
1
110
0.0
120
0.0
130
0.0
111
1.0
121
0.0
131
0.0
112
0.0
122
1.0
132
0.0
 79
0
146
0.0
  0
ENDTAB
  0
TABLE
  2
LTYPE
  5
5
100
AcDbSymbolTable
 70
21
  0
LTYPE
  5
14
100
AcDbSymbolTableRecord
100
AcDbLinetypeTableRecord
  2
ByBlock
 70
0
  3

 72
65
 73
0
 40
0.0
  0
LTYPE
  5
15
100
AcDbSymbolTableRecord
100
AcDbLinetypeTableRecord
  2
ByLayer
 70
0
  3

 72
65
 73
0
 40
0.0
  0
LTYPE
  5
16
100
AcDbSymbolTableRecord
100
AcDbLinetypeTableRecord
  2
CONTINUOUS
 70
0
  3
Solid line
 72
65
 73
0
 40
0.0
  0
LTYPE
  5
31
100
AcDbSymbolTableRecord
100
AcDbLinetypeTableRecord
  2
DOT
 70
0
  3
Dot . . . . . . . . . . . . . . . . . . . . . .
 72
65
 73
2
 40
6.3499999999999996
 49
0.0
 74
0
 49
-6.3499999999999996
 74
0
  0
LTYPE
  5
32
100
AcDbSymbolTableRecord
100
AcDbLinetypeTableRecord
  2
DOT2
 70
0
  3
Dot (.5x) .....................................
 72
65
 73
2
 40
3.1749999999999998
 49
0.0
 74
0
 49
-3.1749999999999998
 74
0
  0
LTYPE
  5
33
100
AcDbSymbolTableRecord
100
AcDbLinetypeTableRecord
  2
DOTX2
 70
0
  3
Dot (2x) .  .  .  .  .  .  .  .  .  .  .  .  .
 72
65
 73
2
 40
12.699999999999999
 49
0.0
 74
0
 49
-12.699999999999999
 74
0
  0
LTYPE
  5
34
100
AcDbSymbolTableRecord
100
AcDbLinetypeTableRecord
  2
DASHED
 70
0
  3
Dashed __ __ __ __ __ __ __ __ __ __ __ __ __ _
 72
65
 73
2
 40
19.050000000000001
 49
12.699999999999999
 74
0
 49
-6.3499999999999996
 74
0
  0
LTYPE
  5
35
100
AcDbSymbolTableRecord
100
AcDbLinetypeTableRecord
  2
DASHED2
 70
0
  3
Dashed (.5x) _ _ _ _ _ _ _ _ _ _ _ _ _ _ _ _ _
 72
65
 73
2
 40
9.5250000000000004
 49
6.3499999999999996
 74
0
 49
-3.1749999999999998
 74
0
  0
LTYPE
  5
36
100
AcDbSymbolTableRecord
100
AcDbLinetypeTableRecord
  2
DASHEDX2
 70
0
  3
Dashed (2x) ____  ____  ____  ____  ____  ___
 72
65
 73
2
 40
38.100000000000001
 49
25.399999999999999
 74
0
 49
-12.699999999999999
 74
0
  0
LTYPE
  5
37
100
AcDbSymbolTableRecord
100
AcDbLinetypeTableRecord
  2
DASHDOT
 70
0
  3
Dash dot __ . __ . __ . __ . __ . __ . __ . __
 72
65
 73
4
 40
25.399999999999999
 49
12.699999999999999
 74
0
 49
-6.3499999999999996
 74
0
 49
0.0
 74
0
 49
-6.3499999999999996
 74
0
  0
LTYPE
  5
38
100
AcDbSymbolTableRecord
100
AcDbLinetypeTableRecord
  2
DASHDOT2
 70
0
  3
Dash dot (.5x) _._._._._._._._._._._._._._._.
 72
65
 73
4
 40
12.699999999999999
 49
6.3499999999999996
 74
0
 49
-3.1749999999999998
 74
0
 49
0.0
 74
0
 49
-3.1749999999999998
 74
0
  0
LTYPE
  5
39
100
AcDbSymbolTableRecord
100
AcDbLinetypeTableRecord
  2
DASHDOTX2
 70
0
  3
Dash dot (2x) ____  .  ____  .  ____  .  ___
 72
65
 73
4
 40
50.799999999999997
 49
25.399999999999999
 74
0
 49
-12.699999999999999
 74
0
 49
0.0
 74
0
 49
-12.699999999999999
 74
0
  0
LTYPE
  5
3A
100
AcDbSymbolTableRecord
100
AcDbLinetypeTableRecord
  2
DIVIDE
 70
0
  3
Divide ____ . . ____ . . ____ . . ____ . . ____
 72
65
 73
6
 40
31.75
 49
12.699999999999999
 74
0
 49
-6.3499999999999996
 74
0
 49
0.0
 74
0
 49
-6.3499999999999996
 74
0
 49
0.0
 74
0
 49
-6.3499999999999996
 74
0
  0
LTYPE
  5
3B
100
AcDbSymbolTableRecord
100
AcDbLinetypeTableRecord
  2
DIVIDE2
 70
0
  3
Divide (.5x) __..__..__..__..__..__..__..__.._
 72
65
 73
6
 40
15.875
 49
6.3499999999999996
 74
0
 49
-3.1749999999999998
 74
0
 49
0.0
 74
0
 49
-3.1749999999999998
 74
0
 49
0.0
 74
0
 49
-3.1749999999999998
 74
0
  0
LTYPE
  5
3C
100
AcDbSymbolTableRecord
100
AcDbLinetypeTableRecord
  2
DIVIDEX2
 70
0
  3
Divide (2x) ________  .  .  ________  .  .  _
 72
65
 73
6
 40
63.5
 49
25.399999999999999
 74
0
 49
-12.699999999999999
 74
0
 49
0.0
 74
0
 49
-12.699999999999999
 74
0
 49
0.0
 74
0
 49
-12.699999999999999
 74
0
  0
LTYPE
  5
3D
100
AcDbSymbolTableRecord
100
AcDbLinetypeTableRecord
  2
CENTER
 70
0
  3
Center ____ _ ____ _ ____ _ ____ _ ____ _ ____
 72
65
 73
4
 40
50.799999999999997
 49
31.75
 74
0
 49
-6.3499999999999996
 74
0
 49
6.3499999999999996
 74
0
 49
-6.3499999999999996
 74
0
  0
LTYPE
  5
3E
100
AcDbSymbolTableRecord
100
AcDbLinetypeTableRecord
  2
CENTER2
 70
0
  3
Center (.5x) ___ _ ___ _ ___ _ ___ _ ___ _ ___
 72
65
 73
4
 40
28.574999999999999
 49
19.050000000000001
 74
0
 49
-3.1749999999999998
 74
0
 49
3.1749999999999998
 74
0
 49
-3.1749999999999998
 74
0
  0
LTYPE
  5
3F
100
AcDbSymbolTableRecord
100
AcDbLinetypeTableRecord
  2
CENTERX2
 70
0
  3
Center (2x) ________  __  ________  __  _____
 72
65
 73
4
 40
101.59999999999999
 49
63.5
 74
0
 49
-12.699999999999999
 74
0
 49
12.699999999999999
 74
0
 49
-12.699999999999999
 74
0
  0
LTYPE
  5
40
100
AcDbSymbolTableRecord
100
AcDbLinetypeTableRecord
  2
BORDER
 70
0
  3
Border __ __ . __ __ . __ __ . __ __ . __ __ .
 72
65
 73
6
 40
44.450000000000003
 49
12.699999999999999
 74
0
 49
-6.3499999999999996
 74
0
 49
12.699999999999999
 74
0
 49
-6.3499999999999996
 74
0
 49
0.0
 74
0
 49
-6.3499999999999996
 74
0
  0
LTYPE
  5
41
100
AcDbSymbolTableRecord
100
AcDbLinetypeTableRecord
  2
BORDER2
 70
0
  3
Border (.5x) __.__.__.__.__.__.__.__.__.__.__.
 72
65
 73
6
 40
22.225000000000001
 49
6.3499999999999996
 74
0
 49
-3.1749999999999998
 74
0
 49
6.3499999999999996
 74
0
 49
-3.1749999999999998
 74
0
 49
0.0
 74
0
 49
-3.1749999999999998
 74
0
  0
LTYPE
  5
42
100
AcDbSymbolTableRecord
100
AcDbLinetypeTableRecord
  2
BORDERX2
 70
0
  3
Border (2x) ____  ____  .  ____  ____  .  ___
 72
65
 73
6
 40
88.900000000000006
 49
25.399999999999999
 74
0
 49
-12.699999999999999
 74
0
 49
25.399999999999999
 74
0
 49
-12.699999999999999
 74
0
 49
0.0
 74
0
 49
-12.699999999999999
 74
0
  0
ENDTAB
  0
TABLE
  2
LAYER
  5
2
100
AcDbSymbolTable
 70
2
  0
LAYER
  5
10
100
AcDbSymbolTableRecord
100
AcDbLayerTableRecord
  2
0
 70
0
 62
7
  6
CONTINUOUS
370
0
390
F
  0
LAYER
  5
43
100
AcDbSymbolTableRecord
100
AcDbLayerTableRecord
  2
Layer0
 70
0
 62
7
  6
ByLayer
390
F
  0
ENDTAB
  0
TABLE
  2
STYLE
  5
3
100
AcDbSymbolTable
 70
1
  0
STYLE
  5
11
100
AcDbSymbolTableRecord
100
AcDbTextStyleTableRecord
  2
Standard
 70
0
 40
0.0
 41
0.75
 50
0.0
 71
0
 42
2.5
  3
txt
  4

  0
ENDTAB
  0
TABLE
  2
VIEW
  5
6
100
AcDbSymbolTable
 70
0
  0
ENDTAB
  0
TABLE
  2
UCS
  5
7
100
AcDbSymbolTable
 70
0
  0
ENDTAB
  0
TABLE
  2
APPID
  5
9
100
AcDbSymbolTable
 70
1
  0
APPID
  5
12
100
AcDbSymbolTableRecord
100
AcDbRegAppTableRecord
  2
ACAD
 70
0
  0
ENDTAB
  0
TABLE
  2
DIMSTYLE
  5
A
100
AcDbSymbolTable
 70
1
100
AcDbDimStyleTable
 71
0
  0
DIMSTYLE
105
27
100
AcDbSymbolTableRecord
100
AcDbDimStyleTableRecord
  2
Standard
 41
0.1
 42
0.025
 43
3.75
 44
0.05
 70
0
 73
0
 74
0
 77
1
 78
8
140
0.1
141
2.5
143
0.03937007874016
147
0.025
171
3
172
1
271
2
272
2
274
3
278
44
283
0
284
8
340
11
  0
ENDTAB
  0
TABLE
  2
BLOCK_RECORD
  5
1
100
AcDbSymbolTable
 70
1
  0
BLOCK_RECORD
  5
1F
100
AcDbSymbolTableRecord
100
AcDbBlockTableRecord
  2
*Model_Space
340
22
  0
BLOCK_RECORD
  5
1B
100
AcDbSymbolTableRecord
100
AcDbBlockTableRecord
  2
*Paper_Space
340
1E
  0
BLOCK_RECORD
  5
23
100
AcDbSymbolTableRecord
100
AcDbBlockTableRecord
  2
*Paper_Space0
340
26
  0
ENDTAB
  0
ENDSEC
  0
SECTION
  2
BLOCKS
  0
BLOCK
  5
20
100
AcDbEntity
  8
0
100
AcDbBlockBegin
  2
*Model_Space
 70
0
 10
0.0
 20
0.0
 30
0.0
  3
*Model_Space
  1

  0
ENDBLK
  5
21
100
AcDbEntity
  8
0
100
AcDbBlockEnd
  0
BLOCK
  5
1C
100
AcDbEntity
 67
1
  8
0
100
AcDbBlockBegin
  2
*Paper_Space
 70
0
 10
0.0
 20
0.0
 30
0.0
  3
*Paper_Space
  1

  0
ENDBLK
  5
1D
100
AcDbEntity
 67
1
  8
0
100
AcDbBlockEnd
  0
BLOCK
  5
24
100
AcDbEntity
  8
0
100
AcDbBlockBegin
  2
*Paper_Space0
 70
0
 10
0.0
 20
0.0
 30
0.0
  3
*Paper_Space0
  1

  0
ENDBLK
  5
25
100
AcDbEntity
  8
0
100
AcDbBlockEnd
  0
ENDSEC
  0
SECTION
  2
ENTITIES
  0
LINE
  5
44
100
AcDbEntity
100
AcDbLine
  8
Layer0
 62
256
370
-1
  6
ByLayer
 10
6.3500000000000698
 20
63.503678833971698
 30
0.0
 11
-6.3499999999999597
 21
63.503678833971698
 31
0.0
  0
LINE
  5
45
100
AcDbEntity
100
AcDbLine
  8
Layer0
 62
256
370
-1
  6
ByLayer
 10
-6.3499999999999597
 20
63.503678833971698
 30
0.0
 11
-6.3499999999999703
 21
58.7284788339717
 31
0.0
  0
LINE
  5
46
100
AcDbEntity
100
AcDbLine
  8
Layer0
 62
256
370
-1
  6
ByLayer
 10
-6.3499999999999703
 20
58.7284788339717
 30
0.0
 11
-2.38759999999988
 21
58.7284788339717
 31
0.0
  0
LINE
  5
47
100
AcDbEntity
100
AcDbLine
  8
Layer0
 62
256
370
-1
  6
ByLayer
 10
6.35000000000006
 20
58.7284788339717
 30
0.0
 11
6.3500000000000698
 21
63.503678833971698
 31
0.0
  0
LINE
  5
48
100
AcDbEntity
100
AcDbLine
  8
Layer0
 62
256
370
-1
  6
ByLayer
 10
-63.503678833972401
 20
-6.3500000000000396
 30
0.0
 11
-63.503678833972401
 21
6.3499999999999801
 31
0.0
  0
LINE
  5
49
100
AcDbEntity
100
AcDbLine
  8
Layer0
 62
256
370
-1
  6
ByLayer
 10
-63.503678833972401
 20
-6.3500000000000396
 30
0.0
 11
-58.728478833972403
 21
-6.3500000000000396
 31
0.0
  0
LINE
  5
4A
100
AcDbEntity
100
AcDbLine
  8
Layer0
 62
256
370
-1
  6
ByLayer
 10
-58.728478833972403
 20
6.3499999999999801
 30
0.0
 11
-58.728478833972403
 21
-6.3500000000000396
 31
0.0
  0
LINE
  5
4B
100
AcDbEntity
100
AcDbLine
  8
Layer0
 62
256
370
-1
  6
ByLayer
 10
-58.728478833972403
 20
6.3499999999999801
 30
0.0
 11
-63.503678833972401
 21
6.3499999999999801
 31
0.0
  0
LINE
  5
4C
100
AcDbEntity
100
AcDbLine
  8
Layer0
 62
256
370
-1
  6
ByLayer
 10
34.925536966910002
 20
-45.872399771382298
 30
0.0
 11
34.925374191252502
 21
-10.4761924172814
 31
0.0
  0
LINE
  5
4D
100
AcDbEntity
100
AcDbLine
  8
Layer0
 62
256
370
-1
  6
ByLayer
 10
34.925374191252502
 20
-10.4761924172814
 30
0.0
 11
30.1504590681328
 21
-10.4761924172814
 31
0.0
  0
LINE
  5
4E
100
AcDbEntity
100
AcDbLine
  8
Layer0
 62
256
370
-1
  6
ByLayer
 10
30.1506218437904
 20
-45.872399771382298
 30
0.0
 11
34.925536966910002
 21
-45.872399771382298
 31
0.0
  0
LINE
  5
4F
100
AcDbEntity
100
AcDbLine
  8
Layer0
 62
256
370
-1
  6
ByLayer
 10
34.925225637087202
 20
30.176199999106
 30
0.0
 11
30.150313721772601
 21
30.176199999106
 31
0.0
  0
LINE
  5
50
100
AcDbEntity
100
AcDbLine
  8
Layer0
 62
256
370
-1
  6
ByLayer
 10
34.925225637087202
 20
42.949644625317099
 30
0.0
 11
30.150313721772601
 21
42.949644625317099
 31
0.0
  0
LINE
  5
51
100
AcDbEntity
100
AcDbLine
  8
Layer0
 62
256
370
-1
  6
ByLayer
 10
30.150313721772601
 20
42.949644625317099
 30
0.0
 11
30.150313721772601
 21
30.176199999106
 31
0.0
  0
LINE
  5
52
100
AcDbEntity
100
AcDbLine
  8
Layer0
 62
256
370
-1
  6
ByLayer
 10
-5.0931553712718198
 20
-43.498981108823401
 30
0.0
 11
-9.8683553712716208
 21
-43.498981108823401
 31
0.0
  0
LINE
  5
53
100
AcDbEntity
100
AcDbLine
  8
Layer0
 62
256
370
-1
  6
ByLayer
 10
-9.8683553712716208
 20
-56.198981108823297
 30
0.0
 11
-9.8683553712716208
 21
-43.498981108823401
 31
0.0
  0
LINE
  5
54
100
AcDbEntity
100
AcDbLine
  8
Layer0
 62
256
370
-1
  6
ByLayer
 10
-5.0931553712716902
 20
-56.198981108823297
 30
0.0
 11
-9.8683553712716208
 21
-56.198981108823297
 31
0.0
  0
LINE
  5
55
100
AcDbEntity
100
AcDbLine
  8
Layer0
 62
256
370
-1
  6
ByLayer
 10
-5.0931553712716902
 20
-56.198981108823297
 30
0.0
 11
-5.0931553712718198
 21
-43.498981108823401
 31
0.0
  0
LINE
  5
56
100
AcDbEntity
100
AcDbLine
  8
Layer0
 62
256
370
-1
  6
ByLayer
 10
41.275225637087203
 20
-38.100000000000101
 30
0.0
 11
49.843488140991099
 21
-38.100000000000101
 31
0.0
  0
LINE
  5
57
100
AcDbEntity
100
AcDbLine
  8
Layer0
 62
256
370
-1
  6
ByLayer
 10
49.843488140991099
 20
-38.100000000000101
 30
0.0
 11
52.378478833971798
 21
-36.6903000000001
 31
0.0
  0
LINE
  5
58
100
AcDbEntity
100
AcDbLine
  8
Layer0
 62
256
370
-1
  6
ByLayer
 10
52.378478833971798
 20
-36.6903000000001
 30
0.0
 11
52.378478833971798
 21
36.690299999999901
 31
0.0
  0
LINE
  5
59
100
AcDbEntity
100
AcDbLine
  8
Layer0
 62
256
370
-1
  6
ByLayer
 10
49.843488140991099
 20
38.100000000000101
 30
0.0
 11
52.378478833971798
 21
36.690299999999901
 31
0.0
  0
LINE
  5
5A
100
AcDbEntity
100
AcDbLine
  8
Layer0
 62
256
370
-1
  6
ByLayer
 10
49.843488140991099
 20
38.100000000000101
 30
0.0
 11
41.275225637087203
 21
38.100000000000101
 31
0.0
  0
LINE
  5
5B
100
AcDbEntity
100
AcDbLine
  8
Layer0
 62
256
370
-1
  6
ByLayer
 10
41.275225637087203
 20
38.100000000000101
 30
0.0
 11
41.275225637087203
 21
-38.100000000000101
 31
0.0
  0
LINE
  5
5C
100
AcDbEntity
100
AcDbLine
  8
Layer0
 62
256
370
-1
  6
ByLayer
 10
0.706851476924053
 20
-1.4214489929541101
 30
0.0
 11
1.0506641679298401
 21
-1.1900676687601801
 31
0.0
  0
LINE
  5
5D
100
AcDbEntity
100
AcDbLine
  8
Layer0
 62
256
370
-1
  6
ByLayer
 10
16.951577191421499
 20
61.009854179008997
 30
0.0
 11
17.282989462676198
 21
60.755552599127803
 31
0.0
  0
LINE
  5
5E
100
AcDbEntity
100
AcDbLine
  8
Layer0
 62
256
370
-1
  6
ByLayer
 10
19.468903313812
 20
61.341266450263703
 30
0.0
 11
19.6287639699039
 21
61.727204214290602
 31
0.0
  0
LINE
  5
5F
100
AcDbEntity
100
AcDbLine
  8
Layer0
 62
256
370
-1
  6
ByLayer
 10
16.537414955448401
 20
62.555528686236698
 30
0.0
 11
16.482889462676201
 21
62.141366450263703
 31
0.0
  0
LINE
  5
60
100
AcDbEntity
100
AcDbLine
  8
Layer0
 62
256
370
-1
  6
ByLayer
 10
16.482889462676201
 20
62.141366450263703
 30
0.0
 11
16.537414955448401
 21
61.727204214290602
 31
0.0
  0
LINE
  5
61
100
AcDbEntity
100
AcDbLine
  8
Layer0
 62
256
370
-1
  6
ByLayer
 10
12.125140531569601
 20
64.982187680600205
 30
0.0
 11
11.7109782955966
 21
65.036713173372505
 31
0.0
  0
LINE
  5
62
100
AcDbEntity
100
AcDbLine
  8
Layer0
 62
256
370
-1
  6
ByLayer
 10
11.296816059623501
 20
61.890838666144703
 30
0.0
 11
11.7109782955966
 21
61.836313173372503
 31
0.0
  0
LINE
  5
63
100
AcDbEntity
100
AcDbLine
  8
Layer0
 62
256
370
-1
  6
ByLayer
 10
12.511078295596599
 20
64.822327024508297
 30
0.0
 11
12.125140531569601
 21
64.982187680600205
 31
0.0
  0
LINE
  5
64
100
AcDbEntity
100
AcDbLine
  8
Layer0
 62
256
370
-1
  6
ByLayer
 10
10.9108782955966
 20
62.050699322236603
 30
0.0
 11
11.296816059623501
 21
61.890838666144703
 31
0.0
  0
LINE
  5
65
100
AcDbEntity
100
AcDbLine
  8
Layer0
 62
256
370
-1
  6
ByLayer
 10
16.697275611540299
 20
62.941466450263697
 30
0.0
 11
16.537414955448401
 21
62.555528686236698
 31
0.0
  0
LINE
  5
66
100
AcDbEntity
100
AcDbLine
  8
Layer0
 62
256
370
-1
  6
ByLayer
 10
17.282989462676198
 20
60.755552599127803
 30
0.0
 11
17.668927226703101
 21
60.595691943035902
 31
0.0
  0
LINE
  5
67
100
AcDbEntity
100
AcDbLine
  8
Layer0
 62
256
370
-1
  6
ByLayer
 10
19.6287639699039
 20
61.727204214290602
 30
0.0
 11
19.6832894626762
 21
62.141366450263703
 31
0.0
  0
LINE
  5
68
100
AcDbEntity
100
AcDbLine
  8
Layer0
 62
256
370
-1
  6
ByLayer
 10
12.8424905668513
 20
64.568025444627196
 30
0.0
 11
12.511078295596599
 21
64.822327024508297
 31
0.0
  0
LINE
  5
69
100
AcDbEntity
100
AcDbLine
  8
Layer0
 62
256
370
-1
  6
ByLayer
 10
10.579466024341899
 20
62.305000902117797
 30
0.0
 11
10.9108782955966
 21
62.050699322236603
 31
0.0
  0
LINE
  5
6A
100
AcDbEntity
100
AcDbLine
  8
Layer0
 62
256
370
-1
  6
ByLayer
 10
13.096792146732399
 20
64.236613173372504
 30
0.0
 11
12.8424905668513
 21
64.568025444627196
 31
0.0
  0
LINE
  5
6B
100
AcDbEntity
100
AcDbLine
  8
Layer0
 62
256
370
-1
  6
ByLayer
 10
10.3251644444607
 20
62.636413173372503
 30
0.0
 11
10.579466024341899
 21
62.305000902117797
 31
0.0
  0
LINE
  5
6C
100
AcDbEntity
100
AcDbLine
  8
Layer0
 62
256
370
-1
  6
ByLayer
 10
-11.296816059623399
 20
64.982187680600205
 30
0.0
 11
-11.710978295596499
 21
65.036713173372505
 31
0.0
  0
LINE
  5
6D
100
AcDbEntity
100
AcDbLine
  8
Layer0
 62
256
370
-1
  6
ByLayer
 10
-10.9108782955965
 20
64.822327024508297
 30
0.0
 11
-11.296816059623399
 21
64.982187680600205
 31
0.0
  0
LINE
  5
6E
100
AcDbEntity
100
AcDbLine
  8
Layer0
 62
256
370
-1
  6
ByLayer
 10
10.165303788368799
 20
63.022350937399402
 30
0.0
 11
10.3251644444607
 21
62.636413173372503
 31
0.0
  0
LINE
  5
6F
100
AcDbEntity
100
AcDbLine
  8
Layer0
 62
256
370
-1
  6
ByLayer
 10
13.2566528028243
 20
63.850675409345499
 30
0.0
 11
13.096792146732399
 21
64.236613173372504
 31
0.0
  0
LINE
  5
70
100
AcDbEntity
100
AcDbLine
  8
Layer0
 62
256
370
-1
  6
ByLayer
 10
13.3111782955966
 20
63.436513173372497
 30
0.0
 11
13.2566528028243
 21
63.850675409345499
 31
0.0
  0
LINE
  5
71
100
AcDbEntity
100
AcDbLine
  8
Layer0
 62
256
370
-1
  6
ByLayer
 10
10.110778295596599
 20
63.436513173372497
 30
0.0
 11
10.165303788368799
 21
63.022350937399402
 31
0.0
  0
LINE
  5
72
100
AcDbEntity
100
AcDbLine
  8
Layer0
 62
256
370
-1
  6
ByLayer
 10
16.951577191421499
 20
63.272878721518403
 30
0.0
 11
16.697275611540299
 21
62.941466450263697
 31
0.0
  0
LINE
  5
73
100
AcDbEntity
100
AcDbLine
  8
Layer0
 62
256
370
-1
  6
ByLayer
 10
13.2566528028243
 20
63.022350937399402
 30
0.0
 11
13.3111782955966
 21
63.436513173372497
 31
0.0
  0
LINE
  5
74
100
AcDbEntity
100
AcDbLine
  8
Layer0
 62
256
370
-1
  6
ByLayer
 10
10.165303788368799
 20
63.850675409345499
 30
0.0
 11
10.110778295596599
 21
63.436513173372497
 31
0.0
  0
LINE
  5
75
100
AcDbEntity
100
AcDbLine
  8
Layer0
 62
256
370
-1
  6
ByLayer
 10
17.282989462676198
 20
63.527180301399603
 30
0.0
 11
16.951577191421499
 21
63.272878721518403
 31
0.0
  0
LINE
  5
76
100
AcDbEntity
100
AcDbLine
  8
Layer0
 62
256
370
-1
  6
ByLayer
 10
18.883189462676199
 20
60.755552599127803
 30
0.0
 11
19.214601733930898
 21
61.009854179008997
 31
0.0
  0
LINE
  5
77
100
AcDbEntity
100
AcDbLine
  8
Layer0
 62
256
370
-1
  6
ByLayer
 10
17.668927226703101
 20
63.687040957491497
 30
0.0
 11
17.282989462676198
 21
63.527180301399603
 31
0.0
  0
LINE
  5
78
100
AcDbEntity
100
AcDbLine
  8
Layer0
 62
256
370
-1
  6
ByLayer
 10
18.497251698649201
 20
60.595691943035902
 30
0.0
 11
18.883189462676199
 21
60.755552599127803
 31
0.0
  0
LINE
  5
79
100
AcDbEntity
100
AcDbLine
  8
Layer0
 62
256
370
-1
  6
ByLayer
 10
18.083089462676199
 20
63.741566450263697
 30
0.0
 11
17.668927226703101
 21
63.687040957491497
 31
0.0
  0
LINE
  5
7A
100
AcDbEntity
100
AcDbLine
  8
Layer0
 62
256
370
-1
  6
ByLayer
 10
18.083089462676199
 20
60.541166450263702
 30
0.0
 11
18.497251698649201
 21
60.595691943035902
 31
0.0
  0
LINE
  5
7B
100
AcDbEntity
100
AcDbLine
  8
Layer0
 62
256
370
-1
  6
ByLayer
 10
11.7109782955966
 20
65.036713173372505
 30
0.0
 11
11.296816059623501
 21
64.982187680600205
 31
0.0
  0
LINE
  5
7C
100
AcDbEntity
100
AcDbLine
  8
Layer0
 62
256
370
-1
  6
ByLayer
 10
18.497251698649201
 20
63.687040957491497
 30
0.0
 11
18.083089462676199
 21
63.741566450263697
 31
0.0
  0
LINE
  5
7D
100
AcDbEntity
100
AcDbLine
  8
Layer0
 62
256
370
-1
  6
ByLayer
 10
17.668927226703101
 20
60.595691943035902
 30
0.0
 11
18.083089462676199
 21
60.541166450263702
 31
0.0
  0
LINE
  5
7E
100
AcDbEntity
100
AcDbLine
  8
Layer0
 62
256
370
-1
  6
ByLayer
 10
-18.083089462676099
 20
63.741566450263697
 30
0.0
 11
-18.497251698649102
 21
63.687040957491497
 31
0.0
  0
LINE
  5
7F
100
AcDbEntity
100
AcDbLine
  8
Layer0
 62
256
370
-1
  6
ByLayer
 10
-17.668927226703001
 20
63.687040957491497
 30
0.0
 11
-18.083089462676099
 21
63.741566450263697
 31
0.0
  0
LINE
  5
80
100
AcDbEntity
100
AcDbLine
  8
Layer0
 62
256
370
-1
  6
ByLayer
 10
19.214601733930898
 20
61.009854179008997
 30
0.0
 11
19.468903313812
 21
61.341266450263703
 31
0.0
  0
LINE
  5
81
100
AcDbEntity
100
AcDbLine
  8
Layer0
 62
256
370
-1
  6
ByLayer
 10
18.883189462676199
 20
63.527180301399603
 30
0.0
 11
18.497251698649201
 21
63.687040957491497
 31
0.0
  0
LINE
  5
82
100
AcDbEntity
100
AcDbLine
  8
Layer0
 62
256
370
-1
  6
ByLayer
 10
19.214601733930898
 20
63.272878721518403
 30
0.0
 11
18.883189462676199
 21
63.527180301399603
 31
0.0
  0
LINE
  5
83
100
AcDbEntity
100
AcDbLine
  8
Layer0
 62
256
370
-1
  6
ByLayer
 10
19.468903313812
 20
62.941466450263697
 30
0.0
 11
19.214601733930898
 21
63.272878721518403
 31
0.0
  0
LINE
  5
84
100
AcDbEntity
100
AcDbLine
  8
Layer0
 62
256
370
-1
  6
ByLayer
 10
-10.5794660243417
 20
64.568025444627196
 30
0.0
 11
-10.9108782955965
 21
64.822327024508297
 31
0.0
  0
LINE
  5
85
100
AcDbEntity
100
AcDbLine
  8
Layer0
 62
256
370
-1
  6
ByLayer
 10
-17.282989462676099
 20
63.527180301399603
 30
0.0
 11
-17.668927226703001
 21
63.687040957491497
 31
0.0
  0
LINE
  5
86
100
AcDbEntity
100
AcDbLine
  8
Layer0
 62
256
370
-1
  6
ByLayer
 10
-18.8831894626761
 20
60.755552599127803
 30
0.0
 11
-18.497251698649102
 21
60.595691943035902
 31
0.0
  0
LINE
  5
87
100
AcDbEntity
100
AcDbLine
  8
Layer0
 62
256
370
-1
  6
ByLayer
 10
-16.9515771914214
 20
63.272878721518403
 30
0.0
 11
-17.282989462676099
 21
63.527180301399603
 31
0.0
  0
LINE
  5
88
100
AcDbEntity
100
AcDbLine
  8
Layer0
 62
256
370
-1
  6
ByLayer
 10
-19.214601733930799
 20
61.009854179008997
 30
0.0
 11
-18.8831894626761
 21
60.755552599127803
 31
0.0
  0
LINE
  5
89
100
AcDbEntity
100
AcDbLine
  8
Layer0
 62
256
370
-1
  6
ByLayer
 10
-16.697275611540199
 20
62.941466450263697
 30
0.0
 11
-16.9515771914214
 21
63.272878721518403
 31
0.0
  0
LINE
  5
8A
100
AcDbEntity
100
AcDbLine
  8
Layer0
 62
256
370
-1
  6
ByLayer
 10
-19.4689033138119
 20
61.341266450263703
 30
0.0
 11
-19.214601733930799
 21
61.009854179008997
 31
0.0
  0
LINE
  5
8B
100
AcDbEntity
100
AcDbLine
  8
Layer0
 62
256
370
-1
  6
ByLayer
 10
-16.537414955448298
 20
62.555528686236698
 30
0.0
 11
-16.697275611540199
 21
62.941466450263697
 31
0.0
  0
LINE
  5
8C
100
AcDbEntity
100
AcDbLine
  8
Layer0
 62
256
370
-1
  6
ByLayer
 10
-19.628763969903801
 20
61.727204214290602
 30
0.0
 11
-19.4689033138119
 21
61.341266450263703
 31
0.0
  0
LINE
  5
8D
100
AcDbEntity
100
AcDbLine
  8
Layer0
 62
256
370
-1
  6
ByLayer
 10
-16.482889462676098
 20
62.141366450263703
 30
0.0
 11
-16.537414955448298
 21
62.555528686236698
 31
0.0
  0
LINE
  5
8E
100
AcDbEntity
100
AcDbLine
  8
Layer0
 62
256
370
-1
  6
ByLayer
 10
-19.6832894626761
 20
62.141366450263703
 30
0.0
 11
-19.628763969903801
 21
61.727204214290602
 31
0.0
  0
LINE
  5
8F
100
AcDbEntity
100
AcDbLine
  8
Layer0
 62
256
370
-1
  6
ByLayer
 10
-16.537414955448298
 20
61.727204214290602
 30
0.0
 11
-16.482889462676098
 21
62.141366450263703
 31
0.0
  0
LINE
  5
90
100
AcDbEntity
100
AcDbLine
  8
Layer0
 62
256
370
-1
  6
ByLayer
 10
-19.628763969903801
 20
62.555528686236698
 30
0.0
 11
-19.6832894626761
 21
62.141366450263703
 31
0.0
  0
LINE
  5
91
100
AcDbEntity
100
AcDbLine
  8
Layer0
 62
256
370
-1
  6
ByLayer
 10
-12.8424905668512
 20
62.305000902117797
 30
0.0
 11
-12.5110782955965
 21
62.050699322236603
 31
0.0
  0
LINE
  5
92
100
AcDbEntity
100
AcDbLine
  8
Layer0
 62
256
370
-1
  6
ByLayer
 10
-19.4689033138119
 20
62.941466450263697
 30
0.0
 11
-19.628763969903801
 21
62.555528686236698
 31
0.0
  0
LINE
  5
93
100
AcDbEntity
100
AcDbLine
  8
Layer0
 62
256
370
-1
  6
ByLayer
 10
-16.697275611540199
 20
61.341266450263703
 30
0.0
 11
-16.537414955448298
 21
61.727204214290602
 31
0.0
  0
LINE
  5
94
100
AcDbEntity
100
AcDbLine
  8
Layer0
 62
256
370
-1
  6
ByLayer
 10
-19.214601733930799
 20
63.272878721518403
 30
0.0
 11
-19.4689033138119
 21
62.941466450263697
 31
0.0
  0
LINE
  5
95
100
AcDbEntity
100
AcDbLine
  8
Layer0
 62
256
370
-1
  6
ByLayer
 10
-16.9515771914214
 20
61.009854179008997
 30
0.0
 11
-16.697275611540199
 21
61.341266450263703
 31
0.0
  0
LINE
  5
96
100
AcDbEntity
100
AcDbLine
  8
Layer0
 62
256
370
-1
  6
ByLayer
 10
-17.282989462676099
 20
60.755552599127803
 30
0.0
 11
-16.9515771914214
 21
61.009854179008997
 31
0.0
  0
LINE
  5
97
100
AcDbEntity
100
AcDbLine
  8
Layer0
 62
256
370
-1
  6
ByLayer
 10
-18.8831894626761
 20
63.527180301399603
 30
0.0
 11
-19.214601733930799
 21
63.272878721518403
 31
0.0
  0
LINE
  5
98
100
AcDbEntity
100
AcDbLine
  8
Layer0
 62
256
370
-1
  6
ByLayer
 10
-17.668927226703001
 20
60.595691943035902
 30
0.0
 11
-17.282989462676099
 21
60.755552599127803
 31
0.0
  0
LINE
  5
99
100
AcDbEntity
100
AcDbLine
  8
Layer0
 62
256
370
-1
  6
ByLayer
 10
-18.497251698649102
 20
63.687040957491497
 30
0.0
 11
-18.8831894626761
 21
63.527180301399603
 31
0.0
  0
LINE
  5
9A
100
AcDbEntity
100
AcDbLine
  8
Layer0
 62
256
370
-1
  6
ByLayer
 10
-18.083089462676099
 20
60.541166450263702
 30
0.0
 11
-17.668927226703001
 21
60.595691943035902
 31
0.0
  0
LINE
  5
9B
100
AcDbEntity
100
AcDbLine
  8
Layer0
 62
256
370
-1
  6
ByLayer
 10
-10.325164444460601
 20
64.236613173372504
 30
0.0
 11
-10.5794660243417
 21
64.568025444627196
 31
0.0
  0
LINE
  5
9C
100
AcDbEntity
100
AcDbLine
  8
Layer0
 62
256
370
-1
  6
ByLayer
 10
-13.0967921467323
 20
62.636413173372503
 30
0.0
 11
-12.8424905668512
 21
62.305000902117797
 31
0.0
  0
LINE
  5
9D
100
AcDbEntity
100
AcDbLine
  8
Layer0
 62
256
370
-1
  6
ByLayer
 10
13.096792146732399
 20
62.636413173372503
 30
0.0
 11
13.2566528028243
 21
63.022350937399402
 31
0.0
  0
LINE
  5
9E
100
AcDbEntity
100
AcDbLine
  8
Layer0
 62
256
370
-1
  6
ByLayer
 10
10.3251644444607
 20
64.236613173372504
 30
0.0
 11
10.165303788368799
 21
63.850675409345499
 31
0.0
  0
LINE
  5
9F
100
AcDbEntity
100
AcDbLine
  8
Layer0
 62
256
370
-1
  6
ByLayer
 10
-10.1653037883687
 20
63.850675409345499
 30
0.0
 11
-10.325164444460601
 21
64.236613173372504
 31
0.0
  0
LINE
  5
A0
100
AcDbEntity
100
AcDbLine
  8
Layer0
 62
256
370
-1
  6
ByLayer
 10
-13.256652802824201
 20
63.022350937399402
 30
0.0
 11
-13.0967921467323
 21
62.636413173372503
 31
0.0
  0
LINE
  5
A1
100
AcDbEntity
100
AcDbLine
  8
Layer0
 62
256
370
-1
  6
ByLayer
 10
-10.1107782955965
 20
63.436513173372497
 30
0.0
 11
-10.1653037883687
 21
63.850675409345499
 31
0.0
  0
LINE
  5
A2
100
AcDbEntity
100
AcDbLine
  8
Layer0
 62
256
370
-1
  6
ByLayer
 10
16.537414955448401
 20
61.727204214290602
 30
0.0
 11
16.697275611540299
 21
61.341266450263703
 31
0.0
  0
LINE
  5
A3
100
AcDbEntity
100
AcDbLine
  8
Layer0
 62
256
370
-1
  6
ByLayer
 10
-13.3111782955965
 20
63.436513173372497
 30
0.0
 11
-13.256652802824201
 21
63.022350937399402
 31
0.0
  0
LINE
  5
A4
100
AcDbEntity
100
AcDbLine
  8
Layer0
 62
256
370
-1
  6
ByLayer
 10
-10.1653037883687
 20
63.022350937399402
 30
0.0
 11
-10.1107782955965
 21
63.436513173372497
 31
0.0
  0
LINE
  5
A5
100
AcDbEntity
100
AcDbLine
  8
Layer0
 62
256
370
-1
  6
ByLayer
 10
-13.256652802824201
 20
63.850675409345499
 30
0.0
 11
-13.3111782955965
 21
63.436513173372497
 31
0.0
  0
LINE
  5
A6
100
AcDbEntity
100
AcDbLine
  8
Layer0
 62
256
370
-1
  6
ByLayer
 10
-10.325164444460601
 20
62.636413173372503
 30
0.0
 11
-10.1653037883687
 21
63.022350937399402
 31
0.0
  0
LINE
  5
A7
100
AcDbEntity
100
AcDbLine
  8
Layer0
 62
256
370
-1
  6
ByLayer
 10
-12.5110782955965
 20
62.050699322236603
 30
0.0
 11
-12.1251405315695
 21
61.890838666144703
 31
0.0
  0
LINE
  5
A8
100
AcDbEntity
100
AcDbLine
  8
Layer0
 62
256
370
-1
  6
ByLayer
 10
-13.0967921467323
 20
64.236613173372504
 30
0.0
 11
-13.256652802824201
 21
63.850675409345499
 31
0.0
  0
LINE
  5
A9
100
AcDbEntity
100
AcDbLine
  8
Layer0
 62
256
370
-1
  6
ByLayer
 10
-10.5794660243417
 20
62.305000902117797
 30
0.0
 11
-10.325164444460601
 21
62.636413173372503
 31
0.0
  0
LINE
  5
AA
100
AcDbEntity
100
AcDbLine
  8
Layer0
 62
256
370
-1
  6
ByLayer
 10
-12.5110782955965
 20
64.822327024508297
 30
0.0
 11
-12.8424905668512
 21
64.568025444627196
 31
0.0
  0
LINE
  5
AB
100
AcDbEntity
100
AcDbLine
  8
Layer0
 62
256
370
-1
  6
ByLayer
 10
-10.9108782955965
 20
62.050699322236603
 30
0.0
 11
-10.5794660243417
 21
62.305000902117797
 31
0.0
  0
LINE
  5
AC
100
AcDbEntity
100
AcDbLine
  8
Layer0
 62
256
370
-1
  6
ByLayer
 10
-12.1251405315695
 20
64.982187680600205
 30
0.0
 11
-12.5110782955965
 21
64.822327024508297
 31
0.0
  0
LINE
  5
AD
100
AcDbEntity
100
AcDbLine
  8
Layer0
 62
256
370
-1
  6
ByLayer
 10
-11.710978295596499
 20
65.036713173372505
 30
0.0
 11
-12.1251405315695
 21
64.982187680600205
 31
0.0
  0
LINE
  5
AE
100
AcDbEntity
100
AcDbLine
  8
Layer0
 62
256
370
-1
  6
ByLayer
 10
-11.296816059623399
 20
61.890838666144703
 30
0.0
 11
-10.9108782955965
 21
62.050699322236603
 31
0.0
  0
LINE
  5
AF
100
AcDbEntity
100
AcDbLine
  8
Layer0
 62
256
370
-1
  6
ByLayer
 10
-11.710978295596499
 20
61.836313173372503
 30
0.0
 11
-11.296816059623399
 21
61.890838666144703
 31
0.0
  0
LINE
  5
B0
100
AcDbEntity
100
AcDbLine
  8
Layer0
 62
256
370
-1
  6
ByLayer
 10
-12.1251405315695
 20
61.890838666144703
 30
0.0
 11
-11.710978295596499
 21
61.836313173372503
 31
0.0
  0
LINE
  5
B1
100
AcDbEntity
100
AcDbLine
  8
Layer0
 62
256
370
-1
  6
ByLayer
 10
-12.8424905668512
 20
64.568025444627196
 30
0.0
 11
-13.0967921467323
 21
64.236613173372504
 31
0.0
  0
LINE
  5
B2
100
AcDbEntity
100
AcDbLine
  8
Layer0
 62
256
370
-1
  6
ByLayer
 10
12.8424905668513
 20
62.305000902117797
 30
0.0
 11
13.096792146732399
 21
62.636413173372503
 31
0.0
  0
LINE
  5
B3
100
AcDbEntity
100
AcDbLine
  8
Layer0
 62
256
370
-1
  6
ByLayer
 10
10.579466024341899
 20
64.568025444627196
 30
0.0
 11
10.3251644444607
 21
64.236613173372504
 31
0.0
  0
LINE
  5
B4
100
AcDbEntity
100
AcDbLine
  8
Layer0
 62
256
370
-1
  6
ByLayer
 10
12.511078295596599
 20
62.050699322236603
 30
0.0
 11
12.8424905668513
 21
62.305000902117797
 31
0.0
  0
LINE
  5
B5
100
AcDbEntity
100
AcDbLine
  8
Layer0
 62
256
370
-1
  6
ByLayer
 10
10.9108782955966
 20
64.822327024508297
 30
0.0
 11
10.579466024341899
 21
64.568025444627196
 31
0.0
  0
LINE
  5
B6
100
AcDbEntity
100
AcDbLine
  8
Layer0
 62
256
370
-1
  6
ByLayer
 10
19.6287639699039
 20
62.555528686236698
 30
0.0
 11
19.468903313812
 21
62.941466450263697
 31
0.0
  0
LINE
  5
B7
100
AcDbEntity
100
AcDbLine
  8
Layer0
 62
256
370
-1
  6
ByLayer
 10
16.697275611540299
 20
61.341266450263703
 30
0.0
 11
16.951577191421499
 21
61.009854179008997
 31
0.0
  0
LINE
  5
B8
100
AcDbEntity
100
AcDbLine
  8
Layer0
 62
256
370
-1
  6
ByLayer
 10
0.314868025893195
 20
-1.5559609173337601
 30
0.0
 11
0.706851476924053
 21
-1.4214489929541101
 31
0.0
  0
LINE
  5
B9
100
AcDbEntity
100
AcDbLine
  8
Layer0
 62
256
370
-1
  6
ByLayer
 10
-1.1900676687601801
 20
-1.0506641679298401
 30
0.0
 11
-0.877585199620048
 21
-1.32287583219585
 31
0.0
  0
LINE
  5
BA
100
AcDbEntity
100
AcDbLine
  8
Layer0
 62
256
370
-1
  6
ByLayer
 10
34.925225637087202
 20
30.176199999106
 30
0.0
 11
34.925225637087202
 21
42.949644625317099
 31
0.0
  0
LINE
  5
BB
100
AcDbEntity
100
AcDbLine
  8
Layer0
 62
256
370
-1
  6
ByLayer
 10
-1.5049356946533701
 20
0.505296749403915
 30
0.0
 11
-1.5844366765441
 21
0.0985731607582785
 31
0.0
  0
LINE
  5
BC
100
AcDbEntity
100
AcDbLine
  8
Layer0
 62
256
370
-1
  6
ByLayer
 10
-1.32287583219585
 20
0.877585199620048
 30
0.0
 11
-1.5049356946533701
 21
0.505296749403915
 31
0.0
  0
LINE
  5
BD
100
AcDbEntity
100
AcDbLine
  8
Layer0
 62
256
370
-1
  6
ByLayer
 10
1.5049356946533701
 20
-0.505296749403915
 30
0.0
 11
1.5844366765441
 21
-0.0985731607582785
 31
0.0
  0
LINE
  5
BE
100
AcDbEntity
100
AcDbLine
  8
Layer0
 62
256
370
-1
  6
ByLayer
 10
-1.0506641679298401
 20
1.1900676687601801
 30
0.0
 11
-1.32287583219585
 21
0.877585199620048
 31
0.0
  0
LINE
  5
BF
100
AcDbEntity
100
AcDbLine
  8
Layer0
 62
256
370
-1
  6
ByLayer
 10
-0.706851476924064
 20
1.4214489929541101
 30
0.0
 11
-1.0506641679298401
 21
1.1900676687601801
 31
0.0
  0
LINE
  5
C0
100
AcDbEntity
100
AcDbLine
  8
Layer0
 62
256
370
-1
  6
ByLayer
 10
30.1504590681328
 20
-10.4761924172814
 30
0.0
 11
30.1506218437904
 21
-45.872399771382298
 31
0.0
  0
LINE
  5
C1
100
AcDbEntity
100
AcDbLine
  8
Layer0
 62
256
370
-1
  6
ByLayer
 10
-0.314868025893195
 20
1.5559609173337601
 30
0.0
 11
-0.706851476924064
 21
1.4214489929541101
 31
0.0
  0
LINE
  5
C2
100
AcDbEntity
100
AcDbLine
  8
Layer0
 62
256
370
-1
  6
ByLayer
 10
0.0985731607582785
 20
1.5844366765441
 30
0.0
 11
-0.314868025893195
 21
1.5559609173337601
 31
0.0
  0
LINE
  5
C3
100
AcDbEntity
100
AcDbLine
  8
Layer0
 62
256
370
-1
  6
ByLayer
 10
1.5844366765441
 20
-0.0985731607582785
 30
0.0
 11
1.5559609173337601
 21
0.314868025893195
 31
0.0
  0
LINE
  5
C4
100
AcDbEntity
100
AcDbLine
  8
Layer0
 62
256
370
-1
  6
ByLayer
 10
12.125140531569601
 20
61.890838666144703
 30
0.0
 11
12.511078295596599
 21
62.050699322236603
 31
0.0
  0
LINE
  5
C5
100
AcDbEntity
100
AcDbLine
  8
Layer0
 62
256
370
-1
  6
ByLayer
 10
11.296816059623501
 20
64.982187680600205
 30
0.0
 11
10.9108782955966
 21
64.822327024508297
 31
0.0
  0
LINE
  5
C6
100
AcDbEntity
100
AcDbLine
  8
Layer0
 62
256
370
-1
  6
ByLayer
 10
1.2027188249752301
 20
-61.361158133708201
 30
0.0
 11
0.893559716066053
 21
-61.637138439275198
 31
0.0
  0
LINE
  5
C7
100
AcDbEntity
100
AcDbLine
  8
Layer0
 62
256
370
-1
  6
ByLayer
 10
1.4299146335491499
 20
-61.014565363661198
 30
0.0
 11
1.2027188249752301
 21
-61.361158133708201
 31
0.0
  0
LINE
  5
C8
100
AcDbEntity
100
AcDbLine
  8
Layer0
 62
256
370
-1
  6
ByLayer
 10
1.55966412289234
 20
-60.620979853641401
 30
0.0
 11
1.4299146335491499
 21
-61.014565363661198
 31
0.0
  0
LINE
  5
C9
100
AcDbEntity
100
AcDbLine
  8
Layer0
 62
256
370
-1
  6
ByLayer
 10
1.58312507972724
 20
-60.207223805725803
 30
0.0
 11
1.55966412289234
 21
-60.620979853641401
 31
0.0
  0
LINE
  5
CA
100
AcDbEntity
100
AcDbLine
  8
Layer0
 62
256
370
-1
  6
ByLayer
 10
1.4986986786165899
 20
-59.801494010815503
 30
0.0
 11
1.58312507972724
 21
-60.207223805725803
 31
0.0
  0
LINE
  5
CB
100
AcDbEntity
100
AcDbLine
  8
Layer0
 62
256
370
-1
  6
ByLayer
 10
1.3121384392748801
 20
-59.431440283933703
 30
0.0
 11
1.4986986786165899
 21
-59.801494010815503
 31
0.0
  0
LINE
  5
CC
100
AcDbEntity
100
AcDbLine
  8
Layer0
 62
256
370
-1
  6
ByLayer
 10
1.03615813370786
 20
-59.122281175024497
 30
0.0
 11
1.3121384392748801
 21
-59.431440283933703
 31
0.0
  0
LINE
  5
CD
100
AcDbEntity
100
AcDbLine
  8
Layer0
 62
256
370
-1
  6
ByLayer
 10
0.689565363660906
 20
-58.895085366450601
 30
0.0
 11
1.03615813370786
 21
-59.122281175024497
 31
0.0
  0
LINE
  5
CE
100
AcDbEntity
100
AcDbLine
  8
Layer0
 62
256
370
-1
  6
ByLayer
 10
0.295979853641087
 20
-58.765335877107397
 30
0.0
 11
0.689565363660906
 21
-58.895085366450601
 31
0.0
  0
LINE
  5
CF
100
AcDbEntity
100
AcDbLine
  8
Layer0
 62
256
370
-1
  6
ByLayer
 10
-0.117776194274566
 20
-58.741874920272501
 30
0.0
 11
0.295979853641087
 21
-58.765335877107397
 31
0.0
  0
LINE
  5
D0
100
AcDbEntity
100
AcDbLine
  8
Layer0
 62
256
370
-1
  6
ByLayer
 10
-0.523505989184779
 20
-58.826301321383198
 30
0.0
 11
-0.117776194274566
 21
-58.741874920272501
 31
0.0
  0
LINE
  5
D1
100
AcDbEntity
100
AcDbLine
  8
Layer0
 62
256
370
-1
  6
ByLayer
 10
-0.893559716066617
 20
-59.0128615607249
 30
0.0
 11
-0.523505989184779
 21
-58.826301321383198
 31
0.0
  0
LINE
  5
D2
100
AcDbEntity
100
AcDbLine
  8
Layer0
 62
256
370
-1
  6
ByLayer
 10
-1.2027188249757901
 20
-59.288841866291897
 30
0.0
 11
-0.893559716066617
 21
-59.0128615607249
 31
0.0
  0
LINE
  5
D3
100
AcDbEntity
100
AcDbLine
  8
Layer0
 62
256
370
-1
  6
ByLayer
 10
-1.4299146335497199
 20
-59.6354346363389
 30
0.0
 11
-1.2027188249757901
 21
-59.288841866291897
 31
0.0
  0
LINE
  5
D4
100
AcDbEntity
100
AcDbLine
  8
Layer0
 62
256
370
-1
  6
ByLayer
 10
-1.55966412289291
 20
-60.029020146358697
 30
0.0
 11
-1.4299146335497199
 21
-59.6354346363389
 31
0.0
  0
LINE
  5
D5
100
AcDbEntity
100
AcDbLine
  8
Layer0
 62
256
370
-1
  6
ByLayer
 10
-34.925527250081799
 20
-45.872399771382298
 30
0.0
 11
-34.925527250081899
 21
-10.4769908826114
 31
0.0
  0
LINE
  5
D6
100
AcDbEntity
100
AcDbLine
  8
Layer0
 62
256
370
-1
  6
ByLayer
 10
-30.150612126962201
 20
-10.4769908826114
 30
0.0
 11
-34.925527250081899
 21
-10.4769908826114
 31
0.0
  0
LINE
  5
D7
100
AcDbEntity
100
AcDbLine
  8
Layer0
 62
256
370
-1
  6
ByLayer
 10
-30.150612126962201
 20
-45.872399771382298
 30
0.0
 11
-30.150612126962201
 21
-35.114646883205303
 31
0.0
  0
LINE
  5
D8
100
AcDbEntity
100
AcDbLine
  8
Layer0
 62
256
370
-1
  6
ByLayer
 10
-30.150612126962201
 20
-45.872399771382298
 30
0.0
 11
-34.925527250081799
 21
-45.872399771382298
 31
0.0
  0
LINE
  5
D9
100
AcDbEntity
100
AcDbLine
  8
Layer0
 62
256
370
-1
  6
ByLayer
 10
-34.925225637087998
 20
42.949644625317099
 30
0.0
 11
-34.925225637087898
 21
30.176199999106
 31
0.0
  0
LINE
  5
DA
100
AcDbEntity
100
AcDbLine
  8
Layer0
 62
256
370
-1
  6
ByLayer
 10
-30.150313721773401
 20
42.949644625317198
 30
0.0
 11
-34.925225637087998
 21
42.949644625317099
 31
0.0
  0
LINE
  5
DB
100
AcDbEntity
100
AcDbLine
  8
Layer0
 62
256
370
-1
  6
ByLayer
 10
-30.150313721773401
 20
42.949644625317198
 30
0.0
 11
-30.150313721773198
 21
30.176199999106
 31
0.0
  0
LINE
  5
DC
100
AcDbEntity
100
AcDbLine
  8
Layer0
 62
256
370
-1
  6
ByLayer
 10
-34.925225637087898
 20
30.176199999106
 30
0.0
 11
-30.150313721773198
 21
30.176199999106
 31
0.0
  0
LINE
  5
DD
100
AcDbEntity
100
AcDbLine
  8
Layer0
 62
256
370
-1
  6
ByLayer
 10
-41.275225637087701
 20
-38.1000000000002
 30
0.0
 11
-49.843488140991603
 21
-38.1000000000003
 31
0.0
  0
LINE
  5
DE
100
AcDbEntity
100
AcDbLine
  8
Layer0
 62
256
370
-1
  6
ByLayer
 10
-49.843488140991603
 20
-38.1000000000003
 30
0.0
 11
-52.378478833972302
 21
-36.6903000000002
 31
0.0
  0
LINE
  5
DF
100
AcDbEntity
100
AcDbLine
  8
Layer0
 62
256
370
-1
  6
ByLayer
 10
-52.378478833972302
 20
-36.6903000000002
 30
0.0
 11
-52.378478833972501
 21
36.690299999999702
 31
0.0
  0
LINE
  5
E0
100
AcDbEntity
100
AcDbLine
  8
Layer0
 62
256
370
-1
  6
ByLayer
 10
-49.843488140991902
 20
38.099999999999902
 30
0.0
 11
-52.378478833972501
 21
36.690299999999702
 31
0.0
  0
LINE
  5
E1
100
AcDbEntity
100
AcDbLine
  8
Layer0
 62
256
370
-1
  6
ByLayer
 10
-49.843488140991902
 20
38.099999999999902
 30
0.0
 11
-41.2752256370879
 21
38.099999999999902
 31
0.0
  0
LINE
  5
E2
100
AcDbEntity
100
AcDbLine
  8
Layer0
 62
256
370
-1
  6
ByLayer
 10
-41.2752256370879
 20
38.099999999999902
 30
0.0
 11
-41.275225637087701
 21
-38.1000000000002
 31
0.0
  0
LINE
  5
E3
100
AcDbEntity
100
AcDbLine
  8
Layer0
 62
256
370
-1
  6
ByLayer
 10
-30.150612126962201
 20
-12.1269090271684
 30
0.0
 11
-30.150612126962201
 21
-10.4769908826114
 31
0.0
  0
LINE
  5
E4
100
AcDbEntity
100
AcDbLine
  8
Layer0
 62
256
370
-1
  6
ByLayer
 10
-1.58312507972781
 20
-60.442776194274302
 30
0.0
 11
-1.55966412289291
 21
-60.029020146358697
 31
0.0
  0
LINE
  5
E5
100
AcDbEntity
100
AcDbLine
  8
Layer0
 62
256
370
-1
  6
ByLayer
 10
-1.4986986786171499
 20
-60.848505989184503
 30
0.0
 11
-1.58312507972781
 21
-60.442776194274302
 31
0.0
  0
LINE
  5
E6
100
AcDbEntity
100
AcDbLine
  8
Layer0
 62
256
370
-1
  6
ByLayer
 10
-1.31213843927544
 20
-61.218559716066402
 30
0.0
 11
-1.4986986786171499
 21
-60.848505989184503
 31
0.0
  0
LINE
  5
E7
100
AcDbEntity
100
AcDbLine
  8
Layer0
 62
256
370
-1
  6
ByLayer
 10
-1.03615813370842
 20
-61.527718824975601
 30
0.0
 11
-1.31213843927544
 21
-61.218559716066402
 31
0.0
  0
LINE
  5
E8
100
AcDbEntity
100
AcDbLine
  8
Layer0
 62
256
370
-1
  6
ByLayer
 10
-0.68956536366147
 20
-61.754914633549497
 30
0.0
 11
-1.03615813370842
 21
-61.527718824975601
 31
0.0
  0
LINE
  5
E9
100
AcDbEntity
100
AcDbLine
  8
Layer0
 62
256
370
-1
  6
ByLayer
 10
-0.295979853641651
 20
-61.884664122892701
 30
0.0
 11
-0.68956536366147
 21
-61.754914633549497
 31
0.0
  0
LINE
  5
EA
100
AcDbEntity
100
AcDbLine
  8
Layer0
 62
256
370
-1
  6
ByLayer
 10
0.117776194274002
 20
-61.908125079727597
 30
0.0
 11
-0.295979853641651
 21
-61.884664122892701
 31
0.0
  0
LINE
  5
EB
100
AcDbEntity
100
AcDbLine
  8
Layer0
 62
256
370
-1
  6
ByLayer
 10
0.523505989184215
 20
-61.8236986786169
 30
0.0
 11
0.117776194274002
 21
-61.908125079727597
 31
0.0
  0
LINE
  5
EC
100
AcDbEntity
100
AcDbLine
  8
Layer0
 62
256
370
-1
  6
ByLayer
 10
0.893559716066053
 20
-61.637138439275198
 30
0.0
 11
0.523505989184215
 21
-61.8236986786169
 31
0.0
  0
LINE
  5
ED
100
AcDbEntity
100
AcDbLine
  8
Layer0
 62
256
370
-1
  6
ByLayer
 10
62.883003891805501
 20
16.8452727941382
 30
0.0
 11
62.936484882157103
 21
16.430974386297599
 31
0.0
  0
LINE
  5
EE
100
AcDbEntity
100
AcDbLine
  8
Layer0
 62
256
370
-1
  6
ByLayer
 10
62.936484882157103
 20
16.430974386297599
 30
0.0
 11
62.880915233648402
 21
16.016950955519999
 31
0.0
  0
LINE
  5
EF
100
AcDbEntity
100
AcDbLine
  8
Layer0
 62
256
370
-1
  6
ByLayer
 10
62.880915233648402
 20
16.016950955519999
 30
0.0
 11
62.720081925992098
 21
15.631417514406801
 31
0.0
  0
LINE
  5
F0
100
AcDbEntity
100
AcDbLine
  8
Layer0
 62
256
370
-1
  6
ByLayer
 10
62.720081925992098
 20
15.631417514406801
 30
0.0
 11
62.464945483315397
 21
15.300647529845699
 31
0.0
  0
LINE
  5
F1
100
AcDbEntity
100
AcDbLine
  8
Layer0
 62
256
370
-1
  6
ByLayer
 10
62.464945483315397
 20
15.300647529845699
 30
0.0
 11
62.132893032553802
 21
15.047182429661399
 31
0.0
  0
LINE
  5
F2
100
AcDbEntity
100
AcDbLine
  8
Layer0
 62
256
370
-1
  6
ByLayer
 10
62.132893032553802
 20
15.047182429661399
 30
0.0
 11
61.746553399484
 21
14.8882954415605
 31
0.0
  0
LINE
  5
F3
100
AcDbEntity
100
AcDbLine
  8
Layer0
 62
256
370
-1
  6
ByLayer
 10
61.746553399484
 20
14.8882954415605
 30
0.0
 11
61.332254991643403
 21
14.834814451208899
 31
0.0
  0
LINE
  5
F4
100
AcDbEntity
100
AcDbLine
  8
Layer0
 62
256
370
-1
  6
ByLayer
 10
61.332254991643403
 20
14.834814451208899
 30
0.0
 11
60.918231560865799
 21
14.8903840997176
 31
0.0
  0
LINE
  5
F5
100
AcDbEntity
100
AcDbLine
  8
Layer0
 62
256
370
-1
  6
ByLayer
 10
60.918231560865799
 20
14.8903840997176
 30
0.0
 11
60.532698119752602
 21
15.0512174073738
 31
0.0
  0
LINE
  5
F6
100
AcDbEntity
100
AcDbLine
  8
Layer0
 62
256
370
-1
  6
ByLayer
 10
60.532698119752602
 20
15.0512174073738
 30
0.0
 11
60.201928135191501
 21
15.306353850050501
 31
0.0
  0
LINE
  5
F7
100
AcDbEntity
100
AcDbLine
  8
Layer0
 62
256
370
-1
  6
ByLayer
 10
60.201928135191501
 20
15.306353850050501
 30
0.0
 11
59.948463035007201
 21
15.6384063008122
 31
0.0
  0
LINE
  5
F8
100
AcDbEntity
100
AcDbLine
  8
Layer0
 62
256
370
-1
  6
ByLayer
 10
59.948463035007201
 20
15.6384063008122
 30
0.0
 11
59.789576046906198
 21
16.024745933881899
 31
0.0
  0
LINE
  5
F9
100
AcDbEntity
100
AcDbLine
  8
Layer0
 62
256
370
-1
  6
ByLayer
 10
59.789576046906198
 20
16.024745933881899
 30
0.0
 11
59.736095056554603
 21
16.4390443417225
 31
0.0
  0
LINE
  5
FA
100
AcDbEntity
100
AcDbLine
  8
Layer0
 62
256
370
-1
  6
ByLayer
 10
59.736095056554603
 20
16.4390443417225
 30
0.0
 11
59.791664705063297
 21
16.8530677725002
 31
0.0
  0
LINE
  5
FB
100
AcDbEntity
100
AcDbLine
  8
Layer0
 62
256
370
-1
  6
ByLayer
 10
59.791664705063297
 20
16.8530677725002
 30
0.0
 11
59.952498012719602
 21
17.2386012136134
 31
0.0
  0
LINE
  5
FC
100
AcDbEntity
100
AcDbLine
  8
Layer0
 62
256
370
-1
  6
ByLayer
 10
59.952498012719602
 20
17.2386012136134
 30
0.0
 11
60.207634455396303
 21
17.569371198174402
 31
0.0
  0
LINE
  5
FD
100
AcDbEntity
100
AcDbLine
  8
Layer0
 62
256
370
-1
  6
ByLayer
 10
60.207634455396303
 20
17.569371198174402
 30
0.0
 11
60.539686906157897
 21
17.822836298358801
 31
0.0
  0
LINE
  5
FE
100
AcDbEntity
100
AcDbLine
  8
Layer0
 62
256
370
-1
  6
ByLayer
 10
60.539686906157897
 20
17.822836298358801
 30
0.0
 11
60.926026539227699
 21
17.981723286459701
 31
0.0
  0
LINE
  5
FF
100
AcDbEntity
100
AcDbLine
  8
Layer0
 62
256
370
-1
  6
ByLayer
 10
60.926026539227699
 20
17.981723286459701
 30
0.0
 11
61.340324947068297
 21
18.035204276811299
 31
0.0
  0
LINE
  5
100
100
AcDbEntity
100
AcDbLine
  8
Layer0
 62
256
370
-1
  6
ByLayer
 10
61.340324947068297
 20
18.035204276811299
 30
0.0
 11
61.754348377845901
 21
17.979634628302598
 31
0.0
  0
LINE
  5
101
100
AcDbEntity
100
AcDbLine
  8
Layer0
 62
256
370
-1
  6
ByLayer
 10
61.754348377845901
 20
17.979634628302598
 30
0.0
 11
62.139881818959203
 21
17.818801320646301
 31
0.0
  0
LINE
  5
102
100
AcDbEntity
100
AcDbLine
  8
Layer0
 62
256
370
-1
  6
ByLayer
 10
62.139881818959203
 20
17.818801320646301
 30
0.0
 11
62.470651803520198
 21
17.5636648779696
 31
0.0
  0
LINE
  5
103
100
AcDbEntity
100
AcDbLine
  8
Layer0
 62
256
370
-1
  6
ByLayer
 10
62.470651803520198
 20
17.5636648779696
 30
0.0
 11
62.724116903704498
 21
17.231612427207999
 31
0.0
  0
LINE
  5
104
100
AcDbEntity
100
AcDbLine
  8
Layer0
 62
256
370
-1
  6
ByLayer
 10
62.724116903704498
 20
17.231612427207999
 30
0.0
 11
62.883003891805501
 21
16.8452727941382
 31
0.0
  0
LINE
  5
105
100
AcDbEntity
100
AcDbLine
  8
Layer0
 62
256
370
-1
  6
ByLayer
 10
-61.332254991643403
 20
18.035204276811299
 30
0.0
 11
-60.918231560865699
 21
17.979634628302598
 31
0.0
  0
LINE
  5
106
100
AcDbEntity
100
AcDbLine
  8
Layer0
 62
256
370
-1
  6
ByLayer
 10
-61.340324947068297
 20
14.8348144512088
 30
0.0
 11
-61.754348377845901
 21
14.890384099717499
 31
0.0
  0
LINE
  5
107
100
AcDbEntity
100
AcDbLine
  8
Layer0
 62
256
370
-1
  6
ByLayer
 10
-61.746553399484
 20
17.981723286459701
 30
0.0
 11
-61.332254991643403
 21
18.035204276811299
 31
0.0
  0
LINE
  5
108
100
AcDbEntity
100
AcDbLine
  8
Layer0
 62
256
370
-1
  6
ByLayer
 10
-60.926026539227699
 20
14.8882954415604
 30
0.0
 11
-61.340324947068297
 21
14.8348144512088
 31
0.0
  0
LINE
  5
109
100
AcDbEntity
100
AcDbLine
  8
Layer0
 62
256
370
-1
  6
ByLayer
 10
-62.724116903704498
 20
15.6384063008121
 30
0.0
 11
-62.883003891805501
 21
16.024745933881899
 31
0.0
  0
LINE
  5
10A
100
AcDbEntity
100
AcDbLine
  8
Layer0
 62
256
370
-1
  6
ByLayer
 10
-62.132893032553703
 20
17.822836298358698
 30
0.0
 11
-61.746553399484
 21
17.981723286459701
 31
0.0
  0
LINE
  5
10B
100
AcDbEntity
100
AcDbLine
  8
Layer0
 62
256
370
-1
  6
ByLayer
 10
-62.464945483315397
 20
17.569371198174402
 30
0.0
 11
-62.132893032553703
 21
17.822836298358698
 31
0.0
  0
LINE
  5
10C
100
AcDbEntity
100
AcDbLine
  8
Layer0
 62
256
370
-1
  6
ByLayer
 10
-61.754348377845901
 20
14.890384099717499
 30
0.0
 11
-62.139881818959097
 21
15.0512174073738
 31
0.0
  0
LINE
  5
10D
100
AcDbEntity
100
AcDbLine
  8
Layer0
 62
256
370
-1
  6
ByLayer
 10
-62.720081925992098
 20
17.2386012136133
 30
0.0
 11
-62.464945483315397
 21
17.569371198174402
 31
0.0
  0
LINE
  5
10E
100
AcDbEntity
100
AcDbLine
  8
Layer0
 62
256
370
-1
  6
ByLayer
 10
-60.201928135191501
 20
17.5636648779696
 30
0.0
 11
-59.948463035007101
 21
17.231612427207899
 31
0.0
  0
LINE
  5
10F
100
AcDbEntity
100
AcDbLine
  8
Layer0
 62
256
370
-1
  6
ByLayer
 10
-60.918231560865699
 20
17.979634628302598
 30
0.0
 11
-60.532698119752503
 21
17.818801320646301
 31
0.0
  0
LINE
  5
110
100
AcDbEntity
100
AcDbLine
  8
Layer0
 62
256
370
-1
  6
ByLayer
 10
-60.539686906157897
 20
15.0471824296613
 30
0.0
 11
-60.926026539227699
 21
14.8882954415604
 31
0.0
  0
LINE
  5
111
100
AcDbEntity
100
AcDbLine
  8
Layer0
 62
256
370
-1
  6
ByLayer
 10
-62.880915233648302
 20
16.853067772500101
 30
0.0
 11
-62.720081925992098
 21
17.2386012136133
 31
0.0
  0
LINE
  5
112
100
AcDbEntity
100
AcDbLine
  8
Layer0
 62
256
370
-1
  6
ByLayer
 10
-62.470651803520198
 20
15.306353850050501
 30
0.0
 11
-62.724116903704498
 21
15.6384063008121
 31
0.0
  0
LINE
  5
113
100
AcDbEntity
100
AcDbLine
  8
Layer0
 62
256
370
-1
  6
ByLayer
 10
-59.948463035007101
 20
17.231612427207899
 30
0.0
 11
-59.789576046906198
 21
16.8452727941382
 31
0.0
  0
LINE
  5
114
100
AcDbEntity
100
AcDbLine
  8
Layer0
 62
256
370
-1
  6
ByLayer
 10
-60.207634455396303
 20
15.300647529845699
 30
0.0
 11
-60.539686906157897
 21
15.0471824296613
 31
0.0
  0
LINE
  5
115
100
AcDbEntity
100
AcDbLine
  8
Layer0
 62
256
370
-1
  6
ByLayer
 10
-62.883003891805501
 20
16.024745933881899
 30
0.0
 11
-62.936484882157004
 21
16.4390443417225
 31
0.0
  0
LINE
  5
116
100
AcDbEntity
100
AcDbLine
  8
Layer0
 62
256
370
-1
  6
ByLayer
 10
-59.791664705063297
 20
16.016950955519899
 30
0.0
 11
-59.952498012719602
 21
15.631417514406699
 31
0.0
  0
LINE
  5
117
100
AcDbEntity
100
AcDbLine
  8
Layer0
 62
256
370
-1
  6
ByLayer
 10
-62.936484882157004
 20
16.4390443417225
 30
0.0
 11
-62.880915233648302
 21
16.853067772500101
 31
0.0
  0
LINE
  5
118
100
AcDbEntity
100
AcDbLine
  8
Layer0
 62
256
370
-1
  6
ByLayer
 10
-60.532698119752503
 20
17.818801320646301
 30
0.0
 11
-60.201928135191501
 21
17.5636648779696
 31
0.0
  0
LINE
  5
119
100
AcDbEntity
100
AcDbLine
  8
Layer0
 62
256
370
-1
  6
ByLayer
 10
-59.736095056554603
 20
16.430974386297599
 30
0.0
 11
-59.791664705063297
 21
16.016950955519899
 31
0.0
  0
LINE
  5
11A
100
AcDbEntity
100
AcDbLine
  8
Layer0
 62
256
370
-1
  6
ByLayer
 10
-59.789576046906198
 20
16.8452727941382
 30
0.0
 11
-59.736095056554603
 21
16.430974386297599
 31
0.0
  0
LINE
  5
11B
100
AcDbEntity
100
AcDbLine
  8
Layer0
 62
256
370
-1
  6
ByLayer
 10
-59.952498012719602
 20
15.631417514406699
 30
0.0
 11
-60.207634455396303
 21
15.300647529845699
 31
0.0
  0
LINE
  5
11C
100
AcDbEntity
100
AcDbLine
  8
Layer0
 62
256
370
-1
  6
ByLayer
 10
-62.139881818959097
 20
15.0512174073738
 30
0.0
 11
-62.470651803520198
 21
15.306353850050501
 31
0.0
  0
LINE
  5
11D
100
AcDbEntity
100
AcDbLine
  8
Layer0
 62
256
370
-1
  6
ByLayer
 10
-24.950615470177599
 20
-32.245792956634503
 30
0.0
 11
-24.651377954367302
 21
-32.5372724519681
 31
0.0
  0
LINE
  5
11E
100
AcDbEntity
100
AcDbLine
  8
Layer0
 62
256
370
-1
  6
ByLayer
 10
-24.651377954367302
 20
-32.5372724519681
 30
0.0
 11
-24.437777154300701
 21
-32.8962683924454
 31
0.0
  0
LINE
  5
11F
100
AcDbEntity
100
AcDbLine
  8
Layer0
 62
256
370
-1
  6
ByLayer
 10
-24.437777154300701
 20
-32.8962683924454
 30
0.0
 11
-24.324369611510399
 21
-33.298315797991698
 31
0.0
  0
LINE
  5
120
100
AcDbEntity
100
AcDbLine
  8
Layer0
 62
256
370
-1
  6
ByLayer
 10
-25.719984197666498
 20
-31.938883862623101
 30
0.0
 11
-25.315097159542599
 21
-32.041693752359002
 31
0.0
  0
LINE
  5
121
100
AcDbEntity
100
AcDbLine
  8
Layer0
 62
256
370
-1
  6
ByLayer
 10
-24.482899166074301
 20
-19.592176083696099
 30
0.0
 11
-24.343083608424401
 21
-19.9858193192626
 31
0.0
  0
LINE
  5
122
100
AcDbEntity
100
AcDbLine
  8
Layer0
 62
256
370
-1
  6
ByLayer
 10
-24.343083608424401
 20
-19.9858193192626
 30
0.0
 11
-24.3099145167138
 21
-20.402236415961799
 31
0.0
  0
LINE
  5
123
100
AcDbEntity
100
AcDbLine
  8
Layer0
 62
256
370
-1
  6
ByLayer
 10
-24.3099145167138
 20
-20.402236415961799
 30
0.0
 11
-24.385652309727998
 21
-20.8130492368152
 31
0.0
  0
LINE
  5
124
100
AcDbEntity
100
AcDbLine
  8
Layer0
 62
256
370
-1
  6
ByLayer
 10
-24.668790253281401
 20
-25.914021626602299
 30
0.0
 11
-24.4489810863349
 21
-26.269250168803701
 31
0.0
  0
LINE
  5
125
100
AcDbEntity
100
AcDbLine
  8
Layer0
 62
256
370
-1
  6
ByLayer
 10
-24.4489810863349
 20
-26.269250168803701
 30
0.0
 11
-24.328601647211901
 21
-26.669265390644899
 31
0.0
  0
LINE
  5
126
100
AcDbEntity
100
AcDbLine
  8
Layer0
 62
256
370
-1
  6
ByLayer
 10
-24.328601647211901
 20
-26.669265390644899
 30
0.0
 11
-24.3158555957522
 21
-27.086806915813899
 31
0.0
  0
LINE
  5
127
100
AcDbEntity
100
AcDbLine
  8
Layer0
 62
256
370
-1
  6
ByLayer
 10
-24.3158555957522
 20
-27.086806915813899
 30
0.0
 11
-24.411611554298901
 21
-27.493419979390399
 31
0.0
  0
LINE
  5
128
100
AcDbEntity
100
AcDbLine
  8
Layer0
 62
256
370
-1
  6
ByLayer
 10
-24.411611554298901
 20
-27.493419979390399
 30
0.0
 11
-24.6093439125214
 21
-27.861394573051498
 31
0.0
  0
LINE
  5
129
100
AcDbEntity
100
AcDbLine
  8
Layer0
 62
256
370
-1
  6
ByLayer
 10
-24.6093439125214
 20
-27.861394573051498
 30
0.0
 11
-24.895577536974798
 21
-28.1656538363459
 31
0.0
  0
LINE
  5
12A
100
AcDbEntity
100
AcDbLine
  8
Layer0
 62
256
370
-1
  6
ByLayer
 10
-24.895577536974798
 20
-28.1656538363459
 30
0.0
 11
-25.250806079176201
 21
-28.3854630032925
 31
0.0
  0
LINE
  5
12B
100
AcDbEntity
100
AcDbLine
  8
Layer0
 62
256
370
-1
  6
ByLayer
 10
-25.250806079176201
 20
-28.3854630032925
 30
0.0
 11
-25.650821301017402
 21
-28.505842442415499
 31
0.0
  0
LINE
  5
12C
100
AcDbEntity
100
AcDbLine
  8
Layer0
 62
256
370
-1
  6
ByLayer
 10
-25.650821301017402
 20
-28.505842442415499
 30
0.0
 11
-25.907999999999902
 21
-28.513693189548299
 31
0.0
  0
LINE
  5
12D
100
AcDbEntity
100
AcDbLine
  8
Layer0
 62
256
370
-1
  6
ByLayer
 10
-25.747637173813398
 20
-25.334299685379602
 30
0.0
 11
-25.341024110237001
 21
-25.430055643926401
 31
0.0
  0
LINE
  5
12E
100
AcDbEntity
100
AcDbLine
  8
Layer0
 62
256
370
-1
  6
ByLayer
 10
-25.341024110237001
 20
-25.430055643926401
 30
0.0
 11
-24.973049516575902
 21
-25.6277880021489
 31
0.0
  0
LINE
  5
12F
100
AcDbEntity
100
AcDbLine
  8
Layer0
 62
256
370
-1
  6
ByLayer
 10
-24.973049516575902
 20
-25.6277880021489
 30
0.0
 11
-24.668790253281401
 21
-25.914021626602299
 31
0.0
  0
LINE
  5
130
100
AcDbEntity
100
AcDbLine
  8
Layer0
 62
256
370
-1
  6
ByLayer
 10
-25.907999999999902
 20
-25.339194989706499
 30
0.0
 11
-25.747637173813398
 21
-25.334299685379602
 31
0.0
  0
LINE
  5
131
100
AcDbEntity
100
AcDbLine
  8
Layer0
 62
256
370
-1
  6
ByLayer
 10
-25.180176083695599
 20
-15.143544923553
 30
0.0
 11
-25.573819319262199
 21
-15.2833604812029
 31
0.0
  0
LINE
  5
132
100
AcDbEntity
100
AcDbLine
  8
Layer0
 62
256
370
-1
  6
ByLayer
 10
-25.414950763185001
 20
-12.1960963993555
 30
0.0
 11
-25.037738433018099
 21
-12.3755796716632
 31
0.0
  0
LINE
  5
133
100
AcDbEntity
100
AcDbLine
  8
Layer0
 62
256
370
-1
  6
ByLayer
 10
-25.573819319262199
 20
-15.2833604812029
 30
0.0
 11
-25.907999999999902
 21
-15.309979152086401
 31
0.0
  0
LINE
  5
134
100
AcDbEntity
100
AcDbLine
  8
Layer0
 62
256
370
-1
  6
ByLayer
 10
-24.482899166074301
 20
-12.9906201733231
 30
0.0
 11
-24.343083608424401
 21
-13.3842634088897
 31
0.0
  0
LINE
  5
135
100
AcDbEntity
100
AcDbLine
  8
Layer0
 62
256
370
-1
  6
ByLayer
 10
-24.836132845239302
 20
-14.9066110991616
 30
0.0
 11
-25.180176083695599
 21
-15.143544923553
 31
0.0
  0
LINE
  5
136
100
AcDbEntity
100
AcDbLine
  8
Layer0
 62
256
370
-1
  6
ByLayer
 10
-25.037738433018099
 20
-12.3755796716632
 30
0.0
 11
-24.7198329904658
 21
-12.6465769348668
 31
0.0
  0
LINE
  5
137
100
AcDbEntity
100
AcDbLine
  8
Layer0
 62
256
370
-1
  6
ByLayer
 10
-24.385652309727998
 20
-14.2114933264423
 30
0.0
 11
-24.565135582035701
 21
-14.5887056566092
 31
0.0
  0
LINE
  5
138
100
AcDbEntity
100
AcDbLine
  8
Layer0
 62
256
370
-1
  6
ByLayer
 10
-24.565135582035701
 20
-14.5887056566092
 30
0.0
 11
-24.836132845239302
 21
-14.9066110991616
 31
0.0
  0
LINE
  5
139
100
AcDbEntity
100
AcDbLine
  8
Layer0
 62
256
370
-1
  6
ByLayer
 10
-24.3099145167138
 20
-13.800680505588801
 30
0.0
 11
-24.385652309727998
 21
-14.2114933264423
 31
0.0
  0
LINE
  5
13A
100
AcDbEntity
100
AcDbLine
  8
Layer0
 62
256
370
-1
  6
ByLayer
 10
-25.825763584038501
 20
-12.1203586063413
 30
0.0
 11
-25.414950763185001
 21
-12.1960963993555
 31
0.0
  0
LINE
  5
13B
100
AcDbEntity
100
AcDbLine
  8
Layer0
 62
256
370
-1
  6
ByLayer
 10
-24.7198329904658
 20
-12.6465769348668
 30
0.0
 11
-24.482899166074301
 21
-12.9906201733231
 31
0.0
  0
LINE
  5
13C
100
AcDbEntity
100
AcDbLine
  8
Layer0
 62
256
370
-1
  6
ByLayer
 10
-24.343083608424401
 20
-13.3842634088897
 30
0.0
 11
-24.3099145167138
 21
-13.800680505588801
 31
0.0
  0
LINE
  5
13D
100
AcDbEntity
100
AcDbLine
  8
Layer0
 62
256
370
-1
  6
ByLayer
 10
-24.625792956634101
 20
-34.485384529822703
 30
0.0
 11
-24.917272451967701
 21
-34.784622045633
 31
0.0
  0
LINE
  5
13E
100
AcDbEntity
100
AcDbLine
  8
Layer0
 62
256
370
-1
  6
ByLayer
 10
-24.318883862622599
 20
-33.7160158023338
 30
0.0
 11
-24.4216937523586
 21
-34.120902840457703
 31
0.0
  0
LINE
  5
13F
100
AcDbEntity
100
AcDbLine
  8
Layer0
 62
256
370
-1
  6
ByLayer
 10
-25.276268392445001
 20
-34.998222845699601
 30
0.0
 11
-25.678315797991299
 21
-35.1116303884899
 31
0.0
  0
LINE
  5
140
100
AcDbEntity
100
AcDbLine
  8
Layer0
 62
256
370
-1
  6
ByLayer
 10
-24.324369611510399
 20
-33.298315797991698
 30
0.0
 11
-24.318883862622599
 21
-33.7160158023338
 31
0.0
  0
LINE
  5
141
100
AcDbEntity
100
AcDbLine
  8
Layer0
 62
256
370
-1
  6
ByLayer
 10
-24.917272451967701
 20
-34.784622045633
 30
0.0
 11
-25.276268392445001
 21
-34.998222845699601
 31
0.0
  0
LINE
  5
142
100
AcDbEntity
100
AcDbLine
  8
Layer0
 62
256
370
-1
  6
ByLayer
 10
-25.907999999999902
 20
-31.941353116795401
 30
0.0
 11
-25.719984197666498
 21
-31.938883862623101
 31
0.0
  0
LINE
  5
143
100
AcDbEntity
100
AcDbLine
  8
Layer0
 62
256
370
-1
  6
ByLayer
 10
-24.4216937523586
 20
-34.120902840457703
 30
0.0
 11
-24.625792956634101
 21
-34.485384529822703
 31
0.0
  0
LINE
  5
144
100
AcDbEntity
100
AcDbLine
  8
Layer0
 62
256
370
-1
  6
ByLayer
 10
-25.315097159542599
 20
-32.041693752359002
 30
0.0
 11
-24.950615470177599
 21
-32.245792956634503
 31
0.0
  0
LINE
  5
145
100
AcDbEntity
100
AcDbLine
  8
Layer0
 62
256
370
-1
  6
ByLayer
 10
-25.678315797991299
 20
-35.1116303884899
 30
0.0
 11
-25.907999999999902
 21
-35.114646883205303
 31
0.0
  0
LINE
  5
146
100
AcDbEntity
100
AcDbLine
  8
Layer0
 62
256
370
-1
  6
ByLayer
 10
-25.037738433018099
 20
-18.977135582036102
 30
0.0
 11
-24.7198329904658
 21
-19.248132845239699
 31
0.0
  0
LINE
  5
147
100
AcDbEntity
100
AcDbLine
  8
Layer0
 62
256
370
-1
  6
ByLayer
 10
-24.7198329904658
 20
-19.248132845239699
 30
0.0
 11
-24.482899166074301
 21
-19.592176083696099
 31
0.0
  0
LINE
  5
148
100
AcDbEntity
100
AcDbLine
  8
Layer0
 62
256
370
-1
  6
ByLayer
 10
-24.385652309727998
 20
-20.8130492368152
 30
0.0
 11
-24.565135582035701
 21
-21.190261566982201
 31
0.0
  0
LINE
  5
149
100
AcDbEntity
100
AcDbLine
  8
Layer0
 62
256
370
-1
  6
ByLayer
 10
-24.565135582035701
 20
-21.190261566982201
 30
0.0
 11
-24.836132845239302
 21
-21.5081670095345
 31
0.0
  0
LINE
  5
14A
100
AcDbEntity
100
AcDbLine
  8
Layer0
 62
256
370
-1
  6
ByLayer
 10
-25.414950763185001
 20
-18.797652309728399
 30
0.0
 11
-25.037738433018099
 21
-18.977135582036102
 31
0.0
  0
LINE
  5
14B
100
AcDbEntity
100
AcDbLine
  8
Layer0
 62
256
370
-1
  6
ByLayer
 10
-25.573819319262199
 20
-21.8849163915758
 30
0.0
 11
-25.907999999999902
 21
-21.9115350624594
 31
0.0
  0
LINE
  5
14C
100
AcDbEntity
100
AcDbLine
  8
Layer0
 62
256
370
-1
  6
ByLayer
 10
-24.836132845239302
 20
-21.5081670095345
 30
0.0
 11
-25.180176083695599
 21
-21.745100833925999
 31
0.0
  0
LINE
  5
14D
100
AcDbEntity
100
AcDbLine
  8
Layer0
 62
256
370
-1
  6
ByLayer
 10
-25.825763584038501
 20
-18.7219145167142
 30
0.0
 11
-25.414950763185001
 21
-18.797652309728399
 31
0.0
  0
LINE
  5
14E
100
AcDbEntity
100
AcDbLine
  8
Layer0
 62
256
370
-1
  6
ByLayer
 10
-25.180176083695599
 20
-21.745100833925999
 30
0.0
 11
-25.573819319262199
 21
-21.8849163915758
 31
0.0
  0
LINE
  5
14F
100
AcDbEntity
100
AcDbLine
  8
Layer0
 62
256
370
-1
  6
ByLayer
 10
-25.907999999999902
 20
-25.339194989706499
 30
0.0
 11
-26.165178698982398
 21
-25.347045736839299
 31
0.0
  0
LINE
  5
150
100
AcDbEntity
100
AcDbLine
  8
Layer0
 62
256
370
-1
  6
ByLayer
 10
-25.907999999999902
 20
-28.513693189548299
 30
0.0
 11
-26.068362826186402
 21
-28.5185884938752
 31
0.0
  0
LINE
  5
151
100
AcDbEntity
100
AcDbLine
  8
Layer0
 62
256
370
-1
  6
ByLayer
 10
-25.990236415961299
 20
-21.9180854832865
 30
0.0
 11
-26.0257668526252
 21
-21.9115350624594
 31
0.0
  0
LINE
  5
152
100
AcDbEntity
100
AcDbLine
  8
Layer0
 62
256
370
-1
  6
ByLayer
 10
-25.907999999999902
 20
-21.9115350624594
 30
0.0
 11
-25.990236415961299
 21
-21.9180854832865
 31
0.0
  0
LINE
  5
153
100
AcDbEntity
100
AcDbLine
  8
Layer0
 62
256
370
-1
  6
ByLayer
 10
-25.907999999999902
 20
-18.7284649375413
 30
0.0
 11
-25.825763584038501
 21
-18.7219145167142
 31
0.0
  0
LINE
  5
154
100
AcDbEntity
100
AcDbLine
  8
Layer0
 62
256
370
-1
  6
ByLayer
 10
-25.907999999999902
 20
-12.1269090271684
 30
0.0
 11
-25.825763584038501
 21
-12.1203586063413
 31
0.0
  0
LINE
  5
155
100
AcDbEntity
100
AcDbLine
  8
Layer0
 62
256
370
-1
  6
ByLayer
 10
-25.990236415961299
 20
-15.316529572913501
 30
0.0
 11
-26.025766852625299
 21
-15.309979152086401
 31
0.0
  0
LINE
  5
156
100
AcDbEntity
100
AcDbLine
  8
Layer0
 62
256
370
-1
  6
ByLayer
 10
-25.907999999999902
 20
-15.309979152086401
 30
0.0
 11
-25.990236415961299
 21
-15.316529572913501
 31
0.0
  0
LINE
  5
157
100
AcDbEntity
100
AcDbLine
  8
Layer0
 62
256
370
-1
  6
ByLayer
 10
-25.907999999999902
 20
-12.1269090271684
 30
0.0
 11
-30.150612126962201
 21
-12.1269090271684
 31
0.0
  0
LINE
  5
158
100
AcDbEntity
100
AcDbLine
  8
Layer0
 62
256
370
-1
  6
ByLayer
 10
-26.025766852625299
 20
-15.309979152086401
 30
0.0
 11
-30.150612126962201
 21
-15.309979152086401
 31
0.0
  0
LINE
  5
159
100
AcDbEntity
100
AcDbLine
  8
Layer0
 62
256
370
-1
  6
ByLayer
 10
11.7109782955966
 20
61.836313173372503
 30
0.0
 11
12.125140531569601
 21
61.890838666144703
 31
0.0
  0
LINE
  5
15A
100
AcDbEntity
100
AcDbLine
  8
Layer0
 62
256
370
-1
  6
ByLayer
 10
2.3876000000000399
 20
58.7284788339717
 30
0.0
 11
6.35000000000006
 21
58.7284788339717
 31
0.0
  0
LINE
  5
15B
100
AcDbEntity
100
AcDbLine
  8
Layer0
 62
256
370
-1
  6
ByLayer
 10
2.3876000000000901
 20
50.803678833971702
 30
0.0
 11
2.3876000000000399
 21
58.7284788339717
 31
0.0
  0
LINE
  5
15C
100
AcDbEntity
100
AcDbLine
  8
Layer0
 62
256
370
-1
  6
ByLayer
 10
-2.3875999999998401
 20
50.803678833971603
 30
0.0
 11
2.3876000000000901
 21
50.803678833971702
 31
0.0
  0
LINE
  5
15D
100
AcDbEntity
100
AcDbLine
  8
Layer0
 62
256
370
-1
  6
ByLayer
 10
-2.38759999999988
 20
58.7284788339717
 30
0.0
 11
-2.3875999999998401
 21
50.803678833971603
 31
0.0
  0
LINE
  5
15E
100
AcDbEntity
100
AcDbLine
  8
Layer0
 62
256
370
-1
  6
ByLayer
 10
-26.096015802333401
 20
-35.1171161373776
 30
0.0
 11
-30.150612126962201
 21
-35.114646883205303
 31
0.0
  0
LINE
  5
15F
100
AcDbEntity
100
AcDbLine
  8
Layer0
 62
256
370
-1
  6
ByLayer
 10
-30.150612126962201
 20
-18.7284649375413
 30
0.0
 11
-30.150612126962201
 21
-15.309979152086401
 31
0.0
  0
LINE
  5
160
100
AcDbEntity
100
AcDbLine
  8
Layer0
 62
256
370
-1
  6
ByLayer
 10
-25.907999999999902
 20
-18.7284649375413
 30
0.0
 11
-30.150612126962201
 21
-18.7284649375413
 31
0.0
  0
LINE
  5
161
100
AcDbEntity
100
AcDbLine
  8
Layer0
 62
256
370
-1
  6
ByLayer
 10
-26.0257668526252
 20
-21.9115350624594
 30
0.0
 11
-30.150612126962201
 21
-21.9115350624594
 31
0.0
  0
LINE
  5
162
100
AcDbEntity
100
AcDbLine
  8
Layer0
 62
256
370
-1
  6
ByLayer
 10
-30.150612126962201
 20
-25.339194989706499
 30
0.0
 11
-30.150612126962201
 21
-21.9115350624594
 31
0.0
  0
LINE
  5
163
100
AcDbEntity
100
AcDbLine
  8
Layer0
 62
256
370
-1
  6
ByLayer
 10
-26.165178698982398
 20
-25.347045736839299
 30
0.0
 11
-30.150612126962201
 21
-25.339194989706499
 31
0.0
  0
LINE
  5
164
100
AcDbEntity
100
AcDbLine
  8
Layer0
 62
256
370
-1
  6
ByLayer
 10
-26.068362826186402
 20
-28.5185884938752
 30
0.0
 11
-30.150612126962201
 21
-28.513693189548299
 31
0.0
  0
LINE
  5
165
100
AcDbEntity
100
AcDbLine
  8
Layer0
 62
256
370
-1
  6
ByLayer
 10
-30.150612126962201
 20
-31.941353116795401
 30
0.0
 11
-30.150612126962201
 21
-28.513693189548299
 31
0.0
  0
LINE
  5
166
100
AcDbEntity
100
AcDbLine
  8
Layer0
 62
256
370
-1
  6
ByLayer
 10
-26.1376842020086
 20
-31.944369611510801
 30
0.0
 11
-30.150612126962201
 21
-31.941353116795401
 31
0.0
  0
LINE
  5
167
100
AcDbEntity
100
AcDbLine
  8
Layer0
 62
256
370
-1
  6
ByLayer
 10
1.2027188249755101
 20
38.841841866291901
 30
0.0
 11
0.893559716066332
 21
38.565861560724798
 31
0.0
  0
LINE
  5
168
100
AcDbEntity
100
AcDbLine
  8
Layer0
 62
256
370
-1
  6
ByLayer
 10
0.893559716066332
 20
38.565861560724798
 30
0.0
 11
0.523505989184494
 21
38.379301321383103
 31
0.0
  0
LINE
  5
169
100
AcDbEntity
100
AcDbLine
  8
Layer0
 62
256
370
-1
  6
ByLayer
 10
0.523505989184494
 20
38.379301321383103
 30
0.0
 11
0.117776194274283
 21
38.294874920272498
 31
0.0
  0
LINE
  5
16A
100
AcDbEntity
100
AcDbLine
  8
Layer0
 62
256
370
-1
  6
ByLayer
 10
0.117776194274283
 20
38.294874920272498
 30
0.0
 11
-0.29597985364137
 21
38.318335877107401
 31
0.0
  0
LINE
  5
16B
100
AcDbEntity
100
AcDbLine
  8
Layer0
 62
256
370
-1
  6
ByLayer
 10
-0.29597985364137
 20
38.318335877107401
 30
0.0
 11
-0.68956536366119
 21
38.448085366450599
 31
0.0
  0
LINE
  5
16C
100
AcDbEntity
100
AcDbLine
  8
Layer0
 62
256
370
-1
  6
ByLayer
 10
-0.68956536366119
 20
38.448085366450599
 30
0.0
 11
-1.03615813370814
 21
38.675281175024502
 31
0.0
  0
LINE
  5
16D
100
AcDbEntity
100
AcDbLine
  8
Layer0
 62
256
370
-1
  6
ByLayer
 10
-1.03615813370814
 20
38.675281175024502
 30
0.0
 11
-1.3121384392751601
 21
38.984440283933701
 31
0.0
  0
LINE
  5
16E
100
AcDbEntity
100
AcDbLine
  8
Layer0
 62
256
370
-1
  6
ByLayer
 10
-1.3121384392751601
 20
38.984440283933701
 30
0.0
 11
-1.4986986786168699
 21
39.3544940108155
 31
0.0
  0
LINE
  5
16F
100
AcDbEntity
100
AcDbLine
  8
Layer0
 62
256
370
-1
  6
ByLayer
 10
-1.4986986786168699
 20
39.3544940108155
 30
0.0
 11
-1.58312507972752
 21
39.760223805725701
 31
0.0
  0
LINE
  5
170
100
AcDbEntity
100
AcDbLine
  8
Layer0
 62
256
370
-1
  6
ByLayer
 10
-1.58312507972752
 20
39.760223805725701
 30
0.0
 11
-1.55966412289262
 21
40.173979853641299
 31
0.0
  0
LINE
  5
171
100
AcDbEntity
100
AcDbLine
  8
Layer0
 62
256
370
-1
  6
ByLayer
 10
-1.55966412289262
 20
40.173979853641299
 30
0.0
 11
-1.4299146335494299
 21
40.567565363661203
 31
0.0
  0
LINE
  5
172
100
AcDbEntity
100
AcDbLine
  8
Layer0
 62
256
370
-1
  6
ByLayer
 10
-1.4299146335494299
 20
40.567565363661203
 30
0.0
 11
-1.2027188249755101
 21
40.914158133708099
 31
0.0
  0
LINE
  5
173
100
AcDbEntity
100
AcDbLine
  8
Layer0
 62
256
370
-1
  6
ByLayer
 10
-1.2027188249755101
 20
40.914158133708099
 30
0.0
 11
-0.893559716066334
 21
41.190138439275202
 31
0.0
  0
LINE
  5
174
100
AcDbEntity
100
AcDbLine
  8
Layer0
 62
256
370
-1
  6
ByLayer
 10
-0.893559716066334
 20
41.190138439275202
 30
0.0
 11
-0.523505989184495
 21
41.376698678616897
 31
0.0
  0
LINE
  5
175
100
AcDbEntity
100
AcDbLine
  8
Layer0
 62
256
370
-1
  6
ByLayer
 10
-0.523505989184495
 20
41.376698678616897
 30
0.0
 11
-0.117776194274281
 21
41.461125079727502
 31
0.0
  0
LINE
  5
176
100
AcDbEntity
100
AcDbLine
  8
Layer0
 62
256
370
-1
  6
ByLayer
 10
-0.117776194274281
 20
41.461125079727502
 30
0.0
 11
0.29597985364137
 21
41.437664122892599
 31
0.0
  0
LINE
  5
177
100
AcDbEntity
100
AcDbLine
  8
Layer0
 62
256
370
-1
  6
ByLayer
 10
0.29597985364137
 20
41.437664122892599
 30
0.0
 11
0.689565363661189
 21
41.307914633549402
 31
0.0
  0
LINE
  5
178
100
AcDbEntity
100
AcDbLine
  8
Layer0
 62
256
370
-1
  6
ByLayer
 10
0.689565363661189
 20
41.307914633549402
 30
0.0
 11
1.03615813370814
 21
41.080718824975499
 31
0.0
  0
LINE
  5
179
100
AcDbEntity
100
AcDbLine
  8
Layer0
 62
256
370
-1
  6
ByLayer
 10
1.03615813370814
 20
41.080718824975499
 30
0.0
 11
1.3121384392751601
 21
40.771559716066299
 31
0.0
  0
LINE
  5
17A
100
AcDbEntity
100
AcDbLine
  8
Layer0
 62
256
370
-1
  6
ByLayer
 10
1.3121384392751601
 20
40.771559716066299
 30
0.0
 11
1.4986986786168699
 21
40.4015059891845
 31
0.0
  0
LINE
  5
17B
100
AcDbEntity
100
AcDbLine
  8
Layer0
 62
256
370
-1
  6
ByLayer
 10
1.4986986786168699
 20
40.4015059891845
 30
0.0
 11
1.58312507972752
 21
39.995776194274299
 31
0.0
  0
LINE
  5
17C
100
AcDbEntity
100
AcDbLine
  8
Layer0
 62
256
370
-1
  6
ByLayer
 10
1.58312507972752
 20
39.995776194274299
 30
0.0
 11
1.55966412289262
 21
39.582020146358602
 31
0.0
  0
LINE
  5
17D
100
AcDbEntity
100
AcDbLine
  8
Layer0
 62
256
370
-1
  6
ByLayer
 10
1.55966412289262
 20
39.582020146358602
 30
0.0
 11
1.4299146335494299
 21
39.188434636338798
 31
0.0
  0
LINE
  5
17E
100
AcDbEntity
100
AcDbLine
  8
Layer0
 62
256
370
-1
  6
ByLayer
 10
1.4299146335494299
 20
39.188434636338798
 30
0.0
 11
1.2027188249755101
 21
38.841841866291901
 31
0.0
  0
LINE
  5
17F
100
AcDbEntity
100
AcDbLine
  8
Layer0
 62
256
370
-1
  6
ByLayer
 10
63.503678833972401
 20
6.3500000000000503
 30
0.0
 11
58.728478833972403
 21
6.3500000000000503
 31
0.0
  0
LINE
  5
180
100
AcDbEntity
100
AcDbLine
  8
Layer0
 62
256
370
-1
  6
ByLayer
 10
63.503678833972401
 20
6.3500000000000503
 30
0.0
 11
63.503678833972401
 21
-6.3499999999999703
 31
0.0
  0
LINE
  5
181
100
AcDbEntity
100
AcDbLine
  8
Layer0
 62
256
370
-1
  6
ByLayer
 10
58.728478833972403
 20
-6.3499999999999703
 30
0.0
 11
63.503678833972401
 21
-6.3499999999999703
 31
0.0
  0
LINE
  5
182
100
AcDbEntity
100
AcDbLine
  8
Layer0
 62
256
370
-1
  6
ByLayer
 10
58.728478833972403
 20
-6.3499999999999703
 30
0.0
 11
58.728478833972403
 21
6.3500000000000503
 31
0.0
  0
LINE
  5
183
100
AcDbEntity
100
AcDbLine
  8
Layer0
 62
256
370
-1
  6
ByLayer
 10
-18.497251698649102
 20
60.595691943035902
 30
0.0
 11
-18.083089462676099
 21
60.541166450263702
 31
0.0
  0
LINE
  5
184
100
AcDbEntity
100
AcDbLine
  8
Layer0
 62
256
370
-1
  6
ByLayer
 10
1.0506641679298401
 20
-1.1900676687601801
 30
0.0
 11
1.32287583219585
 21
-0.877585199620048
 31
0.0
  0
LINE
  5
185
100
AcDbEntity
100
AcDbLine
  8
Layer0
 62
256
370
-1
  6
ByLayer
 10
-25.907999999999902
 20
-31.941353116795401
 30
0.0
 11
-26.1376842020086
 21
-31.944369611510801
 31
0.0
  0
LINE
  5
186
100
AcDbEntity
100
AcDbLine
  8
Layer0
 62
256
370
-1
  6
ByLayer
 10
-25.907999999999902
 20
-35.114646883205303
 30
0.0
 11
-26.096015802333401
 21
-35.1171161373776
 31
0.0
  0
LINE
  5
187
100
AcDbEntity
100
AcDbLine
  8
Layer0
 62
256
370
-1
  6
ByLayer
 10
1.32287583219585
 20
-0.877585199620048
 30
0.0
 11
1.5049356946533701
 21
-0.505296749403915
 31
0.0
  0
LINE
  5
188
100
AcDbEntity
100
AcDbLine
  8
Layer0
 62
256
370
-1
  6
ByLayer
 10
1.5559609173337601
 20
0.314868025893195
 30
0.0
 11
1.4214489929541101
 21
0.706851476924053
 31
0.0
  0
LINE
  5
189
100
AcDbEntity
100
AcDbLine
  8
Layer0
 62
256
370
-1
  6
ByLayer
 10
1.4214489929541101
 20
0.706851476924053
 30
0.0
 11
1.1900676687601801
 21
1.0506641679298401
 31
0.0
  0
LINE
  5
18A
100
AcDbEntity
100
AcDbLine
  8
Layer0
 62
256
370
-1
  6
ByLayer
 10
1.1900676687601801
 20
1.0506641679298401
 30
0.0
 11
0.877585199620048
 21
1.32287583219585
 31
0.0
  0
LINE
  5
18B
100
AcDbEntity
100
AcDbLine
  8
Layer0
 62
256
370
-1
  6
ByLayer
 10
0.877585199620048
 20
1.32287583219585
 30
0.0
 11
0.505296749403915
 21
1.5049356946533701
 31
0.0
  0
LINE
  5
18C
100
AcDbEntity
100
AcDbLine
  8
Layer0
 62
256
370
-1
  6
ByLayer
 10
0.505296749403915
 20
1.5049356946533701
 30
0.0
 11
0.0985731607582785
 21
1.5844366765441
 31
0.0
  0
LINE
  5
18D
100
AcDbEntity
100
AcDbLine
  8
Layer0
 62
256
370
-1
  6
ByLayer
 10
-1.5844366765441
 20
0.0985731607582785
 30
0.0
 11
-1.5559609173337601
 21
-0.314868025893195
 31
0.0
  0
LINE
  5
18E
100
AcDbEntity
100
AcDbLine
  8
Layer0
 62
256
370
-1
  6
ByLayer
 10
-1.5559609173337601
 20
-0.314868025893195
 30
0.0
 11
-1.4214489929541101
 21
-0.706851476924064
 31
0.0
  0
LINE
  5
18F
100
AcDbEntity
100
AcDbLine
  8
Layer0
 62
256
370
-1
  6
ByLayer
 10
-1.4214489929541101
 20
-0.706851476924064
 30
0.0
 11
-1.1900676687601801
 21
-1.0506641679298401
 31
0.0
  0
LINE
  5
190
100
AcDbEntity
100
AcDbLine
  8
Layer0
 62
256
370
-1
  6
ByLayer
 10
-0.877585199620048
 20
-1.32287583219585
 30
0.0
 11
-0.505296749403915
 21
-1.5049356946533701
 31
0.0
  0
LINE
  5
191
100
AcDbEntity
100
AcDbLine
  8
Layer0
 62
256
370
-1
  6
ByLayer
 10
-0.505296749403915
 20
-1.5049356946533701
 30
0.0
 11
-0.0985731607582785
 21
-1.5844366765441
 31
0.0
  0
LINE
  5
192
100
AcDbEntity
100
AcDbLine
  8
Layer0
 62
256
370
-1
  6
ByLayer
 10
-0.0985731607582785
 20
-1.5844366765441
 30
0.0
 11
0.314868025893195
 21
-1.5559609173337601
 31
0.0
  0
LINE
  5
193
100
AcDbEntity
100
AcDbLine
  8
Layer0
 62
256
370
-1
  6
ByLayer
 10
19.6832894626762
 20
62.141366450263703
 30
0.0
 11
19.6287639699039
 21
62.555528686236698
 31
0.0
  0
ARC
  5
194
100
AcDbEntity
  8
Layer0
 62
256
370
-1
  6
ByLayer
100
AcDbCircle
 10
-49.383465539866215
 20
49.37109359478557
 30
0.0
 40
3.155742525732987
100
AcDbArc
 50
227.45794235146721
 51
42.557645211179683
  0
ARC
  5
195
100
AcDbEntity
  8
Layer0
 62
256
370
-1
  6
ByLayer
100
AcDbCircle
 10
49.37750436587271
 20
49.38086299274611
 30
0.0
 40
3.1577347565044049
100
AcDbArc
 50
137.50129373571255
 51
312.50293514767282
  0
ARC
  5
196
100
AcDbEntity
  8
Layer0
 62
256
370
-1
  6
ByLayer
100
AcDbCircle
 10
49.379101740912432
 20
-49.37910174091278
 30
0.0
 40
3.1575953797998815
100
AcDbArc
 50
47.497065307324888
 51
222.50293469267385
  0
ARC
  5
197
100
AcDbEntity
  8
0
 62
256
370
-1
  6
ByLayer
100
AcDbCircle
 10
-49.381548507330152
 20
-49.371009591524924
 30
0.0
 40
3.1543074867183245
100
AcDbArc
 50
317.41767053269768
 51
132.56904528027931
  0
CIRCLE
  5
198
100
AcDbEntity
100
AcDbCircle
  8
0
 62
256
370
-1
  6
ByLayer
 10
0.0000239051006956
 20
-0.0000471651862466
 30
0.0
 40
69.766403944009241
  0
ENDSEC
  0
SECTION
  2
OBJECTS
  0
DICTIONARY
  5
C
100
AcDbDictionary
280
0
281
1
  3
ACAD_GROUP
350
D
  3
ACAD_LAYOUT
350
1A
  3
ACAD_MLINESTYLE
350
17
  3
ACAD_PLOTSETTINGS
350
19
  3
ACAD_PLOTSTYLENAME
350
E
  3
AcDbVariableDictionary
350
199
  0
DICTIONARY
  5
D
100
AcDbDictionary
280
0
281
1
  0
ACDBDICTIONARYWDFLT
  5
E
100
AcDbDictionary
281
1
  3
Normal
350
F
100
AcDbDictionaryWithDefault
340
F
  0
ACDBPLACEHOLDER
  5
F
  0
DICTIONARY
  5
17
100
AcDbDictionary
280
0
281
1
  3
Standard
350
18
  0
MLINESTYLE
  5
18
100
AcDbMlineStyle
  2
STANDARD
 70
0
  3

 62
256
 51
90.0
 52
90.0
 71
2
 49
0.5
 62
256
  6
BYLAYER
 49
-0.5
 62
256
  6
BYLAYER
  0
DICTIONARY
  5
19
100
AcDbDictionary
280
0
281
1
  0
DICTIONARY
  5
1A
100
AcDbDictionary
281
1
  3
Layout1
350
1E
  3
Layout2
350
26
  3
Model
350
22
  0
LAYOUT
  5
1E
100
AcDbPlotSettings
  1

  2
C:\Program Files\AutoCAD 2002\plotters\DWF ePlot (optimized for plotting).pc3
  4

  6

 40
0.0
 41
0.0
 42
0.0
 43
0.0
 44
0.0
 45
0.0
 46
0.0
 47
0.0
 48
0.0
 49
0.0
140
0.0
141
0.0
142
1.0
143
1.0
 70
688
 72
0
 73
0
 74
5
  7

 75
16
147
1.0
148
0.0
149
0.0
100
AcDbLayout
  1
Layout1
 70
1
 71
1
 10
0.0
 20
0.0
 11
420.0
 21
297.0
 12
0.0
 22
0.0
 32
0.0
 14
100000000000000000000.0
 24
100000000000000000000.0
 34
100000000000000000000.0
 15
-100000000000000000000.0
 25
-100000000000000000000.0
 35
-100000000000000000000.0
146
0.0
 13
0.0
 23
0.0
 33
0.0
 16
1.0
 26
0.0
 36
0.0
 17
0.0
 27
1.0
 37
0.0
 76
0
330
1B
  0
LAYOUT
  5
22
100
AcDbPlotSettings
  1

  2
C:\Program Files\AutoCAD 2002\plotters\DWF ePlot (optimized for plotting).pc3
  4

  6

 40
0.0
 41
0.0
 42
0.0
 43
0.0
 44
0.0
 45
0.0
 46
0.0
 47
0.0
 48
0.0
 49
0.0
140
0.0
141
0.0
142
1.0
143
1.0
 70
1712
 72
0
 73
0
 74
0
  7

 75
0
147
1.0
148
0.0
149
0.0
100
AcDbLayout
  1
Model
 70
1
 71
0
 10
0.0
 20
0.0
 11
12.0
 21
9.0
 12
0.0
 22
0.0
 32
0.0
 14
0.0
 24
0.0
 34
0.0
 15
0.0
 25
0.0
 35
0.0
146
0.0
 13
0.0
 23
0.0
 33
0.0
 16
1.0
 26
0.0
 36
0.0
 17
0.0
 27
1.0
 37
0.0
 76
0
330
1F
  0
LAYOUT
  5
26
100
AcDbPlotSettings
  1

  2
C:\Program Files\AutoCAD 2002\plotters\DWF ePlot (optimized for plotting).pc3
  4

  6

 40
0.0
 41
0.0
 42
0.0
 43
0.0
 44
0.0
 45
0.0
 46
0.0
 47
0.0
 48
0.0
 49
0.0
140
0.0
141
0.0
142
1.0
143
1.0
 70
688
 72
0
 73
0
 74
5
  7

 75
16
147
1.0
148
0.0
149
0.0
100
AcDbLayout
  1
Layout2
 70
1
 71
2
 10
0.0
 20
0.0
 11
12.0
 21
9.0
 12
0.0
 22
0.0
 32
0.0
 14
0.0
 24
0.0
 34
0.0
 15
0.0
 25
0.0
 35
0.0
146
0.0
 13
0.0
 23
0.0
 33
0.0
 16
1.0
 26
0.0
 36
0.0
 17
0.0
 27
1.0
 37
0.0
 76
0
330
23
  0
DICTIONARY
  5
199
100
AcDbDictionary
281
1
  3
DIMASSOC
350
19B
  3
HIDETEXT
350
19A
  0
DICTIONARYVAR
  5
19A
100
DictionaryVariables
280
0
  1
2
  0
DICTIONARYVAR
  5
19B
100
DictionaryVariables
280
0
  1
1
  0
ENDSEC
  0
EOF
