999
dxflib 2.2.0.0
  0
SECTION
  2
HEADER
  9
$ACADVER
  1
AC1015
  9
$HANDSEED
  5
FFFF
  9
$SPLINESEGS
 70
8
  9
$DIMEXE
 40
0.05
  9
$DIMLUNIT
 70
2
  9
$GRIDMODE
 70
1
  9
$INSUNITS
 70
4
  9
$DIMADEC
 70
2
  9
$DIMASZ
 40
0.1
  9
$DIMGAP
 40
0.025
  9
$DIMTXT
 40
0.1
  9
$GRIDUNIT
 10
0.0
 20
0.0
  9
$DIMEXO
 40
0.025
  9
$LUPREC
 70
4
  9
$DIMAUNIT
 70
0
  9
$AUPREC
 70
2
  9
$PLIMMIN
 10
0.0
 20
0.0
  9
$LUNITS
 70
2
  9
$PLIMMAX
 10
210.0
 20
297.0
  9
$DIMSTYLE
  2
Standard
  9
$AUNITS
 70
0
  0
ENDSEC
  0
SECTION
  2
TABLES
  0
TABLE
  2
VPORT
  5
8
100
AcDbSymbolTable
 70
1
  0
VPORT
  5
30
100
AcDbSymbolTableRecord
100
AcDbViewportTableRecord
  2
*Active
 70
0
 10
0.0
 20
0.0
 11
1.0
 21
1.0
 12
286.30555555555549
 22
148.5
 13
0.0
 23
0.0
 14
10.0
 24
10.0
 15
10.0
 25
10.0
 16
0.0
 26
0.0
 36
1.0
 17
0.0
 27
0.0
 37
0.0
 40
297.0
 41
1.92798353909465
 42
50.0
 43
0.0
 44
0.0
 50
0.0
 51
0.0
 71
0
 72
100
 73
1
 74
3
 75
1
 76
1
 77
0
 78
0
281
0
 65
1
110
0.0
120
0.0
130
0.0
111
1.0
121
0.0
131
0.0
112
0.0
122
1.0
132
0.0
 79
0
146
0.0
  0
ENDTAB
  0
TABLE
  2
LTYPE
  5
5
100
AcDbSymbolTable
 70
21
  0
LTYPE
  5
14
100
AcDbSymbolTableRecord
100
AcDbLinetypeTableRecord
  2
ByBlock
 70
0
  3

 72
65
 73
0
 40
0.0
  0
LTYPE
  5
15
100
AcDbSymbolTableRecord
100
AcDbLinetypeTableRecord
  2
ByLayer
 70
0
  3

 72
65
 73
0
 40
0.0
  0
LTYPE
  5
16
100
AcDbSymbolTableRecord
100
AcDbLinetypeTableRecord
  2
CONTINUOUS
 70
0
  3
Solid line
 72
65
 73
0
 40
0.0
  0
LTYPE
  5
31
100
AcDbSymbolTableRecord
100
AcDbLinetypeTableRecord
  2
DOT
 70
0
  3
Dot . . . . . . . . . . . . . . . . . . . . . .
 72
65
 73
2
 40
6.3499999999999996
 49
0.0
 74
0
 49
-6.3499999999999996
 74
0
  0
LTYPE
  5
32
100
AcDbSymbolTableRecord
100
AcDbLinetypeTableRecord
  2
DOT2
 70
0
  3
Dot (.5x) .....................................
 72
65
 73
2
 40
3.1749999999999998
 49
0.0
 74
0
 49
-3.1749999999999998
 74
0
  0
LTYPE
  5
33
100
AcDbSymbolTableRecord
100
AcDbLinetypeTableRecord
  2
DOTX2
 70
0
  3
Dot (2x) .  .  .  .  .  .  .  .  .  .  .  .  .
 72
65
 73
2
 40
12.699999999999999
 49
0.0
 74
0
 49
-12.699999999999999
 74
0
  0
LTYPE
  5
34
100
AcDbSymbolTableRecord
100
AcDbLinetypeTableRecord
  2
DASHED
 70
0
  3
Dashed __ __ __ __ __ __ __ __ __ __ __ __ __ _
 72
65
 73
2
 40
19.050000000000001
 49
12.699999999999999
 74
0
 49
-6.3499999999999996
 74
0
  0
LTYPE
  5
35
100
AcDbSymbolTableRecord
100
AcDbLinetypeTableRecord
  2
DASHED2
 70
0
  3
Dashed (.5x) _ _ _ _ _ _ _ _ _ _ _ _ _ _ _ _ _
 72
65
 73
2
 40
9.5250000000000004
 49
6.3499999999999996
 74
0
 49
-3.1749999999999998
 74
0
  0
LTYPE
  5
36
100
AcDbSymbolTableRecord
100
AcDbLinetypeTableRecord
  2
DASHEDX2
 70
0
  3
Dashed (2x) ____  ____  ____  ____  ____  ___
 72
65
 73
2
 40
38.100000000000001
 49
25.399999999999999
 74
0
 49
-12.699999999999999
 74
0
  0
LTYPE
  5
37
100
AcDbSymbolTableRecord
100
AcDbLinetypeTableRecord
  2
DASHDOT
 70
0
  3
Dash dot __ . __ . __ . __ . __ . __ . __ . __
 72
65
 73
4
 40
25.399999999999999
 49
12.699999999999999
 74
0
 49
-6.3499999999999996
 74
0
 49
0.0
 74
0
 49
-6.3499999999999996
 74
0
  0
LTYPE
  5
38
100
AcDbSymbolTableRecord
100
AcDbLinetypeTableRecord
  2
DASHDOT2
 70
0
  3
Dash dot (.5x) _._._._._._._._._._._._._._._.
 72
65
 73
4
 40
12.699999999999999
 49
6.3499999999999996
 74
0
 49
-3.1749999999999998
 74
0
 49
0.0
 74
0
 49
-3.1749999999999998
 74
0
  0
LTYPE
  5
39
100
AcDbSymbolTableRecord
100
AcDbLinetypeTableRecord
  2
DASHDOTX2
 70
0
  3
Dash dot (2x) ____  .  ____  .  ____  .  ___
 72
65
 73
4
 40
50.799999999999997
 49
25.399999999999999
 74
0
 49
-12.699999999999999
 74
0
 49
0.0
 74
0
 49
-12.699999999999999
 74
0
  0
LTYPE
  5
3A
100
AcDbSymbolTableRecord
100
AcDbLinetypeTableRecord
  2
DIVIDE
 70
0
  3
Divide ____ . . ____ . . ____ . . ____ . . ____
 72
65
 73
6
 40
31.75
 49
12.699999999999999
 74
0
 49
-6.3499999999999996
 74
0
 49
0.0
 74
0
 49
-6.3499999999999996
 74
0
 49
0.0
 74
0
 49
-6.3499999999999996
 74
0
  0
LTYPE
  5
3B
100
AcDbSymbolTableRecord
100
AcDbLinetypeTableRecord
  2
DIVIDE2
 70
0
  3
Divide (.5x) __..__..__..__..__..__..__..__.._
 72
65
 73
6
 40
15.875
 49
6.3499999999999996
 74
0
 49
-3.1749999999999998
 74
0
 49
0.0
 74
0
 49
-3.1749999999999998
 74
0
 49
0.0
 74
0
 49
-3.1749999999999998
 74
0
  0
LTYPE
  5
3C
100
AcDbSymbolTableRecord
100
AcDbLinetypeTableRecord
  2
DIVIDEX2
 70
0
  3
Divide (2x) ________  .  .  ________  .  .  _
 72
65
 73
6
 40
63.5
 49
25.399999999999999
 74
0
 49
-12.699999999999999
 74
0
 49
0.0
 74
0
 49
-12.699999999999999
 74
0
 49
0.0
 74
0
 49
-12.699999999999999
 74
0
  0
LTYPE
  5
3D
100
AcDbSymbolTableRecord
100
AcDbLinetypeTableRecord
  2
CENTER
 70
0
  3
Center ____ _ ____ _ ____ _ ____ _ ____ _ ____
 72
65
 73
4
 40
50.799999999999997
 49
31.75
 74
0
 49
-6.3499999999999996
 74
0
 49
6.3499999999999996
 74
0
 49
-6.3499999999999996
 74
0
  0
LTYPE
  5
3E
100
AcDbSymbolTableRecord
100
AcDbLinetypeTableRecord
  2
CENTER2
 70
0
  3
Center (.5x) ___ _ ___ _ ___ _ ___ _ ___ _ ___
 72
65
 73
4
 40
28.574999999999999
 49
19.050000000000001
 74
0
 49
-3.1749999999999998
 74
0
 49
3.1749999999999998
 74
0
 49
-3.1749999999999998
 74
0
  0
LTYPE
  5
3F
100
AcDbSymbolTableRecord
100
AcDbLinetypeTableRecord
  2
CENTERX2
 70
0
  3
Center (2x) ________  __  ________  __  _____
 72
65
 73
4
 40
101.59999999999999
 49
63.5
 74
0
 49
-12.699999999999999
 74
0
 49
12.699999999999999
 74
0
 49
-12.699999999999999
 74
0
  0
LTYPE
  5
40
100
AcDbSymbolTableRecord
100
AcDbLinetypeTableRecord
  2
BORDER
 70
0
  3
Border __ __ . __ __ . __ __ . __ __ . __ __ .
 72
65
 73
6
 40
44.450000000000003
 49
12.699999999999999
 74
0
 49
-6.3499999999999996
 74
0
 49
12.699999999999999
 74
0
 49
-6.3499999999999996
 74
0
 49
0.0
 74
0
 49
-6.3499999999999996
 74
0
  0
LTYPE
  5
41
100
AcDbSymbolTableRecord
100
AcDbLinetypeTableRecord
  2
BORDER2
 70
0
  3
Border (.5x) __.__.__.__.__.__.__.__.__.__.__.
 72
65
 73
6
 40
22.225000000000001
 49
6.3499999999999996
 74
0
 49
-3.1749999999999998
 74
0
 49
6.3499999999999996
 74
0
 49
-3.1749999999999998
 74
0
 49
0.0
 74
0
 49
-3.1749999999999998
 74
0
  0
LTYPE
  5
42
100
AcDbSymbolTableRecord
100
AcDbLinetypeTableRecord
  2
BORDERX2
 70
0
  3
Border (2x) ____  ____  .  ____  ____  .  ___
 72
65
 73
6
 40
88.900000000000006
 49
25.399999999999999
 74
0
 49
-12.699999999999999
 74
0
 49
25.399999999999999
 74
0
 49
-12.699999999999999
 74
0
 49
0.0
 74
0
 49
-12.699999999999999
 74
0
  0
ENDTAB
  0
TABLE
  2
LAYER
  5
2
100
AcDbSymbolTable
 70
2
  0
LAYER
  5
10
100
AcDbSymbolTableRecord
100
AcDbLayerTableRecord
  2
0
 70
0
 62
7
  6
CONTINUOUS
370
0
390
F
  0
LAYER
  5
43
100
AcDbSymbolTableRecord
100
AcDbLayerTableRecord
  2
Layer0
 70
0
 62
7
  6
ByLayer
390
F
  0
ENDTAB
  0
TABLE
  2
STYLE
  5
3
100
AcDbSymbolTable
 70
1
  0
STYLE
  5
11
100
AcDbSymbolTableRecord
100
AcDbTextStyleTableRecord
  2
Standard
 70
0
 40
0.0
 41
0.75
 50
0.0
 71
0
 42
2.5
  3
txt
  4

  0
ENDTAB
  0
TABLE
  2
VIEW
  5
6
100
AcDbSymbolTable
 70
0
  0
ENDTAB
  0
TABLE
  2
UCS
  5
7
100
AcDbSymbolTable
 70
0
  0
ENDTAB
  0
TABLE
  2
APPID
  5
9
100
AcDbSymbolTable
 70
1
  0
APPID
  5
12
100
AcDbSymbolTableRecord
100
AcDbRegAppTableRecord
  2
ACAD
 70
0
  0
ENDTAB
  0
TABLE
  2
DIMSTYLE
  5
A
100
AcDbSymbolTable
 70
1
100
AcDbDimStyleTable
 71
0
  0
DIMSTYLE
105
27
100
AcDbSymbolTableRecord
100
AcDbDimStyleTableRecord
  2
Standard
 41
0.1
 42
0.025
 43
3.75
 44
0.05
 70
0
 73
0
 74
0
 77
1
 78
8
140
0.1
141
2.5
143
0.03937007874016
147
0.025
171
3
172
1
271
2
272
2
274
3
278
44
283
0
284
8
340
11
  0
ENDTAB
  0
TABLE
  2
BLOCK_RECORD
  5
1
100
AcDbSymbolTable
 70
1
  0
BLOCK_RECORD
  5
1F
100
AcDbSymbolTableRecord
100
AcDbBlockTableRecord
  2
*Model_Space
340
22
  0
BLOCK_RECORD
  5
1B
100
AcDbSymbolTableRecord
100
AcDbBlockTableRecord
  2
*Paper_Space
340
1E
  0
BLOCK_RECORD
  5
23
100
AcDbSymbolTableRecord
100
AcDbBlockTableRecord
  2
*Paper_Space0
340
26
  0
ENDTAB
  0
ENDSEC
  0
SECTION
  2
BLOCKS
  0
BLOCK
  5
20
100
AcDbEntity
  8
0
100
AcDbBlockBegin
  2
*Model_Space
 70
0
 10
0.0
 20
0.0
 30
0.0
  3
*Model_Space
  1

  0
ENDBLK
  5
21
100
AcDbEntity
  8
0
100
AcDbBlockEnd
  0
BLOCK
  5
1C
100
AcDbEntity
 67
1
  8
0
100
AcDbBlockBegin
  2
*Paper_Space
 70
0
 10
0.0
 20
0.0
 30
0.0
  3
*Paper_Space
  1

  0
ENDBLK
  5
1D
100
AcDbEntity
 67
1
  8
0
100
AcDbBlockEnd
  0
BLOCK
  5
24
100
AcDbEntity
  8
0
100
AcDbBlockBegin
  2
*Paper_Space0
 70
0
 10
0.0
 20
0.0
 30
0.0
  3
*Paper_Space0
  1

  0
ENDBLK
  5
25
100
AcDbEntity
  8
0
100
AcDbBlockEnd
  0
ENDSEC
  0
SECTION
  2
ENTITIES
  0
LINE
  5
44
100
AcDbEntity
100
AcDbLine
  8
Layer0
 62
256
370
-1
  6
ByLayer
 10
-0.893559716066334
 20
41.190138439275202
 30
0.0
 11
-0.523505989184495
 21
41.376698678616897
 31
0.0
  0
LINE
  5
45
100
AcDbEntity
100
AcDbLine
  8
Layer0
 62
256
370
-1
  6
ByLayer
 10
-0.523505989184495
 20
41.376698678616897
 30
0.0
 11
-0.117776194274281
 21
41.461125079727502
 31
0.0
  0
LINE
  5
46
100
AcDbEntity
100
AcDbLine
  8
Layer0
 62
256
370
-1
  6
ByLayer
 10
-0.117776194274281
 20
41.461125079727502
 30
0.0
 11
0.29597985364137
 21
41.437664122892599
 31
0.0
  0
LINE
  5
47
100
AcDbEntity
100
AcDbLine
  8
Layer0
 62
256
370
-1
  6
ByLayer
 10
0.29597985364137
 20
41.437664122892599
 30
0.0
 11
0.689565363661189
 21
41.307914633549402
 31
0.0
  0
LINE
  5
48
100
AcDbEntity
100
AcDbLine
  8
Layer0
 62
256
370
-1
  6
ByLayer
 10
0.689565363661189
 20
41.307914633549402
 30
0.0
 11
1.03615813370814
 21
41.080718824975499
 31
0.0
  0
LINE
  5
49
100
AcDbEntity
100
AcDbLine
  8
Layer0
 62
256
370
-1
  6
ByLayer
 10
1.03615813370814
 20
41.080718824975499
 30
0.0
 11
1.3121384392751601
 21
40.771559716066299
 31
0.0
  0
LINE
  5
4A
100
AcDbEntity
100
AcDbLine
  8
Layer0
 62
256
370
-1
  6
ByLayer
 10
20.276384706223698
 20
66.8422824508947
 30
0.0
 11
26.730437750701
 21
64.532985345913303
 31
0.0
  0
LINE
  5
4B
100
AcDbEntity
100
AcDbLine
  8
Layer0
 62
256
370
-1
  6
ByLayer
 10
26.730437750701
 20
64.532985345913303
 30
0.0
 11
32.927062067295303
 21
61.602200314732499
 31
0.0
  0
LINE
  5
4C
100
AcDbEntity
100
AcDbLine
  8
Layer0
 62
256
370
-1
  6
ByLayer
 10
32.927062067295303
 20
61.602200314732499
 30
0.0
 11
38.806580776418699
 21
58.078152419332604
 31
0.0
  0
LINE
  5
4D
100
AcDbEntity
100
AcDbLine
  8
Layer0
 62
256
370
-1
  6
ByLayer
 10
38.806580776418699
 20
58.078152419332604
 30
0.0
 11
44.312370898830103
 21
53.994780167386999
 31
0.0
  0
LINE
  5
4E
100
AcDbEntity
100
AcDbLine
  8
Layer0
 62
256
370
-1
  6
ByLayer
 10
44.312370898830103
 20
53.994780167386999
 30
0.0
 11
47.049329924252099
 21
51.514145102974503
 31
0.0
  0
LINE
  5
4F
100
AcDbEntity
100
AcDbLine
  8
Layer0
 62
256
370
-1
  6
ByLayer
 10
51.510958308046902
 20
47.052846010622197
 30
0.0
 11
53.9947801673867
 21
44.312370898830501
 31
0.0
  0
LINE
  5
50
100
AcDbEntity
100
AcDbLine
  8
Layer0
 62
256
370
-1
  6
ByLayer
 10
53.9947801673867
 20
44.312370898830501
 30
0.0
 11
58.078152419332099
 21
38.806580776419104
 31
0.0
  0
LINE
  5
51
100
AcDbEntity
100
AcDbLine
  8
Layer0
 62
256
370
-1
  6
ByLayer
 10
58.078152419332099
 20
38.806580776419104
 30
0.0
 11
61.602200314732002
 21
32.9270620672958
 31
0.0
  0
LINE
  5
52
100
AcDbEntity
100
AcDbLine
  8
Layer0
 62
256
370
-1
  6
ByLayer
 10
61.602200314732002
 20
32.9270620672958
 30
0.0
 11
64.532985345912905
 21
26.730437750701402
 31
0.0
  0
LINE
  5
53
100
AcDbEntity
100
AcDbLine
  8
Layer0
 62
256
370
-1
  6
ByLayer
 10
64.532985345912905
 20
26.730437750701402
 30
0.0
 11
66.842282450894302
 21
20.2763847062241
 31
0.0
  0
LINE
  5
54
100
AcDbEntity
100
AcDbLine
  8
Layer0
 62
256
370
-1
  6
ByLayer
 10
66.842282450894302
 20
20.2763847062241
 30
0.0
 11
68.507851836165102
 21
13.6270589928265
 31
0.0
  0
LINE
  5
55
100
AcDbEntity
100
AcDbLine
  8
Layer0
 62
256
370
-1
  6
ByLayer
 10
68.507851836165102
 20
13.6270589928265
 30
0.0
 11
69.513653158052406
 21
6.84649725201972
 31
0.0
  0
LINE
  5
56
100
AcDbEntity
100
AcDbLine
  8
Layer0
 62
256
370
-1
  6
ByLayer
 10
69.513653158052406
 20
6.84649725201972
 30
0.0
 11
69.849999999999298
 21
-0.0000000000000564
 31
0.0
  0
LINE
  5
57
100
AcDbEntity
100
AcDbLine
  8
Layer0
 62
256
370
-1
  6
ByLayer
 10
69.849999999999298
 20
-0.0000000000000564
 30
0.0
 11
69.513653158052406
 21
-6.8464972520198604
 31
0.0
  0
LINE
  5
58
100
AcDbEntity
100
AcDbLine
  8
Layer0
 62
256
370
-1
  6
ByLayer
 10
69.513653158052406
 20
-6.8464972520198604
 30
0.0
 11
68.507851836165003
 21
-13.627058992826599
 31
0.0
  0
LINE
  5
59
100
AcDbEntity
100
AcDbLine
  8
Layer0
 62
256
370
-1
  6
ByLayer
 10
68.507851836165003
 20
-13.627058992826599
 30
0.0
 11
66.842282450894302
 21
-20.276384706224199
 31
0.0
  0
LINE
  5
5A
100
AcDbEntity
100
AcDbLine
  8
Layer0
 62
256
370
-1
  6
ByLayer
 10
66.842282450894302
 20
-20.276384706224199
 30
0.0
 11
64.532985345912806
 21
-26.730437750701501
 31
0.0
  0
LINE
  5
5B
100
AcDbEntity
100
AcDbLine
  8
Layer0
 62
256
370
-1
  6
ByLayer
 10
64.532985345912806
 20
-26.730437750701501
 30
0.0
 11
61.602200314732002
 21
-32.9270620672959
 31
0.0
  0
LINE
  5
5C
100
AcDbEntity
100
AcDbLine
  8
Layer0
 62
256
370
-1
  6
ByLayer
 10
61.602200314732002
 20
-32.9270620672959
 30
0.0
 11
58.078152419332099
 21
-38.806580776419203
 31
0.0
  0
LINE
  5
5D
100
AcDbEntity
100
AcDbLine
  8
Layer0
 62
256
370
-1
  6
ByLayer
 10
58.078152419332099
 20
-38.806580776419203
 30
0.0
 11
53.994780167386601
 21
-44.312370898830601
 31
0.0
  0
LINE
  5
5E
100
AcDbEntity
100
AcDbLine
  8
Layer0
 62
256
370
-1
  6
ByLayer
 10
53.994780167386601
 20
-44.312370898830601
 30
0.0
 11
51.5124614977994
 21
-47.051187496309097
 31
0.0
  0
LINE
  5
5F
100
AcDbEntity
100
AcDbLine
  8
Layer0
 62
256
370
-1
  6
ByLayer
 10
47.0511874963087
 20
-51.512461497799698
 30
0.0
 11
44.312370898829997
 21
-53.994780167387098
 31
0.0
  0
LINE
  5
60
100
AcDbEntity
100
AcDbLine
  8
Layer0
 62
256
370
-1
  6
ByLayer
 10
44.312370898829997
 20
-53.994780167387098
 30
0.0
 11
38.806580776418798
 21
-58.078152419332703
 31
0.0
  0
LINE
  5
61
100
AcDbEntity
100
AcDbLine
  8
Layer0
 62
256
370
-1
  6
ByLayer
 10
38.806580776418798
 20
-58.078152419332703
 30
0.0
 11
32.927062067295402
 21
-61.602200314732599
 31
0.0
  0
LINE
  5
62
100
AcDbEntity
100
AcDbLine
  8
Layer0
 62
256
370
-1
  6
ByLayer
 10
32.927062067295402
 20
-61.602200314732599
 30
0.0
 11
26.730437750701
 21
-64.532985345913303
 31
0.0
  0
LINE
  5
63
100
AcDbEntity
100
AcDbLine
  8
Layer0
 62
256
370
-1
  6
ByLayer
 10
26.730437750701
 20
-64.532985345913303
 30
0.0
 11
20.276384706223801
 21
-66.8422824508948
 31
0.0
  0
LINE
  5
64
100
AcDbEntity
100
AcDbLine
  8
Layer0
 62
256
370
-1
  6
ByLayer
 10
20.276384706223801
 20
-66.8422824508948
 30
0.0
 11
13.6270589928262
 21
-68.507851836165599
 31
0.0
  0
LINE
  5
65
100
AcDbEntity
100
AcDbLine
  8
Layer0
 62
256
370
-1
  6
ByLayer
 10
13.6270589928262
 20
-68.507851836165599
 30
0.0
 11
6.8464972520194003
 21
-69.513653158053003
 31
0.0
  0
LINE
  5
66
100
AcDbEntity
100
AcDbLine
  8
Layer0
 62
256
370
-1
  6
ByLayer
 10
6.8464972520194003
 20
-69.513653158053003
 30
0.0
 11
-0.0000000000003271
 21
-69.849999999999994
 31
0.0
  0
LINE
  5
67
100
AcDbEntity
100
AcDbLine
  8
Layer0
 62
256
370
-1
  6
ByLayer
 10
-6.8464972520201099
 20
-69.513653158052904
 30
0.0
 11
-0.0000000000003271
 21
-69.849999999999994
 31
0.0
  0
LINE
  5
68
100
AcDbEntity
100
AcDbLine
  8
Layer0
 62
256
370
-1
  6
ByLayer
 10
-13.6270589928268
 20
-68.507851836165599
 30
0.0
 11
-6.8464972520201099
 21
-69.513653158052904
 31
0.0
  0
LINE
  5
69
100
AcDbEntity
100
AcDbLine
  8
Layer0
 62
256
370
-1
  6
ByLayer
 10
-20.276384706224398
 20
-66.8422824508948
 30
0.0
 11
-13.6270589928268
 21
-68.507851836165599
 31
0.0
  0
LINE
  5
6A
100
AcDbEntity
100
AcDbLine
  8
Layer0
 62
256
370
-1
  6
ByLayer
 10
-26.7304377507017
 20
-64.532985345913303
 30
0.0
 11
-20.276384706224398
 21
-66.8422824508948
 31
0.0
  0
LINE
  5
6B
100
AcDbEntity
100
AcDbLine
  8
Layer0
 62
256
370
-1
  6
ByLayer
 10
-32.927062067296099
 20
-61.602200314732499
 30
0.0
 11
-26.7304377507017
 21
-64.532985345913303
 31
0.0
  0
LINE
  5
6C
100
AcDbEntity
100
AcDbLine
  8
Layer0
 62
256
370
-1
  6
ByLayer
 10
-38.806580776419302
 20
-58.078152419332703
 30
0.0
 11
-32.927062067296099
 21
-61.602200314732499
 31
0.0
  0
LINE
  5
6D
100
AcDbEntity
100
AcDbLine
  8
Layer0
 62
256
370
-1
  6
ByLayer
 10
-44.3123708988307
 20
-53.994780167387098
 30
0.0
 11
-38.806580776419302
 21
-58.078152419332703
 31
0.0
  0
LINE
  5
6E
100
AcDbEntity
100
AcDbLine
  8
Layer0
 62
256
370
-1
  6
ByLayer
 10
-47.059013588635302
 20
-51.505368341175597
 30
0.0
 11
-44.3123708988307
 21
-53.994780167387098
 31
0.0
  0
LINE
  5
6F
100
AcDbEntity
100
AcDbLine
  8
Layer0
 62
256
370
-1
  6
ByLayer
 10
-53.994780167387198
 20
-44.312370898830601
 30
0.0
 11
-51.515368713389996
 21
-47.047979878202703
 31
0.0
  0
LINE
  5
70
100
AcDbEntity
100
AcDbLine
  8
Layer0
 62
256
370
-1
  6
ByLayer
 10
-58.078152419332802
 20
-38.806580776419203
 30
0.0
 11
-53.994780167387198
 21
-44.312370898830601
 31
0.0
  0
LINE
  5
71
100
AcDbEntity
100
AcDbLine
  8
Layer0
 62
256
370
-1
  6
ByLayer
 10
-61.602200314732599
 20
-32.9270620672959
 30
0.0
 11
-58.078152419332802
 21
-38.806580776419203
 31
0.0
  0
LINE
  5
72
100
AcDbEntity
100
AcDbLine
  8
Layer0
 62
256
370
-1
  6
ByLayer
 10
-64.532985345913403
 20
-26.730437750701501
 30
0.0
 11
-61.602200314732599
 21
-32.9270620672959
 31
0.0
  0
LINE
  5
73
100
AcDbEntity
100
AcDbLine
  8
Layer0
 62
256
370
-1
  6
ByLayer
 10
-66.8422824508948
 20
-20.276384706224199
 30
0.0
 11
-64.532985345913403
 21
-26.730437750701501
 31
0.0
  0
LINE
  5
74
100
AcDbEntity
100
AcDbLine
  8
Layer0
 62
256
370
-1
  6
ByLayer
 10
-68.507851836165599
 20
-13.627058992826599
 30
0.0
 11
-66.8422824508948
 21
-20.276384706224199
 31
0.0
  0
LINE
  5
75
100
AcDbEntity
100
AcDbLine
  8
Layer0
 62
256
370
-1
  6
ByLayer
 10
-69.513653158052904
 20
-6.8464972520198497
 30
0.0
 11
-68.507851836165599
 21
-13.627058992826599
 31
0.0
  0
LINE
  5
76
100
AcDbEntity
100
AcDbLine
  8
Layer0
 62
256
370
-1
  6
ByLayer
 10
-69.849999999999994
 20
-0.0000000000000451
 30
0.0
 11
-69.513653158052904
 21
-6.8464972520198497
 31
0.0
  0
LINE
  5
77
100
AcDbEntity
100
AcDbLine
  8
Layer0
 62
256
370
-1
  6
ByLayer
 10
-69.513653158052904
 20
6.8464972520197298
 30
0.0
 11
-69.849999999999994
 21
-0.0000000000000451
 31
0.0
  0
LINE
  5
78
100
AcDbEntity
100
AcDbLine
  8
Layer0
 62
256
370
-1
  6
ByLayer
 10
-68.507851836165599
 20
13.6270589928265
 30
0.0
 11
-69.513653158052904
 21
6.8464972520197298
 31
0.0
  0
LINE
  5
79
100
AcDbEntity
100
AcDbLine
  8
Layer0
 62
256
370
-1
  6
ByLayer
 10
-66.8422824508948
 20
20.2763847062241
 30
0.0
 11
-68.507851836165599
 21
13.6270589928265
 31
0.0
  0
LINE
  5
7A
100
AcDbEntity
100
AcDbLine
  8
Layer0
 62
256
370
-1
  6
ByLayer
 10
-64.532985345913403
 20
26.730437750701402
 30
0.0
 11
-66.8422824508948
 21
20.2763847062241
 31
0.0
  0
LINE
  5
7B
100
AcDbEntity
100
AcDbLine
  8
Layer0
 62
256
370
-1
  6
ByLayer
 10
-61.602200314732698
 20
32.9270620672958
 30
0.0
 11
-64.532985345913403
 21
26.730437750701402
 31
0.0
  0
LINE
  5
7C
100
AcDbEntity
100
AcDbLine
  8
Layer0
 62
256
370
-1
  6
ByLayer
 10
-58.078152419332902
 20
38.806580776419104
 30
0.0
 11
-61.602200314732698
 21
32.9270620672958
 31
0.0
  0
LINE
  5
7D
100
AcDbEntity
100
AcDbLine
  8
Layer0
 62
256
370
-1
  6
ByLayer
 10
-53.994780167387297
 20
44.312370898830501
 30
0.0
 11
-58.078152419332902
 21
38.806580776419104
 31
0.0
  0
LINE
  5
7E
100
AcDbEntity
100
AcDbLine
  8
Layer0
 62
256
370
-1
  6
ByLayer
 10
-51.517161583441201
 20
47.046001750932497
 30
0.0
 11
-53.994780167387297
 21
44.312370898830501
 31
0.0
  0
LINE
  5
7F
100
AcDbEntity
100
AcDbLine
  8
Layer0
 62
256
370
-1
  6
ByLayer
 10
-44.3123708988308
 20
53.994780167386999
 30
0.0
 11
-47.058954263213501
 21
51.505422110603597
 31
0.0
  0
LINE
  5
80
100
AcDbEntity
100
AcDbLine
  8
Layer0
 62
256
370
-1
  6
ByLayer
 10
-38.806580776419402
 20
58.078152419332604
 30
0.0
 11
-44.3123708988308
 21
53.994780167386999
 31
0.0
  0
LINE
  5
81
100
AcDbEntity
100
AcDbLine
  8
Layer0
 62
256
370
-1
  6
ByLayer
 10
-32.927062067296099
 20
61.602200314732499
 30
0.0
 11
-38.806580776419402
 21
58.078152419332604
 31
0.0
  0
LINE
  5
82
100
AcDbEntity
100
AcDbLine
  8
Layer0
 62
256
370
-1
  6
ByLayer
 10
-26.7304377507017
 20
64.532985345913303
 30
0.0
 11
-32.927062067296099
 21
61.602200314732499
 31
0.0
  0
LINE
  5
83
100
AcDbEntity
100
AcDbLine
  8
Layer0
 62
256
370
-1
  6
ByLayer
 10
-20.276384706224299
 20
66.8422824508947
 30
0.0
 11
-26.7304377507017
 21
64.532985345913303
 31
0.0
  0
LINE
  5
84
100
AcDbEntity
100
AcDbLine
  8
Layer0
 62
256
370
-1
  6
ByLayer
 10
-13.627058992826701
 20
68.507851836165599
 30
0.0
 11
-20.276384706224299
 21
66.8422824508947
 31
0.0
  0
LINE
  5
85
100
AcDbEntity
100
AcDbLine
  8
Layer0
 62
256
370
-1
  6
ByLayer
 10
-6.8464972520199598
 20
69.513653158052904
 30
0.0
 11
-13.627058992826701
 21
68.507851836165599
 31
0.0
  0
LINE
  5
86
100
AcDbEntity
100
AcDbLine
  8
Layer0
 62
256
370
-1
  6
ByLayer
 10
-0.0000000000001466
 20
69.849999999999994
 30
0.0
 11
-6.8464972520199598
 21
69.513653158052904
 31
0.0
  0
LINE
  5
87
100
AcDbEntity
100
AcDbLine
  8
Layer0
 62
256
370
-1
  6
ByLayer
 10
-0.0000000000001466
 20
69.849999999999994
 30
0.0
 11
6.8464972520192502
 21
69.513653158052904
 31
0.0
  0
LINE
  5
88
100
AcDbEntity
100
AcDbLine
  8
Layer0
 62
256
370
-1
  6
ByLayer
 10
6.8464972520192502
 20
69.513653158052904
 30
0.0
 11
13.6270589928261
 21
68.507851836165599
 31
0.0
  0
LINE
  5
89
100
AcDbEntity
100
AcDbLine
  8
Layer0
 62
256
370
-1
  6
ByLayer
 10
13.6270589928261
 20
68.507851836165599
 30
0.0
 11
20.276384706223698
 21
66.8422824508947
 31
0.0
  0
LINE
  5
8A
100
AcDbEntity
100
AcDbLine
  8
Layer0
 62
256
370
-1
  6
ByLayer
 10
6.3500000000000698
 20
63.503678833971698
 30
0.0
 11
-6.3499999999999597
 21
63.503678833971698
 31
0.0
  0
LINE
  5
8B
100
AcDbEntity
100
AcDbLine
  8
Layer0
 62
256
370
-1
  6
ByLayer
 10
-6.3499999999999597
 20
63.503678833971698
 30
0.0
 11
-6.3499999999999703
 21
58.7284788339717
 31
0.0
  0
LINE
  5
8C
100
AcDbEntity
100
AcDbLine
  8
Layer0
 62
256
370
-1
  6
ByLayer
 10
-6.3499999999999703
 20
58.7284788339717
 30
0.0
 11
-2.38759999999988
 21
58.7284788339717
 31
0.0
  0
LINE
  5
8D
100
AcDbEntity
100
AcDbLine
  8
Layer0
 62
256
370
-1
  6
ByLayer
 10
6.35000000000006
 20
58.7284788339717
 30
0.0
 11
6.3500000000000698
 21
63.503678833971698
 31
0.0
  0
LINE
  5
8E
100
AcDbEntity
100
AcDbLine
  8
Layer0
 62
256
370
-1
  6
ByLayer
 10
34.925225637087202
 20
30.176199999106
 30
0.0
 11
30.150313721772601
 21
30.176199999106
 31
0.0
  0
LINE
  5
8F
100
AcDbEntity
100
AcDbLine
  8
Layer0
 62
256
370
-1
  6
ByLayer
 10
34.925225637087202
 20
30.176199999106
 30
0.0
 11
34.925225637087202
 21
42.949644625317099
 31
0.0
  0
LINE
  5
90
100
AcDbEntity
100
AcDbLine
  8
Layer0
 62
256
370
-1
  6
ByLayer
 10
34.925225637087202
 20
42.949644625317099
 30
0.0
 11
30.150313721772601
 21
42.949644625317099
 31
0.0
  0
LINE
  5
91
100
AcDbEntity
100
AcDbLine
  8
Layer0
 62
256
370
-1
  6
ByLayer
 10
30.150313721772601
 20
42.949644625317099
 30
0.0
 11
30.150313721772601
 21
30.176199999106
 31
0.0
  0
LINE
  5
92
100
AcDbEntity
100
AcDbLine
  8
Layer0
 62
256
370
-1
  6
ByLayer
 10
-5.0931553712718198
 20
-43.498981108823401
 30
0.0
 11
-9.8683553712716208
 21
-43.498981108823401
 31
0.0
  0
LINE
  5
93
100
AcDbEntity
100
AcDbLine
  8
Layer0
 62
256
370
-1
  6
ByLayer
 10
-9.8683553712716208
 20
-56.198981108823297
 30
0.0
 11
-9.8683553712716208
 21
-43.498981108823401
 31
0.0
  0
LINE
  5
94
100
AcDbEntity
100
AcDbLine
  8
Layer0
 62
256
370
-1
  6
ByLayer
 10
-5.0931553712716902
 20
-56.198981108823297
 30
0.0
 11
-9.8683553712716208
 21
-56.198981108823297
 31
0.0
  0
LINE
  5
95
100
AcDbEntity
100
AcDbLine
  8
Layer0
 62
256
370
-1
  6
ByLayer
 10
-5.0931553712716902
 20
-56.198981108823297
 30
0.0
 11
-5.0931553712718198
 21
-43.498981108823401
 31
0.0
  0
LINE
  5
96
100
AcDbEntity
100
AcDbLine
  8
Layer0
 62
256
370
-1
  6
ByLayer
 10
0.314868025893195
 20
-1.5559609173337601
 30
0.0
 11
0.706851476924053
 21
-1.4214489929541101
 31
0.0
  0
LINE
  5
97
100
AcDbEntity
100
AcDbLine
  8
Layer0
 62
256
370
-1
  6
ByLayer
 10
0.706851476924053
 20
-1.4214489929541101
 30
0.0
 11
1.0506641679298401
 21
-1.1900676687601801
 31
0.0
  0
LINE
  5
98
100
AcDbEntity
100
AcDbLine
  8
Layer0
 62
256
370
-1
  6
ByLayer
 10
1.0506641679298401
 20
-1.1900676687601801
 30
0.0
 11
1.32287583219585
 21
-0.877585199620048
 31
0.0
  0
LINE
  5
99
100
AcDbEntity
100
AcDbLine
  8
Layer0
 62
256
370
-1
  6
ByLayer
 10
1.32287583219585
 20
-0.877585199620048
 30
0.0
 11
1.5049356946533701
 21
-0.505296749403915
 31
0.0
  0
LINE
  5
9A
100
AcDbEntity
100
AcDbLine
  8
Layer0
 62
256
370
-1
  6
ByLayer
 10
1.5049356946533701
 20
-0.505296749403915
 30
0.0
 11
1.5844366765441
 21
-0.0985731607582785
 31
0.0
  0
LINE
  5
9B
100
AcDbEntity
100
AcDbLine
  8
Layer0
 62
256
370
-1
  6
ByLayer
 10
1.5844366765441
 20
-0.0985731607582785
 30
0.0
 11
1.5559609173337601
 21
0.314868025893195
 31
0.0
  0
LINE
  5
9C
100
AcDbEntity
100
AcDbLine
  8
Layer0
 62
256
370
-1
  6
ByLayer
 10
1.5559609173337601
 20
0.314868025893195
 30
0.0
 11
1.4214489929541101
 21
0.706851476924053
 31
0.0
  0
LINE
  5
9D
100
AcDbEntity
100
AcDbLine
  8
Layer0
 62
256
370
-1
  6
ByLayer
 10
1.4214489929541101
 20
0.706851476924053
 30
0.0
 11
1.1900676687601801
 21
1.0506641679298401
 31
0.0
  0
LINE
  5
9E
100
AcDbEntity
100
AcDbLine
  8
Layer0
 62
256
370
-1
  6
ByLayer
 10
1.1900676687601801
 20
1.0506641679298401
 30
0.0
 11
0.877585199620048
 21
1.32287583219585
 31
0.0
  0
LINE
  5
9F
100
AcDbEntity
100
AcDbLine
  8
Layer0
 62
256
370
-1
  6
ByLayer
 10
0.877585199620048
 20
1.32287583219585
 30
0.0
 11
0.505296749403915
 21
1.5049356946533701
 31
0.0
  0
LINE
  5
A0
100
AcDbEntity
100
AcDbLine
  8
Layer0
 62
256
370
-1
  6
ByLayer
 10
0.505296749403915
 20
1.5049356946533701
 30
0.0
 11
0.0985731607582785
 21
1.5844366765441
 31
0.0
  0
LINE
  5
A1
100
AcDbEntity
100
AcDbLine
  8
Layer0
 62
256
370
-1
  6
ByLayer
 10
0.0985731607582785
 20
1.5844366765441
 30
0.0
 11
-0.314868025893195
 21
1.5559609173337601
 31
0.0
  0
LINE
  5
A2
100
AcDbEntity
100
AcDbLine
  8
Layer0
 62
256
370
-1
  6
ByLayer
 10
-0.314868025893195
 20
1.5559609173337601
 30
0.0
 11
-0.706851476924064
 21
1.4214489929541101
 31
0.0
  0
LINE
  5
A3
100
AcDbEntity
100
AcDbLine
  8
Layer0
 62
256
370
-1
  6
ByLayer
 10
-0.706851476924064
 20
1.4214489929541101
 30
0.0
 11
-1.0506641679298401
 21
1.1900676687601801
 31
0.0
  0
LINE
  5
A4
100
AcDbEntity
100
AcDbLine
  8
Layer0
 62
256
370
-1
  6
ByLayer
 10
-1.0506641679298401
 20
1.1900676687601801
 30
0.0
 11
-1.32287583219585
 21
0.877585199620048
 31
0.0
  0
LINE
  5
A5
100
AcDbEntity
100
AcDbLine
  8
Layer0
 62
256
370
-1
  6
ByLayer
 10
-1.32287583219585
 20
0.877585199620048
 30
0.0
 11
-1.5049356946533701
 21
0.505296749403915
 31
0.0
  0
LINE
  5
A6
100
AcDbEntity
100
AcDbLine
  8
Layer0
 62
256
370
-1
  6
ByLayer
 10
-1.5049356946533701
 20
0.505296749403915
 30
0.0
 11
-1.5844366765441
 21
0.0985731607582785
 31
0.0
  0
LINE
  5
A7
100
AcDbEntity
100
AcDbLine
  8
Layer0
 62
256
370
-1
  6
ByLayer
 10
-1.5844366765441
 20
0.0985731607582785
 30
0.0
 11
-1.5559609173337601
 21
-0.314868025893195
 31
0.0
  0
LINE
  5
A8
100
AcDbEntity
100
AcDbLine
  8
Layer0
 62
256
370
-1
  6
ByLayer
 10
-1.5559609173337601
 20
-0.314868025893195
 30
0.0
 11
-1.4214489929541101
 21
-0.706851476924064
 31
0.0
  0
LINE
  5
A9
100
AcDbEntity
100
AcDbLine
  8
Layer0
 62
256
370
-1
  6
ByLayer
 10
-1.4214489929541101
 20
-0.706851476924064
 30
0.0
 11
-1.1900676687601801
 21
-1.0506641679298401
 31
0.0
  0
LINE
  5
AA
100
AcDbEntity
100
AcDbLine
  8
Layer0
 62
256
370
-1
  6
ByLayer
 10
-1.1900676687601801
 20
-1.0506641679298401
 30
0.0
 11
-0.877585199620048
 21
-1.32287583219585
 31
0.0
  0
LINE
  5
AB
100
AcDbEntity
100
AcDbLine
  8
Layer0
 62
256
370
-1
  6
ByLayer
 10
-0.877585199620048
 20
-1.32287583219585
 30
0.0
 11
-0.505296749403915
 21
-1.5049356946533701
 31
0.0
  0
LINE
  5
AC
100
AcDbEntity
100
AcDbLine
  8
Layer0
 62
256
370
-1
  6
ByLayer
 10
-0.505296749403915
 20
-1.5049356946533701
 30
0.0
 11
-0.0985731607582785
 21
-1.5844366765441
 31
0.0
  0
LINE
  5
AD
100
AcDbEntity
100
AcDbLine
  8
Layer0
 62
256
370
-1
  6
ByLayer
 10
-0.0985731607582785
 20
-1.5844366765441
 30
0.0
 11
0.314868025893195
 21
-1.5559609173337601
 31
0.0
  0
LINE
  5
AE
100
AcDbEntity
100
AcDbLine
  8
Layer0
 62
256
370
-1
  6
ByLayer
 10
34.925536966910002
 20
-45.872399771382298
 30
0.0
 11
34.925374191252502
 21
-10.4761924172814
 31
0.0
  0
LINE
  5
AF
100
AcDbEntity
100
AcDbLine
  8
Layer0
 62
256
370
-1
  6
ByLayer
 10
34.925374191252502
 20
-10.4761924172814
 30
0.0
 11
30.1504590681328
 21
-10.4761924172814
 31
0.0
  0
LINE
  5
B0
100
AcDbEntity
100
AcDbLine
  8
Layer0
 62
256
370
-1
  6
ByLayer
 10
30.1504590681328
 20
-10.4761924172814
 30
0.0
 11
30.1506218437904
 21
-45.872399771382298
 31
0.0
  0
LINE
  5
B1
100
AcDbEntity
100
AcDbLine
  8
Layer0
 62
256
370
-1
  6
ByLayer
 10
30.1506218437904
 20
-45.872399771382298
 30
0.0
 11
34.925536966910002
 21
-45.872399771382298
 31
0.0
  0
LINE
  5
B2
100
AcDbEntity
100
AcDbLine
  8
Layer0
 62
256
370
-1
  6
ByLayer
 10
41.275225637087203
 20
-38.100000000000101
 30
0.0
 11
49.843488140991099
 21
-38.100000000000101
 31
0.0
  0
LINE
  5
B3
100
AcDbEntity
100
AcDbLine
  8
Layer0
 62
256
370
-1
  6
ByLayer
 10
49.843488140991099
 20
-38.100000000000101
 30
0.0
 11
52.378478833971798
 21
-36.6903000000001
 31
0.0
  0
LINE
  5
B4
100
AcDbEntity
100
AcDbLine
  8
Layer0
 62
256
370
-1
  6
ByLayer
 10
52.378478833971798
 20
-36.6903000000001
 30
0.0
 11
52.378478833971798
 21
36.690299999999901
 31
0.0
  0
LINE
  5
B5
100
AcDbEntity
100
AcDbLine
  8
Layer0
 62
256
370
-1
  6
ByLayer
 10
49.843488140991099
 20
38.100000000000101
 30
0.0
 11
52.378478833971798
 21
36.690299999999901
 31
0.0
  0
LINE
  5
B6
100
AcDbEntity
100
AcDbLine
  8
Layer0
 62
256
370
-1
  6
ByLayer
 10
49.843488140991099
 20
38.100000000000101
 30
0.0
 11
41.275225637087203
 21
38.100000000000101
 31
0.0
  0
LINE
  5
B7
100
AcDbEntity
100
AcDbLine
  8
Layer0
 62
256
370
-1
  6
ByLayer
 10
41.275225637087203
 20
38.100000000000101
 30
0.0
 11
41.275225637087203
 21
-38.100000000000101
 31
0.0
  0
LINE
  5
B8
100
AcDbEntity
100
AcDbLine
  8
Layer0
 62
256
370
-1
  6
ByLayer
 10
-34.925225637087898
 20
30.176199999106
 30
0.0
 11
-30.150313721773198
 21
30.176199999106
 31
0.0
  0
LINE
  5
B9
100
AcDbEntity
100
AcDbLine
  8
Layer0
 62
256
370
-1
  6
ByLayer
 10
-30.150313721773401
 20
42.949644625317198
 30
0.0
 11
-30.150313721773198
 21
30.176199999106
 31
0.0
  0
LINE
  5
BA
100
AcDbEntity
100
AcDbLine
  8
Layer0
 62
256
370
-1
  6
ByLayer
 10
-41.2752256370879
 20
38.099999999999902
 30
0.0
 11
-41.275225637087701
 21
-38.1000000000002
 31
0.0
  0
LINE
  5
BB
100
AcDbEntity
100
AcDbLine
  8
Layer0
 62
256
370
-1
  6
ByLayer
 10
-49.843488140991902
 20
38.099999999999902
 30
0.0
 11
-52.378478833972501
 21
36.690299999999702
 31
0.0
  0
LINE
  5
BC
100
AcDbEntity
100
AcDbLine
  8
Layer0
 62
256
370
-1
  6
ByLayer
 10
-41.275225637087701
 20
-38.1000000000002
 30
0.0
 11
-49.843488140991603
 21
-38.1000000000003
 31
0.0
  0
LINE
  5
BD
100
AcDbEntity
100
AcDbLine
  8
Layer0
 62
256
370
-1
  6
ByLayer
 10
-30.150612126962201
 20
-12.1269090271684
 30
0.0
 11
-30.150612126962201
 21
-10.4769908826114
 31
0.0
  0
LINE
  5
BE
100
AcDbEntity
100
AcDbLine
  8
Layer0
 62
256
370
-1
  6
ByLayer
 10
-34.925225637087998
 20
42.949644625317099
 30
0.0
 11
-34.925225637087898
 21
30.176199999106
 31
0.0
  0
LINE
  5
BF
100
AcDbEntity
100
AcDbLine
  8
Layer0
 62
256
370
-1
  6
ByLayer
 10
-49.843488140991902
 20
38.099999999999902
 30
0.0
 11
-41.2752256370879
 21
38.099999999999902
 31
0.0
  0
LINE
  5
C0
100
AcDbEntity
100
AcDbLine
  8
Layer0
 62
256
370
-1
  6
ByLayer
 10
-30.150612126962201
 20
-10.4769908826114
 30
0.0
 11
-34.925527250081899
 21
-10.4769908826114
 31
0.0
  0
LINE
  5
C1
100
AcDbEntity
100
AcDbLine
  8
Layer0
 62
256
370
-1
  6
ByLayer
 10
-49.843488140991603
 20
-38.1000000000003
 30
0.0
 11
-52.378478833972302
 21
-36.6903000000002
 31
0.0
  0
LINE
  5
C2
100
AcDbEntity
100
AcDbLine
  8
Layer0
 62
256
370
-1
  6
ByLayer
 10
-30.150313721773401
 20
42.949644625317198
 30
0.0
 11
-34.925225637087998
 21
42.949644625317099
 31
0.0
  0
LINE
  5
C3
100
AcDbEntity
100
AcDbLine
  8
Layer0
 62
256
370
-1
  6
ByLayer
 10
-52.378478833972302
 20
-36.6903000000002
 30
0.0
 11
-52.378478833972501
 21
36.690299999999702
 31
0.0
  0
LINE
  5
C4
100
AcDbEntity
100
AcDbLine
  8
Layer0
 62
256
370
-1
  6
ByLayer
 10
-30.150612126962201
 20
-45.872399771382298
 30
0.0
 11
-34.925527250081799
 21
-45.872399771382298
 31
0.0
  0
LINE
  5
C5
100
AcDbEntity
100
AcDbLine
  8
Layer0
 62
256
370
-1
  6
ByLayer
 10
-34.925527250081799
 20
-45.872399771382298
 30
0.0
 11
-34.925527250081899
 21
-10.4769908826114
 31
0.0
  0
LINE
  5
C6
100
AcDbEntity
100
AcDbLine
  8
Layer0
 62
256
370
-1
  6
ByLayer
 10
47.049329924252099
 20
51.514145102974503
 30
0.0
 11
46.627350173667502
 21
50.953652453394803
 31
0.0
  0
LINE
  5
C7
100
AcDbEntity
100
AcDbLine
  8
Layer0
 62
256
370
-1
  6
ByLayer
 10
46.627350173667502
 20
50.953652453394803
 30
0.0
 11
46.317194737576401
 21
50.185029307638203
 31
0.0
  0
LINE
  5
C8
100
AcDbEntity
100
AcDbLine
  8
Layer0
 62
256
370
-1
  6
ByLayer
 10
46.324594167412101
 20
-50.213159134080797
 30
0.0
 11
46.216408665879896
 21
-49.391408665880299
 31
0.0
  0
LINE
  5
C9
100
AcDbEntity
100
AcDbLine
  8
Layer0
 62
256
370
-1
  6
ByLayer
 10
46.641778008864399
 20
-50.978908665880297
 30
0.0
 11
46.324594167412101
 21
-50.213159134080797
 31
0.0
  0
LINE
  5
CA
100
AcDbEntity
100
AcDbLine
  8
Layer0
 62
256
370
-1
  6
ByLayer
 10
47.0511874963087
 20
-51.512461497799698
 30
0.0
 11
46.641778008864399
 21
-50.978908665880297
 31
0.0
  0
LINE
  5
CB
100
AcDbEntity
100
AcDbLine
  8
Layer0
 62
256
370
-1
  6
ByLayer
 10
-46.782679479803399
 20
-51.201148159207897
 30
0.0
 11
-47.059013588635302
 21
-51.505368341175597
 31
0.0
  0
LINE
  5
CC
100
AcDbEntity
100
AcDbLine
  8
Layer0
 62
256
370
-1
  6
ByLayer
 10
-46.403174723707203
 20
-50.464293984469201
 30
0.0
 11
-46.782679479803399
 21
-51.201148159207897
 31
0.0
  0
LINE
  5
CD
100
AcDbEntity
100
AcDbLine
  8
Layer0
 62
256
370
-1
  6
ByLayer
 10
-46.227313172480002
 20
-49.654324448295498
 30
0.0
 11
-46.403174723707203
 21
-50.464293984469201
 31
0.0
  0
LINE
  5
CE
100
AcDbEntity
100
AcDbLine
  8
Layer0
 62
256
370
-1
  6
ByLayer
 10
-46.267079500213001
 20
-48.826437636039003
 30
0.0
 11
-46.227313172480002
 21
-49.654324448295498
 31
0.0
  0
LINE
  5
CF
100
AcDbEntity
100
AcDbLine
  8
Layer0
 62
256
370
-1
  6
ByLayer
 10
-46.5197636973882
 20
-48.037052665807501
 30
0.0
 11
-46.267079500213001
 21
-48.826437636039003
 31
0.0
  0
LINE
  5
D0
100
AcDbEntity
100
AcDbLine
  8
Layer0
 62
256
370
-1
  6
ByLayer
 10
-46.968145753548399
 20
-47.339964818801803
 30
0.0
 11
-46.5197636973882
 21
-48.037052665807501
 31
0.0
  0
LINE
  5
D1
100
AcDbEntity
100
AcDbLine
  8
Layer0
 62
256
370
-1
  6
ByLayer
 10
-47.5816691725528
 20
-46.7826794798032
 30
0.0
 11
-46.968145753548399
 21
-47.339964818801803
 31
0.0
  0
LINE
  5
D2
100
AcDbEntity
100
AcDbLine
  8
Layer0
 62
256
370
-1
  6
ByLayer
 10
-48.318523347291503
 20
-46.403174723706996
 30
0.0
 11
-47.5816691725528
 21
-46.7826794798032
 31
0.0
  0
LINE
  5
D3
100
AcDbEntity
100
AcDbLine
  8
Layer0
 62
256
370
-1
  6
ByLayer
 10
-49.128492883465299
 20
-46.227313172479803
 30
0.0
 11
-48.318523347291503
 21
-46.403174723706996
 31
0.0
  0
LINE
  5
D4
100
AcDbEntity
100
AcDbLine
  8
Layer0
 62
256
370
-1
  6
ByLayer
 10
-49.956379695721701
 20
-46.267079500212901
 30
0.0
 11
-49.128492883465299
 21
-46.227313172479803
 31
0.0
  0
LINE
  5
D5
100
AcDbEntity
100
AcDbLine
  8
Layer0
 62
256
370
-1
  6
ByLayer
 10
-50.745764665953303
 20
-46.5197636973881
 30
0.0
 11
-49.956379695721701
 21
-46.267079500212901
 31
0.0
  0
LINE
  5
D6
100
AcDbEntity
100
AcDbLine
  8
Layer0
 62
256
370
-1
  6
ByLayer
 10
-51.4428525129589
 20
-46.968145753548299
 30
0.0
 11
-50.745764665953303
 21
-46.5197636973881
 31
0.0
  0
LINE
  5
D7
100
AcDbEntity
100
AcDbLine
  8
Layer0
 62
256
370
-1
  6
ByLayer
 10
-51.515368713389996
 20
-47.047979878202703
 30
0.0
 11
-51.4428525129589
 21
-46.968145753548299
 31
0.0
  0
LINE
  5
D8
100
AcDbEntity
100
AcDbLine
  8
Layer0
 62
256
370
-1
  6
ByLayer
 10
-51.462909058197098
 20
46.985268369756099
 30
0.0
 11
-51.517161583441201
 21
47.046001750932497
 31
0.0
  0
LINE
  5
D9
100
AcDbEntity
100
AcDbLine
  8
Layer0
 62
256
370
-1
  6
ByLayer
 10
-50.769569460161499
 20
46.531111858710297
 30
0.0
 11
-51.462909058197098
 21
46.985268369756099
 31
0.0
  0
LINE
  5
DA
100
AcDbEntity
100
AcDbLine
  8
Layer0
 62
256
370
-1
  6
ByLayer
 10
-49.982310481514098
 20
46.271879848208997
 30
0.0
 11
-50.769569460161499
 21
46.531111858710297
 31
0.0
  0
LINE
  5
DB
100
AcDbEntity
100
AcDbLine
  8
Layer0
 62
256
370
-1
  6
ByLayer
 10
-49.154782520642698
 20
46.225238571367001
 30
0.0
 11
-49.982310481514098
 21
46.271879848208997
 31
0.0
  0
LINE
  5
DC
100
AcDbEntity
100
AcDbLine
  8
Layer0
 62
256
370
-1
  6
ByLayer
 10
-48.343380240526002
 20
46.394366554122499
 30
0.0
 11
-49.154782520642698
 21
46.225238571367001
 31
0.0
  0
LINE
  5
DD
100
AcDbEntity
100
AcDbLine
  8
Layer0
 62
256
370
-1
  6
ByLayer
 10
-47.6033993656484
 20
46.767738003948097
 30
0.0
 11
-48.343380240526002
 21
46.394366554122499
 31
0.0
  0
LINE
  5
DE
100
AcDbEntity
100
AcDbLine
  8
Layer0
 62
256
370
-1
  6
ByLayer
 10
-46.985268369756398
 20
47.319908273563499
 30
0.0
 11
-47.6033993656484
 21
46.767738003948097
 31
0.0
  0
LINE
  5
DF
100
AcDbEntity
100
AcDbLine
  8
Layer0
 62
256
370
-1
  6
ByLayer
 10
-46.531111858710503
 20
48.013247871599098
 30
0.0
 11
-46.985268369756398
 21
47.319908273563499
 31
0.0
  0
LINE
  5
E0
100
AcDbEntity
100
AcDbLine
  8
Layer0
 62
256
370
-1
  6
ByLayer
 10
-46.271879848209302
 20
48.800506850246499
 30
0.0
 11
-46.531111858710503
 21
48.013247871599098
 31
0.0
  0
LINE
  5
E1
100
AcDbEntity
100
AcDbLine
  8
Layer0
 62
256
370
-1
  6
ByLayer
 10
-46.2252385713672
 20
49.628034811117999
 30
0.0
 11
-46.271879848209302
 21
48.800506850246499
 31
0.0
  0
LINE
  5
E2
100
AcDbEntity
100
AcDbLine
  8
Layer0
 62
256
370
-1
  6
ByLayer
 10
-46.394366554122797
 20
50.439437091234701
 30
0.0
 11
-46.2252385713672
 21
49.628034811117999
 31
0.0
  0
LINE
  5
E3
100
AcDbEntity
100
AcDbLine
  8
Layer0
 62
256
370
-1
  6
ByLayer
 10
-46.767738003948303
 20
51.179417966112297
 30
0.0
 11
-46.394366554122797
 21
50.439437091234701
 31
0.0
  0
LINE
  5
E4
100
AcDbEntity
100
AcDbLine
  8
Layer0
 62
256
370
-1
  6
ByLayer
 10
-47.058954263213501
 20
51.505422110603597
 30
0.0
 11
-46.767738003948303
 21
51.179417966112297
 31
0.0
  0
LINE
  5
E5
100
AcDbEntity
100
AcDbLine
  8
Layer0
 62
256
370
-1
  6
ByLayer
 10
62.883003891805501
 20
16.8452727941382
 30
0.0
 11
62.936484882157103
 21
16.430974386297599
 31
0.0
  0
LINE
  5
E6
100
AcDbEntity
100
AcDbLine
  8
Layer0
 62
256
370
-1
  6
ByLayer
 10
62.724116903704498
 20
17.231612427207999
 30
0.0
 11
62.883003891805501
 21
16.8452727941382
 31
0.0
  0
LINE
  5
E7
100
AcDbEntity
100
AcDbLine
  8
Layer0
 62
256
370
-1
  6
ByLayer
 10
62.470651803520198
 20
17.5636648779696
 30
0.0
 11
62.724116903704498
 21
17.231612427207999
 31
0.0
  0
LINE
  5
E8
100
AcDbEntity
100
AcDbLine
  8
Layer0
 62
256
370
-1
  6
ByLayer
 10
62.139881818959203
 20
17.818801320646301
 30
0.0
 11
62.470651803520198
 21
17.5636648779696
 31
0.0
  0
LINE
  5
E9
100
AcDbEntity
100
AcDbLine
  8
Layer0
 62
256
370
-1
  6
ByLayer
 10
61.754348377845901
 20
17.979634628302598
 30
0.0
 11
62.139881818959203
 21
17.818801320646301
 31
0.0
  0
LINE
  5
EA
100
AcDbEntity
100
AcDbLine
  8
Layer0
 62
256
370
-1
  6
ByLayer
 10
61.340324947068297
 20
18.035204276811299
 30
0.0
 11
61.754348377845901
 21
17.979634628302598
 31
0.0
  0
LINE
  5
EB
100
AcDbEntity
100
AcDbLine
  8
Layer0
 62
256
370
-1
  6
ByLayer
 10
60.926026539227699
 20
17.981723286459701
 30
0.0
 11
61.340324947068297
 21
18.035204276811299
 31
0.0
  0
LINE
  5
EC
100
AcDbEntity
100
AcDbLine
  8
Layer0
 62
256
370
-1
  6
ByLayer
 10
60.539686906157897
 20
17.822836298358801
 30
0.0
 11
60.926026539227699
 21
17.981723286459701
 31
0.0
  0
LINE
  5
ED
100
AcDbEntity
100
AcDbLine
  8
Layer0
 62
256
370
-1
  6
ByLayer
 10
60.207634455396303
 20
17.569371198174402
 30
0.0
 11
60.539686906157897
 21
17.822836298358801
 31
0.0
  0
LINE
  5
EE
100
AcDbEntity
100
AcDbLine
  8
Layer0
 62
256
370
-1
  6
ByLayer
 10
59.952498012719602
 20
17.2386012136134
 30
0.0
 11
60.207634455396303
 21
17.569371198174402
 31
0.0
  0
LINE
  5
EF
100
AcDbEntity
100
AcDbLine
  8
Layer0
 62
256
370
-1
  6
ByLayer
 10
59.791664705063297
 20
16.8530677725002
 30
0.0
 11
59.952498012719602
 21
17.2386012136134
 31
0.0
  0
LINE
  5
F0
100
AcDbEntity
100
AcDbLine
  8
Layer0
 62
256
370
-1
  6
ByLayer
 10
59.736095056554603
 20
16.4390443417225
 30
0.0
 11
59.791664705063297
 21
16.8530677725002
 31
0.0
  0
LINE
  5
F1
100
AcDbEntity
100
AcDbLine
  8
Layer0
 62
256
370
-1
  6
ByLayer
 10
59.789576046906198
 20
16.024745933881899
 30
0.0
 11
59.736095056554603
 21
16.4390443417225
 31
0.0
  0
LINE
  5
F2
100
AcDbEntity
100
AcDbLine
  8
Layer0
 62
256
370
-1
  6
ByLayer
 10
59.948463035007201
 20
15.6384063008122
 30
0.0
 11
59.789576046906198
 21
16.024745933881899
 31
0.0
  0
LINE
  5
F3
100
AcDbEntity
100
AcDbLine
  8
Layer0
 62
256
370
-1
  6
ByLayer
 10
60.201928135191501
 20
15.306353850050501
 30
0.0
 11
59.948463035007201
 21
15.6384063008122
 31
0.0
  0
LINE
  5
F4
100
AcDbEntity
100
AcDbLine
  8
Layer0
 62
256
370
-1
  6
ByLayer
 10
60.532698119752602
 20
15.0512174073738
 30
0.0
 11
60.201928135191501
 21
15.306353850050501
 31
0.0
  0
LINE
  5
F5
100
AcDbEntity
100
AcDbLine
  8
Layer0
 62
256
370
-1
  6
ByLayer
 10
60.918231560865799
 20
14.8903840997176
 30
0.0
 11
60.532698119752602
 21
15.0512174073738
 31
0.0
  0
LINE
  5
F6
100
AcDbEntity
100
AcDbLine
  8
Layer0
 62
256
370
-1
  6
ByLayer
 10
61.332254991643403
 20
14.834814451208899
 30
0.0
 11
60.918231560865799
 21
14.8903840997176
 31
0.0
  0
LINE
  5
F7
100
AcDbEntity
100
AcDbLine
  8
Layer0
 62
256
370
-1
  6
ByLayer
 10
61.746553399484
 20
14.8882954415605
 30
0.0
 11
61.332254991643403
 21
14.834814451208899
 31
0.0
  0
LINE
  5
F8
100
AcDbEntity
100
AcDbLine
  8
Layer0
 62
256
370
-1
  6
ByLayer
 10
62.132893032553802
 20
15.047182429661399
 30
0.0
 11
61.746553399484
 21
14.8882954415605
 31
0.0
  0
LINE
  5
F9
100
AcDbEntity
100
AcDbLine
  8
Layer0
 62
256
370
-1
  6
ByLayer
 10
62.464945483315397
 20
15.300647529845699
 30
0.0
 11
62.132893032553802
 21
15.047182429661399
 31
0.0
  0
LINE
  5
FA
100
AcDbEntity
100
AcDbLine
  8
Layer0
 62
256
370
-1
  6
ByLayer
 10
62.720081925992098
 20
15.631417514406801
 30
0.0
 11
62.464945483315397
 21
15.300647529845699
 31
0.0
  0
LINE
  5
FB
100
AcDbEntity
100
AcDbLine
  8
Layer0
 62
256
370
-1
  6
ByLayer
 10
62.880915233648402
 20
16.016950955519999
 30
0.0
 11
62.720081925992098
 21
15.631417514406801
 31
0.0
  0
LINE
  5
FC
100
AcDbEntity
100
AcDbLine
  8
Layer0
 62
256
370
-1
  6
ByLayer
 10
62.936484882157103
 20
16.430974386297599
 30
0.0
 11
62.880915233648402
 21
16.016950955519999
 31
0.0
  0
LINE
  5
FD
100
AcDbEntity
100
AcDbLine
  8
Layer0
 62
256
370
-1
  6
ByLayer
 10
-61.332254991643403
 20
18.035204276811299
 30
0.0
 11
-60.918231560865699
 21
17.979634628302598
 31
0.0
  0
LINE
  5
FE
100
AcDbEntity
100
AcDbLine
  8
Layer0
 62
256
370
-1
  6
ByLayer
 10
-61.746553399484
 20
17.981723286459701
 30
0.0
 11
-61.332254991643403
 21
18.035204276811299
 31
0.0
  0
LINE
  5
FF
100
AcDbEntity
100
AcDbLine
  8
Layer0
 62
256
370
-1
  6
ByLayer
 10
-62.132893032553703
 20
17.822836298358698
 30
0.0
 11
-61.746553399484
 21
17.981723286459701
 31
0.0
  0
LINE
  5
100
100
AcDbEntity
100
AcDbLine
  8
Layer0
 62
256
370
-1
  6
ByLayer
 10
-62.464945483315397
 20
17.569371198174402
 30
0.0
 11
-62.132893032553703
 21
17.822836298358698
 31
0.0
  0
LINE
  5
101
100
AcDbEntity
100
AcDbLine
  8
Layer0
 62
256
370
-1
  6
ByLayer
 10
-62.720081925992098
 20
17.2386012136133
 30
0.0
 11
-62.464945483315397
 21
17.569371198174402
 31
0.0
  0
LINE
  5
102
100
AcDbEntity
100
AcDbLine
  8
Layer0
 62
256
370
-1
  6
ByLayer
 10
-62.880915233648302
 20
16.853067772500101
 30
0.0
 11
-62.720081925992098
 21
17.2386012136133
 31
0.0
  0
LINE
  5
103
100
AcDbEntity
100
AcDbLine
  8
Layer0
 62
256
370
-1
  6
ByLayer
 10
-62.936484882157004
 20
16.4390443417225
 30
0.0
 11
-62.880915233648302
 21
16.853067772500101
 31
0.0
  0
LINE
  5
104
100
AcDbEntity
100
AcDbLine
  8
Layer0
 62
256
370
-1
  6
ByLayer
 10
-62.883003891805501
 20
16.024745933881899
 30
0.0
 11
-62.936484882157004
 21
16.4390443417225
 31
0.0
  0
LINE
  5
105
100
AcDbEntity
100
AcDbLine
  8
Layer0
 62
256
370
-1
  6
ByLayer
 10
-62.724116903704498
 20
15.6384063008121
 30
0.0
 11
-62.883003891805501
 21
16.024745933881899
 31
0.0
  0
LINE
  5
106
100
AcDbEntity
100
AcDbLine
  8
Layer0
 62
256
370
-1
  6
ByLayer
 10
-62.470651803520198
 20
15.306353850050501
 30
0.0
 11
-62.724116903704498
 21
15.6384063008121
 31
0.0
  0
LINE
  5
107
100
AcDbEntity
100
AcDbLine
  8
Layer0
 62
256
370
-1
  6
ByLayer
 10
-62.139881818959097
 20
15.0512174073738
 30
0.0
 11
-62.470651803520198
 21
15.306353850050501
 31
0.0
  0
LINE
  5
108
100
AcDbEntity
100
AcDbLine
  8
Layer0
 62
256
370
-1
  6
ByLayer
 10
-61.754348377845901
 20
14.890384099717499
 30
0.0
 11
-62.139881818959097
 21
15.0512174073738
 31
0.0
  0
LINE
  5
109
100
AcDbEntity
100
AcDbLine
  8
Layer0
 62
256
370
-1
  6
ByLayer
 10
-61.340324947068297
 20
14.8348144512088
 30
0.0
 11
-61.754348377845901
 21
14.890384099717499
 31
0.0
  0
LINE
  5
10A
100
AcDbEntity
100
AcDbLine
  8
Layer0
 62
256
370
-1
  6
ByLayer
 10
-60.926026539227699
 20
14.8882954415604
 30
0.0
 11
-61.340324947068297
 21
14.8348144512088
 31
0.0
  0
LINE
  5
10B
100
AcDbEntity
100
AcDbLine
  8
Layer0
 62
256
370
-1
  6
ByLayer
 10
-60.539686906157897
 20
15.0471824296613
 30
0.0
 11
-60.926026539227699
 21
14.8882954415604
 31
0.0
  0
LINE
  5
10C
100
AcDbEntity
100
AcDbLine
  8
Layer0
 62
256
370
-1
  6
ByLayer
 10
-60.207634455396303
 20
15.300647529845699
 30
0.0
 11
-60.539686906157897
 21
15.0471824296613
 31
0.0
  0
LINE
  5
10D
100
AcDbEntity
100
AcDbLine
  8
Layer0
 62
256
370
-1
  6
ByLayer
 10
-59.952498012719602
 20
15.631417514406699
 30
0.0
 11
-60.207634455396303
 21
15.300647529845699
 31
0.0
  0
LINE
  5
10E
100
AcDbEntity
100
AcDbLine
  8
Layer0
 62
256
370
-1
  6
ByLayer
 10
-59.791664705063297
 20
16.016950955519899
 30
0.0
 11
-59.952498012719602
 21
15.631417514406699
 31
0.0
  0
LINE
  5
10F
100
AcDbEntity
100
AcDbLine
  8
Layer0
 62
256
370
-1
  6
ByLayer
 10
-59.736095056554603
 20
16.430974386297599
 30
0.0
 11
-59.791664705063297
 21
16.016950955519899
 31
0.0
  0
LINE
  5
110
100
AcDbEntity
100
AcDbLine
  8
Layer0
 62
256
370
-1
  6
ByLayer
 10
-59.789576046906198
 20
16.8452727941382
 30
0.0
 11
-59.736095056554603
 21
16.430974386297599
 31
0.0
  0
LINE
  5
111
100
AcDbEntity
100
AcDbLine
  8
Layer0
 62
256
370
-1
  6
ByLayer
 10
-59.948463035007101
 20
17.231612427207899
 30
0.0
 11
-59.789576046906198
 21
16.8452727941382
 31
0.0
  0
LINE
  5
112
100
AcDbEntity
100
AcDbLine
  8
Layer0
 62
256
370
-1
  6
ByLayer
 10
-60.201928135191501
 20
17.5636648779696
 30
0.0
 11
-59.948463035007101
 21
17.231612427207899
 31
0.0
  0
LINE
  5
113
100
AcDbEntity
100
AcDbLine
  8
Layer0
 62
256
370
-1
  6
ByLayer
 10
-60.532698119752503
 20
17.818801320646301
 30
0.0
 11
-60.201928135191501
 21
17.5636648779696
 31
0.0
  0
LINE
  5
114
100
AcDbEntity
100
AcDbLine
  8
Layer0
 62
256
370
-1
  6
ByLayer
 10
-60.918231560865699
 20
17.979634628302598
 30
0.0
 11
-60.532698119752503
 21
17.818801320646301
 31
0.0
  0
LINE
  5
115
100
AcDbEntity
100
AcDbLine
  8
Layer0
 62
256
370
-1
  6
ByLayer
 10
-25.907999999999902
 20
-31.941353116795401
 30
0.0
 11
-25.719984197666498
 21
-31.938883862623101
 31
0.0
  0
LINE
  5
116
100
AcDbEntity
100
AcDbLine
  8
Layer0
 62
256
370
-1
  6
ByLayer
 10
-25.907999999999902
 20
-31.941353116795401
 30
0.0
 11
-26.1376842020086
 21
-31.944369611510801
 31
0.0
  0
LINE
  5
117
100
AcDbEntity
100
AcDbLine
  8
Layer0
 62
256
370
-1
  6
ByLayer
 10
-25.678315797991299
 20
-35.1116303884899
 30
0.0
 11
-25.907999999999902
 21
-35.114646883205303
 31
0.0
  0
LINE
  5
118
100
AcDbEntity
100
AcDbLine
  8
Layer0
 62
256
370
-1
  6
ByLayer
 10
-25.907999999999902
 20
-35.114646883205303
 30
0.0
 11
-26.096015802333401
 21
-35.1171161373776
 31
0.0
  0
LINE
  5
119
100
AcDbEntity
100
AcDbLine
  8
Layer0
 62
256
370
-1
  6
ByLayer
 10
-25.276268392445001
 20
-34.998222845699601
 30
0.0
 11
-25.678315797991299
 21
-35.1116303884899
 31
0.0
  0
LINE
  5
11A
100
AcDbEntity
100
AcDbLine
  8
Layer0
 62
256
370
-1
  6
ByLayer
 10
-24.917272451967701
 20
-34.784622045633
 30
0.0
 11
-25.276268392445001
 21
-34.998222845699601
 31
0.0
  0
LINE
  5
11B
100
AcDbEntity
100
AcDbLine
  8
Layer0
 62
256
370
-1
  6
ByLayer
 10
-24.625792956634101
 20
-34.485384529822703
 30
0.0
 11
-24.917272451967701
 21
-34.784622045633
 31
0.0
  0
LINE
  5
11C
100
AcDbEntity
100
AcDbLine
  8
Layer0
 62
256
370
-1
  6
ByLayer
 10
-24.4216937523586
 20
-34.120902840457703
 30
0.0
 11
-24.625792956634101
 21
-34.485384529822703
 31
0.0
  0
LINE
  5
11D
100
AcDbEntity
100
AcDbLine
  8
Layer0
 62
256
370
-1
  6
ByLayer
 10
-24.318883862622599
 20
-33.7160158023338
 30
0.0
 11
-24.4216937523586
 21
-34.120902840457703
 31
0.0
  0
LINE
  5
11E
100
AcDbEntity
100
AcDbLine
  8
Layer0
 62
256
370
-1
  6
ByLayer
 10
-24.324369611510399
 20
-33.298315797991698
 30
0.0
 11
-24.318883862622599
 21
-33.7160158023338
 31
0.0
  0
LINE
  5
11F
100
AcDbEntity
100
AcDbLine
  8
Layer0
 62
256
370
-1
  6
ByLayer
 10
-24.437777154300701
 20
-32.8962683924454
 30
0.0
 11
-24.324369611510399
 21
-33.298315797991698
 31
0.0
  0
LINE
  5
120
100
AcDbEntity
100
AcDbLine
  8
Layer0
 62
256
370
-1
  6
ByLayer
 10
-24.651377954367302
 20
-32.5372724519681
 30
0.0
 11
-24.437777154300701
 21
-32.8962683924454
 31
0.0
  0
LINE
  5
121
100
AcDbEntity
100
AcDbLine
  8
Layer0
 62
256
370
-1
  6
ByLayer
 10
-24.950615470177599
 20
-32.245792956634503
 30
0.0
 11
-24.651377954367302
 21
-32.5372724519681
 31
0.0
  0
LINE
  5
122
100
AcDbEntity
100
AcDbLine
  8
Layer0
 62
256
370
-1
  6
ByLayer
 10
-25.315097159542599
 20
-32.041693752359002
 30
0.0
 11
-24.950615470177599
 21
-32.245792956634503
 31
0.0
  0
LINE
  5
123
100
AcDbEntity
100
AcDbLine
  8
Layer0
 62
256
370
-1
  6
ByLayer
 10
-25.719984197666498
 20
-31.938883862623101
 30
0.0
 11
-25.315097159542599
 21
-32.041693752359002
 31
0.0
  0
LINE
  5
124
100
AcDbEntity
100
AcDbLine
  8
Layer0
 62
256
370
-1
  6
ByLayer
 10
-24.668790253281401
 20
-25.914021626602299
 30
0.0
 11
-24.4489810863349
 21
-26.269250168803701
 31
0.0
  0
LINE
  5
125
100
AcDbEntity
100
AcDbLine
  8
Layer0
 62
256
370
-1
  6
ByLayer
 10
-24.973049516575902
 20
-25.6277880021489
 30
0.0
 11
-24.668790253281401
 21
-25.914021626602299
 31
0.0
  0
LINE
  5
126
100
AcDbEntity
100
AcDbLine
  8
Layer0
 62
256
370
-1
  6
ByLayer
 10
-25.341024110237001
 20
-25.430055643926401
 30
0.0
 11
-24.973049516575902
 21
-25.6277880021489
 31
0.0
  0
LINE
  5
127
100
AcDbEntity
100
AcDbLine
  8
Layer0
 62
256
370
-1
  6
ByLayer
 10
-25.747637173813398
 20
-25.334299685379602
 30
0.0
 11
-25.341024110237001
 21
-25.430055643926401
 31
0.0
  0
LINE
  5
128
100
AcDbEntity
100
AcDbLine
  8
Layer0
 62
256
370
-1
  6
ByLayer
 10
-25.907999999999902
 20
-25.339194989706499
 30
0.0
 11
-25.747637173813398
 21
-25.334299685379602
 31
0.0
  0
LINE
  5
129
100
AcDbEntity
100
AcDbLine
  8
Layer0
 62
256
370
-1
  6
ByLayer
 10
-25.907999999999902
 20
-25.339194989706499
 30
0.0
 11
-26.165178698982398
 21
-25.347045736839299
 31
0.0
  0
LINE
  5
12A
100
AcDbEntity
100
AcDbLine
  8
Layer0
 62
256
370
-1
  6
ByLayer
 10
-25.907999999999902
 20
-28.513693189548299
 30
0.0
 11
-26.068362826186402
 21
-28.5185884938752
 31
0.0
  0
LINE
  5
12B
100
AcDbEntity
100
AcDbLine
  8
Layer0
 62
256
370
-1
  6
ByLayer
 10
-25.650821301017402
 20
-28.505842442415499
 30
0.0
 11
-25.907999999999902
 21
-28.513693189548299
 31
0.0
  0
LINE
  5
12C
100
AcDbEntity
100
AcDbLine
  8
Layer0
 62
256
370
-1
  6
ByLayer
 10
-25.250806079176201
 20
-28.3854630032925
 30
0.0
 11
-25.650821301017402
 21
-28.505842442415499
 31
0.0
  0
LINE
  5
12D
100
AcDbEntity
100
AcDbLine
  8
Layer0
 62
256
370
-1
  6
ByLayer
 10
-24.895577536974798
 20
-28.1656538363459
 30
0.0
 11
-25.250806079176201
 21
-28.3854630032925
 31
0.0
  0
LINE
  5
12E
100
AcDbEntity
100
AcDbLine
  8
Layer0
 62
256
370
-1
  6
ByLayer
 10
-24.6093439125214
 20
-27.861394573051498
 30
0.0
 11
-24.895577536974798
 21
-28.1656538363459
 31
0.0
  0
LINE
  5
12F
100
AcDbEntity
100
AcDbLine
  8
Layer0
 62
256
370
-1
  6
ByLayer
 10
-24.411611554298901
 20
-27.493419979390399
 30
0.0
 11
-24.6093439125214
 21
-27.861394573051498
 31
0.0
  0
LINE
  5
130
100
AcDbEntity
100
AcDbLine
  8
Layer0
 62
256
370
-1
  6
ByLayer
 10
-24.3158555957522
 20
-27.086806915813899
 30
0.0
 11
-24.411611554298901
 21
-27.493419979390399
 31
0.0
  0
LINE
  5
131
100
AcDbEntity
100
AcDbLine
  8
Layer0
 62
256
370
-1
  6
ByLayer
 10
-24.328601647211901
 20
-26.669265390644899
 30
0.0
 11
-24.3158555957522
 21
-27.086806915813899
 31
0.0
  0
LINE
  5
132
100
AcDbEntity
100
AcDbLine
  8
Layer0
 62
256
370
-1
  6
ByLayer
 10
-24.4489810863349
 20
-26.269250168803701
 30
0.0
 11
-24.328601647211901
 21
-26.669265390644899
 31
0.0
  0
LINE
  5
133
100
AcDbEntity
100
AcDbLine
  8
Layer0
 62
256
370
-1
  6
ByLayer
 10
-25.990236415961299
 20
-21.9180854832865
 30
0.0
 11
-26.0257668526252
 21
-21.9115350624594
 31
0.0
  0
LINE
  5
134
100
AcDbEntity
100
AcDbLine
  8
Layer0
 62
256
370
-1
  6
ByLayer
 10
-25.907999999999902
 20
-21.9115350624594
 30
0.0
 11
-25.990236415961299
 21
-21.9180854832865
 31
0.0
  0
LINE
  5
135
100
AcDbEntity
100
AcDbLine
  8
Layer0
 62
256
370
-1
  6
ByLayer
 10
-25.573819319262199
 20
-21.8849163915758
 30
0.0
 11
-25.907999999999902
 21
-21.9115350624594
 31
0.0
  0
LINE
  5
136
100
AcDbEntity
100
AcDbLine
  8
Layer0
 62
256
370
-1
  6
ByLayer
 10
-25.180176083695599
 20
-21.745100833925999
 30
0.0
 11
-25.573819319262199
 21
-21.8849163915758
 31
0.0
  0
LINE
  5
137
100
AcDbEntity
100
AcDbLine
  8
Layer0
 62
256
370
-1
  6
ByLayer
 10
-24.836132845239302
 20
-21.5081670095345
 30
0.0
 11
-25.180176083695599
 21
-21.745100833925999
 31
0.0
  0
LINE
  5
138
100
AcDbEntity
100
AcDbLine
  8
Layer0
 62
256
370
-1
  6
ByLayer
 10
-24.565135582035701
 20
-21.190261566982201
 30
0.0
 11
-24.836132845239302
 21
-21.5081670095345
 31
0.0
  0
LINE
  5
139
100
AcDbEntity
100
AcDbLine
  8
Layer0
 62
256
370
-1
  6
ByLayer
 10
-24.385652309727998
 20
-20.8130492368152
 30
0.0
 11
-24.565135582035701
 21
-21.190261566982201
 31
0.0
  0
LINE
  5
13A
100
AcDbEntity
100
AcDbLine
  8
Layer0
 62
256
370
-1
  6
ByLayer
 10
-24.3099145167138
 20
-20.402236415961799
 30
0.0
 11
-24.385652309727998
 21
-20.8130492368152
 31
0.0
  0
LINE
  5
13B
100
AcDbEntity
100
AcDbLine
  8
Layer0
 62
256
370
-1
  6
ByLayer
 10
-24.343083608424401
 20
-19.9858193192626
 30
0.0
 11
-24.3099145167138
 21
-20.402236415961799
 31
0.0
  0
LINE
  5
13C
100
AcDbEntity
100
AcDbLine
  8
Layer0
 62
256
370
-1
  6
ByLayer
 10
-24.482899166074301
 20
-19.592176083696099
 30
0.0
 11
-24.343083608424401
 21
-19.9858193192626
 31
0.0
  0
LINE
  5
13D
100
AcDbEntity
100
AcDbLine
  8
Layer0
 62
256
370
-1
  6
ByLayer
 10
-24.7198329904658
 20
-19.248132845239699
 30
0.0
 11
-24.482899166074301
 21
-19.592176083696099
 31
0.0
  0
LINE
  5
13E
100
AcDbEntity
100
AcDbLine
  8
Layer0
 62
256
370
-1
  6
ByLayer
 10
-25.037738433018099
 20
-18.977135582036102
 30
0.0
 11
-24.7198329904658
 21
-19.248132845239699
 31
0.0
  0
LINE
  5
13F
100
AcDbEntity
100
AcDbLine
  8
Layer0
 62
256
370
-1
  6
ByLayer
 10
-25.414950763185001
 20
-18.797652309728399
 30
0.0
 11
-25.037738433018099
 21
-18.977135582036102
 31
0.0
  0
LINE
  5
140
100
AcDbEntity
100
AcDbLine
  8
Layer0
 62
256
370
-1
  6
ByLayer
 10
-25.825763584038501
 20
-18.7219145167142
 30
0.0
 11
-25.414950763185001
 21
-18.797652309728399
 31
0.0
  0
LINE
  5
141
100
AcDbEntity
100
AcDbLine
  8
Layer0
 62
256
370
-1
  6
ByLayer
 10
-25.907999999999902
 20
-18.7284649375413
 30
0.0
 11
-25.825763584038501
 21
-18.7219145167142
 31
0.0
  0
LINE
  5
142
100
AcDbEntity
100
AcDbLine
  8
Layer0
 62
256
370
-1
  6
ByLayer
 10
-25.907999999999902
 20
-12.1269090271684
 30
0.0
 11
-25.825763584038501
 21
-12.1203586063413
 31
0.0
  0
LINE
  5
143
100
AcDbEntity
100
AcDbLine
  8
Layer0
 62
256
370
-1
  6
ByLayer
 10
-25.990236415961299
 20
-15.316529572913501
 30
0.0
 11
-26.025766852625299
 21
-15.309979152086401
 31
0.0
  0
LINE
  5
144
100
AcDbEntity
100
AcDbLine
  8
Layer0
 62
256
370
-1
  6
ByLayer
 10
-25.907999999999902
 20
-15.309979152086401
 30
0.0
 11
-25.990236415961299
 21
-15.316529572913501
 31
0.0
  0
LINE
  5
145
100
AcDbEntity
100
AcDbLine
  8
Layer0
 62
256
370
-1
  6
ByLayer
 10
-25.573819319262199
 20
-15.2833604812029
 30
0.0
 11
-25.907999999999902
 21
-15.309979152086401
 31
0.0
  0
LINE
  5
146
100
AcDbEntity
100
AcDbLine
  8
Layer0
 62
256
370
-1
  6
ByLayer
 10
-25.180176083695599
 20
-15.143544923553
 30
0.0
 11
-25.573819319262199
 21
-15.2833604812029
 31
0.0
  0
LINE
  5
147
100
AcDbEntity
100
AcDbLine
  8
Layer0
 62
256
370
-1
  6
ByLayer
 10
-24.836132845239302
 20
-14.9066110991616
 30
0.0
 11
-25.180176083695599
 21
-15.143544923553
 31
0.0
  0
LINE
  5
148
100
AcDbEntity
100
AcDbLine
  8
Layer0
 62
256
370
-1
  6
ByLayer
 10
-24.565135582035701
 20
-14.5887056566092
 30
0.0
 11
-24.836132845239302
 21
-14.9066110991616
 31
0.0
  0
LINE
  5
149
100
AcDbEntity
100
AcDbLine
  8
Layer0
 62
256
370
-1
  6
ByLayer
 10
-24.385652309727998
 20
-14.2114933264423
 30
0.0
 11
-24.565135582035701
 21
-14.5887056566092
 31
0.0
  0
LINE
  5
14A
100
AcDbEntity
100
AcDbLine
  8
Layer0
 62
256
370
-1
  6
ByLayer
 10
-24.3099145167138
 20
-13.800680505588801
 30
0.0
 11
-24.385652309727998
 21
-14.2114933264423
 31
0.0
  0
LINE
  5
14B
100
AcDbEntity
100
AcDbLine
  8
Layer0
 62
256
370
-1
  6
ByLayer
 10
-24.343083608424401
 20
-13.3842634088897
 30
0.0
 11
-24.3099145167138
 21
-13.800680505588801
 31
0.0
  0
LINE
  5
14C
100
AcDbEntity
100
AcDbLine
  8
Layer0
 62
256
370
-1
  6
ByLayer
 10
-24.482899166074301
 20
-12.9906201733231
 30
0.0
 11
-24.343083608424401
 21
-13.3842634088897
 31
0.0
  0
LINE
  5
14D
100
AcDbEntity
100
AcDbLine
  8
Layer0
 62
256
370
-1
  6
ByLayer
 10
-24.7198329904658
 20
-12.6465769348668
 30
0.0
 11
-24.482899166074301
 21
-12.9906201733231
 31
0.0
  0
LINE
  5
14E
100
AcDbEntity
100
AcDbLine
  8
Layer0
 62
256
370
-1
  6
ByLayer
 10
-25.037738433018099
 20
-12.3755796716632
 30
0.0
 11
-24.7198329904658
 21
-12.6465769348668
 31
0.0
  0
LINE
  5
14F
100
AcDbEntity
100
AcDbLine
  8
Layer0
 62
256
370
-1
  6
ByLayer
 10
-25.414950763185001
 20
-12.1960963993555
 30
0.0
 11
-25.037738433018099
 21
-12.3755796716632
 31
0.0
  0
LINE
  5
150
100
AcDbEntity
100
AcDbLine
  8
Layer0
 62
256
370
-1
  6
ByLayer
 10
-25.825763584038501
 20
-12.1203586063413
 30
0.0
 11
-25.414950763185001
 21
-12.1960963993555
 31
0.0
  0
LINE
  5
151
100
AcDbEntity
100
AcDbLine
  8
Layer0
 62
256
370
-1
  6
ByLayer
 10
-26.096015802333401
 20
-35.1171161373776
 30
0.0
 11
-30.150612126962201
 21
-35.114646883205303
 31
0.0
  0
LINE
  5
152
100
AcDbEntity
100
AcDbLine
  8
Layer0
 62
256
370
-1
  6
ByLayer
 10
-26.1376842020086
 20
-31.944369611510801
 30
0.0
 11
-30.150612126962201
 21
-31.941353116795401
 31
0.0
  0
LINE
  5
153
100
AcDbEntity
100
AcDbLine
  8
Layer0
 62
256
370
-1
  6
ByLayer
 10
-30.150612126962201
 20
-45.872399771382298
 30
0.0
 11
-30.150612126962201
 21
-35.114646883205303
 31
0.0
  0
LINE
  5
154
100
AcDbEntity
100
AcDbLine
  8
Layer0
 62
256
370
-1
  6
ByLayer
 10
-26.068362826186402
 20
-28.5185884938752
 30
0.0
 11
-30.150612126962201
 21
-28.513693189548299
 31
0.0
  0
LINE
  5
155
100
AcDbEntity
100
AcDbLine
  8
Layer0
 62
256
370
-1
  6
ByLayer
 10
-26.165178698982398
 20
-25.347045736839299
 30
0.0
 11
-30.150612126962201
 21
-25.339194989706499
 31
0.0
  0
LINE
  5
156
100
AcDbEntity
100
AcDbLine
  8
Layer0
 62
256
370
-1
  6
ByLayer
 10
-30.150612126962201
 20
-31.941353116795401
 30
0.0
 11
-30.150612126962201
 21
-28.513693189548299
 31
0.0
  0
LINE
  5
157
100
AcDbEntity
100
AcDbLine
  8
Layer0
 62
256
370
-1
  6
ByLayer
 10
-26.0257668526252
 20
-21.9115350624594
 30
0.0
 11
-30.150612126962201
 21
-21.9115350624594
 31
0.0
  0
LINE
  5
158
100
AcDbEntity
100
AcDbLine
  8
Layer0
 62
256
370
-1
  6
ByLayer
 10
-25.907999999999902
 20
-18.7284649375413
 30
0.0
 11
-30.150612126962201
 21
-18.7284649375413
 31
0.0
  0
LINE
  5
159
100
AcDbEntity
100
AcDbLine
  8
Layer0
 62
256
370
-1
  6
ByLayer
 10
-30.150612126962201
 20
-25.339194989706499
 30
0.0
 11
-30.150612126962201
 21
-21.9115350624594
 31
0.0
  0
LINE
  5
15A
100
AcDbEntity
100
AcDbLine
  8
Layer0
 62
256
370
-1
  6
ByLayer
 10
-25.907999999999902
 20
-12.1269090271684
 30
0.0
 11
-30.150612126962201
 21
-12.1269090271684
 31
0.0
  0
LINE
  5
15B
100
AcDbEntity
100
AcDbLine
  8
Layer0
 62
256
370
-1
  6
ByLayer
 10
-26.025766852625299
 20
-15.309979152086401
 30
0.0
 11
-30.150612126962201
 21
-15.309979152086401
 31
0.0
  0
LINE
  5
15C
100
AcDbEntity
100
AcDbLine
  8
Layer0
 62
256
370
-1
  6
ByLayer
 10
-30.150612126962201
 20
-18.7284649375413
 30
0.0
 11
-30.150612126962201
 21
-15.309979152086401
 31
0.0
  0
LINE
  5
15D
100
AcDbEntity
100
AcDbLine
  8
Layer0
 62
256
370
-1
  6
ByLayer
 10
-2.38759999999988
 20
58.7284788339717
 30
0.0
 11
-2.3875999999998401
 21
50.803678833971603
 31
0.0
  0
LINE
  5
15E
100
AcDbEntity
100
AcDbLine
  8
Layer0
 62
256
370
-1
  6
ByLayer
 10
2.3876000000000901
 20
50.803678833971702
 30
0.0
 11
2.3876000000000399
 21
58.7284788339717
 31
0.0
  0
LINE
  5
15F
100
AcDbEntity
100
AcDbLine
  8
Layer0
 62
256
370
-1
  6
ByLayer
 10
-2.3875999999998401
 20
50.803678833971603
 30
0.0
 11
2.3876000000000901
 21
50.803678833971702
 31
0.0
  0
LINE
  5
160
100
AcDbEntity
100
AcDbLine
  8
Layer0
 62
256
370
-1
  6
ByLayer
 10
2.3876000000000399
 20
58.7284788339717
 30
0.0
 11
6.35000000000006
 21
58.7284788339717
 31
0.0
  0
LINE
  5
161
100
AcDbEntity
100
AcDbLine
  8
Layer0
 62
256
370
-1
  6
ByLayer
 10
1.2027188249752301
 20
-61.361158133708201
 30
0.0
 11
0.893559716066053
 21
-61.637138439275198
 31
0.0
  0
LINE
  5
162
100
AcDbEntity
100
AcDbLine
  8
Layer0
 62
256
370
-1
  6
ByLayer
 10
1.4299146335491499
 20
-61.014565363661198
 30
0.0
 11
1.2027188249752301
 21
-61.361158133708201
 31
0.0
  0
LINE
  5
163
100
AcDbEntity
100
AcDbLine
  8
Layer0
 62
256
370
-1
  6
ByLayer
 10
1.55966412289234
 20
-60.620979853641401
 30
0.0
 11
1.4299146335491499
 21
-61.014565363661198
 31
0.0
  0
LINE
  5
164
100
AcDbEntity
100
AcDbLine
  8
Layer0
 62
256
370
-1
  6
ByLayer
 10
1.58312507972724
 20
-60.207223805725803
 30
0.0
 11
1.55966412289234
 21
-60.620979853641401
 31
0.0
  0
LINE
  5
165
100
AcDbEntity
100
AcDbLine
  8
Layer0
 62
256
370
-1
  6
ByLayer
 10
1.4986986786165899
 20
-59.801494010815503
 30
0.0
 11
1.58312507972724
 21
-60.207223805725803
 31
0.0
  0
LINE
  5
166
100
AcDbEntity
100
AcDbLine
  8
Layer0
 62
256
370
-1
  6
ByLayer
 10
1.3121384392748801
 20
-59.431440283933703
 30
0.0
 11
1.4986986786165899
 21
-59.801494010815503
 31
0.0
  0
LINE
  5
167
100
AcDbEntity
100
AcDbLine
  8
Layer0
 62
256
370
-1
  6
ByLayer
 10
1.03615813370786
 20
-59.122281175024497
 30
0.0
 11
1.3121384392748801
 21
-59.431440283933703
 31
0.0
  0
LINE
  5
168
100
AcDbEntity
100
AcDbLine
  8
Layer0
 62
256
370
-1
  6
ByLayer
 10
0.689565363660906
 20
-58.895085366450601
 30
0.0
 11
1.03615813370786
 21
-59.122281175024497
 31
0.0
  0
LINE
  5
169
100
AcDbEntity
100
AcDbLine
  8
Layer0
 62
256
370
-1
  6
ByLayer
 10
0.295979853641087
 20
-58.765335877107397
 30
0.0
 11
0.689565363660906
 21
-58.895085366450601
 31
0.0
  0
LINE
  5
16A
100
AcDbEntity
100
AcDbLine
  8
Layer0
 62
256
370
-1
  6
ByLayer
 10
-0.117776194274566
 20
-58.741874920272501
 30
0.0
 11
0.295979853641087
 21
-58.765335877107397
 31
0.0
  0
LINE
  5
16B
100
AcDbEntity
100
AcDbLine
  8
Layer0
 62
256
370
-1
  6
ByLayer
 10
-0.523505989184779
 20
-58.826301321383198
 30
0.0
 11
-0.117776194274566
 21
-58.741874920272501
 31
0.0
  0
LINE
  5
16C
100
AcDbEntity
100
AcDbLine
  8
Layer0
 62
256
370
-1
  6
ByLayer
 10
-0.893559716066617
 20
-59.0128615607249
 30
0.0
 11
-0.523505989184779
 21
-58.826301321383198
 31
0.0
  0
LINE
  5
16D
100
AcDbEntity
100
AcDbLine
  8
Layer0
 62
256
370
-1
  6
ByLayer
 10
-1.2027188249757901
 20
-59.288841866291897
 30
0.0
 11
-0.893559716066617
 21
-59.0128615607249
 31
0.0
  0
LINE
  5
16E
100
AcDbEntity
100
AcDbLine
  8
Layer0
 62
256
370
-1
  6
ByLayer
 10
-1.4299146335497199
 20
-59.6354346363389
 30
0.0
 11
-1.2027188249757901
 21
-59.288841866291897
 31
0.0
  0
LINE
  5
16F
100
AcDbEntity
100
AcDbLine
  8
Layer0
 62
256
370
-1
  6
ByLayer
 10
-1.55966412289291
 20
-60.029020146358697
 30
0.0
 11
-1.4299146335497199
 21
-59.6354346363389
 31
0.0
  0
LINE
  5
170
100
AcDbEntity
100
AcDbLine
  8
Layer0
 62
256
370
-1
  6
ByLayer
 10
-1.58312507972781
 20
-60.442776194274302
 30
0.0
 11
-1.55966412289291
 21
-60.029020146358697
 31
0.0
  0
LINE
  5
171
100
AcDbEntity
100
AcDbLine
  8
Layer0
 62
256
370
-1
  6
ByLayer
 10
-1.4986986786171499
 20
-60.848505989184503
 30
0.0
 11
-1.58312507972781
 21
-60.442776194274302
 31
0.0
  0
LINE
  5
172
100
AcDbEntity
100
AcDbLine
  8
Layer0
 62
256
370
-1
  6
ByLayer
 10
-1.31213843927544
 20
-61.218559716066402
 30
0.0
 11
-1.4986986786171499
 21
-60.848505989184503
 31
0.0
  0
LINE
  5
173
100
AcDbEntity
100
AcDbLine
  8
Layer0
 62
256
370
-1
  6
ByLayer
 10
-1.03615813370842
 20
-61.527718824975601
 30
0.0
 11
-1.31213843927544
 21
-61.218559716066402
 31
0.0
  0
LINE
  5
174
100
AcDbEntity
100
AcDbLine
  8
Layer0
 62
256
370
-1
  6
ByLayer
 10
-0.68956536366147
 20
-61.754914633549497
 30
0.0
 11
-1.03615813370842
 21
-61.527718824975601
 31
0.0
  0
LINE
  5
175
100
AcDbEntity
100
AcDbLine
  8
Layer0
 62
256
370
-1
  6
ByLayer
 10
-0.295979853641651
 20
-61.884664122892701
 30
0.0
 11
-0.68956536366147
 21
-61.754914633549497
 31
0.0
  0
LINE
  5
176
100
AcDbEntity
100
AcDbLine
  8
Layer0
 62
256
370
-1
  6
ByLayer
 10
0.117776194274002
 20
-61.908125079727597
 30
0.0
 11
-0.295979853641651
 21
-61.884664122892701
 31
0.0
  0
LINE
  5
177
100
AcDbEntity
100
AcDbLine
  8
Layer0
 62
256
370
-1
  6
ByLayer
 10
0.523505989184215
 20
-61.8236986786169
 30
0.0
 11
0.117776194274002
 21
-61.908125079727597
 31
0.0
  0
LINE
  5
178
100
AcDbEntity
100
AcDbLine
  8
Layer0
 62
256
370
-1
  6
ByLayer
 10
0.893559716066053
 20
-61.637138439275198
 30
0.0
 11
0.523505989184215
 21
-61.8236986786169
 31
0.0
  0
LINE
  5
179
100
AcDbEntity
100
AcDbLine
  8
Layer0
 62
256
370
-1
  6
ByLayer
 10
1.2027188249755101
 20
38.841841866291901
 30
0.0
 11
0.893559716066332
 21
38.565861560724798
 31
0.0
  0
LINE
  5
17A
100
AcDbEntity
100
AcDbLine
  8
Layer0
 62
256
370
-1
  6
ByLayer
 10
0.893559716066332
 20
38.565861560724798
 30
0.0
 11
0.523505989184494
 21
38.379301321383103
 31
0.0
  0
LINE
  5
17B
100
AcDbEntity
100
AcDbLine
  8
Layer0
 62
256
370
-1
  6
ByLayer
 10
0.523505989184494
 20
38.379301321383103
 30
0.0
 11
0.117776194274283
 21
38.294874920272498
 31
0.0
  0
LINE
  5
17C
100
AcDbEntity
100
AcDbLine
  8
Layer0
 62
256
370
-1
  6
ByLayer
 10
0.117776194274283
 20
38.294874920272498
 30
0.0
 11
-0.29597985364137
 21
38.318335877107401
 31
0.0
  0
LINE
  5
17D
100
AcDbEntity
100
AcDbLine
  8
Layer0
 62
256
370
-1
  6
ByLayer
 10
-0.29597985364137
 20
38.318335877107401
 30
0.0
 11
-0.68956536366119
 21
38.448085366450599
 31
0.0
  0
LINE
  5
17E
100
AcDbEntity
100
AcDbLine
  8
Layer0
 62
256
370
-1
  6
ByLayer
 10
-0.68956536366119
 20
38.448085366450599
 30
0.0
 11
-1.03615813370814
 21
38.675281175024502
 31
0.0
  0
LINE
  5
17F
100
AcDbEntity
100
AcDbLine
  8
Layer0
 62
256
370
-1
  6
ByLayer
 10
-1.03615813370814
 20
38.675281175024502
 30
0.0
 11
-1.3121384392751601
 21
38.984440283933701
 31
0.0
  0
LINE
  5
180
100
AcDbEntity
100
AcDbLine
  8
Layer0
 62
256
370
-1
  6
ByLayer
 10
-1.3121384392751601
 20
38.984440283933701
 30
0.0
 11
-1.4986986786168699
 21
39.3544940108155
 31
0.0
  0
LINE
  5
181
100
AcDbEntity
100
AcDbLine
  8
Layer0
 62
256
370
-1
  6
ByLayer
 10
-1.4986986786168699
 20
39.3544940108155
 30
0.0
 11
-1.58312507972752
 21
39.760223805725701
 31
0.0
  0
LINE
  5
182
100
AcDbEntity
100
AcDbLine
  8
Layer0
 62
256
370
-1
  6
ByLayer
 10
-1.58312507972752
 20
39.760223805725701
 30
0.0
 11
-1.55966412289262
 21
40.173979853641299
 31
0.0
  0
LINE
  5
183
100
AcDbEntity
100
AcDbLine
  8
Layer0
 62
256
370
-1
  6
ByLayer
 10
-1.55966412289262
 20
40.173979853641299
 30
0.0
 11
-1.4299146335494299
 21
40.567565363661203
 31
0.0
  0
LINE
  5
184
100
AcDbEntity
100
AcDbLine
  8
Layer0
 62
256
370
-1
  6
ByLayer
 10
-1.4299146335494299
 20
40.567565363661203
 30
0.0
 11
-1.2027188249755101
 21
40.914158133708099
 31
0.0
  0
LINE
  5
185
100
AcDbEntity
100
AcDbLine
  8
Layer0
 62
256
370
-1
  6
ByLayer
 10
-1.2027188249755101
 20
40.914158133708099
 30
0.0
 11
-0.893559716066334
 21
41.190138439275202
 31
0.0
  0
LINE
  5
186
100
AcDbEntity
100
AcDbLine
  8
Layer0
 62
256
370
-1
  6
ByLayer
 10
1.3121384392751601
 20
40.771559716066299
 30
0.0
 11
1.4986986786168699
 21
40.4015059891845
 31
0.0
  0
LINE
  5
187
100
AcDbEntity
100
AcDbLine
  8
Layer0
 62
256
370
-1
  6
ByLayer
 10
1.4986986786168699
 20
40.4015059891845
 30
0.0
 11
1.58312507972752
 21
39.995776194274299
 31
0.0
  0
LINE
  5
188
100
AcDbEntity
100
AcDbLine
  8
Layer0
 62
256
370
-1
  6
ByLayer
 10
1.58312507972752
 20
39.995776194274299
 30
0.0
 11
1.55966412289262
 21
39.582020146358602
 31
0.0
  0
LINE
  5
189
100
AcDbEntity
100
AcDbLine
  8
Layer0
 62
256
370
-1
  6
ByLayer
 10
1.55966412289262
 20
39.582020146358602
 30
0.0
 11
1.4299146335494299
 21
39.188434636338798
 31
0.0
  0
LINE
  5
18A
100
AcDbEntity
100
AcDbLine
  8
Layer0
 62
256
370
-1
  6
ByLayer
 10
1.4299146335494299
 20
39.188434636338798
 30
0.0
 11
1.2027188249755101
 21
38.841841866291901
 31
0.0
  0
LINE
  5
18B
100
AcDbEntity
100
AcDbLine
  8
Layer0
 62
256
370
-1
  6
ByLayer
 10
-63.503678833972401
 20
-6.3500000000000396
 30
0.0
 11
-63.503678833972401
 21
6.3499999999999801
 31
0.0
  0
LINE
  5
18C
100
AcDbEntity
100
AcDbLine
  8
Layer0
 62
256
370
-1
  6
ByLayer
 10
-63.503678833972401
 20
-6.3500000000000396
 30
0.0
 11
-58.728478833972403
 21
-6.3500000000000396
 31
0.0
  0
LINE
  5
18D
100
AcDbEntity
100
AcDbLine
  8
Layer0
 62
256
370
-1
  6
ByLayer
 10
-58.728478833972403
 20
6.3499999999999801
 30
0.0
 11
-58.728478833972403
 21
-6.3500000000000396
 31
0.0
  0
LINE
  5
18E
100
AcDbEntity
100
AcDbLine
  8
Layer0
 62
256
370
-1
  6
ByLayer
 10
-58.728478833972403
 20
6.3499999999999801
 30
0.0
 11
-63.503678833972401
 21
6.3499999999999801
 31
0.0
  0
LINE
  5
18F
100
AcDbEntity
100
AcDbLine
  8
Layer0
 62
256
370
-1
  6
ByLayer
 10
63.503678833972401
 20
6.3500000000000503
 30
0.0
 11
58.728478833972403
 21
6.3500000000000503
 31
0.0
  0
LINE
  5
190
100
AcDbEntity
100
AcDbLine
  8
Layer0
 62
256
370
-1
  6
ByLayer
 10
58.728478833972403
 20
-6.3499999999999703
 30
0.0
 11
58.728478833972403
 21
6.3500000000000503
 31
0.0
  0
LINE
  5
191
100
AcDbEntity
100
AcDbLine
  8
Layer0
 62
256
370
-1
  6
ByLayer
 10
58.728478833972403
 20
-6.3499999999999703
 30
0.0
 11
63.503678833972401
 21
-6.3499999999999703
 31
0.0
  0
LINE
  5
192
100
AcDbEntity
100
AcDbLine
  8
Layer0
 62
256
370
-1
  6
ByLayer
 10
63.503678833972401
 20
6.3500000000000503
 30
0.0
 11
63.503678833972401
 21
-6.3499999999999703
 31
0.0
  0
LINE
  5
193
100
AcDbEntity
100
AcDbLine
  8
Layer0
 62
256
370
-1
  6
ByLayer
 10
12.5366477876122
 20
59.9966982987808
 30
0.0
 11
12.7492856366892
 21
60.356265444399199
 31
0.0
  0
LINE
  5
194
100
AcDbEntity
100
AcDbLine
  8
Layer0
 62
256
370
-1
  6
ByLayer
 10
12.7492856366892
 20
60.356265444399199
 30
0.0
 11
13.0477408520384
 21
60.648545911586297
 31
0.0
  0
LINE
  5
195
100
AcDbEntity
100
AcDbLine
  8
Layer0
 62
256
370
-1
  6
ByLayer
 10
13.0477408520384
 20
60.648545911586297
 30
0.0
 11
13.4116742039544
 21
60.8536212695196
 31
0.0
  0
LINE
  5
196
100
AcDbEntity
100
AcDbLine
  8
Layer0
 62
256
370
-1
  6
ByLayer
 10
13.4116742039544
 20
60.8536212695196
 30
0.0
 11
13.816284235932301
 21
60.957515971459003
 31
0.0
  0
LINE
  5
197
100
AcDbEntity
100
AcDbLine
  8
Layer0
 62
256
370
-1
  6
ByLayer
 10
13.816284235932301
 20
60.957515971459003
 30
0.0
 11
14.2339974429426
 21
60.953149765161498
 31
0.0
  0
LINE
  5
198
100
AcDbEntity
100
AcDbLine
  8
Layer0
 62
256
370
-1
  6
ByLayer
 10
14.2339974429426
 20
60.953149765161498
 30
0.0
 11
14.6363473602312
 21
60.8408202003707
 31
0.0
  0
LINE
  5
199
100
AcDbEntity
100
AcDbLine
  8
Layer0
 62
256
370
-1
  6
ByLayer
 10
14.6363473602312
 20
60.8408202003707
 30
0.0
 11
14.9959145058496
 21
60.628182351293702
 31
0.0
  0
LINE
  5
19A
100
AcDbEntity
100
AcDbLine
  8
Layer0
 62
256
370
-1
  6
ByLayer
 10
14.9959145058496
 20
60.628182351293702
 30
0.0
 11
15.288194973036701
 21
60.329727135944502
 31
0.0
  0
LINE
  5
19B
100
AcDbEntity
100
AcDbLine
  8
Layer0
 62
256
370
-1
  6
ByLayer
 10
15.288194973036701
 20
60.329727135944502
 30
0.0
 11
15.493270330970001
 21
59.965793784028499
 31
0.0
  0
LINE
  5
19C
100
AcDbEntity
100
AcDbLine
  8
Layer0
 62
256
370
-1
  6
ByLayer
 10
15.493270330970001
 20
59.965793784028499
 30
0.0
 11
15.5971650329094
 21
59.561183752050603
 31
0.0
  0
LINE
  5
19D
100
AcDbEntity
100
AcDbLine
  8
Layer0
 62
256
370
-1
  6
ByLayer
 10
15.5971650329094
 20
59.561183752050603
 30
0.0
 11
15.592798826611901
 21
59.143470545040302
 31
0.0
  0
LINE
  5
19E
100
AcDbEntity
100
AcDbLine
  8
Layer0
 62
256
370
-1
  6
ByLayer
 10
15.592798826611901
 20
59.143470545040302
 30
0.0
 11
15.480469261821
 21
58.741120627751698
 31
0.0
  0
LINE
  5
19F
100
AcDbEntity
100
AcDbLine
  8
Layer0
 62
256
370
-1
  6
ByLayer
 10
15.480469261821
 20
58.741120627751698
 30
0.0
 11
15.267831412744099
 21
58.381553482133299
 31
0.0
  0
LINE
  5
1A0
100
AcDbEntity
100
AcDbLine
  8
Layer0
 62
256
370
-1
  6
ByLayer
 10
15.267831412744099
 20
58.381553482133299
 30
0.0
 11
14.9693761973948
 21
58.089273014946201
 31
0.0
  0
LINE
  5
1A1
100
AcDbEntity
100
AcDbLine
  8
Layer0
 62
256
370
-1
  6
ByLayer
 10
14.9693761973948
 20
58.089273014946201
 30
0.0
 11
14.605442845478899
 21
57.884197657012898
 31
0.0
  0
LINE
  5
1A2
100
AcDbEntity
100
AcDbLine
  8
Layer0
 62
256
370
-1
  6
ByLayer
 10
14.605442845478899
 20
57.884197657012898
 30
0.0
 11
14.200832813501
 21
57.780302955073502
 31
0.0
  0
LINE
  5
1A3
100
AcDbEntity
100
AcDbLine
  8
Layer0
 62
256
370
-1
  6
ByLayer
 10
14.200832813501
 20
57.780302955073502
 30
0.0
 11
13.7831196064907
 21
57.784669161370999
 31
0.0
  0
LINE
  5
1A4
100
AcDbEntity
100
AcDbLine
  8
Layer0
 62
256
370
-1
  6
ByLayer
 10
13.7831196064907
 20
57.784669161370999
 30
0.0
 11
13.380769689202101
 21
57.896998726161797
 31
0.0
  0
LINE
  5
1A5
100
AcDbEntity
100
AcDbLine
  8
Layer0
 62
256
370
-1
  6
ByLayer
 10
13.380769689202101
 20
57.896998726161797
 30
0.0
 11
13.0212025435837
 21
58.109636575238802
 31
0.0
  0
LINE
  5
1A6
100
AcDbEntity
100
AcDbLine
  8
Layer0
 62
256
370
-1
  6
ByLayer
 10
13.0212025435837
 20
58.109636575238802
 30
0.0
 11
12.7289220763966
 21
58.408091790588003
 31
0.0
  0
LINE
  5
1A7
100
AcDbEntity
100
AcDbLine
  8
Layer0
 62
256
370
-1
  6
ByLayer
 10
12.7289220763966
 20
58.408091790588003
 30
0.0
 11
12.5238467184633
 21
58.772025142503999
 31
0.0
  0
LINE
  5
1A8
100
AcDbEntity
100
AcDbLine
  8
Layer0
 62
256
370
-1
  6
ByLayer
 10
12.5238467184633
 20
58.772025142503999
 30
0.0
 11
12.4199520165238
 21
59.176635174481902
 31
0.0
  0
LINE
  5
1A9
100
AcDbEntity
100
AcDbLine
  8
Layer0
 62
256
370
-1
  6
ByLayer
 10
12.4199520165238
 20
59.176635174481902
 30
0.0
 11
12.4243182228214
 21
59.594348381492203
 31
0.0
  0
LINE
  5
1AA
100
AcDbEntity
100
AcDbLine
  8
Layer0
 62
256
370
-1
  6
ByLayer
 10
12.4243182228214
 20
59.594348381492203
 30
0.0
 11
12.5366477876122
 21
59.9966982987808
 31
0.0
  0
LINE
  5
1AB
100
AcDbEntity
100
AcDbLine
  8
Layer0
 62
256
370
-1
  6
ByLayer
 10
21.7027581182973
 20
58.846072707501101
 30
0.0
 11
21.882267502716299
 21
58.468872802975902
 31
0.0
  0
LINE
  5
1AC
100
AcDbEntity
100
AcDbLine
  8
Layer0
 62
256
370
-1
  6
ByLayer
 10
21.882267502716299
 20
58.468872802975902
 30
0.0
 11
21.958033734085799
 21
58.058065226059
 31
0.0
  0
LINE
  5
1AD
100
AcDbEntity
100
AcDbLine
  8
Layer0
 62
256
370
-1
  6
ByLayer
 10
21.958033734085799
 20
58.058065226059
 30
0.0
 11
21.924893468947701
 21
57.641645834225699
 31
0.0
  0
LINE
  5
1AE
100
AcDbEntity
100
AcDbLine
  8
Layer0
 62
256
370
-1
  6
ByLayer
 10
21.924893468947701
 20
57.641645834225699
 30
0.0
 11
21.785105161604299
 21
57.247992920863801
 31
0.0
  0
LINE
  5
1AF
100
AcDbEntity
100
AcDbLine
  8
Layer0
 62
256
370
-1
  6
ByLayer
 10
21.785105161604299
 20
57.247992920863801
 30
0.0
 11
21.548195154189798
 21
56.903933281476696
 31
0.0
  0
LINE
  5
1B0
100
AcDbEntity
100
AcDbLine
  8
Layer0
 62
256
370
-1
  6
ByLayer
 10
21.548195154189798
 20
56.903933281476696
 30
0.0
 11
21.2303084721975
 21
56.632914011903303
 31
0.0
  0
LINE
  5
1B1
100
AcDbEntity
100
AcDbLine
  8
Layer0
 62
256
370
-1
  6
ByLayer
 10
21.2303084721975
 20
56.632914011903303
 30
0.0
 11
20.853108567672301
 21
56.453404627484403
 31
0.0
  0
LINE
  5
1B2
100
AcDbEntity
100
AcDbLine
  8
Layer0
 62
256
370
-1
  6
ByLayer
 10
20.853108567672301
 20
56.453404627484403
 30
0.0
 11
20.442300990755399
 21
56.377638396114797
 31
0.0
  0
LINE
  5
1B3
100
AcDbEntity
100
AcDbLine
  8
Layer0
 62
256
370
-1
  6
ByLayer
 10
20.442300990755399
 20
56.377638396114797
 30
0.0
 11
20.025881598922101
 21
56.410778661252898
 31
0.0
  0
LINE
  5
1B4
100
AcDbEntity
100
AcDbLine
  8
Layer0
 62
256
370
-1
  6
ByLayer
 10
20.025881598922101
 20
56.410778661252898
 30
0.0
 11
19.6322286855602
 21
56.550566968596399
 31
0.0
  0
LINE
  5
1B5
100
AcDbEntity
100
AcDbLine
  8
Layer0
 62
256
370
-1
  6
ByLayer
 10
19.6322286855602
 20
56.550566968596399
 30
0.0
 11
19.288169046173099
 21
56.787476976010801
 31
0.0
  0
LINE
  5
1B6
100
AcDbEntity
100
AcDbLine
  8
Layer0
 62
256
370
-1
  6
ByLayer
 10
19.288169046173099
 20
56.787476976010801
 30
0.0
 11
19.017149776599702
 21
57.105363658003199
 31
0.0
  0
LINE
  5
1B7
100
AcDbEntity
100
AcDbLine
  8
Layer0
 62
256
370
-1
  6
ByLayer
 10
19.017149776599702
 20
57.105363658003199
 30
0.0
 11
18.837640392180798
 21
57.482563562528298
 31
0.0
  0
LINE
  5
1B8
100
AcDbEntity
100
AcDbLine
  8
Layer0
 62
256
370
-1
  6
ByLayer
 10
18.837640392180798
 20
57.482563562528298
 30
0.0
 11
18.7618741608112
 21
57.8933711394452
 31
0.0
  0
LINE
  5
1B9
100
AcDbEntity
100
AcDbLine
  8
Layer0
 62
256
370
-1
  6
ByLayer
 10
18.7618741608112
 20
57.8933711394452
 30
0.0
 11
18.795014425949301
 21
58.309790531278502
 31
0.0
  0
LINE
  5
1BA
100
AcDbEntity
100
AcDbLine
  8
Layer0
 62
256
370
-1
  6
ByLayer
 10
18.795014425949301
 20
58.309790531278502
 30
0.0
 11
18.934802733292798
 21
58.703443444640399
 31
0.0
  0
LINE
  5
1BB
100
AcDbEntity
100
AcDbLine
  8
Layer0
 62
256
370
-1
  6
ByLayer
 10
18.934802733292798
 20
58.703443444640399
 30
0.0
 11
19.1717127407072
 21
59.047503084027497
 31
0.0
  0
LINE
  5
1BC
100
AcDbEntity
100
AcDbLine
  8
Layer0
 62
256
370
-1
  6
ByLayer
 10
19.1717127407072
 20
59.047503084027497
 30
0.0
 11
19.489599422699602
 21
59.318522353600898
 31
0.0
  0
LINE
  5
1BD
100
AcDbEntity
100
AcDbLine
  8
Layer0
 62
256
370
-1
  6
ByLayer
 10
19.489599422699602
 20
59.318522353600898
 30
0.0
 11
19.866799327224701
 21
59.498031738019897
 31
0.0
  0
LINE
  5
1BE
100
AcDbEntity
100
AcDbLine
  8
Layer0
 62
256
370
-1
  6
ByLayer
 10
19.866799327224701
 20
59.498031738019897
 30
0.0
 11
20.277606904141599
 21
59.573797969389403
 31
0.0
  0
LINE
  5
1BF
100
AcDbEntity
100
AcDbLine
  8
Layer0
 62
256
370
-1
  6
ByLayer
 10
20.277606904141599
 20
59.573797969389403
 30
0.0
 11
20.694026295974901
 21
59.540657704251302
 31
0.0
  0
LINE
  5
1C0
100
AcDbEntity
100
AcDbLine
  8
Layer0
 62
256
370
-1
  6
ByLayer
 10
20.694026295974901
 20
59.540657704251302
 30
0.0
 11
21.087679209336802
 21
59.4008693969079
 31
0.0
  0
LINE
  5
1C1
100
AcDbEntity
100
AcDbLine
  8
Layer0
 62
256
370
-1
  6
ByLayer
 10
21.087679209336802
 20
59.4008693969079
 30
0.0
 11
21.431738848723899
 21
59.163959389493499
 31
0.0
  0
LINE
  5
1C2
100
AcDbEntity
100
AcDbLine
  8
Layer0
 62
256
370
-1
  6
ByLayer
 10
21.431738848723899
 20
59.163959389493499
 30
0.0
 11
21.7027581182973
 21
58.846072707501101
 31
0.0
  0
LINE
  5
1C3
100
AcDbEntity
100
AcDbLine
  8
Layer0
 62
256
370
-1
  6
ByLayer
 10
-18.795014425949201
 20
58.309790531278402
 30
0.0
 11
-18.934802733292599
 21
58.7034434446403
 31
0.0
  0
LINE
  5
1C4
100
AcDbEntity
100
AcDbLine
  8
Layer0
 62
256
370
-1
  6
ByLayer
 10
-12.728922076396399
 20
58.408091790587903
 30
0.0
 11
-12.523846718463099
 21
58.7720251425039
 31
0.0
  0
LINE
  5
1C5
100
AcDbEntity
100
AcDbLine
  8
Layer0
 62
256
370
-1
  6
ByLayer
 10
-12.523846718463099
 20
58.7720251425039
 30
0.0
 11
-12.4199520165237
 21
59.176635174481802
 31
0.0
  0
LINE
  5
1C6
100
AcDbEntity
100
AcDbLine
  8
Layer0
 62
256
370
-1
  6
ByLayer
 10
-12.4199520165237
 20
59.176635174481802
 30
0.0
 11
-12.424318222821199
 21
59.594348381492097
 31
0.0
  0
LINE
  5
1C7
100
AcDbEntity
100
AcDbLine
  8
Layer0
 62
256
370
-1
  6
ByLayer
 10
-12.424318222821199
 20
59.594348381492097
 30
0.0
 11
-12.5366477876121
 21
59.9966982987807
 31
0.0
  0
LINE
  5
1C8
100
AcDbEntity
100
AcDbLine
  8
Layer0
 62
256
370
-1
  6
ByLayer
 10
-12.5366477876121
 20
59.9966982987807
 30
0.0
 11
-12.7492856366891
 21
60.356265444399099
 31
0.0
  0
LINE
  5
1C9
100
AcDbEntity
100
AcDbLine
  8
Layer0
 62
256
370
-1
  6
ByLayer
 10
-12.7492856366891
 20
60.356265444399099
 30
0.0
 11
-13.0477408520383
 21
60.648545911586197
 31
0.0
  0
LINE
  5
1CA
100
AcDbEntity
100
AcDbLine
  8
Layer0
 62
256
370
-1
  6
ByLayer
 10
-21.924893468947499
 20
57.6416458342255
 30
0.0
 11
-21.7851051616041
 21
57.247992920863602
 31
0.0
  0
LINE
  5
1CB
100
AcDbEntity
100
AcDbLine
  8
Layer0
 62
256
370
-1
  6
ByLayer
 10
-13.0477408520383
 20
60.648545911586197
 30
0.0
 11
-13.411674203954201
 21
60.8536212695195
 31
0.0
  0
LINE
  5
1CC
100
AcDbEntity
100
AcDbLine
  8
Layer0
 62
256
370
-1
  6
ByLayer
 10
-13.411674203954201
 20
60.8536212695195
 30
0.0
 11
-13.8162842359322
 21
60.957515971458903
 31
0.0
  0
LINE
  5
1CD
100
AcDbEntity
100
AcDbLine
  8
Layer0
 62
256
370
-1
  6
ByLayer
 10
-13.8162842359322
 20
60.957515971458903
 30
0.0
 11
-14.2339974429424
 21
60.953149765161399
 31
0.0
  0
LINE
  5
1CE
100
AcDbEntity
100
AcDbLine
  8
Layer0
 62
256
370
-1
  6
ByLayer
 10
-14.2339974429424
 20
60.953149765161399
 30
0.0
 11
-14.636347360231101
 21
60.840820200370501
 31
0.0
  0
LINE
  5
1CF
100
AcDbEntity
100
AcDbLine
  8
Layer0
 62
256
370
-1
  6
ByLayer
 10
-14.9959145058495
 20
60.628182351293503
 30
0.0
 11
-15.2881949730366
 21
60.329727135944303
 31
0.0
  0
LINE
  5
1D0
100
AcDbEntity
100
AcDbLine
  8
Layer0
 62
256
370
-1
  6
ByLayer
 10
-15.2881949730366
 20
60.329727135944303
 30
0.0
 11
-15.493270330969899
 21
59.9657937840283
 31
0.0
  0
LINE
  5
1D1
100
AcDbEntity
100
AcDbLine
  8
Layer0
 62
256
370
-1
  6
ByLayer
 10
-15.493270330969899
 20
59.9657937840283
 30
0.0
 11
-15.597165032909301
 21
59.561183752050397
 31
0.0
  0
LINE
  5
1D2
100
AcDbEntity
100
AcDbLine
  8
Layer0
 62
256
370
-1
  6
ByLayer
 10
-15.597165032909301
 20
59.561183752050397
 30
0.0
 11
-15.5927988266117
 21
59.143470545040103
 31
0.0
  0
LINE
  5
1D3
100
AcDbEntity
100
AcDbLine
  8
Layer0
 62
256
370
-1
  6
ByLayer
 10
-19.2881690461729
 20
56.787476976010602
 30
0.0
 11
-19.017149776599499
 21
57.105363658003
 31
0.0
  0
LINE
  5
1D4
100
AcDbEntity
100
AcDbLine
  8
Layer0
 62
256
370
-1
  6
ByLayer
 10
-15.4804692618209
 20
58.741120627751499
 30
0.0
 11
-15.267831412743901
 21
58.3815534821331
 31
0.0
  0
LINE
  5
1D5
100
AcDbEntity
100
AcDbLine
  8
Layer0
 62
256
370
-1
  6
ByLayer
 10
-20.025881598921899
 20
56.410778661252799
 30
0.0
 11
-19.632228685560001
 21
56.5505669685962
 31
0.0
  0
LINE
  5
1D6
100
AcDbEntity
100
AcDbLine
  8
Layer0
 62
256
370
-1
  6
ByLayer
 10
-18.837640392180599
 20
57.482563562528199
 30
0.0
 11
-18.7618741608111
 21
57.893371139445001
 31
0.0
  0
LINE
  5
1D7
100
AcDbEntity
100
AcDbLine
  8
Layer0
 62
256
370
-1
  6
ByLayer
 10
-18.7618741608111
 20
57.893371139445001
 30
0.0
 11
-18.795014425949201
 21
58.309790531278402
 31
0.0
  0
LINE
  5
1D8
100
AcDbEntity
100
AcDbLine
  8
Layer0
 62
256
370
-1
  6
ByLayer
 10
-19.171712740707001
 20
59.047503084027298
 30
0.0
 11
-19.489599422699399
 21
59.318522353600798
 31
0.0
  0
LINE
  5
1D9
100
AcDbEntity
100
AcDbLine
  8
Layer0
 62
256
370
-1
  6
ByLayer
 10
-18.934802733292599
 20
58.7034434446403
 30
0.0
 11
-19.171712740707001
 21
59.047503084027298
 31
0.0
  0
LINE
  5
1DA
100
AcDbEntity
100
AcDbLine
  8
Layer0
 62
256
370
-1
  6
ByLayer
 10
-19.489599422699399
 20
59.318522353600798
 30
0.0
 11
-19.866799327224602
 21
59.498031738019698
 31
0.0
  0
LINE
  5
1DB
100
AcDbEntity
100
AcDbLine
  8
Layer0
 62
256
370
-1
  6
ByLayer
 10
-19.866799327224602
 20
59.498031738019698
 30
0.0
 11
-20.2776069041414
 21
59.573797969389197
 31
0.0
  0
LINE
  5
1DC
100
AcDbEntity
100
AcDbLine
  8
Layer0
 62
256
370
-1
  6
ByLayer
 10
-20.2776069041414
 20
59.573797969389197
 30
0.0
 11
-20.694026295974801
 21
59.540657704251103
 31
0.0
  0
LINE
  5
1DD
100
AcDbEntity
100
AcDbLine
  8
Layer0
 62
256
370
-1
  6
ByLayer
 10
-20.694026295974801
 20
59.540657704251103
 30
0.0
 11
-21.087679209336699
 21
59.400869396907702
 31
0.0
  0
LINE
  5
1DE
100
AcDbEntity
100
AcDbLine
  8
Layer0
 62
256
370
-1
  6
ByLayer
 10
-14.636347360231101
 20
60.840820200370501
 30
0.0
 11
-14.9959145058495
 21
60.628182351293503
 31
0.0
  0
LINE
  5
1DF
100
AcDbEntity
100
AcDbLine
  8
Layer0
 62
256
370
-1
  6
ByLayer
 10
-21.087679209336699
 20
59.400869396907702
 30
0.0
 11
-21.4317388487237
 21
59.1639593894933
 31
0.0
  0
LINE
  5
1E0
100
AcDbEntity
100
AcDbLine
  8
Layer0
 62
256
370
-1
  6
ByLayer
 10
-21.4317388487237
 20
59.1639593894933
 30
0.0
 11
-21.702758118297201
 21
58.846072707500902
 31
0.0
  0
LINE
  5
1E1
100
AcDbEntity
100
AcDbLine
  8
Layer0
 62
256
370
-1
  6
ByLayer
 10
-21.702758118297201
 20
58.846072707500902
 30
0.0
 11
-21.8822675027161
 21
58.468872802975703
 31
0.0
  0
LINE
  5
1E2
100
AcDbEntity
100
AcDbLine
  8
Layer0
 62
256
370
-1
  6
ByLayer
 10
-21.8822675027161
 20
58.468872802975703
 30
0.0
 11
-21.9580337340856
 21
58.058065226058801
 31
0.0
  0
LINE
  5
1E3
100
AcDbEntity
100
AcDbLine
  8
Layer0
 62
256
370
-1
  6
ByLayer
 10
-21.9580337340856
 20
58.058065226058801
 30
0.0
 11
-21.924893468947499
 21
57.6416458342255
 31
0.0
  0
LINE
  5
1E4
100
AcDbEntity
100
AcDbLine
  8
Layer0
 62
256
370
-1
  6
ByLayer
 10
-21.7851051616041
 20
57.247992920863602
 30
0.0
 11
-21.548195154189699
 21
56.903933281476498
 31
0.0
  0
LINE
  5
1E5
100
AcDbEntity
100
AcDbLine
  8
Layer0
 62
256
370
-1
  6
ByLayer
 10
-21.230308472197301
 20
56.632914011903097
 30
0.0
 11
-20.853108567672098
 21
56.453404627484197
 31
0.0
  0
LINE
  5
1E6
100
AcDbEntity
100
AcDbLine
  8
Layer0
 62
256
370
-1
  6
ByLayer
 10
-20.853108567672098
 20
56.453404627484197
 30
0.0
 11
-20.4423009907552
 21
56.377638396114698
 31
0.0
  0
LINE
  5
1E7
100
AcDbEntity
100
AcDbLine
  8
Layer0
 62
256
370
-1
  6
ByLayer
 10
-13.3807696892019
 20
57.896998726161698
 30
0.0
 11
-13.021202543583501
 21
58.109636575238703
 31
0.0
  0
LINE
  5
1E8
100
AcDbEntity
100
AcDbLine
  8
Layer0
 62
256
370
-1
  6
ByLayer
 10
-13.021202543583501
 20
58.109636575238703
 30
0.0
 11
-12.728922076396399
 21
58.408091790587903
 31
0.0
  0
LINE
  5
1E9
100
AcDbEntity
100
AcDbLine
  8
Layer0
 62
256
370
-1
  6
ByLayer
 10
-13.7831196064905
 20
57.7846691613709
 30
0.0
 11
-13.3807696892019
 21
57.896998726161698
 31
0.0
  0
LINE
  5
1EA
100
AcDbEntity
100
AcDbLine
  8
Layer0
 62
256
370
-1
  6
ByLayer
 10
-14.200832813500799
 20
57.780302955073303
 30
0.0
 11
-13.7831196064905
 21
57.7846691613709
 31
0.0
  0
LINE
  5
1EB
100
AcDbEntity
100
AcDbLine
  8
Layer0
 62
256
370
-1
  6
ByLayer
 10
-14.6054428454787
 20
57.884197657012699
 30
0.0
 11
-14.200832813500799
 21
57.780302955073303
 31
0.0
  0
LINE
  5
1EC
100
AcDbEntity
100
AcDbLine
  8
Layer0
 62
256
370
-1
  6
ByLayer
 10
-14.9693761973947
 20
58.089273014946002
 30
0.0
 11
-14.6054428454787
 21
57.884197657012699
 31
0.0
  0
LINE
  5
1ED
100
AcDbEntity
100
AcDbLine
  8
Layer0
 62
256
370
-1
  6
ByLayer
 10
-19.017149776599499
 20
57.105363658003
 30
0.0
 11
-18.837640392180599
 21
57.482563562528199
 31
0.0
  0
LINE
  5
1EE
100
AcDbEntity
100
AcDbLine
  8
Layer0
 62
256
370
-1
  6
ByLayer
 10
-19.632228685560001
 20
56.5505669685962
 30
0.0
 11
-19.2881690461729
 21
56.787476976010602
 31
0.0
  0
LINE
  5
1EF
100
AcDbEntity
100
AcDbLine
  8
Layer0
 62
256
370
-1
  6
ByLayer
 10
-20.4423009907552
 20
56.377638396114698
 30
0.0
 11
-20.025881598921899
 21
56.410778661252799
 31
0.0
  0
LINE
  5
1F0
100
AcDbEntity
100
AcDbLine
  8
Layer0
 62
256
370
-1
  6
ByLayer
 10
-21.548195154189699
 20
56.903933281476498
 30
0.0
 11
-21.230308472197301
 21
56.632914011903097
 31
0.0
  0
LINE
  5
1F1
100
AcDbEntity
100
AcDbLine
  8
Layer0
 62
256
370
-1
  6
ByLayer
 10
-15.5927988266117
 20
59.143470545040103
 30
0.0
 11
-15.4804692618209
 21
58.741120627751499
 31
0.0
  0
LINE
  5
1F2
100
AcDbEntity
100
AcDbLine
  8
Layer0
 62
256
370
-1
  6
ByLayer
 10
-15.267831412743901
 20
58.3815534821331
 30
0.0
 11
-14.9693761973947
 21
58.089273014946002
 31
0.0
  0
LINE
  5
1F3
100
AcDbEntity
100
AcDbLine
  8
Layer0
 62
256
370
-1
  6
ByLayer
 10
48.569658197679402
 20
-46.324594167412499
 30
0.0
 11
49.391408665879901
 21
-46.216408665880301
 31
0.0
  0
LINE
  5
1F4
100
AcDbEntity
100
AcDbLine
  8
Layer0
 62
256
370
-1
  6
ByLayer
 10
47.803908665879902
 20
-46.641778008864698
 30
0.0
 11
48.569658197679402
 21
-46.324594167412499
 31
0.0
  0
LINE
  5
1F5
100
AcDbEntity
100
AcDbLine
  8
Layer0
 62
256
370
-1
  6
ByLayer
 10
47.1463446356126
 20
-47.146344635612998
 30
0.0
 11
47.803908665879902
 21
-46.641778008864698
 31
0.0
  0
LINE
  5
1F6
100
AcDbEntity
100
AcDbLine
  8
Layer0
 62
256
370
-1
  6
ByLayer
 10
46.6417780088643
 20
-47.8039086658803
 30
0.0
 11
47.1463446356126
 21
-47.146344635612998
 31
0.0
  0
LINE
  5
1F7
100
AcDbEntity
100
AcDbLine
  8
Layer0
 62
256
370
-1
  6
ByLayer
 10
46.324594167412101
 20
-48.5696581976798
 30
0.0
 11
46.6417780088643
 21
-47.8039086658803
 31
0.0
  0
LINE
  5
1F8
100
AcDbEntity
100
AcDbLine
  8
Layer0
 62
256
370
-1
  6
ByLayer
 10
46.216408665879896
 20
-49.391408665880299
 30
0.0
 11
46.324594167412101
 21
-48.5696581976798
 31
0.0
  0
LINE
  5
1F9
100
AcDbEntity
100
AcDbLine
  8
Layer0
 62
256
370
-1
  6
ByLayer
 10
48.597788024121897
 20
46.3171947375766
 30
0.0
 11
49.420495105094197
 21
46.216541900320699
 31
0.0
  0
LINE
  5
1FA
100
AcDbEntity
100
AcDbLine
  8
Layer0
 62
256
370
-1
  6
ByLayer
 10
49.420495105094197
 20
46.216541900320699
 30
0.0
 11
50.241219993301598
 21
46.332250986422402
 31
0.0
  0
LINE
  5
1FB
100
AcDbEntity
100
AcDbLine
  8
Layer0
 62
256
370
-1
  6
ByLayer
 10
50.241219993301598
 20
46.332250986422402
 30
0.0
 11
51.004031643924797
 21
46.656436612881897
 31
0.0
  0
LINE
  5
1FC
100
AcDbEntity
100
AcDbLine
  8
Layer0
 62
256
370
-1
  6
ByLayer
 10
51.004031643924797
 20
46.656436612881897
 30
0.0
 11
51.510958308046902
 21
47.052846010622197
 31
0.0
  0
LINE
  5
1FD
100
AcDbEntity
100
AcDbLine
  8
Layer0
 62
256
370
-1
  6
ByLayer
 10
50.978908665879899
 20
-46.641778008864698
 30
0.0
 11
51.5124614977994
 21
-47.051187496309097
 31
0.0
  0
LINE
  5
1FE
100
AcDbEntity
100
AcDbLine
  8
Layer0
 62
256
370
-1
  6
ByLayer
 10
50.213159134080399
 20
-46.324594167412499
 30
0.0
 11
50.978908665879899
 21
-46.641778008864698
 31
0.0
  0
LINE
  5
1FF
100
AcDbEntity
100
AcDbLine
  8
Layer0
 62
256
370
-1
  6
ByLayer
 10
49.391408665879901
 20
-46.216408665880301
 30
0.0
 11
50.213159134080399
 21
-46.324594167412499
 31
0.0
  0
LINE
  5
200
100
AcDbEntity
100
AcDbLine
  8
Layer0
 62
256
370
-1
  6
ByLayer
 10
46.317194737576401
 20
50.185029307638203
 30
0.0
 11
46.2165419003205
 21
49.362322226666002
 31
0.0
  0
LINE
  5
201
100
AcDbEntity
100
AcDbLine
  8
Layer0
 62
256
370
-1
  6
ByLayer
 10
46.2165419003205
 20
49.362322226666002
 30
0.0
 11
46.332250986422103
 21
48.541597338458601
 31
0.0
  0
LINE
  5
202
100
AcDbEntity
100
AcDbLine
  8
Layer0
 62
256
370
-1
  6
ByLayer
 10
46.332250986422103
 20
48.541597338458601
 30
0.0
 11
46.656436612881699
 21
47.778785687835303
 31
0.0
  0
LINE
  5
203
100
AcDbEntity
100
AcDbLine
  8
Layer0
 62
256
370
-1
  6
ByLayer
 10
46.656436612881699
 20
47.778785687835303
 30
0.0
 11
47.167006064997999
 21
47.125871628180398
 31
0.0
  0
LINE
  5
204
100
AcDbEntity
100
AcDbLine
  8
Layer0
 62
256
370
-1
  6
ByLayer
 10
47.167006064997999
 20
47.125871628180398
 30
0.0
 11
47.829164878365397
 21
46.627350173667701
 31
0.0
  0
LINE
  5
205
100
AcDbEntity
100
AcDbLine
  8
Layer0
 62
256
370
-1
  6
ByLayer
 10
47.829164878365397
 20
46.627350173667701
 30
0.0
 11
48.597788024121897
 21
46.3171947375766
 31
0.0
  0
ENDSEC
  0
SECTION
  2
OBJECTS
  0
DICTIONARY
  5
C
100
AcDbDictionary
280
0
281
1
  3
ACAD_GROUP
350
D
  3
ACAD_LAYOUT
350
1A
  3
ACAD_MLINESTYLE
350
17
  3
ACAD_PLOTSETTINGS
350
19
  3
ACAD_PLOTSTYLENAME
350
E
  3
AcDbVariableDictionary
350
206
  0
DICTIONARY
  5
D
100
AcDbDictionary
280
0
281
1
  0
ACDBDICTIONARYWDFLT
  5
E
100
AcDbDictionary
281
1
  3
Normal
350
F
100
AcDbDictionaryWithDefault
340
F
  0
ACDBPLACEHOLDER
  5
F
  0
DICTIONARY
  5
17
100
AcDbDictionary
280
0
281
1
  3
Standard
350
18
  0
MLINESTYLE
  5
18
100
AcDbMlineStyle
  2
STANDARD
 70
0
  3

 62
256
 51
90.0
 52
90.0
 71
2
 49
0.5
 62
256
  6
BYLAYER
 49
-0.5
 62
256
  6
BYLAYER
  0
DICTIONARY
  5
19
100
AcDbDictionary
280
0
281
1
  0
DICTIONARY
  5
1A
100
AcDbDictionary
281
1
  3
Layout1
350
1E
  3
Layout2
350
26
  3
Model
350
22
  0
LAYOUT
  5
1E
100
AcDbPlotSettings
  1

  2
C:\Program Files\AutoCAD 2002\plotters\DWF ePlot (optimized for plotting).pc3
  4

  6

 40
0.0
 41
0.0
 42
0.0
 43
0.0
 44
0.0
 45
0.0
 46
0.0
 47
0.0
 48
0.0
 49
0.0
140
0.0
141
0.0
142
1.0
143
1.0
 70
688
 72
0
 73
0
 74
5
  7

 75
16
147
1.0
148
0.0
149
0.0
100
AcDbLayout
  1
Layout1
 70
1
 71
1
 10
0.0
 20
0.0
 11
420.0
 21
297.0
 12
0.0
 22
0.0
 32
0.0
 14
100000000000000000000.0
 24
100000000000000000000.0
 34
100000000000000000000.0
 15
-100000000000000000000.0
 25
-100000000000000000000.0
 35
-100000000000000000000.0
146
0.0
 13
0.0
 23
0.0
 33
0.0
 16
1.0
 26
0.0
 36
0.0
 17
0.0
 27
1.0
 37
0.0
 76
0
330
1B
  0
LAYOUT
  5
22
100
AcDbPlotSettings
  1

  2
C:\Program Files\AutoCAD 2002\plotters\DWF ePlot (optimized for plotting).pc3
  4

  6

 40
0.0
 41
0.0
 42
0.0
 43
0.0
 44
0.0
 45
0.0
 46
0.0
 47
0.0
 48
0.0
 49
0.0
140
0.0
141
0.0
142
1.0
143
1.0
 70
1712
 72
0
 73
0
 74
0
  7

 75
0
147
1.0
148
0.0
149
0.0
100
AcDbLayout
  1
Model
 70
1
 71
0
 10
0.0
 20
0.0
 11
12.0
 21
9.0
 12
0.0
 22
0.0
 32
0.0
 14
0.0
 24
0.0
 34
0.0
 15
0.0
 25
0.0
 35
0.0
146
0.0
 13
0.0
 23
0.0
 33
0.0
 16
1.0
 26
0.0
 36
0.0
 17
0.0
 27
1.0
 37
0.0
 76
0
330
1F
  0
LAYOUT
  5
26
100
AcDbPlotSettings
  1

  2
C:\Program Files\AutoCAD 2002\plotters\DWF ePlot (optimized for plotting).pc3
  4

  6

 40
0.0
 41
0.0
 42
0.0
 43
0.0
 44
0.0
 45
0.0
 46
0.0
 47
0.0
 48
0.0
 49
0.0
140
0.0
141
0.0
142
1.0
143
1.0
 70
688
 72
0
 73
0
 74
5
  7

 75
16
147
1.0
148
0.0
149
0.0
100
AcDbLayout
  1
Layout2
 70
1
 71
2
 10
0.0
 20
0.0
 11
12.0
 21
9.0
 12
0.0
 22
0.0
 32
0.0
 14
0.0
 24
0.0
 34
0.0
 15
0.0
 25
0.0
 35
0.0
146
0.0
 13
0.0
 23
0.0
 33
0.0
 16
1.0
 26
0.0
 36
0.0
 17
0.0
 27
1.0
 37
0.0
 76
0
330
23
  0
DICTIONARY
  5
206
100
AcDbDictionary
281
1
  3
DIMASSOC
350
208
  3
HIDETEXT
350
207
  0
DICTIONARYVAR
  5
207
100
DictionaryVariables
280
0
  1
2
  0
DICTIONARYVAR
  5
208
100
DictionaryVariables
280
0
  1
1
  0
ENDSEC
  0
EOF
