999
dxflib 2.2.0.0
  0
SECTION
  2
HEADER
  9
$ACADVER
  1
AC1015
  9
$HANDSEED
  5
FFFF
  9
$SPLINESEGS
 70
8
  9
$DIMEXE
 40
0.05
  9
$DIMLUNIT
 70
2
  9
$GRIDMODE
 70
1
  9
$INSUNITS
 70
4
  9
$DIMADEC
 70
2
  9
$DIMASZ
 40
0.1
  9
$DIMGAP
 40
0.025
  9
$DIMTXT
 40
0.1
  9
$GRIDUNIT
 10
0.0
 20
0.0
  9
$DIMEXO
 40
0.025
  9
$LUPREC
 70
4
  9
$DIMAUNIT
 70
0
  9
$AUPREC
 70
2
  9
$PLIMMIN
 10
0.0
 20
0.0
  9
$LUNITS
 70
2
  9
$PLIMMAX
 10
210.0
 20
297.0
  9
$DIMSTYLE
  2
Standard
  9
$AUNITS
 70
0
  0
ENDSEC
  0
SECTION
  2
TABLES
  0
TABLE
  2
VPORT
  5
8
100
AcDbSymbolTable
 70
1
  0
VPORT
  5
30
100
AcDbSymbolTableRecord
100
AcDbViewportTableRecord
  2
*Active
 70
0
 10
0.0
 20
0.0
 11
1.0
 21
1.0
 12
286.30555555555549
 22
148.5
 13
0.0
 23
0.0
 14
10.0
 24
10.0
 15
10.0
 25
10.0
 16
0.0
 26
0.0
 36
1.0
 17
0.0
 27
0.0
 37
0.0
 40
297.0
 41
1.92798353909465
 42
50.0
 43
0.0
 44
0.0
 50
0.0
 51
0.0
 71
0
 72
100
 73
1
 74
3
 75
1
 76
1
 77
0
 78
0
281
0
 65
1
110
0.0
120
0.0
130
0.0
111
1.0
121
0.0
131
0.0
112
0.0
122
1.0
132
0.0
 79
0
146
0.0
  0
ENDTAB
  0
TABLE
  2
LTYPE
  5
5
100
AcDbSymbolTable
 70
21
  0
LTYPE
  5
14
100
AcDbSymbolTableRecord
100
AcDbLinetypeTableRecord
  2
ByBlock
 70
0
  3

 72
65
 73
0
 40
0.0
  0
LTYPE
  5
15
100
AcDbSymbolTableRecord
100
AcDbLinetypeTableRecord
  2
ByLayer
 70
0
  3

 72
65
 73
0
 40
0.0
  0
LTYPE
  5
16
100
AcDbSymbolTableRecord
100
AcDbLinetypeTableRecord
  2
CONTINUOUS
 70
0
  3
Solid line
 72
65
 73
0
 40
0.0
  0
LTYPE
  5
31
100
AcDbSymbolTableRecord
100
AcDbLinetypeTableRecord
  2
DOT
 70
0
  3
Dot . . . . . . . . . . . . . . . . . . . . . .
 72
65
 73
2
 40
6.3499999999999996
 49
0.0
 74
0
 49
-6.3499999999999996
 74
0
  0
LTYPE
  5
32
100
AcDbSymbolTableRecord
100
AcDbLinetypeTableRecord
  2
DOT2
 70
0
  3
Dot (.5x) .....................................
 72
65
 73
2
 40
3.1749999999999998
 49
0.0
 74
0
 49
-3.1749999999999998
 74
0
  0
LTYPE
  5
33
100
AcDbSymbolTableRecord
100
AcDbLinetypeTableRecord
  2
DOTX2
 70
0
  3
Dot (2x) .  .  .  .  .  .  .  .  .  .  .  .  .
 72
65
 73
2
 40
12.699999999999999
 49
0.0
 74
0
 49
-12.699999999999999
 74
0
  0
LTYPE
  5
34
100
AcDbSymbolTableRecord
100
AcDbLinetypeTableRecord
  2
DASHED
 70
0
  3
Dashed __ __ __ __ __ __ __ __ __ __ __ __ __ _
 72
65
 73
2
 40
19.050000000000001
 49
12.699999999999999
 74
0
 49
-6.3499999999999996
 74
0
  0
LTYPE
  5
35
100
AcDbSymbolTableRecord
100
AcDbLinetypeTableRecord
  2
DASHED2
 70
0
  3
Dashed (.5x) _ _ _ _ _ _ _ _ _ _ _ _ _ _ _ _ _
 72
65
 73
2
 40
9.5250000000000004
 49
6.3499999999999996
 74
0
 49
-3.1749999999999998
 74
0
  0
LTYPE
  5
36
100
AcDbSymbolTableRecord
100
AcDbLinetypeTableRecord
  2
DASHEDX2
 70
0
  3
Dashed (2x) ____  ____  ____  ____  ____  ___
 72
65
 73
2
 40
38.100000000000001
 49
25.399999999999999
 74
0
 49
-12.699999999999999
 74
0
  0
LTYPE
  5
37
100
AcDbSymbolTableRecord
100
AcDbLinetypeTableRecord
  2
DASHDOT
 70
0
  3
Dash dot __ . __ . __ . __ . __ . __ . __ . __
 72
65
 73
4
 40
25.399999999999999
 49
12.699999999999999
 74
0
 49
-6.3499999999999996
 74
0
 49
0.0
 74
0
 49
-6.3499999999999996
 74
0
  0
LTYPE
  5
38
100
AcDbSymbolTableRecord
100
AcDbLinetypeTableRecord
  2
DASHDOT2
 70
0
  3
Dash dot (.5x) _._._._._._._._._._._._._._._.
 72
65
 73
4
 40
12.699999999999999
 49
6.3499999999999996
 74
0
 49
-3.1749999999999998
 74
0
 49
0.0
 74
0
 49
-3.1749999999999998
 74
0
  0
LTYPE
  5
39
100
AcDbSymbolTableRecord
100
AcDbLinetypeTableRecord
  2
DASHDOTX2
 70
0
  3
Dash dot (2x) ____  .  ____  .  ____  .  ___
 72
65
 73
4
 40
50.799999999999997
 49
25.399999999999999
 74
0
 49
-12.699999999999999
 74
0
 49
0.0
 74
0
 49
-12.699999999999999
 74
0
  0
LTYPE
  5
3A
100
AcDbSymbolTableRecord
100
AcDbLinetypeTableRecord
  2
DIVIDE
 70
0
  3
Divide ____ . . ____ . . ____ . . ____ . . ____
 72
65
 73
6
 40
31.75
 49
12.699999999999999
 74
0
 49
-6.3499999999999996
 74
0
 49
0.0
 74
0
 49
-6.3499999999999996
 74
0
 49
0.0
 74
0
 49
-6.3499999999999996
 74
0
  0
LTYPE
  5
3B
100
AcDbSymbolTableRecord
100
AcDbLinetypeTableRecord
  2
DIVIDE2
 70
0
  3
Divide (.5x) __..__..__..__..__..__..__..__.._
 72
65
 73
6
 40
15.875
 49
6.3499999999999996
 74
0
 49
-3.1749999999999998
 74
0
 49
0.0
 74
0
 49
-3.1749999999999998
 74
0
 49
0.0
 74
0
 49
-3.1749999999999998
 74
0
  0
LTYPE
  5
3C
100
AcDbSymbolTableRecord
100
AcDbLinetypeTableRecord
  2
DIVIDEX2
 70
0
  3
Divide (2x) ________  .  .  ________  .  .  _
 72
65
 73
6
 40
63.5
 49
25.399999999999999
 74
0
 49
-12.699999999999999
 74
0
 49
0.0
 74
0
 49
-12.699999999999999
 74
0
 49
0.0
 74
0
 49
-12.699999999999999
 74
0
  0
LTYPE
  5
3D
100
AcDbSymbolTableRecord
100
AcDbLinetypeTableRecord
  2
CENTER
 70
0
  3
Center ____ _ ____ _ ____ _ ____ _ ____ _ ____
 72
65
 73
4
 40
50.799999999999997
 49
31.75
 74
0
 49
-6.3499999999999996
 74
0
 49
6.3499999999999996
 74
0
 49
-6.3499999999999996
 74
0
  0
LTYPE
  5
3E
100
AcDbSymbolTableRecord
100
AcDbLinetypeTableRecord
  2
CENTER2
 70
0
  3
Center (.5x) ___ _ ___ _ ___ _ ___ _ ___ _ ___
 72
65
 73
4
 40
28.574999999999999
 49
19.050000000000001
 74
0
 49
-3.1749999999999998
 74
0
 49
3.1749999999999998
 74
0
 49
-3.1749999999999998
 74
0
  0
LTYPE
  5
3F
100
AcDbSymbolTableRecord
100
AcDbLinetypeTableRecord
  2
CENTERX2
 70
0
  3
Center (2x) ________  __  ________  __  _____
 72
65
 73
4
 40
101.59999999999999
 49
63.5
 74
0
 49
-12.699999999999999
 74
0
 49
12.699999999999999
 74
0
 49
-12.699999999999999
 74
0
  0
LTYPE
  5
40
100
AcDbSymbolTableRecord
100
AcDbLinetypeTableRecord
  2
BORDER
 70
0
  3
Border __ __ . __ __ . __ __ . __ __ . __ __ .
 72
65
 73
6
 40
44.450000000000003
 49
12.699999999999999
 74
0
 49
-6.3499999999999996
 74
0
 49
12.699999999999999
 74
0
 49
-6.3499999999999996
 74
0
 49
0.0
 74
0
 49
-6.3499999999999996
 74
0
  0
LTYPE
  5
41
100
AcDbSymbolTableRecord
100
AcDbLinetypeTableRecord
  2
BORDER2
 70
0
  3
Border (.5x) __.__.__.__.__.__.__.__.__.__.__.
 72
65
 73
6
 40
22.225000000000001
 49
6.3499999999999996
 74
0
 49
-3.1749999999999998
 74
0
 49
6.3499999999999996
 74
0
 49
-3.1749999999999998
 74
0
 49
0.0
 74
0
 49
-3.1749999999999998
 74
0
  0
LTYPE
  5
42
100
AcDbSymbolTableRecord
100
AcDbLinetypeTableRecord
  2
BORDERX2
 70
0
  3
Border (2x) ____  ____  .  ____  ____  .  ___
 72
65
 73
6
 40
88.900000000000006
 49
25.399999999999999
 74
0
 49
-12.699999999999999
 74
0
 49
25.399999999999999
 74
0
 49
-12.699999999999999
 74
0
 49
0.0
 74
0
 49
-12.699999999999999
 74
0
  0
ENDTAB
  0
TABLE
  2
LAYER
  5
2
100
AcDbSymbolTable
 70
2
  0
LAYER
  5
10
100
AcDbSymbolTableRecord
100
AcDbLayerTableRecord
  2
0
 70
0
 62
7
  6
CONTINUOUS
370
0
390
F
  0
LAYER
  5
43
100
AcDbSymbolTableRecord
100
AcDbLayerTableRecord
  2
Layer0
 70
0
 62
7
  6
ByLayer
390
F
  0
ENDTAB
  0
TABLE
  2
STYLE
  5
3
100
AcDbSymbolTable
 70
1
  0
STYLE
  5
11
100
AcDbSymbolTableRecord
100
AcDbTextStyleTableRecord
  2
Standard
 70
0
 40
0.0
 41
0.75
 50
0.0
 71
0
 42
2.5
  3
txt
  4

  0
ENDTAB
  0
TABLE
  2
VIEW
  5
6
100
AcDbSymbolTable
 70
0
  0
ENDTAB
  0
TABLE
  2
UCS
  5
7
100
AcDbSymbolTable
 70
0
  0
ENDTAB
  0
TABLE
  2
APPID
  5
9
100
AcDbSymbolTable
 70
1
  0
APPID
  5
12
100
AcDbSymbolTableRecord
100
AcDbRegAppTableRecord
  2
ACAD
 70
0
  0
ENDTAB
  0
TABLE
  2
DIMSTYLE
  5
A
100
AcDbSymbolTable
 70
1
100
AcDbDimStyleTable
 71
0
  0
DIMSTYLE
105
27
100
AcDbSymbolTableRecord
100
AcDbDimStyleTableRecord
  2
Standard
 41
0.1
 42
0.025
 43
3.75
 44
0.05
 70
0
 73
0
 74
0
 77
1
 78
8
140
0.1
141
2.5
143
0.03937007874016
147
0.025
171
3
172
1
271
2
272
2
274
3
278
44
283
0
284
8
340
11
  0
ENDTAB
  0
TABLE
  2
BLOCK_RECORD
  5
1
100
AcDbSymbolTable
 70
1
  0
BLOCK_RECORD
  5
1F
100
AcDbSymbolTableRecord
100
AcDbBlockTableRecord
  2
*Model_Space
340
22
  0
BLOCK_RECORD
  5
1B
100
AcDbSymbolTableRecord
100
AcDbBlockTableRecord
  2
*Paper_Space
340
1E
  0
BLOCK_RECORD
  5
23
100
AcDbSymbolTableRecord
100
AcDbBlockTableRecord
  2
*Paper_Space0
340
26
  0
ENDTAB
  0
ENDSEC
  0
SECTION
  2
BLOCKS
  0
BLOCK
  5
20
100
AcDbEntity
  8
0
100
AcDbBlockBegin
  2
*Model_Space
 70
0
 10
0.0
 20
0.0
 30
0.0
  3
*Model_Space
  1

  0
ENDBLK
  5
21
100
AcDbEntity
  8
0
100
AcDbBlockEnd
  0
BLOCK
  5
1C
100
AcDbEntity
 67
1
  8
0
100
AcDbBlockBegin
  2
*Paper_Space
 70
0
 10
0.0
 20
0.0
 30
0.0
  3
*Paper_Space
  1

  0
ENDBLK
  5
1D
100
AcDbEntity
 67
1
  8
0
100
AcDbBlockEnd
  0
BLOCK
  5
24
100
AcDbEntity
  8
0
100
AcDbBlockBegin
  2
*Paper_Space0
 70
0
 10
0.0
 20
0.0
 30
0.0
  3
*Paper_Space0
  1

  0
ENDBLK
  5
25
100
AcDbEntity
  8
0
100
AcDbBlockEnd
  0
ENDSEC
  0
SECTION
  2
ENTITIES
  0
LINE
  5
44
100
AcDbEntity
100
AcDbLine
  8
Layer0
 62
256
370
-1
  6
ByLayer
 10
29.119468548845099
 20
66.180877734923797
 30
0.0
 11
26.757728406434001
 21
67.147816424248703
 31
0.0
  0
LINE
  5
45
100
AcDbEntity
100
AcDbLine
  8
Layer0
 62
256
370
-1
  6
ByLayer
 10
32.507897371133097
 20
64.583965772008696
 30
0.0
 11
29.119468548845099
 21
66.180877734923797
 31
0.0
  0
LINE
  5
46
100
AcDbEntity
100
AcDbLine
  8
Layer0
 62
256
370
-1
  6
ByLayer
 10
35.809074854713998
 20
62.813710162524202
 30
0.0
 11
32.507897371133097
 21
64.583965772008696
 31
0.0
  0
LINE
  5
47
100
AcDbEntity
100
AcDbLine
  8
Layer0
 62
256
370
-1
  6
ByLayer
 10
39.014140624785398
 20
60.874862280267799
 30
0.0
 11
35.809074854713998
 21
62.813710162524202
 31
0.0
  0
LINE
  5
48
100
AcDbEntity
100
AcDbLine
  8
Layer0
 62
256
370
-1
  6
ByLayer
 10
42.114492270804
 20
58.772626001434503
 30
0.0
 11
39.014140624785398
 21
60.874862280267799
 31
0.0
  0
LINE
  5
49
100
AcDbEntity
100
AcDbLine
  8
Layer0
 62
256
370
-1
  6
ByLayer
 10
45.101808435393501
 20
56.5126437373901
 30
0.0
 11
42.114492270804
 21
58.772626001434503
 31
0.0
  0
LINE
  5
4A
100
AcDbEntity
100
AcDbLine
  8
Layer0
 62
256
370
-1
  6
ByLayer
 10
47.968071148904102
 20
54.100981290414502
 30
0.0
 11
45.101808435393501
 21
56.5126437373901
 31
0.0
  0
LINE
  5
4B
100
AcDbEntity
100
AcDbLine
  8
Layer0
 62
256
370
-1
  6
ByLayer
 10
50.705587349677998
 20
51.544111573062096
 30
0.0
 11
47.968071148904102
 21
54.100981290414502
 31
0.0
  0
LINE
  5
4C
100
AcDbEntity
100
AcDbLine
  8
Layer0
 62
256
370
-1
  6
ByLayer
 10
53.3070095322607
 20
48.848897234836002
 30
0.0
 11
50.705587349677998
 21
51.544111573062096
 31
0.0
  0
LINE
  5
4D
100
AcDbEntity
100
AcDbLine
  8
Layer0
 62
256
370
-1
  6
ByLayer
 10
53.3070095322607
 20
48.848897234836002
 30
0.0
 11
53.710662833659399
 21
48.3228460106222
 31
0.0
  0
LINE
  5
4E
100
AcDbEntity
100
AcDbLine
  8
Layer0
 62
256
370
-1
  6
ByLayer
 10
53.710662833659399
 20
48.3228460106222
 30
0.0
 11
53.761771935992002
 21
48.199457722609999
 31
0.0
  0
LINE
  5
4F
100
AcDbEntity
100
AcDbLine
  8
Layer0
 62
256
370
-1
  6
ByLayer
 10
55.036488405005599
 20
46.379053847816799
 30
0.0
 11
53.761771935992002
 21
48.199457722609999
 31
0.0
  0
LINE
  5
50
100
AcDbEntity
100
AcDbLine
  8
Layer0
 62
256
370
-1
  6
ByLayer
 10
55.036488405005599
 20
22.759899502338399
 30
0.0
 11
55.036488405005599
 21
46.379053847816799
 31
0.0
  0
LINE
  5
51
100
AcDbEntity
100
AcDbLine
  8
Layer0
 62
256
370
-1
  6
ByLayer
 10
55.036488405005599
 20
22.759899502338399
 30
0.0
 11
54.858624202402098
 21
22.613837445057499
 31
0.0
  0
LINE
  5
52
100
AcDbEntity
100
AcDbLine
  8
Layer0
 62
256
370
-1
  6
ByLayer
 10
54.858624202402098
 20
22.613837445057499
 30
0.0
 11
54.792829240120902
 21
22.559806631611998
 31
0.0
  0
LINE
  5
53
100
AcDbEntity
100
AcDbLine
  8
Layer0
 62
256
370
-1
  6
ByLayer
 10
54.792829240120902
 20
22.559806631611998
 30
0.0
 11
53.430578077432301
 21
20.6575369679651
 31
0.0
  0
LINE
  5
54
100
AcDbEntity
100
AcDbLine
  8
Layer0
 62
256
370
-1
  6
ByLayer
 10
53.430578077432301
 20
20.6575369679651
 30
0.0
 11
52.607088115371603
 21
18.467509026165398
 31
0.0
  0
LINE
  5
55
100
AcDbEntity
100
AcDbLine
  8
Layer0
 62
256
370
-1
  6
ByLayer
 10
52.607088115371603
 20
18.467509026165398
 30
0.0
 11
52.378478833971798
 21
16.138969591254401
 31
0.0
  0
LINE
  5
56
100
AcDbEntity
100
AcDbLine
  8
Layer0
 62
256
370
-1
  6
ByLayer
 10
52.378478833971798
 20
16.138969591254401
 30
0.0
 11
52.760329577965599
 21
13.8306047776278
 31
0.0
  0
LINE
  5
57
100
AcDbEntity
100
AcDbLine
  8
Layer0
 62
256
370
-1
  6
ByLayer
 10
52.760329577965599
 20
13.8306047776278
 30
0.0
 11
53.726617850187999
 21
11.699725832581001
 31
0.0
  0
LINE
  5
58
100
AcDbEntity
100
AcDbLine
  8
Layer0
 62
256
370
-1
  6
ByLayer
 10
53.726617850187999
 20
11.699725832581001
 30
0.0
 11
55.211492701753897
 21
9.8915486347751393
 31
0.0
  0
LINE
  5
59
100
AcDbEntity
100
AcDbLine
  8
Layer0
 62
256
370
-1
  6
ByLayer
 10
55.211492701753897
 20
9.8915486347751393
 30
0.0
 11
57.113762365400802
 21
8.5292974720864798
 31
0.0
  0
LINE
  5
5A
100
AcDbEntity
100
AcDbLine
  8
Layer0
 62
256
370
-1
  6
ByLayer
 10
57.113762365400802
 20
8.5292974720864798
 30
0.0
 11
59.303790307200501
 21
7.7058075100257897
 31
0.0
  0
LINE
  5
5B
100
AcDbEntity
100
AcDbLine
  8
Layer0
 62
256
370
-1
  6
ByLayer
 10
59.303790307200501
 20
7.7058075100257897
 30
0.0
 11
61.632329742111601
 21
7.4771982286260004
 31
0.0
  0
LINE
  5
5C
100
AcDbEntity
100
AcDbLine
  8
Layer0
 62
256
370
-1
  6
ByLayer
 10
61.632329742111601
 20
7.4771982286260004
 30
0.0
 11
63.940694555738197
 21
7.8590489726197896
 31
0.0
  0
LINE
  5
5D
100
AcDbEntity
100
AcDbLine
  8
Layer0
 62
256
370
-1
  6
ByLayer
 10
63.940694555738197
 20
7.8590489726197896
 30
0.0
 11
66.071573500784893
 21
8.8253372448421903
 31
0.0
  0
LINE
  5
5E
100
AcDbEntity
100
AcDbLine
  8
Layer0
 62
256
370
-1
  6
ByLayer
 10
66.071573500784893
 20
8.8253372448421903
 30
0.0
 11
67.879750698590797
 21
10.310212096408099
 31
0.0
  0
LINE
  5
5F
100
AcDbEntity
100
AcDbLine
  8
Layer0
 62
256
370
-1
  6
ByLayer
 10
67.879750698590797
 20
10.310212096408099
 30
0.0
 11
69.242001861279405
 21
12.2124817600551
 31
0.0
  0
LINE
  5
60
100
AcDbEntity
100
AcDbLine
  8
Layer0
 62
256
370
-1
  6
ByLayer
 10
69.242001861279405
 20
12.2124817600551
 30
0.0
 11
70.065491823340096
 21
14.402509701854701
 31
0.0
  0
LINE
  5
61
100
AcDbEntity
100
AcDbLine
  8
Layer0
 62
256
370
-1
  6
ByLayer
 10
70.065491823340096
 20
14.402509701854701
 30
0.0
 11
70.273367842086799
 21
16.519866898641101
 31
0.0
  0
LINE
  5
62
100
AcDbEntity
100
AcDbLine
  8
Layer0
 62
256
370
-1
  6
ByLayer
 10
70.273367842086799
 20
16.519866898641101
 30
0.0
 11
70.294101104739894
 21
16.731049136765801
 31
0.0
  0
LINE
  5
63
100
AcDbEntity
100
AcDbLine
  8
Layer0
 62
256
370
-1
  6
ByLayer
 10
70.294101104739894
 20
16.731049136765801
 30
0.0
 11
70.278764057747395
 21
16.8237646812013
 31
0.0
  0
LINE
  5
64
100
AcDbEntity
100
AcDbLine
  8
Layer0
 62
256
370
-1
  6
ByLayer
 10
70.278764057747395
 20
16.8237646812013
 30
0.0
 11
70.328686777185297
 21
19.635254193647899
 31
0.0
  0
LINE
  5
65
100
AcDbEntity
100
AcDbLine
  8
Layer0
 62
256
370
-1
  6
ByLayer
 10
70.328686777185297
 20
19.635254193647899
 30
0.0
 11
70.254950606598598
 21
22.750259997754501
 31
0.0
  0
LINE
  5
66
100
AcDbEntity
100
AcDbLine
  8
Layer0
 62
256
370
-1
  6
ByLayer
 10
70.254950606598598
 20
22.750259997754501
 30
0.0
 11
70.133386737540704
 21
24.6152913281195
 31
0.0
  0
LINE
  5
67
100
AcDbEntity
100
AcDbLine
  8
Layer0
 62
256
370
-1
  6
ByLayer
 10
70.133386737540704
 20
24.6152913281195
 30
0.0
 11
70.052285825442198
 21
25.859540488310099
 31
0.0
  0
LINE
  5
68
100
AcDbEntity
100
AcDbLine
  8
Layer0
 62
256
370
-1
  6
ByLayer
 10
70.052285825442198
 20
25.859540488310099
 30
0.0
 11
69.721040107112401
 21
28.957761664494701
 31
0.0
  0
LINE
  5
69
100
AcDbEntity
100
AcDbLine
  8
Layer0
 62
256
370
-1
  6
ByLayer
 10
69.721040107112401
 20
28.957761664494701
 30
0.0
 11
69.261781706849803
 21
32.0396084978495
 31
0.0
  0
LINE
  5
6A
100
AcDbEntity
100
AcDbLine
  8
Layer0
 62
256
370
-1
  6
ByLayer
 10
69.261781706849803
 20
32.0396084978495
 30
0.0
 11
68.675298486891904
 21
35.099794050259398
 31
0.0
  0
LINE
  5
6B
100
AcDbEntity
100
AcDbLine
  8
Layer0
 62
256
370
-1
  6
ByLayer
 10
68.675298486891904
 20
35.099794050259398
 30
0.0
 11
67.962596564887093
 21
38.133068543746802
 31
0.0
  0
LINE
  5
6C
100
AcDbEntity
100
AcDbLine
  8
Layer0
 62
256
370
-1
  6
ByLayer
 10
67.962596564887093
 20
38.133068543746802
 30
0.0
 11
67.124898587890797
 21
41.134228366516503
 31
0.0
  0
LINE
  5
6D
100
AcDbEntity
100
AcDbLine
  8
Layer0
 62
256
370
-1
  6
ByLayer
 10
67.124898587890797
 20
41.134228366516503
 30
0.0
 11
66.163641634902604
 21
44.098124999802202
 31
0.0
  0
LINE
  5
6E
100
AcDbEntity
100
AcDbLine
  8
Layer0
 62
256
370
-1
  6
ByLayer
 10
66.163641634902604
 20
44.098124999802202
 30
0.0
 11
65.080474751542695
 21
47.019673850200299
 31
0.0
  0
LINE
  5
6F
100
AcDbEntity
100
AcDbLine
  8
Layer0
 62
256
370
-1
  6
ByLayer
 10
65.080474751542695
 20
47.019673850200299
 30
0.0
 11
63.877256121098597
 21
49.893862972339498
 31
0.0
  0
LINE
  5
70
100
AcDbEntity
100
AcDbLine
  8
Layer0
 62
256
370
-1
  6
ByLayer
 10
63.877256121098597
 20
49.893862972339498
 30
0.0
 11
62.5560498767938
 21
52.715761666920997
 31
0.0
  0
LINE
  5
71
100
AcDbEntity
100
AcDbLine
  8
Layer0
 62
256
370
-1
  6
ByLayer
 10
62.5560498767938
 20
52.715761666920997
 30
0.0
 11
62.251396600739596
 21
53.110548043562503
 31
0.0
  0
LINE
  5
72
100
AcDbEntity
100
AcDbLine
  8
Layer0
 62
256
370
-1
  6
ByLayer
 10
62.251396600739596
 20
53.110548043562503
 30
0.0
 11
56.745895070503799
 21
58.956510114469197
 31
0.0
  0
LINE
  5
73
100
AcDbEntity
100
AcDbLine
  8
Layer0
 62
256
370
-1
  6
ByLayer
 10
56.745895070503799
 20
58.956510114469197
 30
0.0
 11
50.693899550277401
 21
64.234688764066703
 31
0.0
  0
LINE
  5
74
100
AcDbEntity
100
AcDbLine
  8
Layer0
 62
256
370
-1
  6
ByLayer
 10
50.693899550277401
 20
64.234688764066703
 30
0.0
 11
44.1536940652772
 21
68.894252246613704
 31
0.0
  0
LINE
  5
75
100
AcDbEntity
100
AcDbLine
  8
Layer0
 62
256
370
-1
  6
ByLayer
 10
44.1536940652772
 20
68.894252246613704
 30
0.0
 11
37.188264369564202
 21
72.890326418596402
 31
0.0
  0
LINE
  5
76
100
AcDbEntity
100
AcDbLine
  8
Layer0
 62
256
370
-1
  6
ByLayer
 10
37.188264369564202
 20
72.890326418596402
 30
0.0
 11
29.864691358799099
 21
76.184426901262498
 31
0.0
  0
LINE
  5
77
100
AcDbEntity
100
AcDbLine
  8
Layer0
 62
256
370
-1
  6
ByLayer
 10
29.864691358799099
 20
76.184426901262498
 30
0.0
 11
22.253505044547801
 21
78.744829706225303
 31
0.0
  0
LINE
  5
78
100
AcDbEntity
100
AcDbLine
  8
Layer0
 62
256
370
-1
  6
ByLayer
 10
22.253505044547801
 20
78.744829706225303
 30
0.0
 11
14.4280053117142
 21
80.546876754814505
 31
0.0
  0
LINE
  5
79
100
AcDbEntity
100
AcDbLine
  8
Layer0
 62
256
370
-1
  6
ByLayer
 10
14.4280053117142
 20
80.546876754814505
 30
0.0
 11
6.4635560005788397
 21
81.573213348853201
 31
0.0
  0
LINE
  5
7A
100
AcDbEntity
100
AcDbLine
  8
Layer0
 62
256
370
-1
  6
ByLayer
 10
6.4635560005788397
 20
81.573213348853201
 30
0.0
 11
2.54
 21
81.690891213509701
 31
0.0
  0
LINE
  5
7B
100
AcDbEntity
100
AcDbLine
  8
Layer0
 62
256
370
-1
  6
ByLayer
 10
2.15804205005935
 20
80.949860719236298
 30
0.0
 11
2.54
 21
81.690891213509701
 31
0.0
  0
LINE
  5
7C
100
AcDbEntity
100
AcDbLine
  8
Layer0
 62
256
370
-1
  6
ByLayer
 10
1.84155585759278
 20
80.178592569404998
 30
0.0
 11
2.15804205005935
 21
80.949860719236298
 31
0.0
  0
LINE
  5
7D
100
AcDbEntity
100
AcDbLine
  8
Layer0
 62
256
370
-1
  6
ByLayer
 10
1.59290971001226
 20
79.382858215327403
 30
0.0
 11
1.84155585759278
 21
80.178592569404998
 31
0.0
  0
LINE
  5
7E
100
AcDbEntity
100
AcDbLine
  8
Layer0
 62
256
370
-1
  6
ByLayer
 10
1.41396424312237
 20
78.568612190562305
 30
0.0
 11
1.59290971001226
 21
79.382858215327403
 31
0.0
  0
LINE
  5
7F
100
AcDbEntity
100
AcDbLine
  8
Layer0
 62
256
370
-1
  6
ByLayer
 10
1.30605851785769
 20
77.7419475527429
 30
0.0
 11
1.41396424312237
 21
78.568612190562305
 31
0.0
  0
LINE
  5
80
100
AcDbEntity
100
AcDbLine
  8
Layer0
 62
256
370
-1
  6
ByLayer
 10
1.27
 20
76.909050288816601
 30
0.0
 11
1.30605851785769
 21
77.7419475527429
 31
0.0
  0
LINE
  5
81
100
AcDbEntity
100
AcDbLine
  8
Layer0
 62
256
370
-1
  6
ByLayer
 10
1.2719861690726799
 20
76.863172785119403
 30
0.0
 11
1.27
 21
76.909050288816601
 31
0.0
  0
LINE
  5
82
100
AcDbEntity
100
AcDbLine
  8
Layer0
 62
256
370
-1
  6
ByLayer
 10
1.30605851785769
 20
76.076153024890203
 30
0.0
 11
1.2719861690726799
 21
76.863172785119403
 31
0.0
  0
LINE
  5
83
100
AcDbEntity
100
AcDbLine
  8
Layer0
 62
256
370
-1
  6
ByLayer
 10
1.41396424312237
 20
75.249488387070798
 30
0.0
 11
1.30605851785769
 21
76.076153024890203
 31
0.0
  0
LINE
  5
84
100
AcDbEntity
100
AcDbLine
  8
Layer0
 62
256
370
-1
  6
ByLayer
 10
1.59290971001226
 20
74.4352423623058
 30
0.0
 11
1.41396424312237
 21
75.249488387070798
 31
0.0
  0
LINE
  5
85
100
AcDbEntity
100
AcDbLine
  8
Layer0
 62
256
370
-1
  6
ByLayer
 10
1.84155585759278
 20
73.639508008228105
 30
0.0
 11
1.59290971001226
 21
74.4352423623058
 31
0.0
  0
LINE
  5
86
100
AcDbEntity
100
AcDbLine
  8
Layer0
 62
256
370
-1
  6
ByLayer
 10
2.15804205005935
 20
72.868239858396905
 30
0.0
 11
1.84155585759278
 21
73.639508008228105
 31
0.0
  0
LINE
  5
87
100
AcDbEntity
100
AcDbLine
  8
Layer0
 62
256
370
-1
  6
ByLayer
 10
2.54
 20
72.127209364123402
 30
0.0
 11
2.15804205005935
 21
72.868239858396905
 31
0.0
  0
LINE
  5
88
100
AcDbEntity
100
AcDbLine
  8
Layer0
 62
256
370
-1
  6
ByLayer
 10
2.54
 20
72.127209364123402
 30
0.0
 11
4.4739197850011996
 21
71.385608162573703
 31
0.0
  0
LINE
  5
89
100
AcDbEntity
100
AcDbLine
  8
Layer0
 62
256
370
-1
  6
ByLayer
 10
4.4739197850011996
 20
71.385608162573703
 30
0.0
 11
6.4290143197439598
 21
70.701778185768006
 31
0.0
  0
LINE
  5
8A
100
AcDbEntity
100
AcDbLine
  8
Layer0
 62
256
370
-1
  6
ByLayer
 10
6.4290143197439598
 20
70.701778185768006
 30
0.0
 11
8.4035582590583306
 21
70.076322904651903
 31
0.0
  0
LINE
  5
8B
100
AcDbEntity
100
AcDbLine
  8
Layer0
 62
256
370
-1
  6
ByLayer
 10
8.4035582590583306
 20
70.076322904651903
 30
0.0
 11
10.395809093931
 21
69.509794275271105
 31
0.0
  0
LINE
  5
8C
100
AcDbEntity
100
AcDbLine
  8
Layer0
 62
256
370
-1
  6
ByLayer
 10
10.395809093931
 20
69.509794275271105
 30
0.0
 11
12.404008689246799
 21
69.002692251677402
 31
0.0
  0
LINE
  5
8D
100
AcDbEntity
100
AcDbLine
  8
Layer0
 62
256
370
-1
  6
ByLayer
 10
12.404008689246799
 20
69.002692251677402
 30
0.0
 11
14.426384835319199
 21
68.555464344726005
 31
0.0
  0
LINE
  5
8E
100
AcDbEntity
100
AcDbLine
  8
Layer0
 62
256
370
-1
  6
ByLayer
 10
14.426384835319199
 20
68.555464344726005
 30
0.0
 11
16.461152811842901
 21
68.168505227152806
 31
0.0
  0
LINE
  5
8F
100
AcDbEntity
100
AcDbLine
  8
Layer0
 62
256
370
-1
  6
ByLayer
 10
16.461152811842901
 20
68.168505227152806
 30
0.0
 11
18.506516962885001
 21
67.8421563852811
 31
0.0
  0
LINE
  5
90
100
AcDbEntity
100
AcDbLine
  8
Layer0
 62
256
370
-1
  6
ByLayer
 10
18.506516962885001
 20
67.8421563852811
 30
0.0
 11
20.560672281528401
 21
67.576705817664603
 31
0.0
  0
LINE
  5
91
100
AcDbEntity
100
AcDbLine
  8
Layer0
 62
256
370
-1
  6
ByLayer
 10
20.560672281528401
 20
67.576705817664603
 30
0.0
 11
22.621806002766501
 21
67.372387780932002
 31
0.0
  0
LINE
  5
92
100
AcDbEntity
100
AcDbLine
  8
Layer0
 62
256
370
-1
  6
ByLayer
 10
22.621806002766501
 20
67.372387780932002
 30
0.0
 11
24.688099203244199
 21
67.229382583059007
 31
0.0
  0
LINE
  5
93
100
AcDbEntity
100
AcDbLine
  8
Layer0
 62
256
370
-1
  6
ByLayer
 10
24.688099203244199
 20
67.229382583059007
 30
0.0
 11
26.757728406434001
 21
67.147816424248703
 31
0.0
  0
LINE
  5
94
100
AcDbEntity
100
AcDbLine
  8
Layer0
 62
256
370
-1
  6
ByLayer
 10
59.789576046906198
 20
16.024745933881899
 30
0.0
 11
59.948463035007201
 21
15.6384063008122
 31
0.0
  0
LINE
  5
95
100
AcDbEntity
100
AcDbLine
  8
Layer0
 62
256
370
-1
  6
ByLayer
 10
59.736095056554603
 20
16.4390443417225
 30
0.0
 11
59.789576046906198
 21
16.024745933881899
 31
0.0
  0
LINE
  5
96
100
AcDbEntity
100
AcDbLine
  8
Layer0
 62
256
370
-1
  6
ByLayer
 10
59.791664705063297
 20
16.8530677725002
 30
0.0
 11
59.736095056554603
 21
16.4390443417225
 31
0.0
  0
LINE
  5
97
100
AcDbEntity
100
AcDbLine
  8
Layer0
 62
256
370
-1
  6
ByLayer
 10
59.952498012719602
 20
17.2386012136134
 30
0.0
 11
59.791664705063297
 21
16.8530677725002
 31
0.0
  0
LINE
  5
98
100
AcDbEntity
100
AcDbLine
  8
Layer0
 62
256
370
-1
  6
ByLayer
 10
60.207634455396303
 20
17.569371198174402
 30
0.0
 11
59.952498012719602
 21
17.2386012136134
 31
0.0
  0
LINE
  5
99
100
AcDbEntity
100
AcDbLine
  8
Layer0
 62
256
370
-1
  6
ByLayer
 10
60.539686906157897
 20
17.822836298358801
 30
0.0
 11
60.207634455396303
 21
17.569371198174402
 31
0.0
  0
LINE
  5
9A
100
AcDbEntity
100
AcDbLine
  8
Layer0
 62
256
370
-1
  6
ByLayer
 10
60.926026539227699
 20
17.981723286459701
 30
0.0
 11
60.539686906157897
 21
17.822836298358801
 31
0.0
  0
LINE
  5
9B
100
AcDbEntity
100
AcDbLine
  8
Layer0
 62
256
370
-1
  6
ByLayer
 10
61.340324947068297
 20
18.035204276811299
 30
0.0
 11
60.926026539227699
 21
17.981723286459701
 31
0.0
  0
LINE
  5
9C
100
AcDbEntity
100
AcDbLine
  8
Layer0
 62
256
370
-1
  6
ByLayer
 10
61.754348377845901
 20
17.979634628302598
 30
0.0
 11
61.340324947068297
 21
18.035204276811299
 31
0.0
  0
LINE
  5
9D
100
AcDbEntity
100
AcDbLine
  8
Layer0
 62
256
370
-1
  6
ByLayer
 10
62.139881818959203
 20
17.818801320646301
 30
0.0
 11
61.754348377845901
 21
17.979634628302598
 31
0.0
  0
LINE
  5
9E
100
AcDbEntity
100
AcDbLine
  8
Layer0
 62
256
370
-1
  6
ByLayer
 10
62.470651803520198
 20
17.5636648779696
 30
0.0
 11
62.139881818959203
 21
17.818801320646301
 31
0.0
  0
LINE
  5
9F
100
AcDbEntity
100
AcDbLine
  8
Layer0
 62
256
370
-1
  6
ByLayer
 10
62.724116903704598
 20
17.231612427207999
 30
0.0
 11
62.470651803520198
 21
17.5636648779696
 31
0.0
  0
LINE
  5
A0
100
AcDbEntity
100
AcDbLine
  8
Layer0
 62
256
370
-1
  6
ByLayer
 10
62.883003891805501
 20
16.8452727941382
 30
0.0
 11
62.724116903704598
 21
17.231612427207999
 31
0.0
  0
LINE
  5
A1
100
AcDbEntity
100
AcDbLine
  8
Layer0
 62
256
370
-1
  6
ByLayer
 10
62.936484882157103
 20
16.430974386297599
 30
0.0
 11
62.883003891805501
 21
16.8452727941382
 31
0.0
  0
LINE
  5
A2
100
AcDbEntity
100
AcDbLine
  8
Layer0
 62
256
370
-1
  6
ByLayer
 10
62.880915233648402
 20
16.016950955519999
 30
0.0
 11
62.936484882157103
 21
16.430974386297599
 31
0.0
  0
LINE
  5
A3
100
AcDbEntity
100
AcDbLine
  8
Layer0
 62
256
370
-1
  6
ByLayer
 10
62.720081925992098
 20
15.631417514406801
 30
0.0
 11
62.880915233648402
 21
16.016950955519999
 31
0.0
  0
LINE
  5
A4
100
AcDbEntity
100
AcDbLine
  8
Layer0
 62
256
370
-1
  6
ByLayer
 10
62.464945483315397
 20
15.300647529845699
 30
0.0
 11
62.720081925992098
 21
15.631417514406801
 31
0.0
  0
LINE
  5
A5
100
AcDbEntity
100
AcDbLine
  8
Layer0
 62
256
370
-1
  6
ByLayer
 10
62.132893032553802
 20
15.047182429661399
 30
0.0
 11
62.464945483315397
 21
15.300647529845699
 31
0.0
  0
LINE
  5
A6
100
AcDbEntity
100
AcDbLine
  8
Layer0
 62
256
370
-1
  6
ByLayer
 10
61.746553399484
 20
14.8882954415605
 30
0.0
 11
62.132893032553802
 21
15.047182429661399
 31
0.0
  0
LINE
  5
A7
100
AcDbEntity
100
AcDbLine
  8
Layer0
 62
256
370
-1
  6
ByLayer
 10
61.332254991643403
 20
14.834814451208899
 30
0.0
 11
61.746553399484
 21
14.8882954415605
 31
0.0
  0
LINE
  5
A8
100
AcDbEntity
100
AcDbLine
  8
Layer0
 62
256
370
-1
  6
ByLayer
 10
60.918231560865799
 20
14.8903840997176
 30
0.0
 11
61.332254991643403
 21
14.834814451208899
 31
0.0
  0
LINE
  5
A9
100
AcDbEntity
100
AcDbLine
  8
Layer0
 62
256
370
-1
  6
ByLayer
 10
60.532698119752602
 20
15.0512174073738
 30
0.0
 11
60.918231560865799
 21
14.8903840997176
 31
0.0
  0
LINE
  5
AA
100
AcDbEntity
100
AcDbLine
  8
Layer0
 62
256
370
-1
  6
ByLayer
 10
60.201928135191501
 20
15.306353850050501
 30
0.0
 11
60.532698119752602
 21
15.0512174073738
 31
0.0
  0
LINE
  5
AB
100
AcDbEntity
100
AcDbLine
  8
Layer0
 62
256
370
-1
  6
ByLayer
 10
59.948463035007201
 20
15.6384063008122
 30
0.0
 11
60.201928135191501
 21
15.306353850050501
 31
0.0
  0
ENDSEC
  0
SECTION
  2
OBJECTS
  0
DICTIONARY
  5
C
100
AcDbDictionary
280
0
281
1
  3
ACAD_GROUP
350
D
  3
ACAD_LAYOUT
350
1A
  3
ACAD_MLINESTYLE
350
17
  3
ACAD_PLOTSETTINGS
350
19
  3
ACAD_PLOTSTYLENAME
350
E
  3
AcDbVariableDictionary
350
AC
  0
DICTIONARY
  5
D
100
AcDbDictionary
280
0
281
1
  0
ACDBDICTIONARYWDFLT
  5
E
100
AcDbDictionary
281
1
  3
Normal
350
F
100
AcDbDictionaryWithDefault
340
F
  0
ACDBPLACEHOLDER
  5
F
  0
DICTIONARY
  5
17
100
AcDbDictionary
280
0
281
1
  3
Standard
350
18
  0
MLINESTYLE
  5
18
100
AcDbMlineStyle
  2
STANDARD
 70
0
  3

 62
256
 51
90.0
 52
90.0
 71
2
 49
0.5
 62
256
  6
BYLAYER
 49
-0.5
 62
256
  6
BYLAYER
  0
DICTIONARY
  5
19
100
AcDbDictionary
280
0
281
1
  0
DICTIONARY
  5
1A
100
AcDbDictionary
281
1
  3
Layout1
350
1E
  3
Layout2
350
26
  3
Model
350
22
  0
LAYOUT
  5
1E
100
AcDbPlotSettings
  1

  2
C:\Program Files\AutoCAD 2002\plotters\DWF ePlot (optimized for plotting).pc3
  4

  6

 40
0.0
 41
0.0
 42
0.0
 43
0.0
 44
0.0
 45
0.0
 46
0.0
 47
0.0
 48
0.0
 49
0.0
140
0.0
141
0.0
142
1.0
143
1.0
 70
688
 72
0
 73
0
 74
5
  7

 75
16
147
1.0
148
0.0
149
0.0
100
AcDbLayout
  1
Layout1
 70
1
 71
1
 10
0.0
 20
0.0
 11
420.0
 21
297.0
 12
0.0
 22
0.0
 32
0.0
 14
100000000000000000000.0
 24
100000000000000000000.0
 34
100000000000000000000.0
 15
-100000000000000000000.0
 25
-100000000000000000000.0
 35
-100000000000000000000.0
146
0.0
 13
0.0
 23
0.0
 33
0.0
 16
1.0
 26
0.0
 36
0.0
 17
0.0
 27
1.0
 37
0.0
 76
0
330
1B
  0
LAYOUT
  5
22
100
AcDbPlotSettings
  1

  2
C:\Program Files\AutoCAD 2002\plotters\DWF ePlot (optimized for plotting).pc3
  4

  6

 40
0.0
 41
0.0
 42
0.0
 43
0.0
 44
0.0
 45
0.0
 46
0.0
 47
0.0
 48
0.0
 49
0.0
140
0.0
141
0.0
142
1.0
143
1.0
 70
1712
 72
0
 73
0
 74
0
  7

 75
0
147
1.0
148
0.0
149
0.0
100
AcDbLayout
  1
Model
 70
1
 71
0
 10
0.0
 20
0.0
 11
12.0
 21
9.0
 12
0.0
 22
0.0
 32
0.0
 14
0.0
 24
0.0
 34
0.0
 15
0.0
 25
0.0
 35
0.0
146
0.0
 13
0.0
 23
0.0
 33
0.0
 16
1.0
 26
0.0
 36
0.0
 17
0.0
 27
1.0
 37
0.0
 76
0
330
1F
  0
LAYOUT
  5
26
100
AcDbPlotSettings
  1

  2
C:\Program Files\AutoCAD 2002\plotters\DWF ePlot (optimized for plotting).pc3
  4

  6

 40
0.0
 41
0.0
 42
0.0
 43
0.0
 44
0.0
 45
0.0
 46
0.0
 47
0.0
 48
0.0
 49
0.0
140
0.0
141
0.0
142
1.0
143
1.0
 70
688
 72
0
 73
0
 74
5
  7

 75
16
147
1.0
148
0.0
149
0.0
100
AcDbLayout
  1
Layout2
 70
1
 71
2
 10
0.0
 20
0.0
 11
12.0
 21
9.0
 12
0.0
 22
0.0
 32
0.0
 14
0.0
 24
0.0
 34
0.0
 15
0.0
 25
0.0
 35
0.0
146
0.0
 13
0.0
 23
0.0
 33
0.0
 16
1.0
 26
0.0
 36
0.0
 17
0.0
 27
1.0
 37
0.0
 76
0
330
23
  0
DICTIONARY
  5
AC
100
AcDbDictionary
281
1
  3
DIMASSOC
350
AE
  3
HIDETEXT
350
AD
  0
DICTIONARYVAR
  5
AD
100
DictionaryVariables
280
0
  1
2
  0
DICTIONARYVAR
  5
AE
100
DictionaryVariables
280
0
  1
1
  0
ENDSEC
  0
EOF
