 0
SECTION
 2
ENTITIES
  0
LINE
 8
Layer0
10
44.2175193305128
20
-18.1388071025097
30
32.8418411513582
11
44.4976434933316
21
-17.8333976444262
31
32.84184069227
  0
LINE
 8
Layer0
10
15.3272251214949
20
-16.0131440264615
30
32.8418532252404
11
15.519074174666
21
-15.9393481478844
31
32.841853065248
  0
LINE
 8
Layer0
10
15.1228133874621
20
-16.0347711827072
30
32.8418533415974
11
15.3272251214949
21
-16.0131440264615
31
32.8418532252404
  0
LINE
 8
Layer0
10
14.9197692944354
20
-16.002755761664
30
32.8418534063894
11
15.1228133874621
21
-16.0347711827072
31
32.8418533415974
  0
LINE
 8
Layer0
10
14.7319299618084
20
-15.9192795613681
30
32.841853415201
11
14.9197692944354
21
-16.002755761664
31
32.8418534063894
  0
LINE
 8
Layer0
10
14.5720963296805
20
-15.7900313469185
30
32.8418533674317
11
14.7319299618084
21
-15.9192795613681
31
32.841853415201
  0
LINE
 8
Layer0
10
14.4511607959435
20
-15.6238191705374
30
32.8418532663369
11
14.5720963296805
21
-15.7900313469185
31
32.8418533674317
  0
LINE
 8
Layer0
10
14.3773649173664
20
-15.4319701173664
30
32.8418531188061
11
14.4511607959435
21
-15.6238191705374
31
32.8418532663369
  0
LINE
 8
Layer0
10
14.3557377611206
20
-15.2275583833336
30
32.8418529348932
11
14.3773649173664
21
-15.4319701173664
31
32.8418531188061
  0
LINE
 8
Layer0
10
14.3877531821636
20
-15.024514290307
30
32.8418527271315
11
14.3557377611206
21
-15.2275583833336
31
32.8418529348932
  0
LINE
 8
Layer0
10
14.4712293824596
20
-14.8366749576801
30
32.8418525096798
11
14.3877531821636
21
-15.024514290307
31
32.8418527271315
  0
LINE
 8
Layer0
10
14.6004775969091
20
-14.6768413255523
30
32.8418522973569
11
14.4712293824596
21
-14.8366749576801
31
32.8418525096798
  0
LINE
 8
Layer0
10
14.7666897732902
20
-14.5559057918155
30
32.8418521046324
11
14.6004775969091
21
-14.6768413255523
31
32.8418522973569
  0
LINE
 8
Layer0
10
14.9585388264612
20
-14.4821099132384
30
32.8418519446401
11
14.7666897732902
21
-14.5559057918155
31
32.8418521046324
  0
LINE
 8
Layer0
10
15.1629505604941
20
-14.4604827569927
30
32.8418518282831
11
14.9585388264612
21
-14.4821099132384
31
32.8418519446401
  0
LINE
 8
Layer0
10
-6.04793558470044
20
-6.15140625719816
30
32.8418724290617
11
-4.51711974546026
21
-6.15140381942598
31
32.8418712075726
  0
LINE
 8
Layer0
10
44.3008161164798
20
37.0801750031282
30
32.8417833113042
11
44.0783147016541
21
37.429799950869
31
32.8417830560799
  0
LINE
 8
Layer0
10
21.2400731862051
20
-51.9225537978124
30
32.8418879486815
11
20.9112915728651
21
-52.1748376347006
31
32.8418883763779
  0
LINE
 8
Layer0
10
19.3236386052664
20
43.8625598264894
30
32.8417886426224
11
18.9948561883821
21
44.1148426162912
31
32.8417885421812
  0
LINE
 8
Layer0
10
18.9948561883821
20
44.1148426162912
30
32.8417885421812
11
18.7425723514361
21
44.4436242296735
31
32.8417883235959
  0
LINE
 8
Layer0
10
-29.3076566696142
20
-43.6563522718453
30
32.8419044527232
11
-29.1490641391667
21
-44.0392267851724
31
32.8419047745564
  0
LINE
 8
Layer0
10
-29.1490641391667
20
-44.0392267851724
30
32.8419047745564
11
-29.094970734078
21
-44.4501019330915
31
32.841905177705
  0
LINE
 8
Layer0
10
-29.094970734078
20
-44.4501019330915
30
32.841905177705
11
-29.1490628305114
21
-44.8609772532752
31
32.8419056346952
  0
LINE
 8
Layer0
10
-31.8050414118177
20
-20.1726382652678
30
32.8418811148303
11
-32.0573252487607
21
-19.8438566518858
31
32.841880896245
  0
LINE
 8
Layer0
10
-3.90764402069934
20
-51.5938118287697
30
32.8419001200053
11
-4.15992681046887
21
-51.9225942455994
31
32.8419005897024
  0
LINE
 8
Layer0
10
-4.15992681046887
20
-51.9225942455994
30
32.8419005897024
11
-4.48870842380878
21
-52.1748780824876
31
32.8419010173988
  0
LINE
 8
Layer0
10
-4.48870842380878
20
-52.1748780824876
30
32.8419010173988
11
-4.87158293710741
21
-52.3334706128693
31
32.8419013739477
  0
LINE
 8
Layer0
10
-4.87158293710741
20
-52.3334706128693
30
32.8419013739477
11
-5.28245808501342
21
-52.3875640178855
31
32.841901635051
  0
LINE
 8
Layer0
10
-5.6933334052003
20
-52.3334719213778
30
32.8419017829148
11
-6.07620842360092
21
-52.174880610332
31
32.8419018074626
  0
LINE
 8
Layer0
10
-6.07620842360092
20
-52.174880610332
30
32.8419018074626
11
-6.40499084044214
21
-51.9225978205112
31
32.8419017070213
  0
LINE
 8
Layer0
10
-6.40499084044214
20
-51.9225978205112
30
32.8419017070213
11
-6.65727467735483
21
-51.5938162071246
31
32.841901488436
  0
LINE
 8
Layer0
10
21.4922004804176
20
46.0311286083465
30
32.8417852935046
11
21.6507930108562
21
45.6482540949984
31
32.8417856153378
  0
LINE
 8
Layer0
10
21.6507930108562
20
45.6482540949984
30
32.8417856153378
11
21.7048864159246
21
45.2373789470392
31
32.8417860184864
  0
LINE
 8
Layer0
10
21.7048864159246
20
45.2373789470392
30
32.8417860184864
11
21.650794319461
21
44.8265036267989
31
32.8417864754766
  0
LINE
 8
Layer0
10
21.650794319461
20
44.8265036267989
30
32.8417864754766
11
21.4922030084478
21
44.4436286083485
31
32.8417869551652
  0
LINE
 8
Layer0
10
21.4922030084478
20
44.4436286083485
30
32.8417869551652
11
21.2399202186463
21
44.1148461914644
31
32.8417874248622
  0
LINE
 8
Layer0
10
45.7924403016931
20
-39.6634966749275
30
32.8418628977971
11
45.3784055077398
21
-39.6813760786734
31
32.841863122567
  0
LINE
 8
Layer0
10
45.3784055077398
20
-39.6813760786734
30
32.841863122567
11
44.9738510770733
21
-39.5914861665001
31
32.841863229815
  0
LINE
 8
Layer0
10
44.9738510770733
20
-39.5914861665001
30
32.841863229815
11
44.6063467255859
21
-39.3999527873722
31
32.8418632122321
  0
LINE
 8
Layer0
10
44.6063467255859
20
-39.3999527873722
30
32.8418632122321
11
44.3009372675015
21
-39.1198286245533
31
32.8418630710167
  0
LINE
 8
Layer0
10
-5.28245808501342
20
-52.3875640178855
30
32.841901635051
11
-5.6933334052003
21
-52.3334719213778
31
32.8419017829148
  0
LINE
 8
Layer0
10
31.6161030653606
20
43.3277230149119
30
32.8418688598201
11
32.0164483390482
21
43.3489587052366
31
32.8418631423376
  0
LINE
 8
Layer0
10
47.008901010616
20
37.5563524449962
30
32.8417814651319
11
46.8173676314883
21
37.1888480935095
31
32.8417819451263
  0
LINE
 8
Layer0
10
46.8173676314883
20
37.1888480935095
30
32.8417819451263
11
46.5372434686695
21
36.883438635426
31
32.8417824042144
  0
LINE
 8
Layer0
10
46.5372434686695
20
36.883438635426
30
32.8417824042144
11
46.1876185209285
21
36.6609372206012
31
32.8417828111103
  0
LINE
 8
Layer0
10
46.1876185209285
20
36.6609372206012
30
32.8417828111103
11
45.7923191506714
21
36.5365069527543
31
32.8417831380846
  0
LINE
 8
Layer0
10
45.7923191506714
20
36.5365069527543
30
32.8417831380846
11
45.3782843567181
21
36.5186275490083
31
32.8417833628546
  0
LINE
 8
Layer0
10
45.3782843567181
20
36.5186275490083
30
32.8417833628546
11
44.9737299260516
21
36.6085174611815
31
32.8417834701026
  0
LINE
 8
Layer0
10
44.9737299260516
20
36.6085174611815
30
32.8417834701026
11
44.6062255745641
21
36.8000508403094
31
32.8417834525197
  0
LINE
 8
Layer0
10
44.6062255745641
20
36.8000508403094
30
32.8417834525197
11
44.3008161164798
21
37.0801750031282
31
32.8417833113042
  0
LINE
 8
Layer0
10
44.4976434933316
20
-17.8333976444262
30
32.84184069227
11
44.8472684410726
21
-17.6108962296013
31
32.8418402853742
  0
LINE
 8
Layer0
10
44.8472684410726
20
-17.6108962296013
30
32.8418402853742
11
45.2425678113297
21
-17.4864659617544
31
32.8418399583999
  0
LINE
 8
Layer0
10
45.2425678113297
20
-17.4864659617544
30
32.8418399583999
11
45.6566026052831
21
-17.4685865580084
31
32.8418397336299
  0
LINE
 8
Layer0
10
45.6566026052831
20
-17.4685865580084
30
32.8418397336299
11
46.0611570359495
21
-17.5584764701816
31
32.8418396263819
  0
LINE
 8
Layer0
10
46.0611570359495
20
-17.5584764701816
30
32.8418396263819
11
46.428661387437
21
-17.7500098493095
31
32.8418396439648
  0
LINE
 8
Layer0
10
46.428661387437
20
-17.7500098493095
30
32.8418396439648
11
46.7340708455214
21
-18.0301340121283
31
32.8418397851802
  0
LINE
 8
Layer0
10
46.7340708455214
20
-18.0301340121283
30
32.8418397851802
11
46.956572260347
21
-18.3797589598691
31
32.8418400404046
  0
LINE
 8
Layer0
10
44.3009372675015
20
-39.1198286245533
30
32.8418630710167
11
44.0784358526759
21
-38.7702036768124
31
32.8418628157923
  0
LINE
 8
Layer0
10
44.0784358526759
20
-38.7702036768124
30
32.8418628157923
11
43.9540055848283
21
-38.3749043065556
31
32.8418624639521
  0
LINE
 8
Layer0
10
43.9540055848283
20
-38.3749043065556
30
32.8418624639521
11
43.9361261810817
21
-37.9608695126028
31
32.8418620394733
  0
LINE
 8
Layer0
10
43.9361261810817
20
-37.9608695126028
30
32.8418620394733
11
44.0260160932546
21
-37.5563150819369
31
32.8418615712836
  0
LINE
 8
Layer0
10
44.0260160932546
20
-37.5563150819369
30
32.8418615712836
11
44.2175494723822
21
-37.1888107304502
31
32.8418610912892
  0
LINE
 8
Layer0
10
44.2175494723822
20
-37.1888107304502
30
32.8418610912892
11
44.4976736352011
21
-36.8834012723667
31
32.8418606322011
  0
LINE
 8
Layer0
10
46.956572260347
20
-18.3797589598691
30
32.8418400404046
11
47.0810025281947
21
-18.7750583301258
31
32.8418403922449
  0
LINE
 8
Layer0
10
47.0810025281947
20
-18.7750583301258
30
32.8418403922449
11
47.0988819319412
21
-19.1890931240785
31
32.8418408167236
  0
LINE
 8
Layer0
10
47.0988819319412
20
-19.1890931240785
30
32.8418408167236
11
47.0089920197684
21
-19.5936475547442
31
32.8418412849133
  0
LINE
 8
Layer0
10
47.0089920197684
20
-19.5936475547442
30
32.8418412849133
11
46.8174586406407
21
-19.9611519062309
31
32.8418417649077
  0
LINE
 8
Layer0
10
46.8174586406407
20
-19.9611519062309
30
32.8418417649077
11
46.5373344778218
21
-20.2665613643144
31
32.8418422239958
  0
LINE
 8
Layer0
10
46.5373344778218
20
-20.2665613643144
30
32.8418422239958
11
46.1877095300809
21
-20.4890627791393
31
32.8418426308917
  0
LINE
 8
Layer0
10
46.1877095300809
20
-20.4890627791393
30
32.8418426308917
11
45.7924101598237
21
-20.6134930469862
31
32.841842957866
  0
LINE
 8
Layer0
10
45.7924101598237
20
-20.6134930469862
30
32.841842957866
11
45.3783753658704
21
-20.6313724507322
31
32.841843182636
  0
LINE
 8
Layer0
10
45.3783753658704
20
-20.6313724507322
30
32.841843182636
11
44.9738209352039
21
-20.541482538559
31
32.8418432898839
  0
LINE
 8
Layer0
10
44.9738209352039
20
-20.541482538559
30
32.8418432898839
11
44.6063165837164
21
-20.3499491594311
31
32.8418432723011
  0
LINE
 8
Layer0
10
44.6063165837164
20
-20.3499491594311
30
32.8418432723011
11
44.3009071256321
21
-20.0698249966123
31
32.8418431310857
  0
LINE
 8
Layer0
10
44.3009071256321
20
-20.0698249966123
30
32.8418431310857
11
44.0784057108065
21
-19.7202000488715
31
32.8418428758613
  0
LINE
 8
Layer0
10
44.0784057108065
20
-19.7202000488715
30
32.8418428758613
11
43.9539754429589
21
-19.3249006786149
31
32.8418425240211
  0
LINE
 8
Layer0
10
43.9539754429589
20
-19.3249006786149
30
32.8418425240211
11
43.9360960392123
21
-18.9108658846621
31
32.8418420995423
  0
LINE
 8
Layer0
10
43.9360960392123
20
-18.9108658846621
30
32.8418420995423
11
44.0259859513851
21
-18.5063114539964
31
32.8418416313526
  0
LINE
 8
Layer0
10
44.0259859513851
20
-18.5063114539964
30
32.8418416313526
11
44.2175193305128
21
-18.1388071025097
31
32.8418411513582
  0
LINE
 8
Layer0
10
-29.3076541414863
20
-45.2438522716564
30
32.8419061143838
11
-29.5599369312444
21
-45.5726346884635
31
32.8419065840809
  0
LINE
 8
Layer0
10
-69.4090754542979
20
-25.3945565093943
30
32.8418005254917
11
-69.5068463504855
21
-25.158517752086
31
32.8418218306597
  0
LINE
 8
Layer0
10
30.35493943875
20
30.328592721316
30
32.8416294321179
11
44.1980779686844
21
30.3286276071821
31
32.8417164797273
  0
LINE
 8
Layer0
10
-29.1491032810275
20
-19.4609772552481
30
32.8418790481257
11
-29.3076945920025
21
-19.8438522736294
31
32.8418795278143
  0
LINE
 8
Layer0
10
-29.3076945920025
20
-19.8438522736294
30
32.8418795278143
11
-29.5599773817607
21
-20.1726346904364
31
32.8418799975114
  0
LINE
 8
Layer0
10
-29.5599773817607
20
-20.1726346904364
30
32.8418799975114
11
-29.8887589950969
21
-20.4249185273025
31
32.8418804252077
  0
LINE
 8
Layer0
10
-29.8887589950969
20
-20.4249185273025
30
32.8418804252077
11
-30.2716335083998
21
-20.5835110576639
31
32.8418807817567
  0
LINE
 8
Layer0
10
-63.6911187713323
20
-20.0176586604753
30
32.8418968215562
11
-63.8986411219684
21
-19.6589401668528
31
32.8418965493587
  0
LINE
 8
Layer0
10
-63.397824395346
20
-20.3104433812121
30
32.841896982053
11
-63.6911187713323
21
-20.0176586604753
31
32.8418968215562
  0
LINE
 8
Layer0
10
45.237901492732
20
42.949279950041
30
32.8417009486204
11
44.2271981019891
21
43.1020713414018
31
32.8416885387766
  0
LINE
 8
Layer0
10
44.0773626979509
20
43.1020657184377
30
32.8416964953652
11
44.2271981019891
21
43.1020713414018
31
32.8416885387766
  0
LINE
 8
Layer0
10
-6.65727467735483
20
-51.5938162071246
30
32.841901488436
11
-6.81586720777218
21
-51.2109416937874
31
32.8419011666028
  0
LINE
 8
Layer0
10
-6.86996061283286
20
-50.8000665458532
30
32.8419007634542
11
-6.81586851637548
21
-50.3891912256508
31
32.841900306464
  0
LINE
 8
Layer0
10
-6.81586851637548
20
-50.3891912256508
30
32.841900306464
11
-6.65727720538219
21
-50.0063162072481
31
32.8418998267754
  0
LINE
 8
Layer0
10
-6.65727720538219
20
-50.0063162072481
30
32.8418998267754
11
-6.4049944156126
21
-49.6775337904185
31
32.8418993570784
  0
LINE
 8
Layer0
10
-6.4049944156126
20
-49.6775337904185
30
32.8418993570784
11
-6.07621280227266
21
-49.4252499535302
31
32.841898929382
  0
LINE
 8
Layer0
10
-6.07621280227266
20
-49.4252499535302
30
32.841898929382
11
-5.69333828897402
21
-49.2666574231486
31
32.841898572833
  0
LINE
 8
Layer0
10
-5.69333828897402
20
-49.2666574231486
30
32.841898572833
11
-5.28246314106806
21
-49.2125640181324
31
32.8418983117298
  0
LINE
 8
Layer0
10
-5.28246314106806
20
-49.2125640181324
30
32.8418983117298
11
-4.87158782088111
21
-49.26665611464
31
32.8418981638659
  0
LINE
 8
Layer0
10
-32.0573252487607
20
-19.8438566518858
30
32.841880896245
11
-32.2159177792081
21
-19.4609821385586
31
32.8418805744118
  0
LINE
 8
Layer0
10
-31.0933484099752
20
-42.9166978660671
30
32.8419045672115
11
-30.6824732620573
21
-42.8626044610679
31
32.8419043061082
  0
LINE
 8
Layer0
10
-30.6824732620573
20
-42.8626044610679
30
32.8419043061082
11
-30.2715979418517
21
-42.916696557588
31
32.8419041582444
  0
LINE
 8
Layer0
10
-30.2715979418517
20
-42.916696557588
30
32.8419041582444
11
-29.8887229234266
21
-43.075287868641
31
32.8419041336966
  0
LINE
 8
Layer0
10
-29.8887229234266
20
-43.075287868641
30
32.8419041336966
11
-29.5599405065572
21
-43.3275706584633
31
32.8419042341379
  0
LINE
 8
Layer0
10
-29.5599405065572
20
-43.3275706584633
30
32.8419042341379
11
-29.3076566696142
21
-43.6563522718453
31
32.8419044527232
  0
LINE
 8
Layer0
10
21.2399202186463
20
44.1148461914644
30
32.8417874248622
11
20.9111386052642
21
43.8625623545185
31
32.8417878525586
  0
LINE
 8
Layer0
10
30.0296942747767
20
43.1020368293043
30
32.8418908842076
11
30.4230580147895
21
43.1794465234948
31
32.8418855188024
  0
LINE
 8
Layer0
10
30.4230580147895
20
43.1794465234948
30
32.8418855188024
11
30.8189104764951
21
43.2429140054999
31
32.841880055038
  0
LINE
 8
Layer0
10
30.8189104764951
20
43.2429140054999
30
32.841880055038
11
31.216757657313
21
43.2923600713158
31
32.841874499733
  0
LINE
 8
Layer0
10
31.216757657313
20
43.2923600713158
30
32.841874499733
11
31.6161030653606
21
43.3277230149119
31
32.8418688598201
  0
LINE
 8
Layer0
10
33.2184847630697
20
43.3277255732391
30
32.8418455962541
11
33.6178302840301
21
43.2923639048152
31
32.8418396406781
  0
LINE
 8
Layer0
10
33.6178302840301
20
43.2923639048152
30
32.8418396406781
11
34.0156776227286
21
43.2429191093876
31
32.8418336439964
  0
LINE
 8
Layer0
10
34.0156776227286
20
43.2429191093876
30
32.8418336439964
11
34.4115302870855
21
43.1794528914014
31
32.8418276136925
  0
LINE
 8
Layer0
10
34.4115302870855
20
43.1794528914014
30
32.8418276136925
11
34.8048942742674
21
43.1020444532829
31
32.8418215572921
  0
LINE
 8
Layer0
10
-62.2239322767127
20
-20.6238929715482
30
32.8418967259274
11
-62.6383527802966
21
-20.6242533522127
31
32.841896932552
  0
LINE
 8
Layer0
10
45.2425979531992
20
-36.5364695896949
30
32.8418598983309
11
45.6566327471525
21
-36.518590185949
31
32.8418596735609
  0
LINE
 8
Layer0
10
46.9566024022164
20
-37.42976258781
30
32.8418599803357
11
47.081032670064
21
-37.8250619580668
31
32.8418603321759
  0
LINE
 8
Layer0
10
46.7341009873908
20
-37.0801376400692
30
32.8418597251113
11
46.9566024022164
21
-37.42976258781
31
32.8418599803357
  0
LINE
 8
Layer0
10
47.081032670064
20
-37.8250619580668
30
32.8418603321759
11
47.0989120738106
21
-38.2390967520196
31
32.8418607566546
  0
LINE
 8
Layer0
10
47.0989120738106
20
-38.2390967520196
30
32.8418607566546
11
47.0090221616377
21
-38.6436511826855
31
32.8418612248443
  0
LINE
 8
Layer0
10
47.0090221616377
20
-38.6436511826855
30
32.8418612248443
11
46.8174887825101
21
-39.0111555341722
31
32.8418617048387
  0
LINE
 8
Layer0
10
46.8174887825101
20
-39.0111555341722
30
32.8418617048387
11
46.5373646196912
21
-39.3165649922558
31
32.8418621639269
  0
LINE
 8
Layer0
10
46.5373646196912
20
-39.3165649922558
30
32.8418621639269
11
46.1877396719502
21
-39.5390664070806
31
32.8418625708227
  0
LINE
 8
Layer0
10
46.1877396719502
20
-39.5390664070806
30
32.8418625708227
11
45.7924403016931
21
-39.6634966749275
31
32.8418628977971
  0
LINE
 8
Layer0
10
0.340103360085142
20
3.10329740822985
30
32.8419441927487
11
-0.52950115816367
21
4.36313276072349
31
32.8419553496729
  0
LINE
 8
Layer0
10
0.882940417188956
20
1.67196059847502
30
32.8419318722352
11
0.340103360085142
21
3.10329740822985
31
32.8419441927487
  0
LINE
 8
Layer0
10
1.06746229652122
20
0.152306424144309
30
32.8419191041558
11
0.882940417188956
21
1.67196059847502
31
32.8419318722352
  0
LINE
 8
Layer0
10
44.1980779686844
20
30.3286276071821
30
32.8417164797273
11
45.3586162296529
21
30.4814174302615
31
32.8417112044046
  0
LINE
 8
Layer0
10
48.4657566640689
20
-15.0302776998764
30
32.8418645174003
11
47.8313865423153
21
-13.498779646486
31
32.8418669562503
  0
LINE
 8
Layer0
10
47.8313865423153
20
-13.498779646486
30
32.8418669562503
11
46.822251194532
21
-12.1836531929585
31
32.8418690505383
  0
LINE
 8
Layer0
10
46.822251194532
20
-12.1836531929585
30
32.8418690505383
11
45.5071215269954
21
-11.1745220337524
31
32.841870657542
  0
LINE
 8
Layer0
10
45.5071215269954
20
-11.1745220337524
30
32.841870657542
11
43.9756214531936
21
-10.5401567896996
31
32.8418716677467
  0
LINE
 8
Layer0
10
43.9756214531936
20
-10.5401567896996
30
32.8418716677467
11
42.3321201722327
21
-10.3237884038441
31
32.8418720123087
  0
LINE
 8
Layer0
10
10.0844748966595
20
-10.3238392865582
30
32.8415311058367
11
42.3321201722327
21
-10.3237884038441
31
32.8418720123087
  0
LINE
 8
Layer0
10
10.0844101593657
20
30.3285604513663
30
32.8415958431304
11
10.0844748966595
21
-10.3238392865582
31
32.8415311058367
  0
LINE
 8
Layer0
10
20.5282592081368
20
46.7707843225441
30
32.8417849990258
11
20.9111342265873
21
46.6121930115306
31
32.8417849744781
  0
LINE
 8
Layer0
10
20.9111342265873
20
46.6121930115306
30
32.8417849744781
11
21.2399166434716
21
46.3599102217288
31
32.8417850749193
  0
LINE
 8
Layer0
10
21.2399166434716
20
46.3599102217288
30
32.8417850749193
11
21.4922004804176
21
46.0311286083465
31
32.8417852935046
  0
LINE
 8
Layer0
10
-67.8024856139707
20
-16.852902281914
30
32.8419516369624
11
-66.2709875609011
21
-16.2185321602741
31
32.8419733364816
  0
LINE
 8
Layer0
10
-69.1176120672074
20
-17.8620376295394
30
32.8419309752521
11
-67.8024856139707
21
-16.852902281914
31
32.8419516369624
  0
LINE
 8
Layer0
10
-49.7324833429076
20
-36.5126347962982
30
32.8419071402314
11
-49.3216080227439
21
-36.5667268928454
31
32.8419069923676
  0
LINE
 8
Layer0
10
-49.3216080227439
20
-36.5667268928454
30
32.8419069923676
11
-48.9387330043454
21
-36.7253182039168
31
32.8419069678199
  0
LINE
 8
Layer0
10
-48.9387330043454
20
-36.7253182039168
30
32.8419069678199
11
-48.6099505874852
21
-36.9776009937476
31
32.8419070682611
  0
LINE
 8
Layer0
10
-48.6099505874852
20
-36.9776009937476
30
32.8419070682611
11
-48.3576667505337
21
-37.3063826071278
31
32.8419072868464
  0
LINE
 8
Layer0
10
-48.3576667505337
20
-37.3063826071278
30
32.8419072868464
11
-48.1990742200607
21
-37.6892571204427
31
32.8419076086796
  0
LINE
 8
Layer0
10
-48.1990742200607
20
-37.6892571204427
30
32.8419076086796
11
-48.1449808149308
21
-38.1001322683401
31
32.8419080118282
  0
LINE
 8
Layer0
10
-48.1449808149308
20
-38.1001322683401
30
32.8419080118282
11
-48.1990729113104
21
-38.5110075884941
31
32.8419084688184
  0
LINE
 8
Layer0
10
-48.1990729113104
20
-38.5110075884941
30
32.8419084688184
11
-48.3576642222228
21
-38.8938826068396
31
32.841908948507
  0
LINE
 8
Layer0
10
-70.126743226172
20
-19.1771672968846
30
32.8419127594121
11
-69.1176120672074
21
-17.8620376295394
31
32.8419309752521
  0
LINE
 8
Layer0
10
-70.7611084700493
20
-20.7086673704745
30
32.8418982308218
11
-70.126743226172
21
-19.1771672968846
31
32.8419127594121
  0
LINE
 8
Layer0
10
-70.9031464574177
20
-21.7875662764177
30
32.8418490166602
11
-70.7611084700493
21
-20.7086673704745
31
32.8418982308218
  0
LINE
 8
Layer0
10
-70.9774768558073
20
-22.3521686512175
30
32.8418883795805
11
-70.9031464574177
21
-21.7875662764177
31
32.8418490166602
  0
LINE
 8
Layer0
10
-70.1126870595939
20
-24.1584802892637
30
32.8418340322241
11
-70.9774768558073
21
-22.3521686512175
31
32.8418883795805
  0
LINE
 8
Layer0
10
-67.5295666547559
20
-28.4223356919934
30
32.8418272422013
11
-67.9388183140964
21
-27.7468000525367
31
32.8418653489054
  0
LINE
 8
Layer0
10
34.9257312640375
20
-45.7199997666209
30
32.8419184789771
11
42.3321765544168
21
-45.719987965299
31
32.841802919179
  0
LINE
 8
Layer0
10
-4.51711974546026
20
-6.15140381942598
30
32.8418712075726
11
-3.03078721575851
21
-5.78505324303386
31
32.8418730641273
  0
LINE
 8
Layer0
10
-25.4247160807111
20
-16.0020961113533
30
32.8420929085941
11
-20.6495160626876
21
-16.0020885068205
31
32.8419541955427
  0
LINE
 8
Layer0
10
-25.4247160807111
20
-16.0020961113533
30
32.8420929085941
11
-64.6274869691827
21
-16.0021585399882
31
32.841977435171
  0
LINE
 8
Layer0
10
-69.1942117518308
20
-25.6745714118729
30
32.841823671664
11
-69.4090754542979
21
-25.3945565093943
31
32.8418005254917
  0
LINE
 8
Layer0
10
-69.1942117518308
20
-25.6745714118729
30
32.841823671664
11
-69.5068463504855
21
-25.158517752086
31
32.8418218306597
  0
LINE
 8
Layer0
10
-50.5164380128833
20
-44.1098612293238
30
32.8417864912467
11
-51.1293372783267
21
-43.7464289807813
31
32.8417870699993
  0
LINE
 8
Layer0
10
30.1503826138375
20
47.6249923961483
30
32.8419168059019
11
30.0296942747767
21
43.1020368293043
31
32.8418908842076
  0
LINE
 8
Layer0
10
20.5284121757928
20
-49.266615666853
30
32.8418855228451
11
20.9112871941934
21
-49.4252069778989
31
32.8418854982973
  0
LINE
 8
Layer0
10
20.5282640919162
20
43.7039698240802
30
32.8417882091075
11
20.1173889439571
21
43.649876419012
31
32.8417884702108
  0
LINE
 8
Layer0
10
20.1173889439571
20
43.649876419012
30
32.8417884702108
11
19.7065136237169
21
43.703968515476
31
32.8417886180747
  0
LINE
 8
Layer0
10
19.7065136237169
20
43.703968515476
30
32.8417886180747
11
19.3236386052664
21
43.8625598264894
31
32.8417886426224
  0
LINE
 8
Layer0
10
-0.529487747015808
20
-4.05852499863351
30
32.841885407169
11
0.340112758755392
21
-2.798686876515
31
32.8418951763234
  0
LINE
 8
Layer0
10
0.340112758755392
20
-2.798686876515
30
32.8418951763234
11
0.882945257164965
21
-1.36734833786831
31
32.8419066305449
  0
LINE
 8
Layer0
10
14.6003971777095
20
35.8231586745193
30
32.8417994394027
11
14.47114896326
21
35.6633250423915
31
32.8417996517256
  0
LINE
 8
Layer0
10
14.7666093540907
20
35.9440942082561
30
32.8417992466782
11
14.6003971777095
21
35.8231586745193
31
32.8417994394027
  0
LINE
 8
Layer0
10
14.9584584072617
20
36.0178900868332
30
32.8417990866858
11
14.7666093540907
21
35.9440942082561
31
32.8417992466782
  0
LINE
 8
Layer0
10
15.1628701412946
20
36.0395172430789
30
32.8417989703289
11
14.9584584072617
21
36.0178900868332
31
32.8417990866858
  0
LINE
 8
Layer0
10
15.3659142343213
20
36.0075018220357
30
32.8417989055369
11
15.1628701412946
21
36.0395172430789
31
32.8417989703289
  0
LINE
 8
Layer0
10
15.5537535669482
20
35.9240256217398
30
32.8417988967253
11
15.3659142343213
21
36.0075018220357
31
32.8417989055369
  0
LINE
 8
Layer0
10
15.7135871990762
20
35.7947774072902
30
32.8417989444945
11
15.5537535669482
21
35.9240256217398
31
32.8417988967253
  0
LINE
 8
Layer0
10
15.8345227328131
20
35.6285652309091
30
32.8417990455893
11
15.7135871990762
21
35.7947774072902
31
32.8417989444945
  0
LINE
 8
Layer0
10
15.9083186113903
20
35.4367161777381
30
32.8417991931202
11
15.8345227328131
21
35.6285652309091
31
32.8417990455893
  0
LINE
 8
Layer0
10
15.9299457676361
20
35.2323044437053
30
32.8417993770331
11
15.9083186113903
21
35.4367161777381
31
32.8417991931202
  0
LINE
 8
Layer0
10
15.897930346593
20
35.0292603506787
30
32.8417995847947
11
15.9299457676361
21
35.2323044437053
31
32.8417993770331
  0
LINE
 8
Layer0
10
24.9272888752209
20
34.4972601750989
30
32.8417955564259
11
25.1303329682476
21
34.4652447540558
31
32.8417954916339
  0
LINE
 8
Layer0
10
24.7394495425939
20
34.5807363753949
30
32.8417955652375
11
24.9272888752209
21
34.4972601750989
31
32.8417955564259
  0
LINE
 8
Layer0
10
24.579615910466
20
34.7099845898445
30
32.8417955174682
11
24.7394495425939
21
34.5807363753949
31
32.8417955652375
  0
LINE
 8
Layer0
10
24.458680376729
20
34.8761967662256
30
32.8417954163735
11
24.579615910466
21
34.7099845898445
31
32.8417955174682
  0
LINE
 8
Layer0
10
31.7369407750406
20
-45.9456885003551
30
32.8419650217601
11
32.1372861164546
21
-45.9669229135911
31
32.8419584732365
  0
LINE
 8
Layer0
10
32.1372861164546
20
-45.9669229135911
30
32.8419584732365
11
32.5381316689946
21
-45.9740035709619
31
32.8419521182635
  0
LINE
 8
Layer0
10
32.5381316689946
20
-45.9740035709619
30
32.8419521182635
11
32.9389771989713
21
-45.9669216361882
31
32.8419459647718
  0
LINE
 8
Layer0
10
32.9389771989713
20
-45.9669216361882
30
32.8419459647718
11
33.3393224727236
21
-45.9456859471434
31
32.8419400204406
  0
LINE
 8
Layer0
10
-10.9051787670226
20
-2.79870478425948
30
32.8419041493175
11
-10.0355742487737
21
-4.05854013675311
31
32.8418929923933
  0
LINE
 8
Layer0
10
-11.4480158241263
20
-1.36736797450465
30
32.841916469831
11
-10.9051787670226
21
-2.79870478425948
31
32.8419041493175
  0
LINE
 8
Layer0
10
44.4976736352011
20
-36.8834012723667
30
32.8418606322011
11
44.8472985829421
21
-36.6608998575418
31
32.8418602253052
  0
LINE
 8
Layer0
10
44.8472985829421
20
-36.6608998575418
30
32.8418602253052
11
45.2425979531992
21
-36.5364695896949
31
32.8418598983309
  0
LINE
 8
Layer0
10
45.6566327471525
20
-36.518590185949
30
32.8418596735609
11
46.061187177819
21
-36.6084800981223
31
32.841859566313
  0
LINE
 8
Layer0
10
46.061187177819
20
-36.6084800981223
30
32.841859566313
11
46.4286915293065
21
-36.8000134772503
31
32.8418595838958
  0
LINE
 8
Layer0
10
46.4286915293065
20
-36.8000134772503
30
32.8418595838958
11
46.7341009873908
21
-37.0801376400692
31
32.8418597251113
  0
LINE
 8
Layer0
10
20.9112871941934
20
-49.4252069778989
30
32.8418854982973
11
21.2400696110346
21
-49.6774897677197
31
32.8418855987386
  0
LINE
 8
Layer0
10
43.9756771460055
20
-45.5036143437565
30
32.8418030103779
11
42.3321765544168
21
-45.719987965299
31
32.841802919179
  0
LINE
 8
Layer0
10
45.5071751988294
20
-44.8692442208411
30
32.8418038505239
11
43.9756771460055
21
-45.5036143437565
31
32.8418030103779
  0
LINE
 8
Layer0
10
46.8223016515088
20
-43.8601088720834
30
32.8418053823626
11
45.5071751988294
21
-44.8692442208411
31
32.8418038505239
  0
LINE
 8
Layer0
10
47.8314328096427
20
-42.5449792038262
30
32.8418075015016
11
46.8223016515088
21
-43.8601088720834
31
32.8418053823626
  0
LINE
 8
Layer0
10
48.4657980524725
20
-41.0134791296066
30
32.8418100635251
11
47.8314328096427
21
-42.5449792038262
31
32.8418075015016
  0
LINE
 8
Layer0
10
48.6821664370375
20
-39.3699778485592
30
32.8418128938355
11
48.4657980524725
21
-41.0134791296066
31
32.8418100635251
  0
LINE
 8
Layer0
10
48.6821302843415
20
-16.6737782917112
30
32.8418619001919
11
48.6821664370375
21
-39.3699778485592
31
32.8418128938355
  0
LINE
 8
Layer0
10
48.6821302843415
20
-16.6737782917112
30
32.8418619001919
11
48.4657566640689
21
-15.0302776998764
31
32.8418645174003
  0
LINE
 8
Layer0
10
21.2400696110346
20
-49.6774897677197
30
32.8418855987386
11
21.4923534479473
21
-50.0062713811062
31
32.8418858173239
  0
LINE
 8
Layer0
10
21.4923534479473
20
-50.0062713811062
30
32.8418858173239
11
21.6509459783647
21
-50.3891458944435
31
32.8418861391571
  0
LINE
 8
Layer0
10
21.6509459783647
20
-50.3891458944435
30
32.8418861391571
11
21.7050393834253
21
-50.8000210423775
31
32.8418865423057
  0
LINE
 8
Layer0
10
21.7050393834253
20
-50.8000210423775
30
32.8418865423057
11
21.6509472869679
21
-51.21089636258
31
32.8418869992959
  0
LINE
 8
Layer0
10
21.6509472869679
20
-51.21089636258
30
32.8418869992959
11
21.4923559759746
21
-51.5937713809828
31
32.8418874789845
  0
LINE
 8
Layer0
10
21.4923559759746
20
-51.5937713809828
30
32.8418874789845
11
21.2400731862051
21
-51.9225537978124
31
32.8418879486815
  0
LINE
 8
Layer0
10
20.9112915728651
20
-52.1748376347006
30
32.8418883763779
11
20.5284170595665
21
-52.3334301650823
31
32.8418887329268
  0
LINE
 8
Layer0
10
-57.4660063763419
20
-39.4208691630743
30
32.8418097274583
11
-60.757985015908
21
-36.4396677066882
31
32.8419657802322
  0
LINE
 8
Layer0
10
-53.4478074836726
20
-42.3716405165096
30
32.8418050284648
11
-57.4660063763419
21
-39.4208691630743
31
32.8418097274583
  0
LINE
 8
Layer0
10
-51.1293372783267
20
-43.7464289807813
30
32.8417870699993
11
-53.4478074836726
21
-42.3716405165096
31
32.8418050284648
  0
LINE
 8
Layer0
10
-49.1597311471266
20
-44.9143507346158
30
32.8418009792912
11
-50.5164380128833
21
-44.1098612293238
31
32.8417864912467
  0
LINE
 8
Layer0
10
-44.6430738859257
20
-47.0245121280059
30
32.8417976189335
11
-49.1597311471266
21
-44.9143507346158
31
32.8418009792912
  0
LINE
 8
Layer0
10
-39.9413335785513
20
-48.6818026889299
30
32.8417949797538
11
-44.6430738859257
21
-47.0245121280059
31
32.8417976189335
  0
LINE
 8
Layer0
10
-38.8058062487374
20
-48.9605418838313
30
32.8417787667052
11
-39.9413335785513
21
-48.6818026889299
31
32.8417949797538
  0
LINE
 8
Layer0
10
-35.0997905543962
20
-49.870261803319
30
32.8417930871687
11
-38.2198350610966
21
-49.1043809027653
31
32.8417785376459
  0
LINE
 8
Layer0
10
-51.3199808142625
20
-38.10013732368
30
32.8419095919558
11
-51.2658887178829
21
-37.6892620035261
31
32.8419091349657
  0
LINE
 8
Layer0
10
-51.2658874091327
20
-38.5110124715775
30
32.8419099951045
11
-51.3199808142625
21
-38.10013732368
31
32.8419095919558
  0
LINE
 8
Layer0
10
-51.2658887178829
20
-37.6892620035261
30
32.8419091349657
11
-51.1072974069706
21
-37.3063869851806
31
32.8419086552771
  0
LINE
 8
Layer0
10
-51.1072974069706
20
-37.3063869851806
30
32.8419086552771
11
-50.8550146172799
21
-36.9776045684127
31
32.84190818558
  0
LINE
 8
Layer0
10
-50.8550146172799
20
-36.9776045684127
30
32.84190818558
11
-50.5262330040111
21
-36.7253207315868
31
32.8419077578837
  0
LINE
 8
Layer0
10
-50.5262330040111
20
-36.7253207315868
30
32.8419077578837
11
-50.1433584907713
21
-36.5667282012636
31
32.8419074013347
  0
LINE
 8
Layer0
10
-50.1433584907713
20
-36.5667282012636
30
32.8419074013347
11
-49.7324833429076
21
-36.5126347962982
31
32.8419071402314
  0
LINE
 8
Layer0
10
0.882945257164965
20
-1.36734833786831
30
32.8419066305449
11
1.06746229652122
21
0.152306424144309
31
32.8419191041558
  0
LINE
 8
Layer0
10
15.3659946535208
20
-14.4924981780358
30
32.8418517634911
11
15.1629505604941
21
-14.4604827569927
31
32.8418518282831
  0
LINE
 8
Layer0
10
15.5538339861478
20
-14.5759743783318
30
32.8418517546795
11
15.3659946535208
21
-14.4924981780358
31
32.8418517634911
  0
LINE
 8
Layer0
10
15.7136676182757
20
-14.7052225927813
30
32.8418518024487
11
15.5538339861478
21
-14.5759743783318
31
32.8418517546795
  0
LINE
 8
Layer0
10
15.8346031520126
20
-14.8714347691625
30
32.8418519035435
11
15.7136676182757
21
-14.7052225927813
31
32.8418518024487
  0
LINE
 8
Layer0
10
15.9083990305898
20
-15.0632838223335
30
32.8418520510744
11
15.8346031520126
21
-14.8714347691625
31
32.8418519035435
  0
LINE
 8
Layer0
10
15.9300261868356
20
-15.2676955563663
30
32.8418522349873
11
15.9083990305898
21
-15.0632838223335
31
32.8418520510744
  0
LINE
 8
Layer0
10
15.8980107657925
20
-15.4707396493929
30
32.8418524427489
11
15.9300261868356
21
-15.2676955563663
31
32.8418522349873
  0
LINE
 8
Layer0
10
15.8145345654966
20
-15.6585789820197
30
32.8418526602006
11
15.8980107657925
21
-15.4707396493929
31
32.8418524427489
  0
LINE
 8
Layer0
10
15.6852863510471
20
-15.8184126141476
30
32.8418528725235
11
15.8145345654966
21
-15.6585789820197
31
32.8418526602006
  0
LINE
 8
Layer0
10
15.519074174666
20
-15.9393481478844
30
32.841853065248
11
15.6852863510471
21
-15.8184126141476
31
32.8418528725235
  0
LINE
 8
Layer0
10
25.3272251214798
20
-16.0131281018727
30
32.8418482465676
11
25.5190741746508
21
-15.9393322232957
31
32.8418480865753
  0
LINE
 8
Layer0
10
25.122813387447
20
-16.0347552581185
30
32.8418483629246
11
25.3272251214798
21
-16.0131281018727
31
32.8418482465676
  0
LINE
 8
Layer0
10
24.9197692944203
20
-16.0027398370753
30
32.8418484277166
11
25.122813387447
21
-16.0347552581185
31
32.8418483629246
  0
LINE
 8
Layer0
10
24.7319299617933
20
-15.9192636367793
30
32.8418484365282
11
24.9197692944203
21
-16.0027398370753
31
32.8418484277166
  0
LINE
 8
Layer0
10
24.5720963296654
20
-15.7900154223298
30
32.8418483887589
11
24.7319299617933
21
-15.9192636367793
31
32.8418484365282
  0
LINE
 8
Layer0
10
-4.87158782088111
20
-49.26665611464
30
32.8418981638659
11
-4.48871280248049
21
-49.4252474256859
31
32.8418981393182
  0
LINE
 8
Layer0
10
-4.48871280248049
20
-49.4252474256859
30
32.8418981393182
11
-4.15993038563941
21
-49.6775302155067
31
32.8418982397594
  0
LINE
 8
Layer0
10
-4.15993038563941
20
-49.6775302155067
30
32.8418982397594
11
-3.90764654872669
21
-50.0063118288932
31
32.8418984583448
  0
LINE
 8
Layer0
10
-3.90764654872669
20
-50.0063118288932
30
32.8418984583448
11
-3.74905401830932
21
-50.3891863422305
31
32.8418987801779
  0
LINE
 8
Layer0
10
-3.74905401830932
20
-50.3891863422305
30
32.8418987801779
11
-3.69496061324857
21
-50.8000614901646
31
32.8418991833266
  0
LINE
 8
Layer0
10
-3.69496061324857
20
-50.8000614901646
30
32.8418991833266
11
-3.74905270970603
21
-51.2109368103671
31
32.8418996403167
  0
LINE
 8
Layer0
10
-3.74905270970603
20
-51.2109368103671
30
32.8418996403167
11
-3.90764402069934
21
-51.5938118287697
31
32.8419001200053
  0
LINE
 8
Layer0
10
44.0783147016541
20
37.429799950869
30
32.8417830560799
11
43.9538844338065
21
37.8250993211256
31
32.8417827042396
  0
LINE
 8
Layer0
10
43.9538844338065
20
37.8250993211256
30
32.8417827042396
11
43.93600503006
21
38.2391341150783
31
32.8417822797609
  0
LINE
 8
Layer0
10
43.93600503006
20
38.2391341150783
30
32.8417822797609
11
44.0258949422328
21
38.6436885457441
31
32.8417818115712
  0
LINE
 8
Layer0
10
44.0258949422328
20
38.6436885457441
30
32.8417818115712
11
44.2174283213604
21
39.0111928972308
31
32.8417813315768
  0
LINE
 8
Layer0
10
44.2174283213604
20
39.0111928972308
30
32.8417813315768
11
44.4975524841793
21
39.3166023553143
31
32.8417808724886
  0
LINE
 8
Layer0
10
44.4975524841793
20
39.3166023553143
30
32.8417808724886
11
44.8471774319203
21
39.5391037701392
31
32.8417804655928
  0
LINE
 8
Layer0
10
44.8471774319203
20
39.5391037701392
30
32.8417804655928
11
45.2424768021774
21
39.6635340379861
31
32.8417801386185
  0
LINE
 8
Layer0
10
45.2424768021774
20
39.6635340379861
30
32.8417801386185
11
45.6565115961307
21
39.6814134417321
31
32.8417799138485
  0
LINE
 8
Layer0
10
45.6565115961307
20
39.6814134417321
30
32.8417799138485
11
46.0610660267972
21
39.5915235295588
31
32.8417798066005
  0
LINE
 8
Layer0
10
46.0610660267972
20
39.5915235295588
30
32.8417798066005
11
46.4285703782847
21
39.399990150431
31
32.8417798241834
  0
LINE
 8
Layer0
10
46.4285703782847
20
39.399990150431
30
32.8417798241834
11
46.733979836369
21
39.1198659876122
31
32.8417799653988
  0
LINE
 8
Layer0
10
46.733979836369
20
39.1198659876122
30
32.8417799653988
11
46.9564812511947
21
38.7702410398714
31
32.8417802206232
  0
LINE
 8
Layer0
10
46.9564812511947
20
38.7702410398714
30
32.8417802206232
11
47.0809115190423
21
38.3749416696147
31
32.8417805724634
  0
LINE
 8
Layer0
10
47.0809115190423
20
38.3749416696147
30
32.8417805724634
11
47.0987909227888
21
37.960906875662
31
32.8417809969422
  0
LINE
 8
Layer0
10
47.0987909227888
20
37.960906875662
30
32.8417809969422
11
47.008901010616
21
37.5563524449962
31
32.8417814651319
  0
LINE
 8
Layer0
10
-61.4976438001344
20
-35.4757287901238
30
32.8419662432807
11
-61.5517372051995
21
-35.064853642175
31
32.8419692254915
  0
LINE
 8
Layer0
10
-61.339051269705
20
-35.8586033034722
30
32.8419646178206
11
-61.4976438001344
21
-35.4757287901238
31
32.8419662432807
  0
LINE
 8
Layer0
10
-61.1756303732269
20
-36.0904542154993
30
32.8418150310181
11
-61.339051269705
21
-35.8586033034722
31
32.8419646178206
  0
LINE
 8
Layer0
10
-61.1290706777111
20
-36.1322544369454
30
32.8418897254096
11
-61.1756303732269
21
-36.0904542154993
31
32.8418150310181
  0
LINE
 8
Layer0
10
-61.0867674327735
20
-36.1873849168655
30
32.8419644598834
11
-61.1290706777111
21
-36.1322544369454
31
32.8418897254096
  0
LINE
 8
Layer0
10
-60.9552897669149
20
-36.2882709403455
30
32.8418898519418
11
-61.0867674327735
21
-36.1873849168655
31
32.8419644598834
  0
LINE
 8
Layer0
10
-60.757985015908
20
-36.4396677066882
30
32.8419657802322
11
-60.9552897669149
21
-36.2882709403455
31
32.8418898519418
  0
LINE
 8
Layer0
10
24.3848844981518
20
35.0680458193966
30
32.8417952688426
11
24.458680376729
21
34.8761967662256
31
32.8417954163735
  0
LINE
 8
Layer0
10
24.363257341906
20
35.2724575534294
30
32.8417950849297
11
24.3848844981518
21
35.0680458193966
31
32.8417952688426
  0
LINE
 8
Layer0
10
24.3952727629491
20
35.475501646456
30
32.8417948771681
11
24.363257341906
21
35.2724575534294
31
32.8417950849297
  0
LINE
 8
Layer0
10
24.478748963245
20
35.6633409790829
30
32.8417946597163
11
24.3952727629491
21
35.475501646456
31
32.8417948771681
  0
LINE
 8
Layer0
10
24.6079971776945
20
35.8231746112107
30
32.8417944473935
11
24.478748963245
21
35.6633409790829
31
32.8417946597163
  0
LINE
 8
Layer0
10
24.7742093540757
20
35.9441101449475
30
32.8417942546689
11
24.6079971776945
21
35.8231746112107
31
32.8417944473935
  0
LINE
 8
Layer0
10
24.9660584072467
20
36.0179060235246
30
32.8417940946766
11
24.7742093540757
21
35.9441101449475
31
32.8417942546689
  0
LINE
 8
Layer0
10
25.1704701412795
20
36.0395331797703
30
32.8417939783196
11
24.9660584072467
21
36.0179060235246
31
32.8417940946766
  0
LINE
 8
Layer0
10
25.3735142343062
20
36.0075177587271
30
32.8417939135276
11
25.1704701412795
21
36.0395331797703
31
32.8417939783196
  0
LINE
 8
Layer0
10
25.5613535669332
20
35.9240415584312
30
32.841793904716
11
25.3735142343062
21
36.0075177587271
31
32.8417939135276
  0
LINE
 8
Layer0
10
25.7211871990612
20
35.7947933439816
30
32.8417939524853
11
25.5613535669332
21
35.9240415584312
31
32.841793904716
  0
LINE
 8
Layer0
10
25.8421227327981
20
35.6285811676005
30
32.8417940535801
11
25.7211871990612
21
35.7947933439816
31
32.8417939524853
  0
LINE
 8
Layer0
10
25.9159186113752
20
35.4367321144295
30
32.8417942011109
11
25.8421227327981
21
35.6285811676005
31
32.8417940535801
  0
LINE
 8
Layer0
10
25.9375457676211
20
35.2323203803967
30
32.8417943850238
11
25.9159186113752
21
35.4367321144295
31
32.8417942011109
  0
LINE
 8
Layer0
10
25.905530346578
20
35.0292762873701
30
32.8417945927854
11
25.9375457676211
21
35.2323203803967
31
32.8417943850238
  0
LINE
 8
Layer0
10
25.8220541462821
20
34.8414369547432
30
32.8417948102372
11
25.905530346578
21
35.0292762873701
31
32.8417945927854
  0
LINE
 8
Layer0
10
32.818139421578
20
43.3489599851989
30
32.8418515032921
11
33.2184847630697
21
43.3277255732391
31
32.8418455962541
  0
LINE
 8
Layer0
10
32.4172938690078
20
43.3560406412907
30
32.8418573544206
11
32.818139421578
21
43.3489599851989
31
32.8418515032921
  0
LINE
 8
Layer0
10
32.0164483390482
20
43.3489587052366
30
32.8418631423376
11
32.4172938690078
21
43.3560406412907
31
32.8418573544206
  0
LINE
 8
Layer0
10
18.5841314802985
20
-50.3891507778638
30
32.8418876654432
11
18.7427227912918
21
-50.0062757594611
31
32.8418871857546
  0
LINE
 8
Layer0
10
18.7427227912918
20
-50.0062757594611
30
32.8418871857546
11
18.9950055810613
21
-49.6774933426315
31
32.8418867160575
  0
LINE
 8
Layer0
10
18.9950055810613
20
-49.6774933426315
30
32.8418867160575
11
19.3237871944013
21
-49.4252095057432
31
32.8418862883611
  0
LINE
 8
Layer0
10
19.3237871944013
20
-49.4252095057432
30
32.8418862883611
11
19.7066617076999
21
-49.2666169753615
31
32.8418859318122
  0
LINE
 8
Layer0
10
19.7066617076999
20
-49.2666169753615
30
32.8418859318122
11
20.1175368556059
21
-49.2125235703454
31
32.8418856707089
  0
LINE
 8
Layer0
10
20.1175368556059
20
-49.2125235703454
30
32.8418856707089
11
20.5284121757928
21
-49.266615666853
31
32.8418855228451
  0
LINE
 8
Layer0
10
-6.81586720777218
20
-51.2109416937874
30
32.8419011666028
11
-6.86996061283286
21
-50.8000665458532
31
32.8419007634542
  0
LINE
 8
Layer0
10
30.1505312646247
20
-45.720007375355
30
32.8419929845094
11
30.543895251541
21
-45.7974158147222
31
32.8419857457662
  0
LINE
 8
Layer0
10
30.543895251541
20
-45.7974158147222
30
32.8419857457662
11
30.9397479156788
21
-45.8608820339664
31
32.8419786665389
  0
LINE
 8
Layer0
10
30.9397479156788
20
-45.8608820339664
30
32.8419786665389
11
31.3375952542052
21
-45.9103268306596
31
32.8419717556621
  0
LINE
 8
Layer0
10
31.3375952542052
20
-45.9103268306596
30
32.8419717556621
11
31.7369407750406
21
-45.9456885003551
31
32.8419650217601
  0
LINE
 8
Layer0
10
33.3393224727236
20
-45.9456859471434
30
32.8419400204406
11
33.7386678808831
21
-45.9103230048255
31
32.841934292688
  0
LINE
 8
Layer0
10
33.7386678808831
20
-45.9103230048255
30
32.841934292688
11
34.1365150618601
21
-45.8608769402842
31
32.841928788662
  0
LINE
 8
Layer0
10
34.1365150618601
20
-45.8608769402842
30
32.841928788662
11
34.5323675237718
21
-45.7974094595486
31
32.8419235152315
  0
LINE
 8
Layer0
10
34.5323675237718
20
-45.7974094595486
30
32.8419235152315
11
34.9257312640375
21
-45.7199997666209
31
32.8419184789771
  0
LINE
 8
Layer0
10
-29.1490628305114
20
-44.8609772532752
30
32.8419056346952
11
-29.3076541414863
21
-45.2438522716564
31
32.8419061143838
  0
LINE
 8
Layer0
10
-29.5599369312444
20
-45.5726346884635
30
32.8419065840809
11
-29.8887185445807
21
-45.8249185253295
31
32.8419070117772
  0
LINE
 8
Layer0
10
-29.8887185445807
20
-45.8249185253295
30
32.8419070117772
11
-30.2715930578837
21
-45.983511055691
31
32.8419073683262
  0
LINE
 8
Layer0
10
-30.2715930578837
20
-45.983511055691
30
32.8419073683262
11
-30.6824682058015
21
-46.0376044606902
31
32.8419076294295
  0
LINE
 8
Layer0
10
-30.6824682058015
20
-46.0376044606902
30
32.8419076294295
11
-31.0933435260072
21
-45.9835123641701
31
32.8419077772933
  0
LINE
 8
Layer0
10
-66.2709875609011
20
-16.2185321602741
30
32.8419733364816
11
-64.6274869691827
21
-16.0021585399882
31
32.841977435171
  0
LINE
 8
Layer0
10
-67.9388183140964
20
-27.7468000525367
30
32.8418653489054
11
-69.1942117518308
21
-25.6745714118729
31
32.841823671664
  0
LINE
 8
Layer0
10
-69.5068463504855
20
-25.158517752086
30
32.8418218306597
11
-70.1126870595939
21
-24.1584802892637
31
32.8418340322241
  0
LINE
 8
Layer0
10
-67.3199759420953
20
-28.7021628214596
30
32.8418110274225
11
-67.5295666547559
21
-28.4223356919934
31
32.8418272422013
  0
LINE
 8
Layer0
10
-22.6361432360289
20
-51.0357911081317
30
32.8419235940738
11
-22.2357979622767
21
-51.014555419087
31
32.8419176497426
  0
LINE
 8
Layer0
10
-23.4378343185457
20
-51.0357923855346
30
32.8419361025385
11
-23.0369887660056
21
-51.0428730429055
31
32.8419297475655
  0
LINE
 8
Layer0
10
-23.0369887660056
20
-51.0428730429055
30
32.8419297475655
11
-22.6361432360289
21
-51.0357911081317
31
32.8419235940738
  0
LINE
 8
Layer0
10
-10.0355742487737
20
-4.05854013675311
30
32.8418929923933
11
-8.88974052309663
21
-5.0736569806138
31
32.8418836474583
  0
LINE
 8
Layer0
10
45.3586162296529
20
30.4814174302615
30
32.8417112044046
11
46.4400651922089
21
30.9293704708802
31
32.8417105346722
  0
LINE
 8
Layer0
10
46.4400651922089
20
30.9293704708802
30
32.8417105346722
11
47.3687258967316
21
31.6419594695944
31
32.8417097496738
  0
LINE
 8
Layer0
10
47.3687258967316
20
31.6419594695944
30
32.8417097496738
11
48.0813116508919
21
32.5706226637506
31
32.8417089029056
  0
LINE
 8
Layer0
10
48.0813116508919
20
32.5706226637506
30
32.8417089029056
11
48.5292609131476
21
33.6520731913558
31
32.8417080520736
  0
LINE
 8
Layer0
10
48.5292609131476
20
33.6520731913558
30
32.8417080520736
11
48.6820466815471
21
34.8126119861349
31
32.8417072551606
  0
LINE
 8
Layer0
10
48.6820466815471
20
34.8126119861349
30
32.8417072551606
11
48.5594612269431
21
38.6469578629163
31
32.8417035458314
  0
LINE
 8
Layer0
10
48.4085572538275
20
39.778635266546
30
32.841701855021
11
47.9606042132085
21
40.860084229102
31
32.8417013214953
  0
LINE
 8
Layer0
10
47.9606042132085
20
40.860084229102
30
32.8417013214953
11
47.248015214494
21
41.7887449336246
31
32.8417009794884
  0
LINE
 8
Layer0
10
47.248015214494
20
41.7887449336246
30
32.8417009794884
11
46.3193520203374
21
42.5013306877851
31
32.8417008523078
  0
LINE
 8
Layer0
10
46.3193520203374
20
42.5013306877851
30
32.8417008523078
11
45.237901492732
21
42.949279950041
31
32.8417009486204
  0
LINE
 8
Layer0
10
44.0773626979509
20
43.1020657184377
30
32.8416964953652
11
34.8048942742674
21
43.1020444532829
31
32.8418215572921
  0
LINE
 8
Layer0
10
-5.2498776272502
20
43.6501735513357
30
32.8418010945877
11
-5.661780942219
21
43.6957821321345
31
32.841801251843
  0
LINE
 8
Layer0
10
48.5594612269431
20
38.6469578629163
30
32.8417035458314
11
48.4085572538275
21
39.778635266546
31
32.841701855021
  0
LINE
 8
Layer0
10
25.8145345654815
20
-15.658563057431
30
32.8418476815279
11
25.8980107657774
21
-15.4707237248041
31
32.8418474640762
  0
LINE
 8
Layer0
10
25.685286351032
20
-15.8183966895588
30
32.8418478938508
11
25.8145345654815
21
-15.658563057431
31
32.8418476815279
  0
LINE
 8
Layer0
10
25.5190741746508
20
-15.9393322232957
30
32.8418480865753
11
25.685286351032
21
-15.8183966895588
31
32.8418478938508
  0
LINE
 8
Layer0
10
15.8144541462971
20
34.8414210180518
30
32.8417998022464
11
15.897930346593
21
35.0292603506787
31
32.8417995847947
  0
LINE
 8
Layer0
10
15.6852059318476
20
34.681587385924
30
32.8418000145693
11
15.8144541462971
21
34.8414210180518
31
32.8417998022464
  0
LINE
 8
Layer0
10
15.5189937554664
20
34.5606518521872
30
32.8418002072938
11
15.6852059318476
21
34.681587385924
31
32.8418000145693
  0
LINE
 8
Layer0
10
15.3271447022954
20
34.4868559736101
30
32.8418003672862
11
15.5189937554664
21
34.5606518521872
31
32.8418002072938
  0
LINE
 8
Layer0
10
15.1227329682626
20
34.4652288173644
30
32.8418004836431
11
15.3271447022954
21
34.4868559736101
31
32.8418003672862
  0
LINE
 8
Layer0
10
14.9196888752359
20
34.4972442384076
30
32.8418005484352
11
15.1227329682626
21
34.4652288173644
31
32.8418004836431
  0
LINE
 8
Layer0
10
14.7318495426089
20
34.5807204387035
30
32.8418005572468
11
14.9196888752359
21
34.4972442384076
31
32.8418005484352
  0
LINE
 8
Layer0
10
14.572015910481
20
34.7099686531531
30
32.8418005094775
11
14.7318495426089
21
34.5807204387035
31
32.8418005572468
  0
LINE
 8
Layer0
10
14.451080376744
20
34.8761808295342
30
32.8418004083827
11
14.572015910481
21
34.7099686531531
31
32.8418005094775
  0
LINE
 8
Layer0
10
14.3772844981669
20
35.0680298827052
30
32.8418002608519
11
14.451080376744
21
34.8761808295342
31
32.8418004083827
  0
LINE
 8
Layer0
10
14.355657341921
20
35.272441616738
30
32.841800076939
11
14.3772844981669
21
35.0680298827052
31
32.8418002608519
  0
LINE
 8
Layer0
10
14.3876727629641
20
35.4754857097646
30
32.8417998691773
11
14.355657341921
21
35.272441616738
31
32.841800076939
  0
LINE
 8
Layer0
10
14.47114896326
20
35.6633250423915
30
32.8417996517256
11
14.3876727629641
21
35.4754857097646
31
32.8417998691773
  0
LINE
 8
Layer0
10
-20.6496173860982
20
47.6249114992136
30
32.8419168059019
11
30.1503826138375
21
47.6249923961483
31
32.8419168059019
  0
LINE
 8
Layer0
10
-20.6495160626876
20
-16.0020885068205
30
32.8419541955427
11
-20.6496173860982
21
47.6249114992136
31
32.8419168059019
  0
LINE
 8
Layer0
10
-44.4746958564534
20
-28.7021264476716
30
32.8420726843604
11
-67.3199759420953
21
-28.7021628214596
31
32.8418110274225
  0
LINE
 8
Layer0
10
-44.4746882521415
20
-33.4773264476126
30
32.8420501985575
11
-44.4746958564534
21
-28.7021264476716
31
32.8420726843604
  0
LINE
 8
Layer0
10
-59.9642397333209
20
-33.477351114354
30
32.8419999028639
11
-44.4746882521415
21
-33.4773264476126
31
32.8420501985575
  0
LINE
 8
Layer0
10
-31.8050045366142
20
-43.3275742332946
30
32.8419053514569
11
-31.476222923278
21
-43.0752903964285
31
32.8419049237605
  0
LINE
 8
Layer0
10
-31.476222923278
20
-43.0752903964285
30
32.8419049237605
11
-31.0933484099752
21
-42.9166978660671
31
32.8419045672115
  0
LINE
 8
Layer0
10
-29.5599809570734
20
-17.9275706604362
30
32.8418776475684
11
-29.3076971201305
21
-18.2563522738182
31
32.8418778661537
  0
LINE
 8
Layer0
10
-29.3076971201305
20
-18.2563522738182
30
32.8418778661537
11
-29.149104589683
21
-18.6392267871454
31
32.8418781879869
  0
LINE
 8
Layer0
10
-29.149104589683
20
-18.6392267871454
30
32.8418781879869
11
-29.0950111845942
21
-19.0501019350645
31
32.8418785911355
  0
LINE
 8
Layer0
10
-29.0950111845942
20
-19.0501019350645
30
32.8418785911355
11
-29.1491032810275
21
-19.4609772552481
31
32.8418790481257
  0
LINE
 8
Layer0
10
20.9111386052642
20
43.8625623545185
30
32.8417878525586
11
20.5282640919162
21
43.7039698240802
31
32.8417882091075
  0
LINE
 8
Layer0
10
-23.8381796599597
20
-51.0145579722986
30
32.8419426510621
11
-23.7279213525336
21
-51.0204060994128
31
32.8418846145512
  0
LINE
 8
Layer0
10
-23.7279213525336
20
-51.0204060994128
30
32.8418846145512
11
-23.4378343185457
21
-51.0357923855346
31
32.8419361025385
  0
LINE
 8
Layer0
10
25.6928059318326
20
34.6816033226154
30
32.8417950225601
11
25.8220541462821
21
34.8414369547432
31
32.8417948102372
  0
LINE
 8
Layer0
10
25.5265937554514
20
34.5606677888786
30
32.8417952152846
11
25.6928059318326
21
34.6816033226154
31
32.8417950225601
  0
LINE
 8
Layer0
10
25.3347447022804
20
34.4868719103015
30
32.8417953752769
11
25.5265937554514
21
34.5606677888786
31
32.8417952152846
  0
LINE
 8
Layer0
10
25.1303329682476
20
34.4652447540558
30
32.8417954916339
11
25.3347447022804
21
34.4868719103015
31
32.8417953752769
  0
LINE
 8
Layer0
10
-48.3576642222228
20
-38.8938826068396
30
32.841908948507
11
-48.6099470119134
21
-39.2226650236074
31
32.841909418204
  0
LINE
 8
Layer0
10
-48.6099470119134
20
-39.2226650236074
30
32.841909418204
11
-48.9387286251822
21
-39.4749488604334
31
32.8419098459004
  0
LINE
 8
Layer0
10
-48.9387286251822
20
-39.4749488604334
30
32.8419098459004
11
-49.3216031384221
21
-39.6335413907566
31
32.8419102024494
  0
LINE
 8
Layer0
10
-49.3216031384221
20
-39.6335413907566
30
32.8419102024494
11
-49.7324782862857
21
-39.6876347957219
31
32.8419104635526
  0
LINE
 8
Layer0
10
-49.7324782862857
20
-39.6876347957219
30
32.8419104635526
11
-50.1433536064495
21
-39.6335426991748
31
32.8419106114165
  0
LINE
 8
Layer0
10
-50.1433536064495
20
-39.6335426991748
30
32.8419106114165
11
-50.5262286248479
21
-39.4749513881033
31
32.8419106359642
  0
LINE
 8
Layer0
10
-50.5262286248479
20
-39.4749513881033
30
32.8419106359642
11
-50.8550110417082
21
-39.2226685982726
31
32.841910535523
  0
LINE
 8
Layer0
10
-50.8550110417082
20
-39.2226685982726
30
32.841910535523
11
-51.1072948786596
21
-38.8938869848924
31
32.8419103169377
  0
LINE
 8
Layer0
10
-50.5164380128833
20
-44.1098612293238
30
32.8417864912467
11
-50.8190618767935
21
-43.9845108851135
31
32.841770921698
  0
LINE
 8
Layer0
10
-38.2198350610966
20
-49.1043809027653
30
32.8417785376459
11
-38.5697671617417
21
-49.0583120345596
31
32.8417628418448
  0
LINE
 8
Layer0
10
-50.8190618767935
20
-43.9845108851135
30
32.841770921698
11
-51.1293372783267
21
-43.7464289807813
31
32.8417870699993
  0
LINE
 8
Layer0
10
-38.5697671617417
20
-49.0583120345596
30
32.8417628418448
11
-38.8058062487374
21
-48.9605418838313
31
32.8417787667052
  0
LINE
 8
Layer0
10
-38.2198350610966
20
-49.1043809027653
30
32.8417785376459
11
-38.8058062487374
21
-48.9605418838313
31
32.8417787667052
  0
LINE
 8
Layer0
10
-60.3751148812567
20
-33.5314445193822
30
32.841995053398
11
-59.9642397333209
21
-33.477351114354
31
32.8419999028639
  0
LINE
 8
Layer0
10
-60.5061951309409
20
-33.5857399811038
30
32.8419931854649
11
-60.3751148812567
21
-33.5314445193822
31
32.841995053398
  0
LINE
 8
Layer0
10
-60.6000612295226
20
-33.6246207672999
30
32.8419918478446
11
-60.5061951309409
21
-33.5857399811038
31
32.8419931854649
  0
LINE
 8
Layer0
10
-60.757989394583
20
-33.6900370497792
30
32.8419895973206
11
-60.6000612295226
21
-33.6246207672999
31
32.8419918478446
  0
LINE
 8
Layer0
10
-61.0867710079467
20
-33.9423208866852
30
32.8419839064547
11
-60.757989394583
21
-33.6900370497792
31
32.8419895973206
  0
LINE
 8
Layer0
10
-61.3390537977343
20
-34.2711033035337
30
32.841978368623
11
-61.0867710079467
21
-33.9423208866852
31
32.8419839064547
  0
LINE
 8
Layer0
10
-61.4976451087386
20
-34.6539783219552
30
32.8419733612199
11
-61.3390537977343
21
-34.2711033035337
31
32.841978368623
  0
LINE
 8
Layer0
10
-61.5517372051995
20
-35.064853642175
30
32.8419692254915
11
-61.4976451087386
21
-34.6539783219552
31
32.8419733612199
  0
LINE
 8
Layer0
10
24.4511607959284
20
-15.6238032459486
30
32.8418482876642
11
24.5720963296654
21
-15.7900154223298
31
32.8418483887589
  0
LINE
 8
Layer0
10
24.3773649173513
20
-15.4319541927776
30
32.8418481401333
11
24.4511607959284
21
-15.6238032459486
31
32.8418482876642
  0
LINE
 8
Layer0
10
24.3557377611054
20
-15.2275424587449
30
32.8418479562204
11
24.3773649173513
21
-15.4319541927776
31
32.8418481401333
  0
LINE
 8
Layer0
10
24.3877531821485
20
-15.0244983657183
30
32.8418477484588
11
24.3557377611054
21
-15.2275424587449
31
32.8418479562204
  0
LINE
 8
Layer0
10
24.4712293824444
20
-14.8366590330914
30
32.841847531007
11
24.3877531821485
21
-15.0244983657183
31
32.8418477484588
  0
LINE
 8
Layer0
10
24.6004775968939
20
-14.6768254009635
30
32.8418473186842
11
24.4712293824444
21
-14.8366590330914
31
32.841847531007
  0
LINE
 8
Layer0
10
24.7666897732751
20
-14.5558898672267
30
32.8418471259597
11
24.6004775968939
21
-14.6768254009635
31
32.8418473186842
  0
LINE
 8
Layer0
10
24.9585388264461
20
-14.4820939886497
30
32.8418469659673
11
24.7666897732751
21
-14.5558898672267
31
32.8418471259597
  0
LINE
 8
Layer0
10
25.162950560479
20
-14.4604668324039
30
32.8418468496104
11
24.9585388264461
21
-14.4820939886497
31
32.8418469659673
  0
LINE
 8
Layer0
10
25.3659946535056
20
-14.4924822534471
30
32.8418467848183
11
25.162950560479
21
-14.4604668324039
31
32.8418468496104
  0
LINE
 8
Layer0
10
25.5538339861326
20
-14.5759584537431
30
32.8418467760067
11
25.3659946535056
21
-14.4924822534471
31
32.8418467848183
  0
LINE
 8
Layer0
10
25.7136676182606
20
-14.7052066681926
30
32.841846823776
11
25.5538339861326
21
-14.5759584537431
31
32.8418467760067
  0
LINE
 8
Layer0
10
25.8346031519975
20
-14.8714188445738
30
32.8418469248708
11
25.7136676182606
21
-14.7052066681926
31
32.841846823776
  0
LINE
 8
Layer0
10
25.9083990305747
20
-15.0632678977448
30
32.8418470724016
11
25.8346031519975
21
-14.8714188445738
31
32.8418469248708
  0
LINE
 8
Layer0
10
25.9300261868205
20
-15.2676796317775
30
32.8418472563145
11
25.9083990305747
21
-15.0632678977448
31
32.8418470724016
  0
LINE
 8
Layer0
10
25.8980107657774
20
-15.4707237248041
30
32.8418474640762
11
25.9300261868205
21
-15.2676796317775
31
32.8418472563145
  0
LINE
 8
Layer0
10
-30.1650715194395
20
-50.5784439602238
30
32.8417919594049
11
-35.0997905543962
21
-49.870261803319
31
32.8417930871687
  0
LINE
 8
Layer0
10
-25.4246606741057
20
-50.7888768409899
30
32.8417916242871
11
-30.1650715194395
21
-50.5784439602238
31
32.8417919594049
  0
LINE
 8
Layer0
10
-20.6494606716414
20
-50.7888692386784
30
32.8418961093948
11
-20.6494555958935
21
-53.9750885018646
31
32.8418755464148
  0
LINE
 8
Layer0
10
30.1505444040422
20
-53.97500760493
30
32.8418755464148
11
-20.6494555958935
21
-53.9750885018646
31
32.8418755464148
  0
LINE
 8
Layer0
10
30.1505312646247
20
-45.720007375355
30
32.8419929845094
11
30.1505444040422
21
-53.97500760493
31
32.8418755464148
  0
LINE
 8
Layer0
10
-6.10454482206538
20
46.5954910474589
30
32.841798437024
11
-5.725021797056
21
46.7619445154177
31
32.8417980739148
  0
LINE
 8
Layer0
10
-5.31534937789173
20
46.8244984320182
30
32.8417978045544
11
-4.90344606292291
21
46.7788898512194
31
32.8417976472991
  0
LINE
 8
Layer0
10
-4.90344606292291
20
46.7788898512194
30
32.8417976472991
11
-4.51738238236235
21
46.628226922431
31
32.8417976128657
  0
LINE
 8
Layer0
10
-4.51738238236235
20
46.628226922431
30
32.8417976128657
11
-4.1834679380397
21
46.3827770752677
31
32.8417977036006
  0
LINE
 8
Layer0
10
-4.1834679380397
20
46.3827770752677
30
32.8417977036006
11
-3.92445844751589
21
46.0592673111885
31
32.8417979133206
  0
LINE
 8
Layer0
10
-3.92445844751589
20
46.0592673111885
30
32.8417979133206
11
-3.75800497953683
21
45.6797442859904
31
32.8417982277335
  0
LINE
 8
Layer0
10
-3.75800497953683
20
45.6797442859904
30
32.8417982277335
11
-3.69545106286781
21
45.2700718666491
31
32.8417986254127
  0
LINE
 8
Layer0
10
-3.69545106286781
20
45.2700718666491
30
32.8417986254127
11
-3.74105964355457
21
44.858168551527
31
32.8417990792568
  0
LINE
 8
Layer0
10
-6.64076855762603
20
44.4154046721654
30
32.8418009858214
11
-6.80722202560514
21
44.7949276973635
31
32.8418006714085
  0
LINE
 8
Layer0
10
-6.80722202560514
20
44.7949276973635
30
32.8418006714085
11
-6.86977594227412
21
45.2046001167049
31
32.8418002737293
  0
LINE
 8
Layer0
10
-6.86977594227412
20
45.2046001167049
30
32.8418002737293
11
-6.82416736158736
21
45.6165034318269
31
32.8417998198852
  0
LINE
 8
Layer0
10
-6.82416736158736
20
45.6165034318269
30
32.8417998198852
11
-6.67350443294678
21
46.0025671125066
31
32.8417993408047
  0
LINE
 8
Layer0
10
-6.67350443294678
20
46.0025671125066
30
32.8417993408047
11
-6.42805458595717
21
46.336481556906
31
32.8417988691366
  0
LINE
 8
Layer0
10
-6.42805458595717
20
46.336481556906
30
32.8417988691366
11
-6.10454482206538
21
46.5954910474589
31
32.841798437024
  0
LINE
 8
Layer0
10
18.5839798209974
20
44.8264987430216
30
32.8417880017627
11
18.529886415929
21
45.2373738909808
31
32.841787598614
  0
LINE
 8
Layer0
10
-63.8986411219684
20
-19.6589401668528
30
32.8418965493587
11
-64.0062491420058
21
-19.2587339728747
31
32.8418961840104
  0
LINE
 8
Layer0
10
-64.0062491420058
20
-19.2587339728747
30
32.8418961840104
11
-64.0066095227094
21
-18.8443134692886
31
32.8418957504092
  0
LINE
 8
Layer0
10
-64.0066095227094
20
-18.8443134692886
30
32.8418957504092
11
-63.8996977047299
21
-18.4439207285517
31
32.8418952781042
  0
LINE
 8
Layer0
10
-63.8996977047299
20
-18.4439207285517
30
32.8418952781042
11
-63.6927995517823
21
-18.0848418542648
31
32.8418947992822
  0
LINE
 8
Layer0
10
-63.6927995517823
20
-18.0848418542648
30
32.8418947992822
11
-63.4000148310747
21
-17.7915474783047
31
32.8418943465742
  0
LINE
 8
Layer0
10
-63.4000148310747
20
-17.7915474783047
30
32.8418943465742
11
-63.0412963374738
21
-17.5840251277013
31
32.8418939508315
  0
LINE
 8
Layer0
10
-63.0412963374738
20
-17.5840251277013
30
32.8418939508315
11
-62.641090143508
21
-17.4764171077011
31
32.8418936390233
  0
LINE
 8
Layer0
10
-62.641090143508
20
-17.4764171077011
30
32.8418936390233
11
-62.2266696399243
21
-17.4760567270367
31
32.8418934323988
  0
LINE
 8
Layer0
10
20.5284170595665
20
-52.3334301650823
30
32.8418887329268
11
20.1175419116605
21
-52.3875235700985
31
32.8418889940301
  0
LINE
 8
Layer0
10
20.1175419116605
20
-52.3875235700985
30
32.8418889940301
11
19.7066665914736
21
-52.3334314735908
31
32.8418891418939
  0
LINE
 8
Layer0
10
19.7066665914736
20
-52.3334314735908
30
32.8418891418939
11
19.3237915730731
21
-52.174840162545
31
32.8418891664417
  0
LINE
 8
Layer0
10
19.3237915730731
20
-52.174840162545
30
32.8418891664417
11
18.9950091562318
21
-51.9225573727242
31
32.8418890660005
  0
LINE
 8
Layer0
10
18.9950091562318
20
-51.9225573727242
30
32.8418890660005
11
18.7427253193191
21
-51.5937757593376
31
32.8418888474151
  0
LINE
 8
Layer0
10
18.7427253193191
20
-51.5937757593376
30
32.8418888474151
11
18.5841327889017
21
-51.2109012460004
31
32.841888525582
  0
LINE
 8
Layer0
10
18.5841327889017
20
-51.2109012460004
30
32.841888525582
11
18.5300393838411
21
-50.8000260980663
31
32.8418881224333
  0
LINE
 8
Layer0
10
18.5300393838411
20
-50.8000260980663
30
32.8418881224333
11
18.5841314802985
21
-50.3891507778638
31
32.8418876654432
  0
LINE
 8
Layer0
10
-10.0355876599216
20
4.36311762260387
30
32.8419629348971
11
-10.9051881656928
21
3.10327950048535
31
32.8419531657427
  0
LINE
 8
Layer0
10
-8.88975716731501
20
5.37823811586192
30
32.8419704512366
11
-10.0355876599216
21
4.36311762260387
31
32.8419629348971
  0
LINE
 8
Layer0
10
-7.5342881911789
20
6.08964586700422
30
32.8419752779388
11
-8.88975716731501
21
5.37823811586192
31
32.8419704512366
  0
LINE
 8
Layer0
10
-6.0479556614771
20
6.45599644339634
30
32.8419771344935
11
-7.5342881911789
21
6.08964586700422
31
32.8419752779388
  0
LINE
 8
Layer0
10
-1.67531823962241
20
-5.07364549189156
30
32.8418778908296
11
-0.529487747015808
21
-4.05852499863351
31
32.841885407169
  0
LINE
 8
Layer0
10
-8.88974052309663
20
-5.0736569806138
30
32.8418836474583
11
-7.53426928119154
21
-5.78506041467596
31
32.8418766576062
  0
LINE
 8
Layer0
10
-3.03078721575851
20
-5.78505324303386
30
32.8418730641273
11
-1.67531823962241
21
-5.07364549189156
31
32.8418778908296
  0
LINE
 8
Layer0
10
-7.53426928119154
20
-5.78506041467596
30
32.8418766576062
11
-6.04793558470044
21
-6.15140625719816
31
32.8418724290617
  0
LINE
 8
Layer0
10
-51.1072948786596
20
-38.8938869848924
30
32.8419103169377
11
-51.2658874091327
21
-38.5110124715775
31
32.8419099951045
  0
LINE
 8
Layer0
10
-31.8050009613015
20
-45.5726382632948
30
32.8419077013998
11
-32.0572847982444
21
-45.2438566499128
31
32.8419074828145
  0
LINE
 8
Layer0
10
-32.0572847982444
20
-45.2438566499128
30
32.8419074828145
11
-32.215877328692
21
-44.8609821365857
31
32.8419071609813
  0
LINE
 8
Layer0
10
-32.215877328692
20
-44.8609821365857
30
32.8419071609813
11
-32.2699707337807
21
-44.4501069886665
31
32.8419067578327
  0
LINE
 8
Layer0
10
-32.2699707337807
20
-44.4501069886665
30
32.8419067578327
11
-32.2158786373474
21
-44.0392316684829
31
32.8419063008425
  0
LINE
 8
Layer0
10
-32.2158786373474
20
-44.0392316684829
30
32.8419063008425
11
-32.0572873263724
21
-43.6563566501016
31
32.8419058211539
  0
LINE
 8
Layer0
10
-32.0572873263724
20
-43.6563566501016
30
32.8419058211539
11
-31.8050045366142
21
-43.3275742332946
31
32.8419053514569
  0
LINE
 8
Layer0
10
-62.2266696399243
20
-17.4760567270367
30
32.8418934323988
11
-61.8262768991794
21
-17.5829685450547
31
32.8418933450392
  0
LINE
 8
Layer0
10
-61.8262768991794
20
-17.5829685450547
30
32.8418933450392
11
-61.4671980248749
21
-17.7898666980373
31
32.8418933828978
  0
LINE
 8
Layer0
10
-61.4671980248749
20
-17.7898666980373
30
32.8418933828978
11
-61.1739036488886
21
-18.0826514187741
31
32.8418935433946
  0
LINE
 8
Layer0
10
-61.1739036488886
20
-18.0826514187741
30
32.8418935433946
11
-60.9663812982524
21
-18.4413699123966
31
32.841893815592
  0
LINE
 8
Layer0
10
-60.9663812982524
20
-18.4413699123966
30
32.841893815592
11
-60.858773278215
21
-18.8415761063746
31
32.8418941809404
  0
LINE
 8
Layer0
10
-60.858773278215
20
-18.8415761063746
30
32.8418941809404
11
-60.8584128975115
21
-19.2559966099607
31
32.8418946145416
  0
LINE
 8
Layer0
10
-60.8584128975115
20
-19.2559966099607
30
32.8418946145416
11
-60.965324715491
21
-19.6563893506977
31
32.8418950868467
  0
LINE
 8
Layer0
10
-60.965324715491
20
-19.6563893506977
30
32.8418950868467
11
-61.1722228684386
21
-20.0154682249846
31
32.8418955656686
  0
LINE
 8
Layer0
10
-61.1722228684386
20
-20.0154682249846
30
32.8418955656686
11
-61.4650075891461
21
-20.3087626009446
31
32.8418960183766
  0
LINE
 8
Layer0
10
-61.4650075891461
20
-20.3087626009446
30
32.8418960183766
11
-61.823726082747
21
-20.5162849515481
31
32.8418964141193
  0
LINE
 8
Layer0
10
-61.823726082747
20
-20.5162849515481
30
32.8418964141193
11
-62.2239322767127
21
-20.6238929715482
31
32.8418967259274
  0
LINE
 8
Layer0
10
-62.6383527802966
20
-20.6242533522127
30
32.841896932552
11
-63.0387455210415
21
-20.5173415341947
31
32.8418970199117
  0
LINE
 8
Layer0
10
-63.0387455210415
20
-20.5173415341947
30
32.8418970199117
11
-63.397824395346
21
-20.3104433812121
31
32.841896982053
  0
LINE
 8
Layer0
10
-5.725021797056
20
46.7619445154177
30
32.8417980739148
11
-5.31534937789173
21
46.8244984320182
31
32.8417978045544
  0
LINE
 8
Layer0
10
-3.74105964355457
20
44.858168551527
30
32.8417990792568
11
-3.89172257219518
21
44.4721048708473
31
32.8417995583373
  0
LINE
 8
Layer0
10
-3.89172257219518
20
44.4721048708473
30
32.8417995583373
11
-4.13717241918487
21
44.1381904264479
31
32.8418000300055
  0
LINE
 8
Layer0
10
-4.13717241918487
20
44.1381904264479
30
32.8418000300055
11
-4.46068218307639
21
43.879180935895
31
32.8418004621181
  0
LINE
 8
Layer0
10
-4.46068218307639
20
43.879180935895
30
32.8418004621181
11
-4.84020520808581
21
43.7127274679363
31
32.8418008252272
  0
LINE
 8
Layer0
10
-4.84020520808581
20
43.7127274679363
30
32.8418008252272
11
-5.2498776272502
21
43.6501735513357
31
32.8418010945877
  0
LINE
 8
Layer0
10
-5.661780942219
20
43.6957821321345
30
32.841801251843
11
-6.04784462277959
21
43.8464450609229
31
32.8418012862764
  0
LINE
 8
Layer0
10
-6.04784462277959
20
43.8464450609229
30
32.8418012862764
11
-6.38175906710224
21
44.0918949080862
31
32.8418011955414
  0
LINE
 8
Layer0
10
-6.38175906710224
20
44.0918949080862
30
32.8418011955414
11
-6.64076855762603
21
44.4154046721654
31
32.8418009858214
  0
LINE
 8
Layer0
10
18.7425723514361
20
44.4436242296735
30
32.8417883235959
11
18.5839798209974
21
44.8264987430216
31
32.8417880017627
  0
LINE
 8
Layer0
10
18.529886415929
20
45.2373738909808
30
32.841787598614
11
18.5839785123927
21
45.648249211221
31
32.8417871416238
  0
LINE
 8
Layer0
10
18.5839785123927
20
45.648249211221
30
32.8417871416238
11
18.7425698234058
21
46.0311242296715
31
32.8417866619353
  0
LINE
 8
Layer0
10
18.7425698234058
20
46.0311242296715
30
32.8417866619353
11
18.9948526132074
21
46.3599066465556
31
32.8417861922382
  0
LINE
 8
Layer0
10
18.9948526132074
20
46.3599066465556
30
32.8417861922382
11
19.3236342265895
21
46.6121904835015
31
32.8417857645419
  0
LINE
 8
Layer0
10
19.3236342265895
20
46.6121904835015
30
32.8417857645419
11
19.7065087399375
21
46.7707830139399
31
32.8417854079929
  0
LINE
 8
Layer0
10
19.7065087399375
20
46.7707830139399
30
32.8417854079929
11
20.1173838878966
21
46.824876419008
31
32.8417851468896
  0
LINE
 8
Layer0
10
20.1173838878966
20
46.824876419008
30
32.8417851468896
11
20.5282592081368
21
46.7707843225441
31
32.8417849990258
  0
LINE
 8
Layer0
10
48.6820466815471
20
34.8126119861349
30
32.8417072551606
11
48.6820575105467
21
38.6472261212148
31
32.8416814446054
  0
LINE
 8
Layer0
10
48.6820575105467
20
38.6472261212148
30
32.8416814446054
11
48.5302602628239
21
39.8002265015432
31
32.8416965914633
  0
LINE
 8
Layer0
10
48.5302602628239
20
39.8002265015432
30
32.8416965914633
11
48.0852169234428
21
40.8746513279437
31
32.8416958555365
  0
LINE
 8
Layer0
10
48.0852169234428
20
40.8746513279437
30
32.8416958555365
11
47.3772564605132
21
41.7972803240423
31
32.8416953677717
  0
LINE
 8
Layer0
10
47.3772564605132
20
41.7972803240423
30
32.8416953677717
11
46.4546252096238
21
42.5052378484714
31
32.8416951614092
  0
LINE
 8
Layer0
10
46.4546252096238
20
42.5052378484714
30
32.8416951614092
11
45.3801989658025
21
42.9502777658964
31
32.8416952505123
  0
LINE
 8
Layer0
10
45.3801989658025
20
42.9502777658964
30
32.8416952505123
11
45.237901492732
21
42.949279950041
31
32.8417009486204
  0
LINE
 8
Layer0
10
-22.2357979622767
20
-51.014555419087
30
32.8419176497426
11
-21.8364525541172
21
-50.979192476769
31
32.8419119219899
  0
LINE
 8
Layer0
10
-31.0933435260072
20
-45.9835123641701
30
32.8419077772933
11
-31.4762185444321
21
-45.8249210531171
31
32.841907801841
  0
LINE
 8
Layer0
10
-31.4762185444321
20
-45.8249210531171
30
32.841907801841
11
-31.8050009613015
21
-45.5726382632948
31
32.8419077013998
  0
LINE
 8
Layer0
10
-30.6825086563176
20
-20.6376044626632
30
32.8418810428599
11
-31.0933839765233
21
-20.583512366143
31
32.8418811907238
  0
LINE
 8
Layer0
10
-31.0933839765233
20
-20.583512366143
30
32.8418811907238
11
-31.4762589949482
21
-20.42492105509
31
32.8418812152715
  0
LINE
 8
Layer0
10
-31.4762589949482
20
-20.42492105509
30
32.8418812152715
11
-31.8050414118177
21
-20.1726382652678
31
32.8418811148303
  0
LINE
 8
Layer0
10
-32.2159177792081
20
-19.4609821385586
30
32.8418805744118
11
-32.2700111842969
21
-19.0501069906395
31
32.8418801712631
  0
LINE
 8
Layer0
10
-32.2700111842969
20
-19.0501069906395
30
32.8418801712631
11
-32.2159190878635
21
-18.6392316704559
31
32.841879714273
  0
LINE
 8
Layer0
10
-32.2159190878635
20
-18.6392316704559
30
32.841879714273
11
-32.0573277768885
21
-18.2563566520746
31
32.8418792345843
  0
LINE
 8
Layer0
10
-32.0573277768885
20
-18.2563566520746
30
32.8418792345843
11
-31.8050449871305
21
-17.9275742352676
31
32.8418787648873
  0
LINE
 8
Layer0
10
-31.8050449871305
20
-17.9275742352676
30
32.8418787648873
11
-31.4762633737942
21
-17.6752903984015
31
32.841878337191
  0
LINE
 8
Layer0
10
-31.4762633737942
20
-17.6752903984015
30
32.841878337191
11
-31.0933888604913
21
-17.5166978680401
31
32.841877980642
  0
LINE
 8
Layer0
10
-31.0933888604913
20
-17.5166978680401
30
32.841877980642
11
-30.6825137125734
21
-17.4626044630408
31
32.8418777195387
  0
LINE
 8
Layer0
10
-30.6825137125734
20
-17.4626044630408
30
32.8418777195387
11
-30.2716383923678
21
-17.516696559561
31
32.8418775716749
  0
LINE
 8
Layer0
10
-30.2716383923678
20
-17.516696559561
30
32.8418775716749
11
-29.8887633739429
21
-17.675287870614
31
32.8418775471271
  0
LINE
 8
Layer0
10
-29.8887633739429
20
-17.675287870614
30
32.8418775471271
11
-29.5599809570734
21
-17.9275706604362
31
32.8418776475684
  0
LINE
 8
Layer0
10
-30.2716335083998
20
-20.5835110576639
30
32.8418807817567
11
-30.6825086563176
21
-20.6376044626632
31
32.8418810428599
  0
LINE
 8
Layer0
10
30.35493943875
20
30.328592721316
30
32.8416294321179
11
10.0844101593657
21
30.3285604513663
31
32.8415958431304
  0
LINE
 8
Layer0
10
-4.51713982223695
20
6.45599888116853
30
32.8419759130044
11
-6.0479556614771
21
6.45599644339634
31
32.8419771344935
  0
LINE
 8
Layer0
10
-3.03080612574586
20
6.08965303864633
30
32.8419716844599
11
-4.51713982223695
21
6.45599888116853
31
32.8419759130044
  0
LINE
 8
Layer0
10
-1.6753348838408
20
5.37824960458417
30
32.8419646946079
11
-3.03080612574586
21
6.08965303864633
31
32.8419716844599
  0
LINE
 8
Layer0
10
-0.52950115816367
20
4.36313276072349
30
32.8419553496729
11
-1.6753348838408
21
5.37824960458417
31
32.8419646946079
  0
LINE
 8
Layer0
10
-25.4246606741057
20
-50.7888768409899
30
32.8417916242871
11
-25.0312251834593
21
-50.8662852866657
31
32.8419633750682
  0
LINE
 8
Layer0
10
-21.8364525541172
20
-50.979192476769
30
32.8419119219899
11
-21.4386053731401
21
-50.9297464122278
31
32.841906417964
  0
LINE
 8
Layer0
10
-24.6353725193214
20
-50.9297515059099
30
32.8419562958409
11
-24.2375251807951
21
-50.9791963026031
31
32.8419493849641
  0
LINE
 8
Layer0
10
-25.0312251834593
20
-50.8662852866657
30
32.8419633750682
11
-24.6353725193214
21
-50.9297515059099
31
32.8419562958409
  0
LINE
 8
Layer0
10
-21.0427529112285
20
-50.8662789314921
30
32.8419011445335
11
-20.6494606716414
21
-50.7888692386784
31
32.8418961093948
  0
LINE
 8
Layer0
10
-24.2375251807951
20
-50.9791963026031
30
32.8419493849641
11
-23.8381796599597
21
-51.0145579722986
31
32.8419426510621
  0
LINE
 8
Layer0
10
-21.4386053731401
20
-50.9297464122278
30
32.841906417964
11
-21.0427529112285
21
-50.8662789314921
31
32.8419011445335
  0
LINE
 8
Layer0
10
-11.6325377034586
20
0.15228619982604
30
32.8419292379104
11
-11.4480158241263
21
-1.36736797450465
31
32.841916469831
  0
LINE
 8
Layer0
10
-11.4480206641024
20
1.67194096183866
30
32.8419417115213
11
-11.6325377034586
21
0.15228619982604
31
32.8419292379104
  0
LINE
 8
Layer0
10
-10.9051881656928
20
3.10327950048535
30
32.8419531657427
11
-11.4480206641024
21
1.67194096183866
31
32.8419417115213
 0
ENDSEC
 0
EOF
