 0
SECTION
 2
ENTITIES
  0
LINE
 8
Layer0
10
7.6199999990842
20
-41.9100000067548
30
4.77519958368282
11
7.61999999908424
21
-47.6039949462329
31
4.77519963089528
  0
LINE
 8
Layer0
10
5.07999999907298
20
-47.6039949462458
30
4.77519966850861
11
7.61999999908424
21
-47.6039949462329
31
4.77519963089528
  0
LINE
 8
Layer0
10
5.07999999907298
20
-47.6039949462458
30
4.77519966850861
11
5.07999999907298
21
-69.6004356099386
31
4.77519999814062
  0
LINE
 8
Layer0
10
6.84649725109267
20
-69.5136531648204
30
4.77520000000005
11
5.07999999907298
21
-69.6004356099386
31
4.77519999814062
  0
LINE
 8
Layer0
10
13.6270589918994
20
-68.5078518429331
30
4.77520000000005
11
6.84649725109267
21
-69.5136531648204
31
4.77520000000005
  0
LINE
 8
Layer0
10
20.276384705297
20
-66.8422824576622
30
4.77520000000002
11
13.6270589918994
21
-68.5078518429331
31
4.77520000000005
  0
LINE
 8
Layer0
10
26.7304377497743
20
-64.5329853526808
30
4.77520000000005
11
20.276384705297
21
-66.8422824576622
31
4.77520000000002
  0
LINE
 8
Layer0
10
32.9270620663686
20
-61.6022003215
30
4.77520000000008
11
26.7304377497743
21
-64.5329853526808
31
4.77520000000005
  0
LINE
 8
Layer0
10
38.8065807754921
20
-58.0781524261002
30
4.7752
11
32.9270620663686
21
-61.6022003215
31
4.77520000000008
  0
LINE
 8
Layer0
10
44.3123708979033
20
-53.9947801741546
30
4.77520000000001
11
38.8065807754921
21
-58.0781524261002
31
4.7752
  0
LINE
 8
Layer0
10
47.0511874962181
20
-51.5124615043337
30
4.77519999830352
11
44.3123708979033
21
-53.9947801741546
31
4.77520000000001
  0
LINE
 8
Layer0
10
46.6417780087737
20
-50.9789086724142
30
4.77519999730192
11
47.0511874962181
21
-51.5124615043337
31
4.77519999830352
  0
LINE
 8
Layer0
10
46.3245941673215
20
-50.2131591406147
30
4.77519999838506
11
46.6417780087737
21
-50.9789086724142
31
4.77519999730192
  0
LINE
 8
Layer0
10
46.2164086657893
20
-49.3914086724142
30
4.77519999958051
11
46.3245941673215
21
-50.2131591406147
31
4.77519999838506
  0
LINE
 8
Layer0
10
46.3245941673215
20
-48.5696582042137
30
4.77520000080679
11
46.2164086657893
21
-49.3914086724142
31
4.77519999958051
  0
LINE
 8
Layer0
10
46.6417780087737
20
-47.8039086724142
30
4.77520000198034
11
46.3245941673215
21
-48.5696582042137
31
4.77520000080679
  0
LINE
 8
Layer0
10
47.146344635522
20
-47.1463446421469
30
4.77520000302118
11
46.6417780087737
21
-47.8039086724142
31
4.77520000198034
  0
LINE
 8
Layer0
10
47.8039086657893
20
-46.6417780153986
30
4.77520000385838
11
47.146344635522
21
-47.1463446421469
31
4.77520000302118
  0
LINE
 8
Layer0
10
48.5696581975888
20
-46.3245941739464
30
4.77520000443489
11
47.8039086657893
21
-46.6417780153986
31
4.77520000385838
  0
LINE
 8
Layer0
10
49.3914086657893
20
-46.2164086724142
30
4.77520000471141
11
48.5696581975888
21
-46.3245941739464
31
4.77520000443489
  0
LINE
 8
Layer0
10
50.2131591339898
20
-46.3245941739464
30
4.77520000466911
11
49.3914086657893
21
-46.2164086724142
31
4.77520000471141
  0
LINE
 8
Layer0
10
50.9789086657893
20
-46.6417780153986
30
4.77520000431086
11
50.2131591339898
21
-46.3245941739464
31
4.77520000466911
  0
LINE
 8
Layer0
10
51.5124614977087
20
-47.051187502843
30
4.7752000019083
11
50.9789086657893
21
-46.6417780153986
31
4.77520000431086
  0
LINE
 8
Layer0
10
53.9947801664598
20
-44.3123709055981
30
4.77519999999999
11
51.5124614977087
21
-47.051187502843
31
4.7752000019083
  0
LINE
 8
Layer0
10
58.0781524184053
20
-38.8065807831866
30
4.77520000000002
11
53.9947801664598
21
-44.3123709055981
31
4.77519999999999
  0
LINE
 8
Layer0
10
61.6022003138052
20
-32.9270620740634
30
4.77520000000003
11
58.0781524184053
21
-38.8065807831866
31
4.77520000000002
  0
LINE
 8
Layer0
10
64.5329853449861
20
-26.730437757469
30
4.77520000000001
11
61.6022003138052
21
-32.9270620740634
31
4.77520000000003
  0
LINE
 8
Layer0
10
66.8422824499675
20
-20.2763847129916
30
4.77519999999998
11
64.5329853449861
21
-26.730437757469
31
4.77520000000001
  0
LINE
 8
Layer0
10
68.5078518352382
20
-13.6270589995941
30
4.77520000000001
11
66.8422824499675
21
-20.2763847129916
31
4.77519999999998
  0
LINE
 8
Layer0
10
69.5136531571257
20
-6.84649725878733
30
4.77519999999998
11
68.5078518352382
21
-13.6270589995941
31
4.77520000000001
  0
LINE
 8
Layer0
10
69.8499999990725
20
-6.76751524593292e-009
30
4.77519999999998
11
69.5136531571257
21
-6.84649725878733
31
4.77519999999998
  0
LINE
 8
Layer0
10
69.5136531571256
20
6.84649724525225
30
4.77519999999997
11
69.8499999990725
21
-6.76751524593292e-009
31
4.77519999999998
  0
LINE
 8
Layer0
10
68.5078518352383
20
13.627058986059
30
4.7752
11
69.5136531571256
21
6.84649724525225
31
4.77519999999997
  0
LINE
 8
Layer0
10
66.8422824499675
20
20.2763846994566
30
4.77519999999998
11
68.5078518352383
21
13.627058986059
31
4.7752
  0
LINE
 8
Layer0
10
64.5329853449861
20
26.7304377439339
30
4.77520000000002
11
66.8422824499675
21
20.2763846994566
31
4.77519999999998
  0
LINE
 8
Layer0
10
61.6022003138053
20
32.9270620605283
30
4.77520000000005
11
64.5329853449861
21
26.7304377439339
31
4.77520000000002
  0
LINE
 8
Layer0
10
58.0781524184054
20
38.8065807696516
30
4.77520000000002
11
61.6022003138053
21
32.9270620605283
31
4.77520000000005
  0
LINE
 8
Layer0
10
53.9947801664599
20
44.312370892063
30
4.77519999999999
11
58.0781524184054
21
38.8065807696516
31
4.77520000000002
  0
LINE
 8
Layer0
10
51.5124614964064
20
47.051187489902
30
4.77519991570603
11
53.9947801664599
21
44.312370892063
31
4.77519999999999
  0
LINE
 8
Layer0
10
50.978908664487
20
46.6417780024576
30
4.77519991356979
11
51.5124614964064
21
47.051187489902
31
4.77519991570603
  0
LINE
 8
Layer0
10
50.2131591326875
20
46.3245941610054
30
4.77519991297166
11
50.978908664487
21
46.6417780024576
31
4.77519991356979
  0
LINE
 8
Layer0
10
49.391408664487
20
46.2164086594732
30
4.77519991265886
11
50.2131591326875
21
46.3245941610054
31
4.77519991297166
  0
LINE
 8
Layer0
10
48.5696581962865
20
46.3245941610054
30
4.7751999126527
11
49.391408664487
21
46.2164086594732
31
4.77519991265886
  0
LINE
 8
Layer0
10
47.803908664487
20
46.6417780024576
30
4.7751999129536
11
48.5696581962865
21
46.3245941610054
31
4.7751999126527
  0
LINE
 8
Layer0
10
47.1463446342197
20
47.1463446292059
30
4.77519991354107
11
47.803908664487
21
46.6417780024576
31
4.7751999129536
  0
LINE
 8
Layer0
10
46.6417780074714
20
47.8039086594732
30
4.77519991437505
11
47.1463446342197
21
47.1463446292059
31
4.77519991354107
  0
LINE
 8
Layer0
10
46.3245941660192
20
48.5696581912727
30
4.77519991539873
11
46.6417780074714
21
47.8039086594732
31
4.77519991437505
  0
LINE
 8
Layer0
10
46.216408664487
20
49.3914086594732
30
4.77519991654233
11
46.3245941660192
21
48.5696581912727
31
4.77519991539873
  0
LINE
 8
Layer0
10
46.3245941660192
20
50.2131591276737
30
4.77519991772792
11
46.216408664487
21
49.3914086594732
31
4.77519991654233
  0
LINE
 8
Layer0
10
46.6417780074714
20
50.9789086594732
30
4.77519991887471
11
46.3245941660192
21
50.2131591276737
31
4.77519991772792
  0
LINE
 8
Layer0
10
47.0511874949158
20
51.5124614913927
30
4.77519991843442
11
46.6417780074714
21
50.9789086594732
31
4.77519991887471
  0
LINE
 8
Layer0
10
44.3123708979033
20
53.9947801606196
30
4.77520000000001
11
47.0511874949158
21
51.5124614913927
31
4.77519991843442
  0
LINE
 8
Layer0
10
38.806580775492
20
58.0781524125652
30
4.7752
11
44.3123708979033
21
53.9947801606196
31
4.77520000000001
  0
LINE
 8
Layer0
10
32.9270620663686
20
61.602200307965
30
4.77520000000007
11
38.806580775492
21
58.0781524125652
31
4.7752
  0
LINE
 8
Layer0
10
26.7304377497743
20
64.5329853391458
30
4.77520000000002
11
32.9270620663686
21
61.602200307965
31
4.77520000000007
  0
LINE
 8
Layer0
10
20.2763847052969
20
66.8422824441273
30
4.7752
11
26.7304377497743
21
64.5329853391458
31
4.77520000000002
  0
LINE
 8
Layer0
10
13.6270589918994
20
68.5078518293981
30
4.77520000000001
11
20.2763847052969
21
66.8422824441273
31
4.7752
  0
LINE
 8
Layer0
10
6.84649725109249
20
69.5136531512854
30
4.77520000000003
11
13.6270589918994
21
68.5078518293981
31
4.77520000000001
  0
LINE
 8
Layer0
10
-9.26866518066828e-010
20
69.8499999932325
30
4.7752
11
6.84649725109249
21
69.5136531512854
31
4.77520000000003
  0
LINE
 8
Layer0
10
-9.26866518066828e-010
20
69.8499999932325
30
4.7752
11
-6.84649725294668
21
69.5136531512854
31
4.7752
  0
LINE
 8
Layer0
10
-6.84649725294668
20
69.5136531512854
30
4.7752
11
-13.6270589937534
21
68.5078518293981
31
4.7752
  0
LINE
 8
Layer0
10
-13.6270589937534
20
68.5078518293981
30
4.7752
11
-20.2763847071511
21
66.8422824441273
31
4.7752
  0
LINE
 8
Layer0
10
-20.2763847071511
20
66.8422824441273
30
4.7752
11
-26.7304377516284
21
64.5329853391458
31
4.7752
  0
LINE
 8
Layer0
10
-26.7304377516284
20
64.5329853391458
30
4.7752
11
-32.9270620682228
21
61.602200307965
31
4.7752
  0
LINE
 8
Layer0
10
-32.9270620682228
20
61.602200307965
30
4.7752
11
-38.8065807773461
21
58.0781524125652
31
4.7752
  0
LINE
 8
Layer0
10
-38.8065807773461
20
58.0781524125652
30
4.7752
11
-44.3123708997575
21
53.9947801606196
31
4.7752
  0
LINE
 8
Layer0
10
-44.3123708997575
20
53.9947801606196
30
4.7752
11
-47.0511874966808
21
51.5124614915068
31
4.7751999375218
  0
LINE
 8
Layer0
10
-46.6417780092363
20
50.9789086595874
30
4.77519993859037
11
-47.0511874966808
21
51.5124614915068
31
4.7751999375218
  0
LINE
 8
Layer0
10
-46.3245941677841
20
50.2131591277878
30
4.77519993756341
11
-46.6417780092363
21
50.9789086595874
31
4.77519993859037
  0
LINE
 8
Layer0
10
-46.2164086662519
20
49.3914086595873
30
4.77519993641462
11
-46.3245941677841
21
50.2131591277878
31
4.77519993756341
  0
LINE
 8
Layer0
10
-46.3245941677841
20
48.5696581913868
30
4.77519993522228
11
-46.2164086662519
21
49.3914086595873
31
4.77519993641462
  0
LINE
 8
Layer0
10
-46.6417780092363
20
47.8039086595873
30
4.77519993406765
11
-46.3245941677841
21
48.5696581913868
31
4.77519993522228
  0
LINE
 8
Layer0
10
-47.1463446359846
20
47.14634462932
30
4.77519993302941
11
-46.6417780092363
21
47.8039086595873
31
4.77519993406765
  0
LINE
 8
Layer0
10
-47.8039086662519
20
46.6417780025717
30
4.77519993217833
11
-47.1463446359846
21
47.14634462932
31
4.77519993302941
  0
LINE
 8
Layer0
10
-48.5696581980514
20
46.3245941611195
30
4.77519993157239
11
-47.8039086662519
21
46.6417780025717
31
4.77519993217833
  0
LINE
 8
Layer0
10
-49.3914086662519
20
46.2164086595873
30
4.77519993125289
11
-48.5696581980514
21
46.3245941611195
31
4.77519993157239
  0
LINE
 8
Layer0
10
-50.2131591344524
20
46.3245941611195
30
4.77519993124161
11
-49.3914086662519
21
46.2164086595873
31
4.77519993125289
  0
LINE
 8
Layer0
10
-50.978908666252
20
46.6417780025717
30
4.77519993153931
11
-50.2131591344524
21
46.3245941611195
31
4.77519993124161
  0
LINE
 8
Layer0
10
-51.5124614981715
20
47.0511874900161
30
4.77519993389536
11
-50.978908666252
21
46.6417780025717
31
4.77519993153931
  0
LINE
 8
Layer0
10
-51.5124614981715
20
47.0511874900161
30
4.77519993389536
11
-53.994780168314
21
44.312370892063
31
4.7752
  0
LINE
 8
Layer0
10
-53.994780168314
20
44.312370892063
30
4.7752
11
-58.0781524202596
21
38.8065807696516
31
4.7752
  0
LINE
 8
Layer0
10
-58.0781524202596
20
38.8065807696516
30
4.7752
11
-61.6022003156594
21
32.9270620605283
31
4.7752
  0
LINE
 8
Layer0
10
-61.6022003156594
20
32.9270620605283
30
4.7752
11
-64.5329853468402
21
26.7304377439339
31
4.7752
  0
LINE
 8
Layer0
10
-64.5329853468402
20
26.7304377439339
30
4.7752
11
-66.8422824518215
21
20.2763846994566
31
4.7752
  0
LINE
 8
Layer0
10
-66.8422824518215
20
20.2763846994566
30
4.7752
11
-68.5078518370924
21
13.627058986059
31
4.7752
  0
LINE
 8
Layer0
10
-68.5078518370924
20
13.627058986059
30
4.7752
11
-69.5136531589798
21
6.84649724525225
31
4.7752
  0
LINE
 8
Layer0
10
-69.5136531589798
20
6.84649724525225
30
4.7752
11
-69.8500000009267
21
-6.76751524593292e-009
31
4.7752
  0
LINE
 8
Layer0
10
-69.8500000009267
20
-6.76751524593292e-009
30
4.7752
11
-69.5136531589797
21
-6.84649725878728
31
4.7752
  0
LINE
 8
Layer0
10
-69.5136531589797
20
-6.84649725878728
30
4.7752
11
-68.5078518370924
21
-13.627058999594
31
4.7752
  0
LINE
 8
Layer0
10
-68.5078518370924
20
-13.627058999594
30
4.7752
11
-66.8422824518215
21
-20.2763847129916
31
4.7752
  0
LINE
 8
Layer0
10
-66.8422824518215
20
-20.2763847129916
30
4.7752
11
-64.5329853468401
21
-26.730437757469
31
4.7752
  0
LINE
 8
Layer0
10
-64.5329853468401
20
-26.730437757469
30
4.7752
11
-61.6022003156594
21
-32.9270620740634
31
4.7752
  0
LINE
 8
Layer0
10
-9.77779093477169
20
-37.5281638704068
30
4.77519958622581
11
-9.85520000092704
21
-37.1348000067675
31
4.77519958366146
  0
LINE
 8
Layer0
10
-5.08000000092703
20
-37.1348000067675
30
4.77519958366146
11
-9.85520000092704
21
-37.1348000067675
31
4.77519958366146
  0
LINE
 8
Layer0
10
-5.08000000092703
20
-41.9100000067676
30
4.77519958366146
11
-5.08000000092703
21
-37.1348000067675
31
4.77519958366146
  0
LINE
 8
Layer0
10
-5.08000000092703
20
-41.9100000067676
30
4.77519958366146
11
7.6199999990842
21
-41.9100000067548
31
4.77519958368282
  0
LINE
 8
Layer0
10
-17.8060849379151
20
-21.7044540381299
30
4.77519992335835
11
-17.7941240335213
21
-21.7389684435494
31
4.77519992334078
  0
LINE
 8
Layer0
10
-17.7941240335213
20
-21.7389684435494
30
4.77519992334078
11
-17.6758136518629
21
-22.0803650757332
31
4.77519992316694
  0
LINE
 8
Layer0
10
-17.6758136518629
20
-22.0803650757332
30
4.77519992316694
11
-17.6472741880372
21
-22.4771839452017
31
4.77519992297042
  0
LINE
 8
Layer0
10
-17.6472741880372
20
-22.4771839452017
30
4.77519992297042
11
-17.7224114637341
21
-22.8678680963552
31
4.77519992278219
  0
LINE
 8
Layer0
10
-17.7224114637341
20
-22.8678680963552
30
4.77519992278219
11
-17.8961049977848
21
-23.2257930499287
31
4.77519992261507
  0
LINE
 8
Layer0
10
-17.8961049977848
20
-23.2257930499287
30
4.77519992261507
11
-18.1565178628862
21
-23.5265668118352
31
4.77519992248046
  0
LINE
 8
Layer0
10
-18.1565178628862
20
-23.5265668118352
30
4.77519992248046
11
-18.485903352634
21
-23.7496921472529
31
4.77519992238752
  0
LINE
 8
Layer0
10
-18.485903352634
20
-23.7496921472529
30
4.77519992238752
11
-18.8618143902373
21
-23.879963433305
31
4.77519992234259
  0
LINE
 8
Layer0
10
-18.8618143902373
20
-23.879963433305
30
4.77519992234259
11
-19.2586332597058
21
-23.9085028971307
31
4.77519992234874
  0
LINE
 8
Layer0
10
-19.2586332597058
20
-23.9085028971307
30
4.77519992234874
11
-19.6493174108594
21
-23.8333656214339
31
4.77519992240554
  0
LINE
 8
Layer0
10
-19.6493174108594
20
-23.8333656214339
30
4.77519992240554
11
-20.0072423644329
21
-23.6596720873831
31
4.77519992250912
  0
LINE
 8
Layer0
10
-20.0072423644329
20
-23.6596720873831
30
4.77519992250912
11
-20.3080161263394
21
-23.3992592222818
31
4.77519992265243
  0
LINE
 8
Layer0
10
-20.3080161263394
20
-23.3992592222818
30
4.77519992265243
11
-20.5311414617571
21
-23.0698737325339
31
4.7751999228257
  0
LINE
 8
Layer0
10
-20.5311414617571
20
-23.0698737325339
30
4.7751999228257
11
-20.6614127478092
21
-22.6939626949306
31
4.77519992301711
  0
LINE
 8
Layer0
10
-20.6614127478092
20
-22.6939626949306
30
4.77519992301711
11
-20.6899522116349
21
-22.2971438254621
31
4.77519992321363
  0
LINE
 8
Layer0
10
-20.6899522116349
20
-22.2971438254621
30
4.77519992321363
11
-20.6148149359381
21
-21.9064596743086
31
4.77519992340186
  0
LINE
 8
Layer0
10
-20.6148149359381
20
-21.9064596743086
30
4.77519992340186
11
-20.5273039331765
21
-21.7261284272545
31
4.77519992348606
  0
LINE
 8
Layer0
10
-20.5273039331765
20
-21.7261284272545
30
4.77519992348606
11
-20.4411214018873
21
-21.5485347207351
31
4.77519992356898
  0
LINE
 8
Layer0
10
-20.4411214018873
20
-21.5485347207351
30
4.77519992356898
11
-20.1807085367859
21
-21.2477609588286
31
4.77519992370359
  0
LINE
 8
Layer0
10
-20.1807085367859
20
-21.2477609588286
30
4.77519992370359
11
-19.8513230470381
21
-21.0246356234109
31
4.77519992379653
  0
LINE
 8
Layer0
10
-19.8513230470381
20
-21.0246356234109
30
4.77519992379653
11
-19.4754120094348
21
-20.8943643373588
31
4.77519992384145
  0
LINE
 8
Layer0
10
-19.4754120094348
20
-20.8943643373588
30
4.77519992384145
11
-19.0785931399663
21
-20.8658248735331
31
4.77519992383531
  0
LINE
 8
Layer0
10
-19.0785931399663
20
-20.8658248735331
30
4.77519992383531
11
-18.6879089888128
21
-20.9409621492299
31
4.77519992377851
  0
LINE
 8
Layer0
10
-18.6879089888128
20
-20.9409621492299
30
4.77519992377851
11
-18.3299840352392
21
-21.1146556832807
31
4.77519992367492
  0
LINE
 8
Layer0
10
-18.3299840352392
20
-21.1146556832807
30
4.77519992367492
11
-18.0292102733327
21
-21.375068548382
31
4.77519992353162
  0
LINE
 8
Layer0
10
-18.0292102733327
20
-21.375068548382
30
4.77519992353162
11
-17.8060849379151
21
-21.7044540381299
31
4.77519992335835
  0
LINE
 8
Layer0
10
24.0829270795181
20
41.9837472863748
30
4.77519995253634
11
-24.4768717704968
21
41.9837472863748
31
4.77519995500535
  0
LINE
 8
Layer0
10
24.0829270795181
20
41.9837472863748
30
4.77519995253634
11
25.0779686807325
21
40.9887056851605
31
4.7751999519966
  0
LINE
 8
Layer0
10
25.0779686807325
20
32.0786540312201
30
4.7751999476166
11
25.0779686807325
21
40.9887056851605
31
4.7751999519966
  0
LINE
 8
Layer0
10
25.0537483085109
20
31.1023196966932
30
4.77519994713789
11
25.0779686807325
21
32.0786540312201
31
4.7751999476166
  0
LINE
 8
Layer0
10
23.6309498011184
20
31.1023196966932
30
4.77519994721023
11
25.0537483085109
21
31.1023196966932
31
4.77519994713789
  0
LINE
 8
Layer0
10
22.7940878710514
20
30.9921447334641
30
4.77519994719862
11
23.6309498011184
21
31.1023196966932
31
4.77519994721023
  0
LINE
 8
Layer0
10
22.0142566985388
20
30.6691280854481
30
4.77519994707948
11
22.7940878710514
21
30.9921447334641
31
4.77519994719862
  0
LINE
 8
Layer0
10
21.3446004892553
20
30.1552828033971
30
4.77519994686094
11
22.0142566985388
21
30.6691280854481
31
4.77519994707948
  0
LINE
 8
Layer0
10
20.8307552072044
20
29.4856265941136
30
4.77519994655787
11
21.3446004892553
21
30.1552828033971
31
4.77519994686094
  0
LINE
 8
Layer0
10
20.5077385591883
20
28.705795421601
30
4.77519994619095
11
20.8307552072044
21
29.4856265941136
31
4.77519994655787
  0
LINE
 8
Layer0
10
20.3975635959592
20
27.868933491534
30
4.77519994578517
11
20.5077385591883
21
28.705795421601
31
4.77519994619095
  0
LINE
 8
Layer0
10
20.5077385591883
20
27.0320715614671
30
4.77519994536818
11
20.3975635959592
21
27.868933491534
31
4.77519994578517
  0
LINE
 8
Layer0
10
20.8307552072044
20
26.2522403889544
30
4.77519994496841
11
20.5077385591883
21
27.0320715614671
31
4.77519994536818
  0
LINE
 8
Layer0
10
21.3446004892553
20
25.5825841796709
30
4.77519994461309
11
20.8307552072044
21
26.2522403889544
31
4.77519994496841
  0
LINE
 8
Layer0
10
22.0142566985388
20
25.06873889762
30
4.77519994432645
11
21.3446004892553
21
25.5825841796709
31
4.77519994461309
  0
LINE
 8
Layer0
10
22.7940878710514
20
24.7457222496039
30
4.77519994412801
11
22.0142566985388
21
25.06873889762
31
4.77519994432645
  0
LINE
 8
Layer0
10
23.6309498011184
20
24.6355472863748
30
4.7751999440313
11
22.7940878710514
21
24.7457222496039
31
4.77519994412801
  0
LINE
 8
Layer0
10
24.830516222078
20
24.6355472863748
30
4.77519994397031
11
23.6309498011184
21
24.6355472863748
31
4.7751999440313
  0
LINE
 8
Layer0
10
24.830516222078
20
24.6355472863748
30
4.77519994397031
11
25.0779686807325
21
23.594379232779
31
4.77519994344591
  0
LINE
 8
Layer0
10
25.0779686807325
20
-21.3005963498003
30
4.77519992137645
11
25.0779686807325
21
23.594379232779
31
4.77519994344591
  0
LINE
 8
Layer0
10
25.0779686807325
20
-21.3005963498003
30
4.77519992137645
11
24.4679213034557
21
-21.9189685863405
31
4.77519992110349
  0
LINE
 8
Layer0
10
24.4679213034557
20
-21.9189685863405
30
4.77519992110349
11
11.4322221554297
21
-21.8762688683599
31
4.77519992178728
  0
LINE
 8
Layer0
10
11.4322221554297
20
-21.8762688683599
30
4.77519992178728
11
11.2208106840938
21
-21.2242687713661
31
4.77519992211854
  0
LINE
 8
Layer0
10
11.2208106840938
20
-21.2242687713661
30
4.77519992211854
11
10.80589203938
21
-20.5845026873761
31
4.77519992245413
  0
LINE
 8
Layer0
10
10.80589203938
20
-20.5845026873761
30
4.77519992245413
11
10.2395277576949
21
-20.0739249514863
31
4.77519992273391
  0
LINE
 8
Layer0
10
10.2395277576949
20
-20.0739249514863
30
4.77519992273391
11
9.56031462887395
21
-19.7273305926281
31
4.77519992293883
  0
LINE
 8
Layer0
10
9.56031462887395
20
-19.7273305926281
30
4.77519992293883
11
8.8145399051936
21
-19.5683394435834
31
4.7751999230549
  0
LINE
 8
Layer0
10
8.8145399051936
20
-19.5683394435834
30
4.7751999230549
11
8.05302690162162
21
-19.6077864884143
31
4.77519992307423
  0
LINE
 8
Layer0
10
8.05302690162162
20
-19.6077864884143
30
4.77519992307423
11
7.32767147089178
21
-19.8429834762048
31
4.77519992299549
  0
LINE
 8
Layer0
10
7.32767147089178
20
-19.8429834762048
30
4.77519992299549
11
6.68790538690173
21
-20.2579021209186
31
4.77519992282406
  0
LINE
 8
Layer0
10
6.68790538690173
20
-20.2579021209186
30
4.77519992282406
11
6.17732765101195
21
-20.8242664026037
31
4.7751999225716
  0
LINE
 8
Layer0
10
6.17732765101195
20
-20.8242664026037
30
4.7751999225716
11
5.83073329215374
21
-21.5034795314247
31
4.77519992225534
  0
LINE
 8
Layer0
10
5.83073329215374
20
-21.5034795314247
30
4.77519992225534
11
5.75694256101096
21
-21.849607365954
31
4.77519992208894
  0
LINE
 8
Layer0
10
5.75694256101096
20
-21.849607365954
30
4.77519992208894
11
-16.3279929188988
21
-21.7458560792314
31
4.77519992326285
  0
LINE
 8
Layer0
10
-16.3621022130381
20
-21.5382387218486
30
4.77519992336664
11
-16.3279929188988
21
-21.7458560792314
31
4.77519992326285
  0
LINE
 8
Layer0
10
-16.6774497561002
20
-20.8407866516639
30
4.77519992372553
11
-16.3621022130381
21
-21.5382387218486
31
4.77519992336664
  0
LINE
 8
Layer0
10
-17.1625659710106
20
-20.2487176344445
30
4.77519992404124
11
-16.6774497561002
21
-20.8407866516639
31
4.77519992372553
  0
LINE
 8
Layer0
10
-17.7843909894156
20
-19.8023801952736
30
4.77519992429227
11
-17.1625659710106
21
-20.2487176344445
31
4.77519992404124
  0
LINE
 8
Layer0
10
-18.5005484639255
20
-19.5321914930231
30
4.7751999244615
11
-17.7843909894156
21
-19.8023801952736
31
4.77519992429227
  0
LINE
 8
Layer0
10
-19.2622334461585
20
-19.4565644412435
30
4.77519992453741
11
-18.5005484639255
21
-19.5321914930231
31
4.7751999244615
  0
LINE
 8
Layer0
10
-20.0175383633194
20
-19.580652898534
30
4.77519992451481
11
-19.2622334461585
21
-19.4565644412435
31
4.77519992453741
  0
LINE
 8
Layer0
10
-20.714990433504
20
-19.896000441596
30
4.77519992439525
11
-20.0175383633194
21
-19.580652898534
31
4.77519992451481
  0
LINE
 8
Layer0
10
-21.3070594507234
20
-20.3811166565064
30
4.77519992418689
11
-20.714990433504
21
-19.896000441596
31
4.77519992439525
  0
LINE
 8
Layer0
10
-21.7533968898944
20
-21.0029416749115
30
4.7751999239039
11
-21.3070594507234
21
-20.3811166565064
31
4.77519992418689
  0
LINE
 8
Layer0
10
-22.0235855921449
20
-21.7190991494213
30
4.77519992356559
11
-21.7533968898944
21
-21.0029416749115
31
4.7751999239039
  0
LINE
 8
Layer0
10
-22.0235855921449
20
-21.7190991494213
30
4.77519992356559
11
-24.4609610826873
21
-21.7190991494213
31
4.77519992368952
  0
LINE
 8
Layer0
10
-24.4609610826873
20
-21.7190991494213
30
4.77519992368952
11
-25.7285195173472
21
-20.4515407147614
31
4.77519992437707
  0
LINE
 8
Layer0
10
-25.7285195173472
20
40.7320995395243
30
4.77519995445371
11
-25.7285195173472
21
-20.4515407147614
31
4.77519992437707
  0
LINE
 8
Layer0
10
-25.7285195173472
20
40.7320995395243
30
4.77519995445371
11
-24.4768717704968
21
41.9837472863748
31
4.77519995500535
  0
LINE
 8
Layer0
10
7.04747970590526
20
-22.277761479936
30
4.77519992181285
11
7.15221552154536
21
-21.8870824784393
31
4.77519992199958
  0
LINE
 8
Layer0
10
7.15221552154536
20
-21.8870824784393
30
4.77519992199958
11
7.17002436719778
21
-21.8562457849691
31
4.77519992201383
  0
LINE
 8
Layer0
10
7.17002436719778
20
-21.8562457849691
30
4.77519992201383
11
7.3544977169185
21
-21.5368231648968
31
4.77519992216147
  0
LINE
 8
Layer0
10
7.3544977169185
20
-21.5368231648968
30
4.77519992216147
11
7.64054109469724
21
-21.2508531326956
31
4.77519992228751
  0
LINE
 8
Layer0
10
7.64054109469724
20
-21.2508531326956
30
4.77519992228751
11
7.99085227139492
21
-21.0486607669423
31
4.77519992236909
  0
LINE
 8
Layer0
10
7.99085227139492
20
-21.0486607669423
30
4.77519992236909
11
8.38155811923623
21
-20.9440251432244
31
4.77519992240066
  0
LINE
 8
Layer0
10
8.38155811923623
20
-20.9440251432244
30
4.77519992240066
11
8.78603268036266
21
-20.9440770063796
31
4.77519992238007
  0
LINE
 8
Layer0
10
8.78603268036266
20
-20.9440770063796
30
4.77519992238007
11
9.17671168185934
21
-21.0488128220197
31
4.77519992230872
  0
LINE
 8
Layer0
10
9.17671168185934
20
-21.0488128220197
30
4.77519992230872
11
9.5269709954018
21
-21.2510950173929
31
4.77519992219147
  0
LINE
 8
Layer0
10
9.5269709954018
20
-21.2510950173929
30
4.77519992219147
11
9.81294102760301
21
-21.5371383951716
31
4.77519992203632
  0
LINE
 8
Layer0
10
9.81294102760301
20
-21.5371383951716
30
4.77519992203632
11
10.0001399319051
21
-21.8614724430881
31
4.77519992186736
  0
LINE
 8
Layer0
10
10.0001399319051
20
-21.8614724430881
30
4.77519992186736
11
10.0151333933563
21
-21.8874495718693
31
4.77519992185383
  0
LINE
 8
Layer0
10
10.0151333933563
20
-21.8874495718693
30
4.77519992185383
11
10.1197690170742
21
-22.2781554197105
31
4.77519992165645
  0
LINE
 8
Layer0
10
10.1197690170742
20
-22.2781554197105
30
4.77519992165645
11
10.119717153919
21
-22.682629980837
31
4.77519992145762
  0
LINE
 8
Layer0
10
10.119717153919
20
-22.682629980837
30
4.77519992145762
11
10.0149813382789
21
-23.0733089823337
31
4.7751999212709
  0
LINE
 8
Layer0
10
10.0149813382789
20
-23.0733089823337
30
4.7751999212709
11
9.81269914290577
21
-23.4235682958762
31
4.775199921109
  0
LINE
 8
Layer0
10
9.81269914290577
20
-23.4235682958762
30
4.775199921109
11
9.52665576512703
21
-23.7095383280774
31
4.77519992098297
  0
LINE
 8
Layer0
10
9.52665576512703
20
-23.7095383280774
30
4.77519992098297
11
9.17634458842935
21
-23.9117306938306
31
4.77519992090139
  0
LINE
 8
Layer0
10
9.17634458842935
20
-23.9117306938306
30
4.77519992090139
11
8.78563874058804
21
-24.0163663175486
31
4.77519992086981
  0
LINE
 8
Layer0
10
8.78563874058804
20
-24.0163663175486
30
4.77519992086981
11
8.38116417946161
21
-24.0163144543934
31
4.7751999208904
  0
LINE
 8
Layer0
10
8.38116417946161
20
-24.0163144543934
30
4.7751999208904
11
7.99048517796494
21
-23.9115786387533
31
4.77519992096175
  0
LINE
 8
Layer0
10
7.99048517796494
20
-23.9115786387533
30
4.77519992096175
11
7.64022586442247
21
-23.7092964433801
31
4.775199921079
  0
LINE
 8
Layer0
10
7.64022586442247
20
-23.7092964433801
30
4.775199921079
11
7.35425583222126
21
-23.4232530656014
31
4.77519992123415
  0
LINE
 8
Layer0
10
7.35425583222126
20
-23.4232530656014
30
4.77519992123415
11
7.15206346646798
21
-23.0729418889037
31
4.77519992141664
  0
LINE
 8
Layer0
10
7.15206346646798
20
-23.0729418889037
30
4.77519992141664
11
7.04742784275005
21
-22.6822360410624
31
4.77519992161402
  0
LINE
 8
Layer0
10
7.04742784275005
20
-22.6822360410624
30
4.77519992161402
11
7.04747970590526
21
-22.277761479936
31
4.77519992181285
  0
LINE
 8
Layer0
10
23.0156268381344
20
26.4193222708184
30
4.77519994493945
11
22.6614064677479
21
26.6279738770756
31
4.77519994506003
  0
LINE
 8
Layer0
10
22.6614064677479
20
26.6279738770756
30
4.77519994506003
11
22.3732588732845
21
26.9211948302754
31
4.77519994521882
  0
LINE
 8
Layer0
10
22.3732588732845
20
26.9211948302754
30
4.77519994521882
11
22.1708208371205
21
27.2790026070277
31
4.77519994540501
  0
LINE
 8
Layer0
10
22.1708208371205
20
27.2790026070277
30
4.77519994540501
11
22.0678881768757
21
27.6770131986523
31
4.77519994560589
  0
LINE
 8
Layer0
10
22.0678881768757
20
27.6770131986523
30
4.77519994560589
11
22.0714755832416
21
28.0881028410735
31
4.7751999458078
  0
LINE
 8
Layer0
10
22.0714755832416
20
28.0881028410735
30
4.7751999458078
11
22.1813385804028
21
28.484256454518
31
4.77519994599695
  0
LINE
 8
Layer0
10
22.1813385804028
20
28.484256454518
30
4.77519994599695
11
22.38999018666
21
28.8384768249045
31
4.77519994616047
  0
LINE
 8
Layer0
10
22.38999018666
20
28.8384768249045
30
4.77519994616047
11
22.6832111398597
21
29.1266244193679
31
4.77519994628721
  0
LINE
 8
Layer0
10
22.6832111398597
20
29.1266244193679
30
4.77519994628721
11
23.0410189166121
21
29.3290624555319
31
4.77519994636853
  0
LINE
 8
Layer0
10
23.0410189166121
20
29.3290624555319
30
4.77519994636853
11
23.4390295082367
21
29.4319951157767
31
4.77519994639889
  0
LINE
 8
Layer0
10
23.4390295082367
20
29.4319951157767
30
4.77519994639889
11
23.8501191506579
21
29.4284077094108
31
4.77519994637623
  0
LINE
 8
Layer0
10
23.8501191506579
20
29.4284077094108
30
4.77519994637623
11
24.2462727641024
21
29.3185447122496
31
4.77519994630208
  0
LINE
 8
Layer0
10
24.2462727641024
20
29.3185447122496
30
4.77519994630208
11
24.6004931344889
21
29.1098931059925
31
4.7751999461815
  0
LINE
 8
Layer0
10
24.6004931344889
20
29.1098931059925
30
4.7751999461815
11
24.8886407289523
21
28.8166721527927
31
4.77519994602271
  0
LINE
 8
Layer0
10
24.8886407289523
20
28.8166721527927
30
4.77519994602271
11
25.0910787651163
21
28.4588643760403
31
4.77519994583652
  0
LINE
 8
Layer0
10
25.0910787651163
20
28.4588643760403
30
4.77519994583652
11
25.1940114253611
21
28.0608537844158
31
4.77519994563564
  0
LINE
 8
Layer0
10
25.1940114253611
20
28.0608537844158
30
4.77519994563564
11
25.1904240189952
21
27.6497641419946
31
4.77519994543373
  0
LINE
 8
Layer0
10
25.1904240189952
20
27.6497641419946
30
4.77519994543373
11
25.080561021834
21
27.25361052855
31
4.77519994524458
  0
LINE
 8
Layer0
10
25.080561021834
20
27.25361052855
30
4.77519994524458
11
24.8719094155769
21
26.8993901581635
31
4.77519994508106
  0
LINE
 8
Layer0
10
24.8719094155769
20
26.8993901581635
30
4.77519994508106
11
24.5786884623771
21
26.6112425637002
31
4.77519994495432
  0
LINE
 8
Layer0
10
24.5786884623771
20
26.6112425637002
30
4.77519994495432
11
24.2208806856247
21
26.4088045275361
31
4.775199944873
  0
LINE
 8
Layer0
10
24.2208806856247
20
26.4088045275361
30
4.775199944873
11
23.8228700940001
21
26.3058718672913
31
4.77519994484264
  0
LINE
 8
Layer0
10
23.8228700940001
20
26.3058718672913
30
4.77519994484264
11
23.4117804515789
21
26.3094592736572
31
4.7751999448653
  0
LINE
 8
Layer0
10
23.4117804515789
20
26.3094592736572
30
4.7751999448653
11
23.0156268381344
21
26.4193222708184
31
4.77519994493945
  0
LINE
 8
Layer0
10
-63.5036788348992
20
-6.35000000676747
30
4.77519993322977
11
-63.5036788348992
21
6.34999999323253
31
4.77519993947284
  0
LINE
 8
Layer0
10
-63.5036788348992
20
6.34999999323253
30
4.77519993947284
11
-58.7284788348991
21
6.34999999323253
31
4.77519993923004
  0
LINE
 8
Layer0
10
-58.7284788348991
20
6.34999999323253
30
4.77519993923004
11
-58.7284788348991
21
-6.35000000676747
31
4.77519993298698
  0
LINE
 8
Layer0
10
-58.7284788348991
20
-6.35000000676747
30
4.77519993298698
11
-63.5036788348992
21
-6.35000000676747
31
4.77519993322977
  0
LINE
 8
Layer0
10
-30.1494795799878
20
-28.6878268786732
30
4.77519992055307
11
-30.1494646984966
21
-16.0020000067675
31
4.77519992678916
  0
LINE
 8
Layer0
10
-30.1494795799878
20
-28.6878268786732
30
4.77519992055307
11
-17.4494795799878
21
-28.6878268786732
31
4.77519991990734
  0
LINE
 8
Layer0
10
-17.4494795799878
20
-28.6878268786732
30
4.77519991990734
11
-17.4494795799876
21
-33.4630268786728
31
4.77519991755995
  0
LINE
 8
Layer0
10
-17.4494795799876
20
-33.4630268786728
30
4.77519991755995
11
-30.1494763625825
21
-33.4630268786727
31
4.77519991820567
  0
LINE
 8
Layer0
10
-30.1494646984966
20
-50.7746000067675
30
4.77519990969566
11
-30.1494763625825
21
-33.4630268786727
31
4.77519991820567
  0
LINE
 8
Layer0
10
-34.92471988521
20
-50.7746000067675
30
4.77519990993845
11
-30.1494646984966
21
-50.7746000067675
31
4.77519990969566
  0
LINE
 8
Layer0
10
-34.92471988521
20
-16.0020000067675
30
4.77519992703196
11
-34.92471988521
21
-50.7746000067675
31
4.77519990993845
  0
LINE
 8
Layer0
10
-30.1494646984966
20
-16.0020000067675
30
4.77519992678916
11
-34.92471988521
21
-16.0020000067675
31
4.77519992703196
  0
LINE
 8
Layer0
10
63.503678833045
20
-6.35000000676751
30
4.77519992677211
11
63.503678833045
21
6.34999999323248
31
4.77519993301518
  0
LINE
 8
Layer0
10
58.728478833045
20
-6.35000000676751
30
4.77519992701491
11
63.503678833045
21
-6.35000000676751
31
4.77519992677211
  0
LINE
 8
Layer0
10
58.728478833045
20
6.34999999323248
30
4.77519993325797
11
58.728478833045
21
-6.35000000676751
31
4.77519992701491
  0
LINE
 8
Layer0
10
63.503678833045
20
6.34999999323248
30
4.77519993301518
11
58.728478833045
21
6.34999999323248
31
4.77519993325797
  0
LINE
 8
Layer0
10
30.1503663092816
20
-50.7746000067675
30
4.77519990662973
11
30.1503546451953
21
-33.4630268786725
31
4.77519991513974
  0
LINE
 8
Layer0
10
17.4503514277902
20
-33.4630268786726
30
4.77519991578547
11
30.1503546451953
21
-33.4630268786725
31
4.77519991513974
  0
LINE
 8
Layer0
10
17.4503514277904
20
-28.6878268786732
30
4.77519991813286
11
17.4503514277902
21
-33.4630268786726
31
4.77519991578547
  0
LINE
 8
Layer0
10
30.1503514277904
20
-28.6878268786732
30
4.77519991748713
11
17.4503514277904
21
-28.6878268786732
31
4.77519991813286
  0
LINE
 8
Layer0
10
30.1503514277904
20
-28.6878268786732
30
4.77519991748713
11
30.1503663092816
21
-16.0020000067675
31
4.77519992372323
  0
LINE
 8
Layer0
10
30.1503663092816
20
-16.0020000067675
30
4.77519992372323
11
34.9252801147892
21
-16.0020000067674
31
4.77519992348045
  0
LINE
 8
Layer0
10
34.9252801147892
20
-16.0020000067674
30
4.77519992348045
11
34.9252801147892
21
-50.7746000067675
31
4.77519990638695
  0
LINE
 8
Layer0
10
34.9252801147892
20
-50.7746000067675
30
4.77519990638695
11
30.1503663092816
21
-50.7746000067675
31
4.77519990662973
  0
LINE
 8
Layer0
10
2.38760000676744
20
58.728478833045
30
4.7751999618708
11
6.35000000676749
21
58.728478833045
31
4.77519996166934
  0
LINE
 8
Layer0
10
2.38760000676744
20
50.8036788330449
30
4.77519995797513
11
2.38760000676744
21
58.728478833045
31
4.7751999618708
  0
LINE
 8
Layer0
10
-2.38759999323249
20
50.803678833045
30
4.77519995821793
11
2.38760000676744
21
50.8036788330449
31
4.77519995797513
  0
LINE
 8
Layer0
10
-2.38759999323247
20
58.728478833045
30
4.7751999621136
11
-2.38759999323249
21
50.803678833045
31
4.77519995821793
  0
LINE
 8
Layer0
10
-6.34999999323251
20
58.728478833045
30
4.77519996231506
11
-2.38759999323247
21
58.728478833045
31
4.7751999621136
  0
LINE
 8
Layer0
10
-6.34999999323251
20
63.503678833045
30
4.77519996466246
11
-6.34999999323251
21
58.728478833045
31
4.77519996231506
  0
LINE
 8
Layer0
10
6.35000000676749
20
63.503678833045
30
4.77519996401673
11
-6.34999999323251
21
63.503678833045
31
4.77519996466246
  0
LINE
 8
Layer0
10
6.35000000676749
20
58.728478833045
30
4.77519996166934
11
6.35000000676749
21
63.503678833045
31
4.77519996401673
  0
LINE
 8
Layer0
10
-39.5613544359132
20
-0.332031893345603
30
4.77519993319368
11
-39.4256238146782
21
-0.698944540538269
31
4.77519993285566
  0
LINE
 8
Layer0
10
-39.4256238146782
20
-0.698944540538269
30
4.77519993285566
11
-39.1995541212266
21
-1.01822527267452
31
4.77519993258036
  0
LINE
 8
Layer0
10
-38.7989445366642
20
1.32562380913725
30
4.7751999349609
11
-39.1182252688005
21
1.09955411568561
31
4.77519993468231
  0
LINE
 8
Layer0
10
-38.4320318894715
20
1.4613544303723
30
4.77519993515875
11
-38.7989445366642
21
1.32562380913725
31
4.7751999349609
  0
LINE
 8
Layer0
10
-38.0424918177768
20
1.49749616185905
30
4.77519993526237
11
-38.4320318894715
21
1.4613544303723
31
4.77519993515875
  0
LINE
 8
Layer0
10
-37.6568708337207
20
1.43158600432371
30
4.7751999352647
11
-38.0424918177768
21
1.49749616185905
31
4.77519993526237
  0
LINE
 8
Layer0
10
-38.5431291679462
20
-1.43158601373872
30
4.77519993228743
11
-38.15750818389
21
-1.49749617127406
31
4.77519993228976
  0
LINE
 8
Layer0
10
-39.1995541212266
20
-1.01822527267452
30
4.77519993258036
11
-38.8985516315692
21
-1.26811563549565
31
4.77519993238655
  0
LINE
 8
Layer0
10
-37.4010554650027
20
-1.32562381855226
30
4.77519993259123
11
-37.0817747328664
21
-1.09955412510062
31
4.77519993286982
  0
LINE
 8
Layer0
10
-37.7679681121953
20
-1.46135443978731
30
4.77519993239338
11
-37.4010554650027
21
-1.32562381855226
31
4.77519993259123
  0
LINE
 8
Layer0
10
-61.6022003156594
20
-32.9270620740634
30
4.7752
11
-58.0781524202596
21
-38.8065807831866
31
4.7752
  0
LINE
 8
Layer0
10
-39.5974961674
20
0.0575081783491085
30
4.77519993357139
11
-39.5613544359132
21
-0.332031893345603
31
4.77519993319368
  0
LINE
 8
Layer0
10
-39.5315860098646
20
0.443129162405278
30
4.77519993396305
11
-39.5974961674
21
0.0575081783491085
31
4.77519993357139
  0
LINE
 8
Layer0
10
-39.3681156316216
20
0.798551626028286
30
4.77519993434196
11
-39.5315860098646
21
0.443129162405278
31
4.77519993396305
  0
LINE
 8
Layer0
10
-39.1182252688005
20
1.09955411568561
30
4.77519993468231
11
-39.3681156316216
21
0.798551626028286
31
4.77519993434196
  0
LINE
 8
Layer0
10
-36.6025038342669
20
-0.0575081877641172
30
4.77519993398074
11
-36.6386455657536
21
0.332031883930595
31
4.77519993435845
  0
LINE
 8
Layer0
10
-36.6684139918022
20
-0.443129171820288
30
4.77519993358908
11
-36.6025038342669
21
-0.0575081877641172
31
4.77519993398074
  0
LINE
 8
Layer0
10
-36.8318843700453
20
-0.798551635443294
30
4.77519993321016
11
-36.6684139918022
21
-0.443129171820288
31
4.77519993358908
  0
LINE
 8
Layer0
10
-37.0817747328664
20
-1.09955412510062
30
4.77519993286982
11
-36.8318843700453
21
-0.798551635443294
31
4.77519993321016
  0
LINE
 8
Layer0
10
36.6684139918022
20
0.443129171820292
30
4.77519993358908
11
36.6025038342669
21
0.0575081877641217
31
4.77519993398074
  0
LINE
 8
Layer0
10
36.8318843700453
20
0.798551635443298
30
4.77519993321016
11
36.6684139918022
21
0.443129171820292
31
4.77519993358908
  0
LINE
 8
Layer0
10
37.0817747328664
20
1.09955412510063
30
4.77519993286982
11
36.8318843700453
21
0.798551635443298
31
4.77519993321016
  0
LINE
 8
Layer0
10
-58.0781524202596
20
-38.8065807831866
30
4.7752
11
-53.994780168314
21
-44.3123709055981
31
4.7752
  0
LINE
 8
Layer0
10
-53.994780168314
20
-44.3123709055981
30
4.7752
11
-51.5124615002077
21
-47.0511875018512
31
4.77520008152365
  0
LINE
 8
Layer0
10
-50.9789086682882
20
-46.6417780144067
30
4.77520008319321
11
-51.5124615002077
21
-47.0511875018512
31
4.77520008152365
  0
LINE
 8
Layer0
10
-50.2131591364887
20
-46.3245941729545
30
4.77520008391094
11
-50.9789086682882
21
-46.6417780144067
31
4.77520008319321
  0
LINE
 8
Layer0
10
-49.3914086682883
20
-46.2164086714223
30
4.77520008440173
11
-50.2131591364887
21
-46.3245941729545
31
4.77520008391094
  0
LINE
 8
Layer0
10
-48.5696582000877
20
-46.3245941729545
30
4.77520008463214
11
-49.3914086682883
21
-46.2164086714223
31
4.77520008440173
  0
LINE
 8
Layer0
10
-47.8039086682882
20
-46.6417780144067
30
4.77520008458647
11
-48.5696582000877
21
-46.3245941729545
31
4.77520008463214
  0
LINE
 8
Layer0
10
-47.146344638021
20
-47.146344641155
30
4.77520008426782
11
-47.8039086682882
21
-46.6417780144067
31
4.77520008458647
  0
LINE
 8
Layer0
10
-46.6417780112727
20
-47.8039086714223
30
4.77520008369792
11
-47.146344638021
21
-47.146344641155
31
4.77520008426782
  0
LINE
 8
Layer0
10
-46.3245941698205
20
-48.5696582032218
30
4.7752000829156
11
-46.6417780112727
21
-47.8039086714223
31
4.77520008369792
  0
LINE
 8
Layer0
10
-46.2164086682882
20
-49.3914086714223
30
4.77520008197417
11
-46.3245941698205
21
-48.5696582032218
31
4.7752000829156
  0
LINE
 8
Layer0
10
-46.3245941698205
20
-50.2131591396228
30
4.7752000809378
11
-46.2164086682882
21
-49.3914086714223
31
4.77520008197417
  0
LINE
 8
Layer0
10
-46.6417780112727
20
-50.9789086714223
30
4.7752000798771
11
-46.3245941698205
21
-50.2131591396228
31
4.7752000809378
  0
LINE
 8
Layer0
10
-47.0511874987171
20
-51.5124615033418
30
4.77520007981814
11
-46.6417780112727
21
-50.9789086714223
31
4.7752000798771
  0
LINE
 8
Layer0
10
-47.0511874987171
20
-51.5124615033418
30
4.77520007981814
11
-44.3123708997575
21
-53.9947801741546
31
4.7752
  0
LINE
 8
Layer0
10
-44.3123708997575
20
-53.9947801741546
30
4.7752
11
-38.8065807773461
21
-58.0781524261002
31
4.7752
  0
LINE
 8
Layer0
10
-38.8065807773461
20
-58.0781524261002
30
4.7752
11
-32.9270620682228
21
-61.6022003215
31
4.7752
  0
LINE
 8
Layer0
10
-32.9270620682228
20
-61.6022003215
30
4.7752
11
-26.7304377516285
21
-64.5329853526808
31
4.7752
  0
LINE
 8
Layer0
10
-26.7304377516285
20
-64.5329853526808
30
4.7752
11
-20.2763847071512
21
-66.8422824576622
31
4.7752
  0
LINE
 8
Layer0
10
-20.2763847071512
20
-66.8422824576622
30
4.7752
11
-13.6270589937535
21
-68.5078518429331
31
4.7752
  0
LINE
 8
Layer0
10
-13.6270589937535
20
-68.5078518429331
30
4.7752
11
-9.85520000092704
21
-69.0673542714894
31
4.77519979183073
  0
LINE
 8
Layer0
10
-9.85520000092704
20
-47.6039949462458
30
4.77519965191045
11
-9.85520000092704
21
-69.0673542714894
31
4.77519979183073
  0
LINE
 8
Layer0
10
-9.85520000092704
20
-47.6039949462458
30
4.77519965191045
11
-12.39520000108
21
-47.6039949460391
31
4.77519965166397
  0
LINE
 8
Layer0
10
-12.39520000108
20
-41.9100000065609
30
4.77519961454465
11
-12.39520000108
21
-47.6039949460391
31
4.77519965166397
  0
LINE
 8
Layer0
10
-9.85520000092704
20
-41.9100000067676
30
4.77519961479112
11
-12.39520000108
21
-41.9100000065609
31
4.77519961454465
  0
LINE
 8
Layer0
10
-9.85520000092704
20
-41.9100000067676
30
4.77519961479112
11
-9.77779093477169
21
-41.5166361431282
31
4.77519961222677
  0
LINE
 8
Layer0
10
-9.77779093477169
20
-41.5166361431282
30
4.77519961222677
11
-9.71432408477534
21
-41.1207835800548
31
4.7751996096462
  0
LINE
 8
Layer0
10
-9.71432408477534
20
-41.1207835800548
30
4.7751996096462
11
-9.66487865415302
21
-40.7229363202541
31
4.77519960705263
  0
LINE
 8
Layer0
10
-9.66487865415302
20
-40.7229363202541
30
4.77519960705263
11
-9.62951634814263
21
-40.3235908557076
31
4.77519960444928
  0
LINE
 8
Layer0
10
-9.62951634814263
20
-40.3235908557076
30
4.77519960444928
11
-9.6082812970001
21
-39.9232455480752
31
4.77519960183941
  0
LINE
 8
Layer0
10
-9.6082812970001
20
-39.9232455480752
30
4.77519960183941
11
-9.60120000092705
21
-39.5224000067675
31
4.7751995992263
  0
LINE
 8
Layer0
10
-9.60120000092705
20
-39.5224000067675
30
4.7751995992263
11
-9.6082812970001
21
-39.1215544654599
31
4.77519959661317
  0
LINE
 8
Layer0
10
-9.6082812970001
20
-39.1215544654599
30
4.77519959661317
11
-9.62951634814263
21
-38.7212091578275
31
4.7751995940033
  0
LINE
 8
Layer0
10
-9.62951634814263
20
-38.7212091578275
30
4.7751995940033
11
-9.66487865415302
21
-38.3218636932809
31
4.77519959139996
  0
LINE
 8
Layer0
10
-9.66487865415302
20
-38.3218636932809
30
4.77519959139996
11
-9.71432408477534
21
-37.9240164334803
31
4.77519958880638
  0
LINE
 8
Layer0
10
-9.71432408477534
20
-37.9240164334803
30
4.77519958880638
11
-9.77779093477169
21
-37.5281638704068
31
4.77519958622581
  0
LINE
 8
Layer0
10
38.4320318894715
20
-1.4613544303723
30
4.77519993515875
11
38.7989445366642
21
-1.32562380913725
31
4.7751999349609
  0
LINE
 8
Layer0
10
37.3014483700976
20
-1.26811562608064
30
4.77519993516558
11
37.6568708337207
21
-1.43158600432371
31
4.7751999352647
  0
LINE
 8
Layer0
10
39.4256238146782
20
0.698944540538274
30
4.77519993285566
11
39.1995541212266
21
1.01822527267453
31
4.77519993258036
  0
LINE
 8
Layer0
10
-37.3014483700976
20
1.26811562608064
30
4.77519993516558
11
-37.6568708337207
21
1.43158600432371
31
4.7751999352647
  0
LINE
 8
Layer0
10
-37.0004458804403
20
1.01822526325952
30
4.77519993497177
11
-37.3014483700976
21
1.26811562608064
31
4.77519993516558
  0
LINE
 8
Layer0
10
-36.7743761869887
20
0.69894453112326
30
4.77519993469647
11
-37.0004458804403
21
1.01822526325952
31
4.77519993497177
  0
LINE
 8
Layer0
10
-36.6386455657536
20
0.332031883930595
30
4.77519993435845
11
-36.7743761869887
21
0.69894453112326
31
4.77519993469647
  0
LINE
 8
Layer0
10
-38.15750818389
20
-1.49749617127406
30
4.77519993228976
11
-37.7679681121953
21
-1.46135443978731
31
4.77519993239338
  0
LINE
 8
Layer0
10
36.6386455657536
20
-0.332031883930591
30
4.77519993435845
11
36.7743761869887
21
-0.698944531123256
31
4.77519993469647
  0
LINE
 8
Layer0
10
39.5613544359132
20
0.332031893345608
30
4.77519993319368
11
39.4256238146782
21
0.698944540538274
31
4.77519993285566
  0
LINE
 8
Layer0
10
38.0424918177768
20
-1.49749616185905
30
4.77519993526237
11
38.4320318894715
21
-1.4613544303723
31
4.77519993515875
  0
LINE
 8
Layer0
10
38.7989445366642
20
-1.32562380913725
30
4.7751999349609
11
39.1182252688005
21
-1.09955411568561
31
4.77519993468231
  0
LINE
 8
Layer0
10
39.1182252688005
20
-1.09955411568561
30
4.77519993468231
11
39.3681156316216
21
-0.798551626028281
31
4.77519993434196
  0
LINE
 8
Layer0
10
39.1995541212266
20
1.01822527267453
30
4.77519993258036
11
38.8985516315692
21
1.26811563549565
31
4.77519993238655
  0
LINE
 8
Layer0
10
37.4010554650027
20
1.32562381855226
30
4.77519993259123
11
37.0817747328664
21
1.09955412510063
31
4.77519993286982
  0
LINE
 8
Layer0
10
37.7679681121953
20
1.46135443978731
30
4.77519993239338
11
37.4010554650027
21
1.32562381855226
31
4.77519993259123
  0
LINE
 8
Layer0
10
38.8985516315692
20
1.26811563549565
30
4.77519993238655
11
38.5431291679462
21
1.43158601373873
31
4.77519993228743
  0
LINE
 8
Layer0
10
39.3681156316216
20
-0.798551626028281
30
4.77519993434196
11
39.5315860098646
21
-0.443129162405273
31
4.77519993396305
  0
LINE
 8
Layer0
10
39.5974961674
20
-0.0575081783491034
30
4.77519993357139
11
39.5613544359132
21
0.332031893345608
31
4.77519993319368
  0
LINE
 8
Layer0
10
39.5315860098646
20
-0.443129162405273
30
4.77519993396305
11
39.5974961674
21
-0.0575081783491034
31
4.77519993357139
  0
LINE
 8
Layer0
10
37.0004458804403
20
-1.01822526325951
30
4.77519993497177
11
37.3014483700976
21
-1.26811562608064
31
4.77519993516558
  0
LINE
 8
Layer0
10
38.15750818389
20
1.49749617127406
30
4.77519993228976
11
37.7679681121953
21
1.46135443978731
31
4.77519993239338
  0
LINE
 8
Layer0
10
36.6025038342669
20
0.0575081877641217
30
4.77519993398074
11
36.6386455657536
21
-0.332031883930591
31
4.77519993435845
  0
LINE
 8
Layer0
10
36.7743761869887
20
-0.698944531123256
30
4.77519993469647
11
37.0004458804403
21
-1.01822526325951
31
4.77519993497177
  0
LINE
 8
Layer0
10
-38.8985516315692
20
-1.26811563549565
30
4.77519993238655
11
-38.5431291679462
21
-1.43158601373872
31
4.77519993228743
  0
LINE
 8
Layer0
10
37.6568708337207
20
-1.43158600432371
30
4.7751999352647
11
38.0424918177768
21
-1.49749616185905
31
4.77519993526237
  0
LINE
 8
Layer0
10
38.5431291679462
20
1.43158601373873
30
4.77519993228743
11
38.15750818389
21
1.49749617127406
31
4.77519993228976
 0
ENDSEC
 0
EOF
